<svg width="36" height="36" viewBox="0 0 36 36" fill="none" xmlns="http://www.w3.org/2000/svg">
<g clip-path="url(#clip0)">
<path d="M33.0934 30.6562C32.3819 30.236 31.564 30.1852 30.8397 30.4271L26.095 27.6227C26.1581 27.0586 26.5157 26.5516 27.0911 26.3256C27.9562 25.9798 28.1339 25.1491 27.4902 24.4777C26.847 23.8037 26.8989 22.7609 27.6043 22.1542C28.307 21.5454 28.2115 20.7024 27.3793 20.2791C26.5537 19.8527 26.2604 18.8499 26.7325 18.0444C27.2046 17.243 26.8332 16.4745 25.9157 16.343C24.9946 16.2084 24.3909 15.3515 24.5764 14.4396C24.7629 13.5273 24.1649 12.9216 23.25 13.0942C22.3335 13.2668 21.49 12.6498 21.3656 11.7297C21.2465 10.8056 20.4831 10.428 19.6745 10.8878C18.8674 11.346 17.8657 11.0414 17.4521 10.2081C17.0396 9.37331 16.1945 9.26131 15.5791 9.96306C14.9611 10.6591 13.9152 10.6956 13.254 10.0391C12.5918 9.38769 11.756 9.55516 11.4015 10.4156C11.0476 11.2756 10.0684 11.6501 9.23053 11.2494C8.3906 10.8451 7.65598 11.2746 7.59998 12.2034C7.54399 13.1322 6.74001 13.8026 5.81326 13.6927C4.89062 13.5858 4.33683 14.23 4.58496 15.1244C4.83103 16.0234 4.28905 16.9199 3.37925 17.1151C2.471 17.3123 2.15557 18.1009 2.67957 18.871C3.20613 19.641 2.9842 20.6603 2.18639 21.1447C1.39013 21.6266 1.34954 22.4768 2.09701 23.0336C2.84498 23.589 2.96571 24.6282 2.36722 25.3408C1.77182 26.0548 2.00916 26.8732 2.89636 27.1557C3.78047 27.4383 4.23511 28.383 3.90068 29.2512C3.56933 30.125 4.05891 30.8201 4.98925 30.798C5.92114 30.7795 6.65576 31.5234 6.6234 32.4553C6.59001 33.3836 7.27942 33.8824 8.15223 33.5613C9.02813 33.2413 9.96464 33.7113 10.2354 34.5985C10.5076 35.4878 11.3203 35.7374 12.0416 35.1477C12.7644 34.5621 13.8032 34.7002 14.3477 35.4539C14.8917 36.2065 15.7445 36.1782 16.2361 35.3897C16.7293 34.5996 17.7552 34.3915 18.5176 34.9268C19.2769 35.46 20.0706 35.1564 20.2822 34.2523C20.4918 33.3461 21.3954 32.819 22.2862 33.0779C23.1801 33.3384 23.8341 32.7933 23.739 31.8676C23.6887 31.3919 23.8459 30.9516 24.1341 30.6305L29.0139 33.513C29.1542 34.2651 29.596 34.9576 30.3054 35.3773C31.6056 36.1484 33.2891 35.7169 34.0602 34.4115C34.8251 33.1087 34.3962 31.4289 33.0934 30.6562ZM22.0314 25.2216L18.5022 23.1349C18.476 21.999 17.8893 20.9033 16.8403 20.2837C15.6921 19.6041 14.3143 19.6893 13.2632 20.369L15.2133 21.5223C15.9043 21.9302 16.1216 22.8415 15.6952 23.5576C15.2719 24.2758 14.3703 24.527 13.6778 24.1191L11.7282 22.9658C11.6383 24.2106 12.2286 25.4605 13.3793 26.1406C14.4268 26.7617 15.669 26.7453 16.6779 26.2213L20.0834 28.2346C19.1644 29.1099 18.0182 29.7767 16.7031 30.1132C12.6041 31.1689 8.41423 28.6897 7.3611 24.5928C6.30746 20.4938 8.78514 16.3029 12.8841 15.2508C16.9831 14.1987 21.1735 16.6748 22.2272 20.7743C22.6191 22.3001 22.521 23.8361 22.0314 25.2216ZM23.7385 26.228L23.026 25.8062C23.6527 24.1623 23.8017 22.3216 23.3306 20.4897C22.1224 15.783 17.3067 12.937 12.5995 14.1442C7.89126 15.3535 5.04474 20.1697 6.25403 24.8769C7.46487 29.5831 12.2779 32.4291 16.9851 31.2203C18.609 30.8011 20.0027 29.9499 21.0929 28.831L21.8157 29.2563C20.6064 30.5514 19.0313 31.5332 17.1886 32.0068C12.0385 33.3322 6.78985 30.2304 5.46599 25.0793C4.14162 19.9272 7.24552 14.679 12.3956 13.3567C17.5456 12.0328 22.7964 15.1337 24.1182 20.2868C24.6478 22.3386 24.4639 24.3996 23.7385 26.228ZM32.9398 33.7509L31.6801 34.4588L30.439 33.7262L30.4544 32.2822L31.7125 31.5748L32.9547 32.3058L32.9398 33.7509ZM21.136 7.97599L21.7746 8.37772C22.3068 8.71215 22.7589 9.49968 22.7815 10.1274L22.8097 10.8821C22.8318 11.5099 23.3522 11.9095 23.9635 11.7703L24.7012 11.6023C25.3126 11.4631 26.1905 11.6994 26.6498 12.1268L27.2041 12.6416C27.6623 13.069 28.3127 12.9842 28.6481 12.4531L29.0499 11.813C29.3823 11.2813 30.1713 10.8292 30.7991 10.8066L31.5543 10.7788C32.18 10.7562 32.5791 10.2369 32.4425 9.62452L32.2714 8.88733C32.1322 8.27497 32.3685 7.39805 32.7975 6.93878L33.3122 6.38397C33.7396 5.9247 33.6554 5.27536 33.1237 4.93938L32.4836 4.53765C31.9539 4.20271 31.5019 3.41569 31.4772 2.78792L31.451 2.03275C31.4263 1.4055 30.9085 1.00531 30.2972 1.14504L29.5585 1.31149C28.9471 1.45071 28.0692 1.21491 27.6099 0.787494L27.0561 0.272232C26.5963 -0.154669 25.9475 -0.0709329 25.6115 0.460254L25.2093 1.10035C24.8744 1.63205 24.0868 2.08412 23.4601 2.10673L22.7054 2.13447C22.0771 2.15707 21.6775 2.67696 21.8172 3.28931L21.9836 4.02599C22.1229 4.63783 21.8886 5.51526 21.4597 5.97453L20.9449 6.52884C20.5206 6.99221 20.6048 7.64258 21.136 7.97599ZM27.1301 3.36072C28.8434 3.36072 30.2284 4.74828 30.2284 6.45897C30.2284 8.17069 28.8434 9.55722 27.1301 9.55722C25.4194 9.55722 24.0319 8.17017 24.0319 6.45897C24.0313 4.74931 25.4199 3.36072 27.1301 3.36072Z" fill="white"/>
</g>
<defs>
<clipPath id="clip0">
<rect width="36" height="36" fill="white"/>
</clipPath>
</defs>
</svg>
