<svg width="36" height="36" viewBox="0 0 36 36" fill="none" xmlns="http://www.w3.org/2000/svg">
<g clip-path="url(#clip0)">
<path d="M9.42838 13.0404C9.64648 12.8778 9.63434 12.6294 9.40129 12.4897C9.16965 12.3487 9.10566 12.0507 9.25791 11.8275C9.41063 11.6029 9.3191 11.3735 9.05382 11.3161C8.78902 11.2559 8.63116 10.9967 8.70168 10.7342C8.77361 10.4768 8.61341 10.2872 8.34487 10.3167C8.07446 10.3479 7.84095 10.1551 7.82367 9.88232C7.80592 9.61191 7.59342 9.48862 7.34777 9.60771C7.10491 9.72213 6.81862 9.61425 6.71494 9.36205C6.61173 9.11219 6.36794 9.06222 6.17552 9.25277C5.98217 9.44285 5.67674 9.43164 5.49693 9.22988C5.31806 9.02486 5.07147 9.05708 4.95051 9.29947C4.83095 9.54373 4.54045 9.63106 4.30227 9.49796C4.06782 9.36392 3.84505 9.47507 3.80955 9.74595C3.77453 10.0145 3.527 10.1915 3.26033 10.1397C2.99365 10.0916 2.81852 10.2672 2.8741 10.5338C2.93014 10.7996 2.75313 11.0494 2.48366 11.0868C2.21512 11.127 2.10863 11.3493 2.24501 11.5842C2.38325 11.8196 2.29825 12.1101 2.05726 12.2352C1.81581 12.359 1.78779 12.6051 1.99281 12.7826C2.19784 12.9591 2.21278 13.2617 2.02644 13.4579C1.83682 13.6554 1.88913 13.8964 2.14086 13.9968C2.31039 14.0646 2.41267 14.2103 2.43229 14.3751L1.04895 15.1924C0.837382 15.1252 0.598263 15.1383 0.392303 15.2606C0.0121414 15.4829 -0.113022 15.9747 0.110685 16.3549C0.336727 16.7341 0.826173 16.8597 1.20493 16.6351C1.41089 16.5155 1.54119 16.3114 1.58043 16.0919L3.00253 15.2508C3.08753 15.3447 3.1333 15.4727 3.11788 15.6128C3.08986 15.8813 3.28041 16.0415 3.54148 15.9635C3.80208 15.8874 4.06409 16.0424 4.1262 16.3054C4.18785 16.5678 4.41809 16.6575 4.64087 16.5025C4.86224 16.3446 5.16207 16.4086 5.30498 16.6379C5.44929 16.8667 5.69822 16.8751 5.85748 16.6584C6.01673 16.4389 6.31843 16.4002 6.52813 16.5688C6.73736 16.7388 6.97554 16.6697 7.05401 16.4077C7.13387 16.1503 7.40661 16.0163 7.66301 16.1074C7.91708 16.2012 8.1179 16.0546 8.10809 15.7832C8.09922 15.5133 8.31312 15.2961 8.58493 15.3022C8.85534 15.3092 8.99825 15.106 8.90251 14.8543C8.80396 14.5998 8.93707 14.3238 9.19487 14.2416C9.4522 14.1584 9.52225 13.9193 9.34852 13.711C9.17525 13.5041 9.20888 13.2043 9.42838 13.0404ZM0.803756 16.3698L0.436204 16.1629L0.432935 15.7421L0.793948 15.5287L1.1615 15.7347L1.16477 16.1569L0.803756 16.3698ZM3.55969 12.3837C3.8684 11.1872 5.08781 10.4638 6.28341 10.7715C7.47853 11.0765 8.20056 12.2978 7.89372 13.4925C7.58642 14.6881 6.3656 15.4101 5.16954 15.1051C4.78705 15.0042 4.45312 14.8118 4.18598 14.5559L5.17795 13.9716C5.47264 14.1229 5.83459 14.13 6.14096 13.9464C6.47489 13.7479 6.64629 13.3832 6.62107 13.0194L6.0527 13.3589C5.85047 13.4756 5.588 13.4037 5.46471 13.1973C5.34141 12.9862 5.40399 12.7195 5.60575 12.6014L6.17412 12.2646C5.86869 12.0671 5.46471 12.0419 5.13031 12.239C4.82581 12.4239 4.65581 12.741 4.64647 13.0717L3.61667 13.6807C3.47423 13.2739 3.44481 12.8241 3.55969 12.3837ZM8.44482 13.6363C8.05858 15.1373 6.5286 16.0406 5.02803 15.659C4.49048 15.5184 4.03093 15.2321 3.67879 14.8576L3.88942 14.7329C4.20793 15.0593 4.61378 15.3059 5.08735 15.4302C6.45854 15.78 7.8615 14.9524 8.21457 13.5831C8.56718 12.2063 7.7368 10.807 6.36467 10.4544C4.99347 10.1018 3.58958 10.9313 3.23698 12.3025C3.1006 12.8349 3.14404 13.3715 3.32758 13.8521L3.11975 13.9721C2.90819 13.442 2.85401 12.8405 3.0086 12.2418C3.3939 10.7393 4.92342 9.83609 6.42445 10.2214C7.92548 10.6067 8.83198 12.1329 8.44482 13.6363ZM0.477302 8.34953C0.6034 8.4817 0.672054 8.7367 0.630488 8.91791L0.583785 9.13087C0.542219 9.31068 0.658977 9.46013 0.842052 9.469L1.06249 9.47741C1.24463 9.48395 1.47488 9.61612 1.57155 9.77304L1.68924 9.95751C1.78592 10.1135 1.97647 10.1387 2.10957 10.0117L2.26976 9.86037C2.40426 9.74035 2.65926 9.66982 2.83813 9.70719L3.0539 9.75856C3.23184 9.79872 3.38362 9.68103 3.39016 9.50123L3.39904 9.27985C3.40464 9.09631 3.53774 8.86747 3.69186 8.76939L3.87867 8.65357C4.03233 8.55409 4.05661 8.36541 3.93285 8.23137L3.78293 8.07258C3.6587 7.93855 3.59005 7.68355 3.63068 7.50421L3.67972 7.28984C3.72035 7.11284 3.60453 6.96012 3.41959 6.95498L3.19961 6.94471C3.01841 6.93677 2.78863 6.8074 2.69102 6.64908L2.57333 6.46227C2.47525 6.30862 2.28657 6.2834 2.15347 6.40903L1.99094 6.55988C1.85644 6.68177 1.60097 6.75183 1.42257 6.71306L1.20867 6.66216C1.03073 6.62433 0.87848 6.73828 0.871475 6.92042L0.864936 7.14226C0.857464 7.32347 0.725295 7.55231 0.571642 7.65319L0.385298 7.76761C0.22931 7.86569 0.206426 8.05297 0.329254 8.18841L0.477302 8.34953ZM2.13059 7.30339C2.62937 7.30339 3.03242 7.7083 3.03242 8.20709C3.03242 8.70774 2.62937 9.11032 2.13059 9.11032C1.63086 9.11032 1.22735 8.70774 1.22735 8.20709C1.22688 7.7083 1.6318 7.30339 2.13059 7.30339ZM33.0661 16.0803C32.5346 12.1395 30.3625 9.26771 27.6836 9.26771H15.1808C12.5024 9.26771 10.3297 12.1395 9.79733 16.0793C7.86523 17.0564 6.86392 19.0828 6.86392 21.4324C6.86392 23.2351 7.45752 24.852 8.60594 25.9477V29.6722H13.2412V27.4071H29.6222V29.6722H34.2575V25.9463C35.4069 24.8501 36 23.237 36 21.4324C35.9995 19.0842 34.9978 17.0568 33.0661 16.0803ZM15.1808 10.659H27.6845C29.4476 10.659 30.9902 12.7471 31.5637 15.5745C31.276 15.5189 30.972 15.4909 30.6572 15.4745C30.6572 15.468 30.6591 15.4624 30.6591 15.4558C30.6591 13.8152 29.3248 12.4799 27.6841 12.4799C26.0443 12.4799 24.7096 13.8152 24.7096 15.4558H12.5902C12.1329 15.4558 11.7023 15.4974 11.2984 15.5717C11.8728 12.748 13.4168 10.659 15.1808 10.659ZM29.732 15.4568H25.639C25.639 14.3284 26.5585 13.4079 27.6855 13.4079C28.8138 13.4079 29.732 14.3284 29.732 15.4568ZM11.8985 23.3743C10.8281 23.3743 9.95752 22.5061 9.95752 21.4334C9.95752 20.3606 10.8281 19.4914 11.8985 19.4914C12.9717 19.4914 13.8409 20.3606 13.8409 21.4334C13.8409 22.5061 12.9717 23.3743 11.8985 23.3743ZM27.0695 23.0259H15.7935C15.5385 23.0259 15.3302 22.8204 15.3302 22.5636C15.3302 22.3076 15.5376 22.0979 15.7935 22.0979H27.0704C27.3263 22.0979 27.5351 22.3058 27.5351 22.5636C27.5351 22.8204 27.3263 23.0259 27.0695 23.0259ZM27.0695 21.3278H15.7935C15.5385 21.3278 15.3302 21.1223 15.3302 20.8631C15.3302 20.6109 15.5376 20.4007 15.7935 20.4007H27.0704C27.3263 20.4007 27.5351 20.6072 27.5351 20.8631C27.5351 21.12 27.3263 21.3278 27.0695 21.3278ZM30.9654 23.3743C29.8936 23.3743 29.0235 22.5061 29.0235 21.4334C29.0235 20.3606 29.8936 19.4914 30.9654 19.4914C32.0363 19.4914 32.9064 20.3606 32.9064 21.4334C32.9064 22.5061 32.0373 23.3743 30.9654 23.3743Z" fill="white"/>
</g>
<defs>
<clipPath id="clip0">
<rect width="36" height="36" fill="white"/>
</clipPath>
</defs>
</svg>
