<svg width="36" height="36" viewBox="0 0 36 36" fill="none" xmlns="http://www.w3.org/2000/svg">
<path d="M33.2631 16.6422C32.7627 12.8731 30.6838 10.1246 28.1215 10.1246H16.2701C13.7063 10.1246 11.6285 12.8735 11.1265 16.6407C9.32347 17.5749 8.39004 19.4824 8.39004 21.6909C8.39004 23.3313 8.90759 24.8042 9.9092 25.8361V29.4996H14.5656V27.3549H29.8233V29.5004H34.48V25.8377C35.4824 24.8042 36 23.3321 36 21.6921C35.9992 19.484 35.0658 17.5753 33.2631 16.6422ZM16.2701 11.5226H28.1207C29.7707 11.5226 31.2133 13.4811 31.7531 16.1347C31.5003 16.09 31.2356 16.0637 30.9613 16.0477C30.9613 16.0422 30.9633 16.0362 30.9633 16.0302C30.9633 14.4604 29.6881 13.1845 28.1199 13.1845C26.5509 13.1845 25.2738 14.4616 25.2738 16.0302H13.8155C13.3977 16.0302 13.0045 16.0685 12.6329 16.1339C13.176 13.4803 14.6206 11.5226 16.2701 11.5226ZM30.0326 16.0302H26.2088C26.2088 14.9752 27.0657 14.1159 28.1219 14.1159C29.1766 14.1155 30.0326 14.9752 30.0326 16.0302ZM13.1592 23.5307C12.1421 23.5307 11.3179 22.7093 11.3179 21.6909C11.3179 20.6738 12.1417 19.8492 13.1592 19.8492C14.1752 19.8492 15.0002 20.6718 15.0002 21.6909C15.0006 22.7101 14.1756 23.5307 13.1592 23.5307ZM27.5386 23.2316H16.8503C16.5943 23.2316 16.3846 23.0223 16.3846 22.7659C16.3846 22.5091 16.5943 22.3002 16.8503 22.3002H27.5386C27.7954 22.3002 28.0043 22.5091 28.0043 22.7659C28.0043 23.0231 27.795 23.2316 27.5386 23.2316ZM27.5386 21.6208H16.8503C16.5943 21.6208 16.3846 21.4106 16.3846 21.1551C16.3846 20.8975 16.5943 20.6893 16.8503 20.6893H27.5386C27.7954 20.6893 28.0043 20.8975 28.0043 21.1551C28.0043 21.4102 27.795 21.6208 27.5386 21.6208ZM31.2276 23.5307C30.2109 23.5307 29.3871 22.7093 29.3871 21.6909C29.3871 20.6738 30.2109 19.8492 31.2276 19.8492C32.2448 19.8492 33.0666 20.6718 33.0666 21.6909C33.0666 22.7101 32.2448 23.5307 31.2276 23.5307Z" fill="white"/>
<path d="M5.15237 6.49976L0 11.7382L5.11768 16.7399L10.1584 16.3627L10.2653 11.5034L5.15237 6.49976ZM8.03797 14.8132L7.46061 14.2526C7.13285 14.5788 6.69664 14.8216 6.35773 14.883L6.10812 14.3738C6.44425 14.3021 6.84218 14.1083 7.15319 13.7889C7.54713 13.3818 7.57863 12.881 7.25207 12.5644C6.93708 12.2598 6.52679 12.2941 5.94464 12.5501C5.14918 12.9117 4.53633 13.0166 4.04032 12.5341C3.56344 12.0728 3.53074 11.3866 3.95618 10.7757L3.37723 10.2151L3.72093 9.85984L4.27716 10.3985C4.62047 10.0668 4.93945 9.92005 5.19623 9.84907L5.43547 10.3575C5.25205 10.4117 4.89918 10.5245 4.54471 10.8894C4.11568 11.3304 4.21775 11.7526 4.44782 11.9731C4.74407 12.2618 5.09854 12.1952 5.78715 11.8957C6.59816 11.5401 7.18429 11.5321 7.69466 12.0265C8.14523 12.4655 8.26445 13.1896 7.79155 13.8722L8.38686 14.4488L8.03797 14.8132Z" fill="white"/>
</svg>
