<svg width="71" height="71" viewBox="0 0 71 71" fill="none" xmlns="http://www.w3.org/2000/svg">
<path d="M35.5 0C15.9256 0 0 15.9256 0 35.5C0 55.0744 15.9256 71 35.5 71C55.0744 71 71 55.0744 71 35.5C71 15.9256 55.0744 0 35.5 0ZM35.5 66.5625C18.3718 66.5625 4.43752 52.6282 4.43752 35.5C4.43752 18.3718 18.3718 4.43752 35.5 4.43752C52.6282 4.43752 66.5625 18.3718 66.5625 35.5C66.5625 52.6282 52.6282 66.5625 35.5 66.5625Z" fill="black"/>
<path d="M37.7188 13.3126H33.2812V36.4187L47.2438 50.3812L50.3812 47.2438L37.7188 34.5813V13.3126Z" fill="black"/>
</svg>
