<svg width="73" height="72" viewBox="0 0 73 72" fill="none" xmlns="http://www.w3.org/2000/svg">
<g clip-path="url(#clip0)">
<path d="M61.4534 33.4582H52.7165V27.2388C52.8079 27.232 52.9151 27.2262 53.0405 27.2223C53.3566 27.2124 53.6656 27.2149 54.037 27.2179C54.2394 27.2195 54.4604 27.2213 54.7112 27.2213H59.206C60.5867 27.2213 61.706 26.102 61.706 24.7213V13.4843C61.706 12.1036 60.5867 10.9843 59.206 10.9843H50.2165C41.3864 10.9843 34.2321 18.1386 34.2321 26.9687V33.4582H27.7426C26.3619 33.4582 25.2426 34.5775 25.2426 35.9582V47.1951C25.2426 48.5759 26.3619 49.6951 27.7426 49.6951H34.2321V69.4164H9.76348C6.1855 69.4164 3.27393 66.5029 3.27393 62.9269V8.98955C3.27393 5.41103 6.18495 2.5 9.76348 2.5H63.7008C67.2769 2.5 70.1903 5.41157 70.1903 8.98955V62.9269C70.1903 66.5024 67.2763 69.4164 63.7008 69.4164H52.7165V49.6951H56.9586C57.9809 49.6951 58.9002 49.0728 59.2798 48.1236L63.7746 36.8867C64.0827 36.1165 63.9886 35.2436 63.5236 34.5566C63.0585 33.8697 62.283 33.4582 61.4534 33.4582ZM52.7285 26.784C52.7285 26.784 52.7283 26.7852 52.7278 26.7874C52.7282 26.7851 52.7285 26.784 52.7285 26.784Z" stroke="white" stroke-width="5" stroke-linejoin="round"/>
</g>
<defs>
<clipPath id="clip0">
<rect width="71.9164" height="71.9164" fill="white" transform="translate(0.773926)"/>
</clipPath>
</defs>
</svg>
