<svg width="73" height="73" viewBox="0 0 73 73" fill="none" xmlns="http://www.w3.org/2000/svg">
<g clip-path="url(#clip0)">
<path d="M61.4534 33.6394H52.7165V27.4199C52.8079 27.4131 52.9151 27.4074 53.0405 27.4034C53.3566 27.3935 53.6656 27.396 54.037 27.399C54.2394 27.4006 54.4604 27.4024 54.7112 27.4024H59.206C60.5867 27.4024 61.706 26.2831 61.706 24.9024V13.6655C61.706 12.2848 60.5867 11.1655 59.206 11.1655H50.2165C41.3864 11.1655 34.2321 18.3198 34.2321 27.1498V33.6394H27.7426C26.3619 33.6394 25.2426 34.7587 25.2426 36.1394V47.3763C25.2426 48.757 26.3619 49.8763 27.7426 49.8763H34.2321V69.5976H9.76348C6.1855 69.5976 3.27393 66.6841 3.27393 63.108V9.1707C3.27393 5.59218 6.18495 2.68115 9.76348 2.68115H63.7008C67.2769 2.68115 70.1903 5.59272 70.1903 9.1707V63.108C70.1903 66.6835 67.2763 69.5976 63.7008 69.5976H52.7165V49.8763H56.9586C57.9809 49.8763 58.9002 49.2539 59.2798 48.3048L63.7746 37.0678C64.0827 36.2976 63.9886 35.4247 63.5236 34.7378C63.0585 34.0509 62.283 33.6394 61.4534 33.6394ZM52.7285 26.9651C52.7285 26.9652 52.7283 26.9663 52.7278 26.9685C52.7282 26.9662 52.7285 26.9651 52.7285 26.9651Z" stroke="black" stroke-width="5" stroke-linejoin="round"/>
</g>
<defs>
<clipPath id="clip0">
<rect width="71.9164" height="71.9164" fill="white" transform="translate(0.773926 0.181152)"/>
</clipPath>
</defs>
</svg>
