<svg width="73" height="72" viewBox="0 0 73 72" fill="none" xmlns="http://www.w3.org/2000/svg">
<g clip-path="url(#clip0)">
<path d="M36.5893 17.4937C26.3921 17.4937 18.1367 25.758 18.1367 35.9462C18.1367 46.1434 26.4011 54.3988 36.5893 54.3988C46.7864 54.3988 55.0418 46.1344 55.0418 35.9462C55.0418 25.7491 46.7774 17.4937 36.5893 17.4937ZM36.5893 47.9233C29.97 47.9233 24.6122 42.5625 24.6122 35.9462C24.6122 29.3299 29.973 23.9691 36.5893 23.9691C43.2056 23.9691 48.5664 29.3299 48.5664 35.9462C48.5694 42.5625 43.2086 47.9233 36.5893 47.9233Z" fill="white"/>
<path d="M51.4041 0.227973C44.7878 -0.0806687 28.3998 -0.0656861 21.7775 0.227973C15.9583 0.500656 10.8252 1.90602 6.68704 6.04421C-0.228925 12.9602 0.655047 22.2794 0.655047 35.9465C0.655047 49.9342 -0.124047 59.0376 6.68704 65.8487C13.63 72.7887 23.084 71.8807 36.5893 71.8807C50.4452 71.8807 55.2276 71.8897 60.1269 69.9929C66.7882 67.4069 71.8163 61.4528 72.3078 50.7582C72.6194 44.1389 72.6014 27.754 72.3078 21.1317C71.7145 8.50735 64.9393 0.851248 51.4041 0.227973ZM61.8769 61.273C57.3432 65.8068 51.0535 65.4022 36.5024 65.4022C21.5198 65.4022 15.5118 65.624 11.1279 61.2281C6.07874 56.2029 6.99268 48.1333 6.99268 35.8985C6.99268 19.3428 5.29366 7.41962 21.9093 6.5686C25.7269 6.43376 26.8506 6.38881 36.4604 6.38881L36.5953 6.47871C52.5637 6.47871 65.0922 4.80665 65.8443 21.4193C66.0151 25.2099 66.054 26.3486 66.054 35.9435C66.051 50.7523 66.3327 56.7962 61.8769 61.273Z" fill="white"/>
<path d="M55.7732 21.0775C58.1546 21.0775 60.0852 19.1469 60.0852 16.7655C60.0852 14.384 58.1546 12.4535 55.7732 12.4535C53.3917 12.4535 51.4612 14.384 51.4612 16.7655C51.4612 19.1469 53.3917 21.0775 55.7732 21.0775Z" fill="white"/>
</g>
<defs>
<clipPath id="clip0">
<rect width="71.9164" height="71.9164" fill="white" transform="translate(0.619141)"/>
</clipPath>
</defs>
</svg>
