<svg width="73" height="73" viewBox="0 0 73 73" fill="none" xmlns="http://www.w3.org/2000/svg">
<g clip-path="url(#clip0)">
<path d="M36.5893 17.6748C26.3921 17.6748 18.1367 25.9392 18.1367 36.1274C18.1367 46.3245 26.4011 54.5799 36.5893 54.5799C46.7864 54.5799 55.0418 46.3155 55.0418 36.1274C55.0418 25.9302 46.7774 17.6748 36.5893 17.6748ZM36.5893 48.1044C29.97 48.1044 24.6122 42.7437 24.6122 36.1274C24.6122 29.511 29.973 24.1503 36.5893 24.1503C43.2056 24.1503 48.5664 29.511 48.5664 36.1274C48.5694 42.7437 43.2086 48.1044 36.5893 48.1044Z" fill="#1973E7"/>
<path d="M51.4041 0.409125C44.7878 0.100484 28.3998 0.115466 21.7775 0.409125C15.9583 0.681808 10.8252 2.08717 6.68704 6.22537C-0.228925 13.1413 0.655047 22.4605 0.655047 36.1276C0.655047 50.1154 -0.124047 59.2188 6.68704 66.0299C13.63 72.9698 23.084 72.0619 36.5893 72.0619C50.4452 72.0619 55.2276 72.0708 60.1269 70.174C66.7882 67.5881 71.8163 61.634 72.3078 50.9394C72.6194 44.3201 72.6014 27.9351 72.3078 21.3128C71.7145 8.68851 64.9393 1.0324 51.4041 0.409125ZM61.8769 61.4542C57.3432 65.9879 51.0535 65.5834 36.5024 65.5834C21.5198 65.5834 15.5118 65.8051 11.1279 61.4092C6.07874 56.3841 6.99268 48.3145 6.99268 36.0797C6.99268 19.5239 5.29366 7.60077 21.9093 6.74976C25.7269 6.61491 26.8506 6.56997 36.4604 6.56997L36.5953 6.65986C52.5637 6.65986 65.0922 4.9878 65.8443 21.6005C66.0151 25.3911 66.054 26.5298 66.054 36.1246C66.051 50.9334 66.3327 56.9774 61.8769 61.4542Z" fill="#1973E7"/>
<path d="M55.7732 21.2586C58.1546 21.2586 60.0852 19.3281 60.0852 16.9466C60.0852 14.5652 58.1546 12.6346 55.7732 12.6346C53.3917 12.6346 51.4612 14.5652 51.4612 16.9466C51.4612 19.3281 53.3917 21.2586 55.7732 21.2586Z" fill="#1973E7"/>
</g>
<defs>
<clipPath id="clip0">
<rect width="71.9164" height="71.9164" fill="white" transform="translate(0.619141 0.181152)"/>
</clipPath>
</defs>
</svg>
