<svg width="71" height="71" viewBox="0 0 71 71" fill="none" xmlns="http://www.w3.org/2000/svg">
<path d="M35.5 0C21.7365 0 10.5391 11.1975 10.5391 24.9609C10.5391 29.6112 11.8272 34.1493 14.265 38.0865L34.0792 70.0167C34.4587 70.6284 35.1274 71 35.8465 71C35.8521 71 35.8575 71 35.863 71C36.5884 70.9943 37.2585 70.6112 37.6311 69.9888L56.9402 37.7493C59.2435 33.8953 60.4609 29.4732 60.4609 24.9609C60.4609 11.1975 49.2635 0 35.5 0ZM53.3701 35.6134L35.8151 64.9242L17.8009 35.8947C15.7717 32.6176 14.6715 28.8368 14.6715 24.9609C14.6715 13.4914 24.0304 4.13242 35.5 4.13242C46.9696 4.13242 56.3146 13.4914 56.3146 24.9609C56.3146 28.7219 55.287 32.406 53.3701 35.6134Z" fill="white"/>
<path d="M35.5 12.4805C28.6183 12.4805 23.0195 18.0792 23.0195 24.9609C23.0195 31.7987 28.5272 37.4414 35.5 37.4414C42.5588 37.4414 47.9805 31.7235 47.9805 24.9609C47.9805 18.0792 42.3817 12.4805 35.5 12.4805ZM35.5 33.309C30.8882 33.309 27.152 29.5603 27.152 24.9609C27.152 20.3731 30.9122 16.6129 35.5 16.6129C40.0878 16.6129 43.8342 20.3731 43.8342 24.9609C43.8342 29.4932 40.1849 33.309 35.5 33.309Z" fill="white"/>
</svg>
