<svg width="72" height="72" viewBox="0 0 72 72" fill="none" xmlns="http://www.w3.org/2000/svg">
<path d="M65.3993 50.0594L53.0527 41.8251C51.4859 40.7885 49.3856 41.1296 48.2273 42.6088L44.6308 47.2333C44.1686 47.8427 43.3285 48.0195 42.6598 47.6481L41.9757 47.2709C39.7078 46.0347 36.8861 44.4956 31.2007 38.8078C25.5153 33.12 23.9732 30.2959 22.7371 28.032L22.362 27.3479C21.9854 26.6793 22.1589 25.8355 22.7685 25.3696L27.3896 21.7739C28.8681 20.6154 29.2096 18.5156 28.1743 16.9482L19.9406 4.60066C18.8795 3.00453 16.7508 2.52539 15.1082 3.51287L9.94532 6.61445C8.3231 7.56822 7.13294 9.11288 6.6244 10.9247C4.76525 17.6993 6.16387 29.3911 23.3857 46.6162C37.0853 60.3157 47.2841 63.9998 54.294 63.9998C55.9073 64.0067 57.5142 63.7968 59.0716 63.3757C60.8837 62.8677 62.4285 61.6774 63.3816 60.0546L66.4861 54.8944C67.4749 53.2513 66.9961 51.1211 65.3993 50.0594ZM64.7345 53.8513L61.6372 59.0145C60.9528 60.1858 59.8418 61.047 58.5368 61.4178C52.2832 63.1348 41.3577 61.7126 24.824 45.1778C8.29034 28.6429 6.86837 17.7176 8.58529 11.4626C8.95648 10.156 9.81869 9.04343 10.9913 8.35794L16.1542 5.26041C16.867 4.83153 17.7909 5.03942 18.2513 5.73205L22.724 12.4476L26.478 18.0785C26.9276 18.7584 26.7799 19.6696 26.1385 20.1727L21.5164 23.7683C20.1098 24.8439 19.7082 26.7902 20.5742 28.3349L20.9412 29.0018C22.2404 31.3846 23.8555 34.349 29.7524 40.2453C35.6492 46.1414 38.6124 47.7569 40.994 49.056L41.6618 49.424C43.2062 50.2899 45.1525 49.8884 46.228 48.4816L49.8234 43.8592C50.3266 43.2182 51.2374 43.0706 51.9175 43.5197L64.263 51.7541C64.9561 52.2142 65.1639 53.1386 64.7345 53.8513Z" fill="black" stroke="black" stroke-width="2"/>
<path d="M40.7526 11.9929C51.9998 12.0054 61.1144 21.12 61.127 32.3673C61.127 33.0292 61.6635 33.5657 62.3254 33.5657C62.9874 33.5657 63.5239 33.0292 63.5239 32.3673C63.51 19.7967 53.3231 9.60977 40.7526 9.59601C40.0907 9.59601 39.5542 10.1325 39.5542 10.7945C39.5542 11.4564 40.0907 11.9929 40.7526 11.9929Z" fill="black"/>
<path d="M40.7526 19.1838C48.0301 19.1924 53.9275 25.0898 53.9361 32.3672C53.9361 33.0292 54.4727 33.5657 55.1345 33.5657C55.7964 33.5657 56.3329 33.0292 56.3329 32.3672C56.323 23.7665 49.3532 16.7968 40.7526 16.7869C40.0907 16.7869 39.5542 17.3234 39.5542 17.9854C39.5542 18.6473 40.0907 19.1838 40.7526 19.1838Z" fill="black"/>
<path d="M40.7526 26.3748C44.0605 26.3787 46.7411 29.0593 46.7451 32.3673C46.7451 33.0292 47.2818 33.5657 47.9436 33.5657C48.6054 33.5657 49.142 33.0292 49.142 32.3673C49.1367 27.7362 45.3838 23.9831 40.7526 23.9779C40.0907 23.9779 39.5542 24.5144 39.5542 25.1763C39.5542 25.8383 40.0907 26.3748 40.7526 26.3748Z" fill="black"/>
</svg>
