<svg width="20" height="20" viewBox="0 0 20 20" fill="none" xmlns="http://www.w3.org/2000/svg">
<path d="M18.1867 13.9209L14.7532 11.631C14.3175 11.3428 13.7335 11.4376 13.4114 11.849L12.4112 13.135C12.2827 13.3045 12.0491 13.3536 11.8631 13.2503L11.6729 13.1454C11.0422 12.8017 10.2575 12.3737 8.67648 10.792C7.09545 9.21027 6.66662 8.42491 6.32287 7.79536L6.21855 7.6051C6.11384 7.41919 6.16207 7.18453 6.33161 7.05497L7.61666 6.05507C8.02783 5.73289 8.1228 5.14896 7.8349 4.71309L5.54519 1.27941C5.25013 0.83555 4.65816 0.702306 4.20138 0.976911L2.76564 1.83942C2.31453 2.10465 1.98356 2.5342 1.84214 3.03806C1.32514 4.92196 1.71407 8.1733 6.50324 12.9634C10.3129 16.773 13.1491 17.7975 15.0984 17.7975C15.5471 17.7995 15.9939 17.7411 16.427 17.624C16.9309 17.4827 17.3605 17.1517 17.6256 16.7004L18.4889 15.2654C18.7639 14.8085 18.6307 14.2161 18.1867 13.9209ZM18.0018 14.9754L17.1405 16.4112C16.9502 16.7369 16.6412 16.9764 16.2783 17.0795C14.5392 17.557 11.501 17.1615 6.90321 12.5634C2.30542 7.96525 1.90998 4.92707 2.38744 3.18763C2.49066 2.82428 2.73043 2.51489 3.05653 2.32426L4.49226 1.46288C4.69046 1.34361 4.94739 1.40142 5.07542 1.59404L6.31922 3.46154L7.36317 5.02741C7.48819 5.21648 7.44712 5.46988 7.26876 5.60979L5.98342 6.60968C5.59226 6.9088 5.48056 7.45003 5.72139 7.87958L5.82345 8.06503C6.18473 8.72768 6.63389 9.55202 8.27372 11.1917C9.91355 12.8314 10.7376 13.2806 11.3999 13.6418L11.5856 13.7442C12.0151 13.985 12.5563 13.8733 12.8554 13.4821L13.8552 12.1967C13.9951 12.0184 14.2484 11.9774 14.4375 12.1023L17.8707 14.3922C18.0634 14.5201 18.1212 14.7772 18.0018 14.9754Z" fill="white" stroke="white"/>
<path d="M11.3327 3.33506C14.4604 3.33854 16.9951 5.8732 16.9986 9.0009C16.9986 9.18497 17.1478 9.33417 17.3318 9.33417C17.5159 9.33417 17.6651 9.18497 17.6651 9.0009C17.6612 5.50521 14.8284 2.67235 11.3327 2.66852C11.1487 2.66852 10.9995 2.81771 10.9995 3.00179C10.9995 3.18586 11.1487 3.33506 11.3327 3.33506Z" fill="white"/>
<path d="M11.3327 5.33482C13.3565 5.3372 14.9965 6.97719 14.9989 9.00095C14.9989 9.18503 15.1481 9.33422 15.3321 9.33422C15.5162 9.33422 15.6654 9.18503 15.6654 9.00095C15.6626 6.6092 13.7245 4.67101 11.3327 4.66827C11.1487 4.66827 10.9995 4.81747 10.9995 5.00154C10.9995 5.18562 11.1487 5.33482 11.3327 5.33482Z" fill="white"/>
<path d="M11.3327 7.33451C12.2526 7.3356 12.998 8.08104 12.9992 9.00094C12.9992 9.18502 13.1484 9.33421 13.3324 9.33421C13.5165 9.33421 13.6657 9.18502 13.6657 9.00094C13.6642 7.71309 12.6206 6.66941 11.3327 6.66797C11.1487 6.66797 10.9995 6.81717 10.9995 7.00124C10.9995 7.18531 11.1487 7.33451 11.3327 7.33451Z" fill="white"/>
</svg>
