<svg width="80" height="80" viewBox="0 0 80 80" fill="none" xmlns="http://www.w3.org/2000/svg">
<g clip-path="url(#clip0)">
<path d="M60.9225 71.2969C48.6233 71.2969 38.6172 61.2908 38.6172 48.9916C38.6111 44.7467 39.8206 40.5888 42.1025 37.0094C44.3844 33.4301 47.6435 30.5789 51.4944 28.793C46.465 29.8233 41.9461 32.5601 38.7029 36.5398C35.4598 40.5196 33.6915 45.4978 33.6975 50.6317C33.6975 62.9309 43.7036 72.937 56.0028 72.937C59.2677 72.9404 62.493 72.2227 65.4483 70.8352C63.9594 71.1428 62.4429 71.2975 60.9225 71.2969Z" fill="#D4E1F4"/>
<path d="M19.1155 16.3102C19.1271 16.2893 19.138 16.2681 19.1483 16.2466C20.1512 14.1391 22.3599 10.5998 25.8857 10.5747L57.224 10.3438H57.2636C58.0819 10.3405 58.8879 10.543 59.6074 10.9327C57.7846 8.24453 56.0413 7.0625 53.9835 7.0625H53.9438L22.6054 7.29375C19.0797 7.31969 16.871 10.8589 15.868 12.9656C15.8576 12.9872 15.8467 13.0084 15.8354 13.0292L10.4624 22.7167L15.5829 22.6791L19.1155 16.3102Z" fill="#D4E1F4"/>
<path d="M10.033 46.4554C9.6513 46.0678 9.43636 45.5463 9.43407 45.0023C9.43374 44.9525 9.43035 44.9028 9.42392 44.8534L7.47829 29.8657C7.48548 27.4053 8.76704 25.6939 10.323 25.0146L8.51298 25.0279H8.50454C8.44167 25.0274 8.37896 25.0216 8.31704 25.0107C6.2536 25.1484 4.20673 27.0028 4.19751 30.0156L6.14329 44.5265C6.14966 44.5743 6.153 44.6225 6.15329 44.6707C6.15964 45.1979 6.37285 45.7014 6.74696 46.0728C7.12107 46.4442 7.62614 46.6537 8.15329 46.6562H8.16892L10.2452 46.6406C10.1704 46.5837 10.0995 46.5218 10.033 46.4554Z" fill="#D4E1F4"/>
<path d="M47.2556 18.0034C46.5515 18.7142 45.9953 19.5576 45.6192 20.4847C45.2432 21.4119 45.0547 22.4044 45.0648 23.4049C45.067 23.6935 45.1832 23.9696 45.388 24.173C45.5929 24.3764 45.8699 24.4905 46.1586 24.4905H46.1669C46.3105 24.4894 46.4525 24.4601 46.5848 24.4041C46.7171 24.3482 46.8371 24.2667 46.9379 24.1644C47.0387 24.0621 47.1184 23.9409 47.1724 23.8078C47.2263 23.6747 47.2536 23.5322 47.2525 23.3886C47.2419 21.9491 47.8036 20.5643 48.814 19.5389C49.8243 18.5135 51.2006 17.9314 52.6402 17.9206H52.6812C54.1139 17.9208 55.4884 18.4872 56.5051 19.4965C57.5218 20.5059 58.0983 21.8762 58.1089 23.3088C58.111 23.5974 58.2272 23.8735 58.4321 24.0769C58.637 24.2803 58.914 24.3944 59.2027 24.3944H59.2108C59.3544 24.3933 59.4964 24.364 59.6287 24.308C59.761 24.2521 59.881 24.1706 59.9818 24.0683C60.0826 23.966 60.1623 23.8448 60.2163 23.7117C60.2702 23.5786 60.2975 23.4361 60.2964 23.2925C60.2853 21.7863 59.8278 20.3172 58.9818 19.071C58.1358 17.8248 56.9392 16.8575 55.5434 16.2913C54.1476 15.7252 52.6152 15.5857 51.1401 15.8904C49.665 16.1952 48.3134 16.9305 47.2562 18.0034H47.2556Z" fill="#FFBA08"/>
<path d="M12.7284 31.3225H12.6957C11.5409 31.3267 10.435 31.7894 9.62128 32.609C8.80761 33.4285 8.35282 34.5377 8.35696 35.6925C8.36111 36.8474 8.82384 37.9533 9.64338 38.767C10.4629 39.5806 11.5721 40.0354 12.727 40.0313H12.7599C13.9148 40.0271 15.0207 39.5644 15.8344 38.7449C16.648 37.9253 17.1028 36.8161 17.0987 35.6613C17.0945 34.5064 16.6318 33.4005 15.8123 32.5869C14.9927 31.7732 13.8835 31.3184 12.7287 31.3225H12.7284ZM12.744 37.8438H12.7276C12.443 37.8448 12.1611 37.7898 11.8978 37.6818C11.6345 37.5739 11.395 37.4151 11.1931 37.2146C10.7853 36.8097 10.555 36.2594 10.5529 35.6847C10.5508 35.11 10.7771 34.5581 11.182 34.1502C11.5869 33.7424 12.1373 33.5121 12.712 33.51H12.7276C13.0121 33.509 13.2941 33.564 13.5574 33.672C13.8207 33.7799 14.0601 33.9387 14.2621 34.1392C14.464 34.3397 14.6245 34.578 14.7343 34.8405C14.8442 35.103 14.9012 35.3845 14.9023 35.6691C14.9033 35.9537 14.8483 36.2356 14.7403 36.4989C14.6324 36.7622 14.4736 37.0017 14.2731 37.2036C14.0726 37.4055 13.8343 37.566 13.5718 37.6759C13.3093 37.7857 13.0278 37.8428 12.7432 37.8438H12.744Z" fill="#1973E7"/>
<path d="M74.537 29.7164C74.5429 29.6688 74.5457 29.6209 74.5454 29.573C74.5441 27.731 73.8758 25.9517 72.6641 24.5644C72.3156 24.1702 71.9223 23.8179 71.4923 23.5145L75.673 23.4822C75.8211 23.481 75.9674 23.4499 76.103 23.3905C76.2386 23.3312 76.3608 23.2449 76.4621 23.137C76.5634 23.029 76.6418 22.9016 76.6924 22.7625C76.743 22.6234 76.7649 22.4755 76.7566 22.3277C76.6808 21.372 76.4866 20.4295 76.1785 19.5217C75.5079 17.558 73.4376 16.2961 70.8949 16.2961H70.8382C69.2699 16.3077 66.4173 16.3184 65.1429 16.323L62.5479 11.625C60.7545 8.46484 58.1504 4.84375 53.8801 4.84375H53.8245L22.5071 5.07484C18.9988 5.10063 15.9012 7.55609 13.782 11.9905L11.1456 16.7442C9.87477 16.7509 6.9893 16.7667 5.40071 16.7784C2.83227 16.7969 0.754927 18.0938 0.109302 20.0822C-0.185416 20.9945 -0.365907 21.9397 -0.428042 22.8964C-0.434064 23.0437 -0.410258 23.1906 -0.358053 23.3285C-0.305849 23.4663 -0.226323 23.5922 -0.124253 23.6985C-0.0221823 23.8048 0.100327 23.8895 0.235916 23.9473C0.371505 24.005 0.517377 24.0348 0.664771 24.0348H0.674302L4.7879 23.9992C4.36965 24.3104 3.98916 24.6693 3.65415 25.0688C2.48599 26.4857 1.86012 28.2721 1.88852 30.1083C1.88886 30.1542 1.8921 30.2001 1.89821 30.2456L3.84368 44.758C3.87075 45.7516 4.24507 46.7043 4.9016 47.4507C5.55812 48.197 6.45536 48.6897 7.43743 48.8433L7.4718 53.5341C7.47712 54.2378 7.76036 54.911 8.25981 55.4068C8.75925 55.9027 9.43443 56.181 10.1382 56.1813H10.1585L14.9351 56.1459C15.6421 56.1399 16.3178 55.8537 16.814 55.3501C17.3102 54.8464 17.5864 54.1665 17.582 53.4595L17.5479 48.8228L31.4413 48.7205C31.3929 49.352 31.3682 49.9869 31.3671 50.625C31.3671 64.1516 42.3718 75.1562 55.8984 75.1562C69.4249 75.1562 80.4296 64.1516 80.4296 50.625C80.4467 44.4913 78.1486 38.577 73.9948 34.0639L74.537 29.7164ZM70.8531 18.4844H70.892C72.4601 18.4844 73.7496 19.183 74.1071 20.2297C74.2266 20.582 74.3247 20.9412 74.401 21.3053L67.9191 21.3553L66.3466 18.5063C67.7637 18.5008 69.6718 18.4925 70.8531 18.4844ZM15.7113 13.022C15.7224 13.0022 15.7327 12.9819 15.7426 12.9614C16.7502 10.8441 18.9709 7.28844 22.5238 7.26234L53.8405 7.03125H53.8807C56.3651 7.03125 58.3902 8.73109 60.6391 12.6934L65.9829 22.3728L10.2968 22.7831L15.7113 13.022ZM1.91133 21.8366C1.9823 21.472 2.07502 21.112 2.18899 20.7584C2.53383 19.6978 3.83102 18.9772 5.41696 18.9658C6.60165 18.957 8.50899 18.9461 9.92852 18.9383L8.35211 21.7812L1.91133 21.8366ZM14.9188 53.9584L10.1423 53.9938C10.0791 53.9959 10.0163 53.9847 9.95774 53.9609C9.89921 53.9372 9.84635 53.9013 9.80258 53.8558C9.75766 53.8117 9.7219 53.7591 9.69737 53.7012C9.67283 53.6432 9.66 53.5809 9.65961 53.518L9.62493 48.8812L15.3593 48.8389L15.3934 53.4756C15.3942 53.6025 15.3448 53.7246 15.2558 53.8151C15.1669 53.9056 15.0457 53.9571 14.9188 53.9584ZM31.7084 46.5312L8.09711 46.7048C7.55358 46.7065 7.03139 46.4934 6.64422 46.1119C6.25706 45.7305 6.03627 45.2115 6.02993 44.668C6.02954 44.622 6.02625 44.576 6.02008 44.5305L4.0754 30.0258C4.0829 26.9789 6.15774 25.1039 8.24727 24.9667C8.30832 24.9779 8.37021 24.9838 8.43227 24.9844H8.4404L67.791 24.5469C67.7999 24.5469 67.8088 24.5481 67.8177 24.5481C67.831 24.5481 67.844 24.5481 67.857 24.5481C68.4595 24.5509 69.0543 24.6833 69.6011 24.9363C70.148 25.1893 70.6339 25.5571 71.026 26.0145C71.8662 26.9914 72.3371 28.232 72.3566 29.5203L72.0295 32.1437C67.8766 28.5194 62.6243 26.399 57.1192 26.1243C51.614 25.8495 46.1767 27.4365 41.6837 30.6294C39.7601 31.9981 38.0433 33.6361 36.5857 35.4933L36.5654 32.7323C36.5633 32.4437 36.4471 32.1676 36.2422 31.9642C36.0373 31.7608 35.7603 31.6467 35.4716 31.6467H35.4635C35.3199 31.6478 35.1778 31.6771 35.0455 31.733C34.9132 31.789 34.7932 31.8704 34.6924 31.9728C34.5916 32.0751 34.5119 32.1963 34.4579 32.3294C34.4039 32.4625 34.3767 32.6049 34.3777 32.7486L34.3999 35.7531C34.402 36.0418 34.5182 36.318 34.7231 36.5214C34.928 36.7248 35.205 36.8389 35.4937 36.8389H35.502C35.5373 36.8389 35.5723 36.8362 35.6068 36.8328C33.6219 39.746 32.2919 43.0547 31.7084 46.5312ZM78.2421 50.625C78.2421 62.9455 68.2188 72.9688 55.8984 72.9688C43.5779 72.9688 33.5546 62.9455 33.5546 50.625C33.5546 44.6991 35.9087 39.0159 40.0989 34.8256C44.2892 30.6353 49.9724 28.2812 55.8984 28.2812C61.8243 28.2812 67.5075 30.6353 71.6978 34.8256C75.888 39.0159 78.2421 44.6991 78.2421 50.625Z" fill="#1973E7"/>
<path d="M29.9069 31.6875H29.8988C29.7552 31.6885 29.6131 31.7179 29.4808 31.7738C29.3485 31.8298 29.2285 31.9112 29.1277 32.0135C29.0268 32.1159 28.9472 32.237 28.8932 32.3702C28.8392 32.5033 28.8119 32.6457 28.813 32.7894L28.8352 35.7939C28.8374 36.0826 28.9535 36.3587 29.1584 36.5621C29.3633 36.7654 29.6403 36.8795 29.929 36.8795H29.9372C30.0809 36.8785 30.2229 36.8491 30.3552 36.7932C30.4875 36.7372 30.6075 36.6558 30.7083 36.5534C30.8091 36.4511 30.8887 36.3299 30.9427 36.1968C30.9967 36.0637 31.0239 35.9213 31.0229 35.7777L30.9999 32.7734C30.9978 32.4848 30.8818 32.2088 30.6771 32.0054C30.4723 31.802 30.1955 31.6877 29.9069 31.6875Z" fill="#FFBA08"/>
<path d="M24.3417 31.7285H24.3335C24.1898 31.7296 24.0478 31.7589 23.9155 31.8149C23.7832 31.8708 23.6632 31.9523 23.5624 32.0546C23.4616 32.1569 23.382 32.2781 23.328 32.4112C23.274 32.5443 23.2468 32.6868 23.2478 32.8304L23.27 35.8352C23.2722 36.1239 23.3883 36.4 23.5932 36.6034C23.7981 36.8067 24.0751 36.9209 24.3638 36.9209H24.3719C24.5155 36.9198 24.6576 36.8905 24.7899 36.8345C24.9222 36.7786 25.0422 36.6971 25.143 36.5948C25.2439 36.4925 25.3235 36.3713 25.3775 36.2382C25.4315 36.1051 25.4587 35.9626 25.4577 35.819L25.4355 32.8143C25.4334 32.5256 25.3172 32.2494 25.1123 32.046C24.9074 31.8426 24.6304 31.7285 24.3417 31.7285Z" fill="#FFBA08"/>
<path d="M72.772 46.7297C73.0766 46.4996 73.2866 46.1662 73.3626 45.7921C73.4386 45.4181 73.3754 45.0292 73.1849 44.6984L69.5702 38.6191C69.1899 37.9864 68.3974 37.5909 67.6069 38.0391L63.8975 39.7456C63.095 39.1704 62.2385 38.6745 61.3402 38.2648L60.9684 34.1748C60.9637 34.1237 60.9555 34.0729 60.9438 34.0228C60.8731 33.6811 60.6888 33.3734 60.4208 33.1499C60.1528 32.9265 59.817 32.8004 59.4681 32.7923H52.4105C52.0371 32.7879 51.6757 32.9241 51.398 33.1738C51.1204 33.4235 50.9468 33.7685 50.9117 34.1403L50.5386 38.2641C49.631 38.6615 48.7693 39.1563 47.9684 39.7397L44.241 38.0252C44.2242 38.0175 44.2075 38.0103 44.1905 38.0036C43.4941 37.725 42.6458 38.0075 42.306 38.6211L38.7809 44.6908C38.5847 45.0232 38.5189 45.4167 38.5964 45.795C38.6738 46.1732 38.889 46.5091 39.2002 46.7377L39.2227 46.7544L42.5708 49.1347C42.4196 50.1196 42.4191 51.1217 42.5694 52.1067L39.0611 54.4952C39.0464 54.5052 39.0317 54.5156 39.0174 54.5264C38.716 54.7565 38.5084 55.0882 38.4333 55.4599C38.3582 55.8315 38.4207 56.2178 38.6091 56.5469L42.138 62.6202L42.1461 62.6341C42.331 62.9558 42.6233 63.2022 42.9717 63.33C43.158 63.3935 43.3559 63.4159 43.5516 63.3954C43.7473 63.375 43.9363 63.3123 44.1055 63.2117L47.8175 61.5041C48.6201 62.0788 49.4765 62.5746 50.3747 62.9844L50.7467 67.075C50.7515 67.1261 50.7598 67.1769 50.7716 67.2269C50.8421 67.5685 51.0264 67.8762 51.2943 68.0996C51.5622 68.323 51.898 68.449 52.2467 68.457H59.3044C59.6776 68.4614 60.0389 68.3254 60.3165 68.0758C60.594 67.8262 60.7676 67.4814 60.8028 67.1098L61.1767 62.9848C62.0841 62.5873 62.9457 62.0927 63.7464 61.5095L67.4733 63.2244C67.4914 63.2326 67.5099 63.24 67.5286 63.248C68.2208 63.5212 69.068 63.2386 69.4072 62.6302L72.9384 56.552C73.1319 56.2212 73.1964 55.8305 73.1195 55.455C73.0425 55.0795 72.8297 54.7457 72.5217 54.5175L69.3886 52.1308C69.5417 51.1377 69.5423 50.1272 69.3906 49.1339L72.7473 46.7473C72.7559 46.7417 72.7639 46.7356 72.772 46.7297ZM67.5811 47.737C67.4173 47.8534 67.2887 48.0127 67.2095 48.1974C67.1303 48.3821 67.1035 48.585 67.132 48.7839L67.1678 49.0339C67.366 50.0854 67.366 51.1647 67.1678 52.2162L67.133 52.4575C67.1052 52.6504 67.1294 52.8473 67.2033 53.0277C67.2771 53.2081 67.3978 53.3655 67.5528 53.4836L70.7684 55.9333L67.8341 60.9844L64.0491 59.2428C63.8629 59.1573 63.6565 59.1257 63.4533 59.1517C63.25 59.1777 63.0582 59.2602 62.8995 59.3898L62.6991 59.5537C61.8581 60.2085 60.9298 60.7426 59.9411 61.1406L59.7149 61.2376C59.5336 61.3153 59.3768 61.4406 59.2609 61.6001C59.145 61.7596 59.0744 61.9475 59.0566 62.1439L58.6825 66.2706H52.87L52.495 62.1436C52.4772 61.9472 52.4066 61.7593 52.2907 61.5998C52.1748 61.4403 52.0179 61.315 51.8367 61.2373L51.6091 61.1406C50.6103 60.7155 49.6673 60.1698 48.8011 59.5156L48.6039 59.3675C48.4463 59.249 48.2595 59.1754 48.0634 59.1545C47.8672 59.1335 47.6691 59.166 47.49 59.2486L43.7161 60.9847L40.7966 55.9587L44.1486 53.6767C44.1572 53.6708 44.1661 53.6647 44.1747 53.6584L44.3867 53.5048C44.5479 53.3881 44.6742 53.2295 44.752 53.0463C44.8297 52.863 44.856 52.6621 44.828 52.465L44.7916 52.2084C44.5934 51.159 44.5939 50.0817 44.7928 49.0323L44.8283 48.7823C44.8566 48.5836 44.8297 48.381 44.7505 48.1966C44.6713 48.0121 44.5429 47.853 44.3794 47.7367L40.9544 45.3016L43.8794 40.2666L47.6652 42.0078C47.8513 42.0934 48.0577 42.125 48.2608 42.099C48.464 42.073 48.6558 41.9904 48.8144 41.8608L49.0147 41.697C49.8555 41.0424 50.7836 40.5084 51.772 40.1103L51.9992 40.0131C52.1807 39.9355 52.3379 39.8102 52.4539 39.6505C52.57 39.4908 52.6406 39.3027 52.6584 39.1061L53.0316 34.9795H58.8449L59.2199 39.1064C59.2378 39.3029 59.3085 39.4908 59.4245 39.6503C59.5405 39.8099 59.6975 39.9351 59.8789 40.0127L60.1055 40.1095C61.1042 40.5344 62.0471 41.0802 62.913 41.7345L63.1103 41.8828C63.268 42.0012 63.4548 42.0748 63.6509 42.0957C63.847 42.1166 64.0451 42.0842 64.2242 42.0017L68.0033 40.263L71.0005 45.3039L67.5811 47.737Z" fill="#FFBA08"/>
<path d="M55.8981 40.8857C50.437 40.8857 46.1592 45.1637 46.1592 50.625C46.1592 56.0862 50.437 60.3645 55.8981 60.3645C61.3592 60.3645 65.6376 56.0864 65.6376 50.625C65.6376 45.1636 61.359 40.8857 55.8981 40.8857ZM55.8981 58.177C54.4045 58.177 52.9444 57.734 51.7025 56.9042C50.4607 56.0744 49.4928 54.8949 48.9212 53.515C48.3496 52.1351 48.2001 50.6167 48.4915 49.1518C48.7829 47.6869 49.5021 46.3413 50.5583 45.2851C51.6144 44.229 52.96 43.5098 54.4249 43.2184C55.8898 42.927 57.4082 43.0765 58.7881 43.6481C60.1681 44.2196 61.3475 45.1875 62.1773 46.4294C63.0072 47.6713 63.4501 49.1314 63.4501 50.625C63.4609 51.6197 63.273 52.6066 62.8973 53.5277C62.5216 54.4489 61.9657 55.2857 61.2623 55.9892C60.5588 56.6926 59.722 57.2485 58.8009 57.6242C57.8797 57.9999 56.8928 58.1878 55.8981 58.177Z" fill="#FFBA08"/>
<path d="M55.8987 45.6377C54.9123 45.6378 53.948 45.9303 53.1278 46.4784C52.3077 47.0264 51.6684 47.8054 51.291 48.7168C50.9135 49.6281 50.8148 50.6309 51.0072 51.5984C51.1997 52.5659 51.6748 53.4546 52.3723 54.152C53.0698 54.8495 53.9585 55.3245 54.926 55.5169C55.8935 55.7094 56.8963 55.6106 57.8077 55.233C58.719 54.8555 59.4979 54.2162 60.0459 53.396C60.5939 52.5758 60.8864 51.6115 60.8864 50.6251C60.8935 49.9681 60.7693 49.3164 60.5212 48.7081C60.273 48.0998 59.9059 47.5471 59.4413 47.0826C58.9767 46.618 58.4241 46.251 57.8157 46.0028C57.2074 45.7547 56.5557 45.6306 55.8987 45.6377ZM55.8987 53.4252C55.3449 53.4252 54.8036 53.261 54.3432 52.9533C53.8828 52.6456 53.5239 52.2083 53.312 51.6967C53.1001 51.1851 53.0446 50.6221 53.1527 50.079C53.2607 49.5358 53.5274 49.0369 53.919 48.6453C54.3106 48.2538 54.8095 47.9871 55.3526 47.8791C55.8957 47.771 56.4587 47.8264 56.9703 48.0384C57.4819 48.2503 57.9192 48.6091 58.2269 49.0695C58.5346 49.53 58.6988 50.0713 58.6989 50.6251C58.7029 50.9939 58.6332 51.3599 58.4939 51.7014C58.3546 52.0429 58.1485 52.3532 57.8877 52.614C57.6269 52.8749 57.3166 53.081 56.975 53.2203C56.6335 53.3596 56.2676 53.4293 55.8987 53.4252Z" fill="#FFBA08"/>
</g>
<defs>
<clipPath id="clip0">
<rect width="80" height="80" fill="white"/>
</clipPath>
</defs>
</svg>
