<svg width="80" height="80" viewBox="0 0 80 80" fill="none" xmlns="http://www.w3.org/2000/svg">
<path d="M32.7733 64.2312L29.5333 67.4712C29.3687 67.6357 29.1455 67.7282 28.9128 67.7282C28.68 67.7282 28.4568 67.6357 28.2922 67.4712L11.0422 50.2212L10.1002 51.1631C9.93583 51.3278 9.84351 51.551 9.84351 51.7837C9.84351 52.0164 9.93583 52.2396 10.1002 52.4043L28.2922 70.5962C28.4568 70.7607 28.68 70.8532 28.9128 70.8532C29.1455 70.8532 29.3687 70.7607 29.5333 70.5962L33.7152 66.4142C33.8796 66.2495 33.972 66.0263 33.972 65.7936C33.972 65.5609 33.8796 65.3377 33.7152 65.1731L32.7733 64.2312Z" fill="#D4E1F4"/>
<path d="M50.6355 36.2177L45.7564 41.0966C45.6548 41.1981 45.5743 41.3187 45.5193 41.4514C45.4643 41.5841 45.436 41.7264 45.436 41.87C45.436 42.0136 45.4643 42.1559 45.5193 42.2886C45.5743 42.4213 45.6548 42.5419 45.7564 42.6434C45.858 42.745 45.9786 42.8256 46.1113 42.8805C46.244 42.9355 46.3862 42.9638 46.5298 42.9638C46.6735 42.9638 46.8157 42.9355 46.9484 42.8805C47.0811 42.8256 47.2017 42.745 47.3033 42.6434L50.5148 39.432L50.9278 39.0192C50.9901 38.9577 51.0571 38.9012 51.1283 38.8502L52.198 37.7803C52.4254 37.5536 52.5824 37.2658 52.6499 36.9518C52.7174 36.6378 52.6926 36.3109 52.5784 36.0107C52.4642 35.7105 52.2655 35.4498 52.0063 35.26C51.7472 35.0703 51.4386 34.9596 51.118 34.9414C51.1325 35.1762 51.097 35.4114 51.0139 35.6314C50.9307 35.8514 50.8017 36.0512 50.6355 36.2177Z" fill="#D4E1F4"/>
<path d="M44.6404 26.5991L44.5016 26.7376L37.9498 33.2901C37.8482 33.3917 37.7676 33.5123 37.7127 33.645C37.6577 33.7777 37.6294 33.9199 37.6294 34.0636C37.6294 34.2072 37.6577 34.3495 37.7127 34.4822C37.7676 34.6149 37.8482 34.7355 37.9498 34.837C38.0513 34.9386 38.1719 35.0192 38.3046 35.0741C38.4373 35.1291 38.5796 35.1574 38.7232 35.1574C38.8668 35.1574 39.0091 35.1291 39.1418 35.0741C39.2745 35.0192 39.3951 34.9386 39.4966 34.837L46.0507 28.2831C46.108 28.2266 46.1693 28.1744 46.2341 28.1269C46.4527 27.897 46.601 27.6094 46.6614 27.298C46.7219 26.9866 46.6919 26.6645 46.5751 26.3695C46.4584 26.0746 46.2596 25.8193 46.0024 25.6336C45.7452 25.448 45.4402 25.3399 45.1235 25.322C45.138 25.557 45.1025 25.7923 45.0192 26.0125C44.9359 26.2326 44.8068 26.4326 44.6404 26.5991Z" fill="#D4E1F4"/>
<path d="M48.405 30.6416L46.7332 32.3134L41.8533 37.1933C41.6482 37.3984 41.533 37.6766 41.533 37.9667C41.533 38.2568 41.6482 38.535 41.8533 38.7401C42.0585 38.9453 42.3367 39.0605 42.6268 39.0605C42.9169 39.0605 43.1951 38.9453 43.4002 38.7401L48.2814 33.8592C48.3426 33.7991 48.4083 33.7439 48.478 33.6939L49.9682 32.2037C50.1957 31.977 50.3528 31.6893 50.4203 31.3752C50.4879 31.0612 50.4631 30.7343 50.3488 30.4341C50.2346 30.1339 50.0359 29.8731 49.7767 29.6834C49.5175 29.4937 49.2089 29.3831 48.8882 29.365C48.9027 29.5999 48.8671 29.8351 48.7838 30.0552C48.7005 30.2753 48.5714 30.4751 48.405 30.6416Z" fill="#D4E1F4"/>
<path d="M25.0347 34.3776L25.118 34.4171C25.401 34.551 25.6918 34.6675 25.989 34.7661C26.0171 34.5997 26.0835 34.442 26.1829 34.3055C26.2823 34.1691 26.4121 34.0576 26.5619 33.9798C26.7118 33.902 26.8776 33.86 27.0464 33.8572C27.2152 33.8544 27.3824 33.8909 27.5347 33.9636L27.6179 34.003C28.4588 34.4056 29.3918 34.577 30.3209 34.4996C31.25 34.4222 32.1417 34.0988 32.9044 33.5626C33.0218 33.4679 33.1372 33.3701 33.2494 33.2672C33.3397 33.1839 33.4287 33.0987 33.5163 33.0118L33.6343 32.8938L32.0874 31.3469L31.9697 31.4646C31.9047 31.5296 31.8385 31.593 31.7711 31.6549C30.2677 33.033 27.9707 33.349 26.0554 32.4405L25.9722 32.4011C25.8424 32.3389 25.7015 32.303 25.5578 32.2954C25.414 32.2877 25.2701 32.3086 25.1344 32.3567C24.9987 32.4048 24.8738 32.4792 24.7669 32.5756C24.66 32.6721 24.5733 32.7887 24.5115 32.9188C24.4498 33.0489 24.4144 33.1899 24.4073 33.3337C24.4002 33.4775 24.4216 33.6213 24.4702 33.7568C24.5188 33.8924 24.5937 34.017 24.6906 34.1235C24.7875 34.23 24.9044 34.3163 25.0347 34.3776Z" fill="#D4E1F4"/>
<path d="M54.8464 40.5817C54.5585 40.293 54.174 40.1209 53.7669 40.0984C53.7689 40.1314 53.7719 40.164 53.7719 40.1973C53.7724 40.4162 53.7296 40.633 53.6458 40.8352C53.562 41.0374 53.4389 41.221 53.2838 41.3754L41.8533 52.806C39.3575 55.3038 36.4573 57.3613 33.2752 58.8917L31.4203 59.7848L18.8677 47.2323L32.9828 61.3473L34.8377 60.4542C38.0198 58.9238 40.92 56.8663 43.4158 54.3685L54.8463 42.9376C55.001 42.7829 55.1238 42.5992 55.2075 42.3971C55.2912 42.1949 55.3343 41.9783 55.3343 41.7595C55.3343 41.5407 55.2912 41.324 55.2075 41.1219C55.1238 40.9197 55.001 40.7361 54.8463 40.5814L54.8464 40.5817Z" fill="#D4E1F4"/>
<path d="M59.1475 46.6649L55.9065 43.4243L54.3596 44.9712L58.114 48.7254C58.2716 48.883 58.4736 48.9887 58.693 49.0284C58.9123 49.068 59.1386 49.0396 59.3414 48.9471C60.7596 48.3058 62.3393 48.1107 63.871 48.3877C65.4026 48.6648 66.8139 49.4009 67.9176 50.4984C68.6993 51.2747 69.3029 52.2116 69.6865 53.2444C70.0701 54.2771 70.2245 55.381 70.139 56.4793L68.1526 54.4793C68.0282 54.354 67.8753 54.2608 67.707 54.2074C67.5386 54.1541 67.3599 54.1423 67.186 54.1731L62.4707 55.0065C62.2541 55.0448 62.0541 55.1476 61.8968 55.3013C61.7394 55.4551 61.6321 55.6527 61.5889 55.8684L60.6739 60.4309C60.6384 60.6076 60.6472 60.7903 60.6994 60.9627C60.7516 61.1352 60.8456 61.2921 60.9731 61.4195L63.0825 63.5289C61.7582 63.6264 60.4313 63.3775 59.2323 62.8067C58.0334 62.2359 57.0037 61.3628 56.2445 60.2733C55.4854 59.1838 55.0229 57.9154 54.9026 56.593C54.7824 55.2706 55.0084 53.9396 55.5585 52.731C55.6511 52.5283 55.6794 52.302 55.6398 52.0827C55.6002 51.8633 55.4946 51.6613 55.337 51.5037L51.5828 47.7495L50.0359 49.2964L53.2765 52.537C52.642 54.2966 52.52 56.2002 52.9247 58.0264C53.3295 59.8526 54.2443 61.5264 55.5628 62.8532C56.4709 63.7672 57.5508 64.4927 58.7402 64.988C59.9297 65.4832 61.2053 65.7386 62.4937 65.7393C63.5618 65.7384 64.6227 65.5649 65.6354 65.2256C65.8122 65.1666 65.971 65.0633 66.0967 64.9257C66.2224 64.788 66.3109 64.6206 66.3537 64.4391C66.3965 64.2577 66.3922 64.0683 66.3412 63.889C66.2902 63.7097 66.1943 63.5464 66.0625 63.4146L62.9339 60.2862L63.5871 57.0312L67.0039 56.4273L70.0181 59.4623C70.1496 59.5947 70.3128 59.6913 70.4921 59.7429C70.6715 59.7945 70.861 59.7993 71.0428 59.7571C71.2246 59.7148 71.3925 59.6268 71.5307 59.5014C71.6689 59.3759 71.7727 59.2173 71.8323 59.0404C72.4219 57.306 72.5126 55.4409 72.094 53.6574C71.6754 51.874 70.7645 50.2439 69.4648 48.9529C68.1381 47.6339 66.4642 46.7186 64.6377 46.3136C62.8113 45.9085 60.9074 46.0304 59.1475 46.6649Z" fill="#FFBA08"/>
<path d="M26.7669 26.0264L34.4231 33.6827L35.97 32.1358L27.8001 23.9661C27.6425 23.8085 27.4405 23.7028 27.2211 23.6631C27.0017 23.6235 26.7755 23.6519 26.5726 23.7444C25.1544 24.3858 23.5748 24.5809 22.0431 24.3038C20.5115 24.0268 19.1002 23.2907 17.9966 22.1932C17.2148 21.4169 16.6112 20.4799 16.2276 19.4472C15.844 18.4144 15.6896 17.3106 15.7751 16.2122L17.7616 18.2122C17.8859 18.3375 18.0388 18.4309 18.2071 18.4842C18.3754 18.5375 18.5541 18.5493 18.728 18.5185L23.4433 17.6852C23.6599 17.6469 23.86 17.5441 24.0174 17.3904C24.1747 17.2366 24.282 17.0389 24.3253 16.8232L25.2401 12.2607C25.2756 12.084 25.2668 11.9014 25.2146 11.7289C25.1624 11.5565 25.0685 11.3996 24.9411 11.2722L22.8317 9.16285C24.156 9.06534 25.4829 9.31424 26.6818 9.88508C27.8807 10.4559 28.9104 11.329 29.6695 12.4185C30.4286 13.508 30.8911 14.7763 31.0114 16.0987C31.1316 17.4212 30.9056 18.7521 30.3555 19.9607C30.2629 20.1634 30.2346 20.3897 30.2742 20.609C30.3138 20.8284 30.4194 21.0304 30.577 21.188L38.747 29.3593L40.2939 27.8124L32.6376 20.1561C33.2706 18.4178 33.4003 16.5362 33.012 14.7274C32.6236 12.9187 31.7328 11.2562 30.4421 9.93088C29.1513 8.60561 27.5129 7.67135 25.715 7.23541C23.9171 6.79947 22.0327 6.87955 20.2783 7.46644C20.1015 7.52548 19.9427 7.62872 19.817 7.76637C19.6913 7.90402 19.6029 8.07151 19.5601 8.25294C19.5174 8.43437 19.5217 8.62371 19.5726 8.80301C19.6236 8.9823 19.7196 9.14559 19.8514 9.27738L22.98 12.4061L22.328 15.661L18.9103 16.2655L15.8961 13.2299C15.7646 13.0975 15.6014 13.0009 15.4221 12.9493C15.2427 12.8977 15.0532 12.8928 14.8714 12.9351C14.6897 12.9773 14.5217 13.0654 14.3836 13.1908C14.2454 13.3162 14.1416 13.4749 14.082 13.6518C13.4924 15.3862 13.4017 17.2514 13.8203 19.0348C14.2388 20.8183 15.1498 22.4484 16.4495 23.7394C17.7763 25.0583 19.4503 25.9733 21.2767 26.3782C23.1032 26.7831 25.007 26.6611 26.7669 26.0264Z" fill="#FFBA08"/>
<path d="M44.9626 55.9151L56.3929 44.4842C56.875 44.0017 57.2204 43.3999 57.394 42.7403C57.5676 42.0807 57.5631 41.3868 57.3809 40.7295C57.1988 40.0723 56.8455 39.475 56.3572 38.9988C55.8689 38.5226 55.263 38.1845 54.6014 38.0189C54.7978 37.5242 54.8895 36.9941 54.8706 36.4622C54.8517 35.9302 54.7226 35.408 54.4915 34.9285C54.2605 34.449 53.9324 34.0226 53.5281 33.6764C53.1238 33.3302 52.6521 33.0716 52.1428 32.917C52.4713 32.3373 52.6435 31.6822 52.6425 31.0159C52.6415 30.3496 52.4674 29.695 52.1372 29.1162C51.807 28.5375 51.3321 28.0545 50.759 27.7146C50.1859 27.3748 49.5343 27.1897 48.8681 27.1775C48.9091 26.3997 48.7131 25.6279 48.3061 24.9639C47.8991 24.2999 47.3001 23.775 46.5885 23.4587C45.8768 23.1423 45.0859 23.0494 44.3202 23.1921C43.5546 23.3349 42.8503 23.7066 42.3004 24.2581L33.532 33.0265C33.467 33.0915 33.4008 33.155 33.3334 33.2169C31.83 34.595 29.5329 34.9109 27.6176 34.0025L27.5345 33.9631C27.4046 33.9009 27.2638 33.865 27.12 33.8573C26.9762 33.8497 26.8324 33.8705 26.6967 33.9186C26.5609 33.9667 26.4361 34.0411 26.3292 34.1376C26.2223 34.2341 26.1355 34.3507 26.0738 34.4808C26.0121 34.6109 25.9767 34.7519 25.9696 34.8957C25.9625 35.0395 25.9839 35.1833 26.0325 35.3188C26.0811 35.4543 26.156 35.5789 26.2529 35.6854C26.3497 35.792 26.4667 35.8783 26.597 35.9395L26.6803 35.979C29.4342 37.2847 32.6262 36.8334 34.8117 34.8292C34.902 34.7459 34.991 34.6607 35.0786 34.5737L43.8472 25.8048C44.0014 25.6477 44.1852 25.5227 44.388 25.4371C44.5908 25.3514 44.8085 25.3068 45.0287 25.3058C45.2488 25.3048 45.467 25.3474 45.6705 25.4312C45.8741 25.515 46.059 25.6383 46.2147 25.794C46.3703 25.9497 46.4936 26.1347 46.5773 26.3383C46.661 26.5419 46.7036 26.7601 46.7025 26.9802C46.7014 27.2003 46.6567 27.4181 46.571 27.6208C46.4853 27.8236 46.3603 28.0074 46.2031 28.1615L46.0644 28.3001L39.5125 34.8526C39.4109 34.9542 39.3303 35.0748 39.2754 35.2075C39.2204 35.3402 39.1921 35.4824 39.1921 35.6261C39.1921 35.7697 39.2204 35.9119 39.2754 36.0447C39.3303 36.1774 39.4109 36.2979 39.5125 36.3995C39.614 36.5011 39.7346 36.5816 39.8673 36.6366C40 36.6916 40.1423 36.7199 40.2859 36.7199C40.4296 36.7199 40.5718 36.6916 40.7045 36.6366C40.8372 36.5816 40.9578 36.5011 41.0593 36.3995L47.6134 29.8456C47.9268 29.5364 48.3498 29.3639 48.79 29.3655C49.2302 29.3672 49.6518 29.5431 49.9628 29.8547C50.2738 30.1662 50.4488 30.5882 50.4496 31.0284C50.4505 31.4686 50.2771 31.8913 49.9673 32.204L48.2954 33.8759L43.4156 38.7558C43.2105 38.9609 43.0952 39.2391 43.0952 39.5292C43.0952 39.8193 43.2105 40.0975 43.4156 40.3026C43.6207 40.5078 43.8989 40.623 44.189 40.623C44.4791 40.623 44.7573 40.5078 44.9625 40.3026L49.8437 35.4217C50.1574 35.1143 50.5798 34.9432 51.019 34.9456C51.4582 34.9479 51.8786 35.1236 52.189 35.4344C52.4993 35.7452 52.6744 36.1659 52.6762 36.6051C52.678 37.0443 52.5062 37.4664 52.1984 37.7797L47.3187 42.6589C47.2172 42.7605 47.1366 42.881 47.0816 43.0137C47.0266 43.1465 46.9984 43.2887 46.9984 43.4323C46.9984 43.576 47.0266 43.7182 47.0816 43.8509C47.1366 43.9836 47.2172 44.1042 47.3187 44.2058C47.4203 44.3073 47.5409 44.3879 47.6736 44.4429C47.8063 44.4978 47.9485 44.5261 48.0922 44.5261C48.2358 44.5261 48.378 44.4978 48.5107 44.4429C48.6434 44.3879 48.764 44.3073 48.8656 44.2058L52.0772 40.9944L52.4901 40.5815C52.6445 40.4253 52.8283 40.3012 53.0308 40.2163C53.2333 40.1314 53.4506 40.0873 53.6703 40.0867C53.8899 40.086 54.1074 40.1288 54.3105 40.2126C54.5135 40.2963 54.6979 40.4194 54.8532 40.5747C55.0085 40.73 55.1316 40.9145 55.2153 41.1175C55.299 41.3205 55.3418 41.5381 55.3412 41.7577C55.3405 41.9773 55.2965 42.1946 55.2115 42.3972C55.1266 42.5997 55.0024 42.7834 54.8462 42.9378L43.4158 54.3684C40.92 56.8662 38.0197 58.9237 34.8376 60.454L32.9828 61.3472L18.8676 47.2322C20.8989 44.8481 22.011 41.8163 22.0031 38.6842V36.6217C22.0018 36.1402 22.096 35.6631 22.2803 35.2182C22.4646 34.7733 22.7353 34.3694 23.0767 34.0298L29.0795 28.1833L27.5326 26.6364L21.5297 32.4831C20.9845 33.0254 20.5523 33.6703 20.2581 34.3807C19.9638 35.0911 19.8134 35.8528 19.8154 36.6217V38.6842C19.8227 41.2364 18.939 43.7112 17.3168 45.6815L17.0701 45.4347C16.4953 44.8599 15.7157 44.537 14.9028 44.537C14.0899 44.537 13.3103 44.8599 12.7354 45.4347L8.55388 49.6165C7.98 50.1919 7.65771 50.9713 7.65771 51.7839C7.65771 52.5965 7.98 53.3759 8.55388 53.9512L26.7454 72.1428C27.3203 72.7176 28.0999 73.0405 28.9128 73.0405C29.7257 73.0405 30.5053 72.7176 31.0801 72.1428L35.2622 67.9609C35.836 67.3856 36.1583 66.6062 36.1583 65.7936C36.1583 64.981 35.836 64.2015 35.2622 63.6262L34.6215 62.9856L35.7864 62.4247C39.1903 60.7877 42.2927 58.5868 44.9626 55.9151ZM33.7151 66.4139L29.5333 70.5959C29.3687 70.7605 29.1455 70.8529 28.9127 70.8529C28.68 70.8529 28.4567 70.7605 28.2922 70.5959L10.1009 52.4045C9.93653 52.2398 9.84421 52.0166 9.84421 51.7839C9.84421 51.5512 9.93653 51.328 10.1009 51.1633L14.2828 46.9814C14.4474 46.8168 14.6706 46.7244 14.9033 46.7244C15.1361 46.7244 15.3593 46.8168 15.5239 46.9814L33.7151 65.1728C33.8795 65.3375 33.9719 65.5606 33.9719 65.7933C33.9719 66.026 33.8795 66.2492 33.7151 66.4139Z" fill="#1973E7"/>
</svg>
