<svg width="80" height="80" viewBox="0 0 80 80" fill="none" xmlns="http://www.w3.org/2000/svg">
<path d="M35.9573 33.4489C36.0485 33.7221 36.2231 33.9598 36.4566 34.1285C36.69 34.2972 36.9705 34.3884 37.2585 34.3893C37.2663 34.3098 37.2713 34.2296 37.2713 34.1482C37.2715 33.955 37.2484 33.7625 37.2026 33.5748C37.1581 33.3782 37.0739 33.1928 36.9552 33.0299C36.8365 32.867 36.6858 32.73 36.5123 32.6274C36.4275 32.7393 36.3334 32.8439 36.231 32.9399L35.8931 33.2556L35.9573 33.4489Z" fill="#D4E1F4"/>
<path d="M12.4738 33.8715C12.6751 33.975 12.8989 34.0271 13.1253 34.0232C13.3516 34.0194 13.5736 33.9597 13.7713 33.8495C13.9691 33.7393 14.1366 33.582 14.2589 33.3915C14.3813 33.201 14.4547 32.9833 14.4727 32.7576L14.7628 29.1279H11.6378L11.3477 32.7576C11.3345 32.921 11.2921 33.0806 11.2227 33.229L12.4738 33.8715Z" fill="#D4E1F4"/>
<path d="M12.2564 37.6094V37.5886C12.2566 37.3311 12.1659 37.0818 12.0004 36.8846C11.8348 36.6874 11.6049 36.5549 11.3513 36.5105C10.7952 36.4135 10.2912 36.1232 9.92842 35.6907C9.56562 35.2582 9.36729 34.7114 9.36847 34.1469C9.36897 34.0597 9.37419 33.9726 9.3841 33.886C9.37238 33.8804 9.36003 33.8763 9.34847 33.8704L7.7041 33.0266C7.47903 32.9105 7.27555 32.7567 7.10253 32.5718C6.9044 32.6694 6.7306 32.81 6.59386 32.9834C6.45711 33.1569 6.36088 33.3587 6.31222 33.5741C6.23416 33.8933 6.22237 34.2251 6.27758 34.549C6.33278 34.8729 6.45381 35.182 6.63319 35.4573C6.81257 35.7326 7.04649 35.9682 7.3205 36.1495C7.5945 36.3309 7.90278 36.4541 8.22628 36.5116C8.47993 36.556 8.70978 36.6885 8.87536 36.8857C9.04093 37.0829 9.13162 37.3322 9.13144 37.5897V37.6105C9.12811 39.402 9.50661 41.1736 10.2417 42.8072C10.9769 44.4409 12.0517 45.8992 13.3947 47.0848C14.7377 48.2704 16.3179 49.1562 18.0301 49.6832C19.7423 50.2101 21.5472 50.3661 23.3244 50.1407C20.2706 49.7565 17.4618 48.2718 15.4242 45.9649C13.3867 43.658 12.2604 40.6873 12.2564 37.6094Z" fill="#D4E1F4"/>
<path d="M10.6537 60.5517L17.2153 57.7514C16.6544 57.5737 16.1045 57.3631 15.5684 57.1206L7.52875 60.5517C6.58913 61.0314 5.7859 61.7407 5.19359 62.6137C4.60128 63.4867 4.23909 64.4952 4.14062 65.5456V75.8811H7.26562V65.5456C7.36409 64.4952 7.72628 63.4867 8.31859 62.6137C8.9109 61.7407 9.71413 61.0314 10.6537 60.5517Z" fill="#D4E1F4"/>
<path d="M34.9752 29.1279L34.8369 31.1339C34.8315 31.2132 34.7962 31.2875 34.738 31.3417L34.5072 31.5571L34.0788 30.272C33.9538 29.8957 33.8408 29.5132 33.7383 29.1279H34.9752Z" fill="#D4E1F4"/>
<path d="M9.44336 29.1279L9.26414 31.3692L8.70305 31.0812C8.6969 31.078 8.69167 31.0733 8.68784 31.0676C8.68402 31.0618 8.68172 31.0551 8.68117 31.0482L8.54883 29.1279H9.44336Z" fill="#D4E1F4"/>
<path d="M19.8394 55.2367V52.303C18.773 52.1642 17.7251 51.9089 16.7144 51.5417V55.2367C18.8083 56.1289 21.1004 56.4532 23.3597 56.1771C22.1476 56.0323 20.9622 55.7157 19.8394 55.2367Z" fill="#D4E1F4"/>
<path d="M35.3906 64.3381H34.9219V58.0881H32.7344V64.3381H31.7969V56.5256H29.6094V64.3381H13.9844V56.8381H11.7969V64.3381H10.8594V58.0881H8.67188V64.3381H8.20312C7.91304 64.3381 7.63484 64.4534 7.42973 64.6585C7.22461 64.8636 7.10937 65.1418 7.10938 65.4319V76.9944H9.29688V66.5256H34.2969V76.9944H36.4844V65.4319C36.4844 65.1418 36.3691 64.8636 36.164 64.6585C35.9589 64.4534 35.6807 64.3381 35.3906 64.3381Z" fill="#FFBA08"/>
<path d="M56.1876 28.9258C56.1868 28.2684 55.9253 27.638 55.4604 27.1731C54.9955 26.7082 54.3652 26.4467 53.7077 26.446H52.7223V10.9282L53.7249 8.82285C53.8358 8.5898 53.8608 8.32506 53.7955 8.07535L52.4095 2.78629C52.3482 2.55235 52.2111 2.34533 52.0196 2.19758C51.8282 2.04984 51.5932 1.96971 51.3513 1.96973H49.1332C48.8914 1.96971 48.6564 2.04984 48.4649 2.19758C48.2735 2.34533 48.1364 2.55235 48.0751 2.78629L46.689 8.07535C46.6236 8.32505 46.6486 8.58983 46.7596 8.82285L47.7621 10.9282V26.446H46.7768C46.2144 26.4456 45.6686 26.6365 45.2291 26.9873C44.7895 27.3382 44.4824 27.8282 44.3583 28.3767C44.2341 28.9252 44.3002 29.4997 44.5458 30.0056C44.7913 30.5116 45.2017 30.919 45.7095 31.1608L44.4141 35.666C44.3859 35.7642 44.3716 35.8659 44.3716 35.9682V47.7807C44.373 48.9752 44.8481 50.1205 45.6928 50.9651C46.5375 51.8098 47.6827 52.2849 48.8773 52.2863H51.6068C52.8013 52.2849 53.9466 51.8098 54.7912 50.9651C55.6359 50.1205 56.111 48.9752 56.1124 47.7807V35.9688C56.1124 35.8666 56.0981 35.7649 56.0699 35.6666L54.7746 31.1614C55.197 30.96 55.5538 30.6432 55.8038 30.2476C56.0539 29.852 56.1869 29.3938 56.1876 28.9258ZM49.9773 4.15723H50.5068L51.5776 8.24317L50.6401 10.211C50.5701 10.3578 50.5337 10.5184 50.5337 10.6811V26.4468H49.949V10.6811C49.9493 10.5185 49.9134 10.3579 49.8438 10.211L48.9063 8.24317L49.9773 4.15723ZM53.9249 47.7799C53.9242 48.3945 53.6798 48.9837 53.2452 49.4183C52.8106 49.8529 52.2214 50.0973 51.6068 50.098H48.8773C48.2627 50.0974 47.6734 49.8529 47.2388 49.4183C46.8042 48.9837 46.5598 48.3945 46.5591 47.7799V36.1224L47.9152 31.4063H52.5688L53.9249 36.123V47.7799ZM53.7073 29.2188H46.7768C46.6993 29.2188 46.6249 29.188 46.5701 29.1332C46.5153 29.0783 46.4845 29.004 46.4845 28.9264C46.4845 28.8489 46.5153 28.7746 46.5701 28.7197C46.6249 28.6649 46.6993 28.6341 46.7768 28.6341H53.7073C53.7848 28.6341 53.8592 28.6649 53.914 28.7197C53.9688 28.7746 53.9996 28.8489 53.9996 28.9264C53.9996 29.004 53.9688 29.0783 53.914 29.1332C53.8592 29.188 53.7848 29.2188 53.7073 29.2188Z" fill="#1973E7"/>
<path d="M72.1093 2.03401C71.9426 1.95072 71.7573 1.91143 71.5711 1.91986C71.3849 1.92829 71.2039 1.98417 71.0454 2.0822C70.8869 2.18022 70.756 2.31713 70.6652 2.47994C70.5745 2.64275 70.5268 2.82606 70.5268 3.01245V7.94698L67.3686 10.0501L64.1262 7.78136L64.1418 3.01026C64.1424 2.82362 64.0952 2.63993 64.0048 2.47663C63.9144 2.31333 63.7838 2.17584 63.6253 2.07722C63.4669 1.9786 63.2858 1.92212 63.0994 1.91313C62.913 1.90415 62.7273 1.94296 62.5601 2.02589C60.768 2.90851 59.2597 4.27674 58.2072 5.9747C57.1547 7.67266 56.6003 9.6321 56.607 11.6298C56.6132 13.6818 57.2053 15.6894 58.3136 17.4164C59.422 19.1434 61.0006 20.5179 62.8636 21.3782V47.8228C62.8636 49.0064 63.3337 50.1415 64.1707 50.9784C65.0076 51.8154 66.1428 52.2856 67.3264 52.2856C68.51 52.2856 69.6451 51.8154 70.4821 50.9784C71.319 50.1415 71.7892 49.0064 71.7892 47.8228V21.3789C73.6287 20.5361 75.1923 19.1902 76.2993 17.4965C77.4062 15.8028 78.0114 13.8304 78.0449 11.8073C78.0784 9.78422 77.5388 7.79293 76.4885 6.06352C75.4382 4.3341 73.92 2.93713 72.1093 2.03401ZM70.3139 19.6251C70.1051 19.7031 69.9251 19.843 69.798 20.0261C69.6709 20.2092 69.6028 20.4268 69.6028 20.6496V47.8228C69.6028 48.4262 69.3631 49.0049 68.9364 49.4316C68.5097 49.8583 67.9309 50.0981 67.3275 50.0981C66.724 50.0981 66.1453 49.8583 65.7186 49.4316C65.2919 49.0049 65.0522 48.4262 65.0522 47.8228V20.6496C65.0521 20.4268 64.984 20.2092 64.8569 20.0261C64.7298 19.843 64.5499 19.7031 64.3411 19.6251C62.7152 19.0118 61.3143 17.9187 60.3239 16.491C59.3335 15.0632 58.8005 13.3681 58.7956 11.6304C58.7911 10.36 59.072 9.10476 59.6177 7.95748C60.1634 6.81019 60.9598 5.80016 61.9482 5.00198L61.9368 8.34573C61.9362 8.52228 61.9783 8.69635 62.0596 8.85307C62.1409 9.0098 62.2589 9.14452 62.4036 9.24573L66.7264 12.2704C66.9067 12.3966 67.1208 12.4654 67.3408 12.4679C67.5608 12.4705 67.7765 12.4066 67.9596 12.2846L72.2267 9.44323C72.3766 9.34337 72.4996 9.208 72.5847 9.04916C72.6697 8.89032 72.7142 8.71294 72.7142 8.53276V5.00855C73.7002 5.80693 74.4946 6.81627 75.0389 7.96226C75.5832 9.10826 75.8635 10.3617 75.8593 11.6304C75.8544 13.3681 75.3214 15.0632 74.331 16.491C73.3407 17.9187 71.9397 19.0118 70.3139 19.6251Z" fill="#1973E7"/>
<path d="M32.2656 66.8381C31.9755 66.8381 31.6973 66.9534 31.4922 67.1585C31.2871 67.3636 31.1719 67.6418 31.1719 67.9319V68.8694C31.1719 69.1595 31.2871 69.4377 31.4922 69.6428C31.6973 69.8479 31.9755 69.9631 32.2656 69.9631C32.5557 69.9631 32.8339 69.8479 33.039 69.6428C33.2441 69.4377 33.3594 69.1595 33.3594 68.8694V67.9319C33.3594 67.6418 33.2441 67.3636 33.039 67.1585C32.8339 66.9534 32.5557 66.8381 32.2656 66.8381Z" fill="#1973E7"/>
<path d="M11.3281 66.8381C11.038 66.8381 10.7598 66.9534 10.5547 67.1585C10.3496 67.3636 10.2344 67.6418 10.2344 67.9319V68.8694C10.2344 69.1595 10.3496 69.4377 10.5547 69.6428C10.7598 69.8479 11.038 69.9631 11.3281 69.9631C11.6182 69.9631 11.8964 69.8479 12.1015 69.6428C12.3066 69.4377 12.4219 69.1595 12.4219 68.8694V67.9319C12.4219 67.6418 12.3066 67.3636 12.1015 67.1585C11.8964 66.9534 11.6182 66.8381 11.3281 66.8381Z" fill="#1973E7"/>
<path d="M41.6406 76.9749V65.4983C41.6406 65.468 41.6394 65.4379 41.6369 65.4076C41.5123 63.9701 41.0222 62.5883 40.2133 61.3936C39.4044 60.1988 38.3034 59.2307 37.015 58.5812C36.9955 58.5712 36.9755 58.5621 36.9553 58.5533L29.0672 55.1876V50.4977C31.227 49.2719 33.0445 47.5234 34.3531 45.4127C35.6616 43.302 36.4194 40.8966 36.5569 38.4169C37.5885 38.0085 38.4374 37.2405 38.9468 36.2548C39.4562 35.2691 39.5917 34.1324 39.3281 33.0546C39.1895 32.4744 38.9121 31.9366 38.5198 31.4872C38.1276 31.0378 37.6321 30.6903 37.0759 30.4746L37.2391 28.1094L35.0567 27.9591L34.838 31.134C34.8326 31.2133 34.7973 31.2876 34.7391 31.3418L34.5083 31.5573L34.0798 30.2721C33.8026 29.4394 33.5821 28.5888 33.4198 27.7263L31.27 28.1301C31.4504 29.0902 31.6958 30.037 32.0044 30.964L32.8325 33.4483C32.9053 33.667 33.0319 33.8638 33.2006 34.0207C33.3693 34.1777 33.5748 34.2897 33.7981 34.3465C34.0214 34.4033 34.2554 34.4031 34.4786 34.3459C34.7018 34.2886 34.907 34.1762 35.0755 34.019L36.2317 32.9401C36.3341 32.844 36.4282 32.7395 36.513 32.6276C36.6865 32.7302 36.8372 32.8671 36.9559 33.03C37.0746 33.1929 37.1588 33.3783 37.2033 33.5749C37.2812 33.8936 37.293 34.2248 37.2381 34.5483C37.1832 34.8717 37.0626 35.1804 36.8838 35.4555C36.705 35.7306 36.4719 35.9662 36.1986 36.1477C35.9254 36.3293 35.6179 36.4529 35.295 36.5112C35.0419 36.556 34.8127 36.6884 34.6476 36.8853C34.4824 37.0823 34.3919 37.331 34.3919 37.588V37.6101C34.3919 40.9597 33.0613 44.1721 30.6927 46.5406C28.3242 48.9091 25.1118 50.2398 21.7622 50.2398C18.4126 50.2398 15.2002 48.9091 12.8316 46.5406C10.4631 44.1721 9.1325 40.9597 9.1325 37.6101V37.5893C9.13268 37.3318 9.042 37.0825 8.87642 36.8853C8.71084 36.688 8.48099 36.5556 8.22734 36.5112C7.90384 36.4536 7.59556 36.3304 7.32156 36.1491C7.04755 35.9677 6.81363 35.7322 6.63425 35.4569C6.45488 35.1816 6.33385 34.8724 6.27864 34.5485C6.22343 34.2246 6.23522 33.8928 6.31328 33.5737C6.36195 33.3582 6.45817 33.1564 6.59492 32.983C6.73166 32.8096 6.90546 32.6689 7.10359 32.5713C7.27661 32.7562 7.48009 32.9101 7.70516 33.0262L9.34953 33.8699C9.55091 33.9734 9.77471 34.0255 10.0011 34.0216C10.2274 34.0178 10.4493 33.9581 10.6471 33.8479C10.8449 33.7377 11.0123 33.5804 11.1347 33.3899C11.257 33.1994 11.3305 32.9817 11.3484 32.756L11.7188 28.1215L9.53828 27.9471L9.26469 31.369L8.70312 31.0813C8.69698 31.0781 8.69175 31.0734 8.68792 31.0677C8.68409 31.0619 8.6818 31.0552 8.68125 31.0483L8.46875 27.9591L6.28641 28.1094L6.44922 30.4705C5.89076 30.6852 5.39299 31.0326 4.99892 31.4828C4.60486 31.933 4.32636 32.4723 4.1875 33.0543C3.9235 34.1334 4.05951 35.2716 4.57033 36.2582C5.08115 37.2447 5.93217 38.0127 6.96578 38.4199C7.10463 40.9127 7.87035 43.3302 9.192 45.4484C10.5137 47.5666 12.3485 49.317 14.5266 50.5374V55.1876L6.63844 58.5533C6.61828 58.5621 6.59828 58.5712 6.57875 58.5812C5.29034 59.2307 4.18939 60.1988 3.38045 61.3936C2.57152 62.5883 2.08148 63.9701 1.95688 65.4076C1.95438 65.4379 1.95312 65.468 1.95312 65.4983V76.9749C1.95312 77.265 2.06836 77.5432 2.27348 77.7483C2.47859 77.9534 2.75679 78.0687 3.04688 78.0687H40.5469C40.837 78.0687 41.1152 77.9534 41.3203 77.7483C41.5254 77.5432 41.6406 77.265 41.6406 76.9749ZM16.7141 51.5416C19.9995 52.7325 23.6003 52.7234 26.8797 51.516V55.2366C25.2727 55.9218 23.5438 56.275 21.7969 56.275C20.0499 56.275 18.321 55.9218 16.7141 55.2366V51.5416ZM39.4531 75.8812H4.14062V65.5457C4.23909 64.4953 4.60128 63.4868 5.19359 62.6138C5.7859 61.7408 6.58913 61.0315 7.52875 60.5518L15.5684 57.1207C17.526 58.0043 19.6491 58.4613 21.7969 58.4613C23.9446 58.4613 26.0678 58.0043 28.0253 57.1207L36.065 60.5518C37.0046 61.0315 37.8079 61.7408 38.4002 62.6138C38.9925 63.4868 39.3547 64.4953 39.4531 65.5457V75.8812Z" fill="#1973E7"/>
<path d="M66.4399 35.6523H67.8995C68.1896 35.6523 68.4678 35.5371 68.6729 35.332C68.878 35.1269 68.9932 34.8487 68.9932 34.5586C68.9932 34.2685 68.878 33.9903 68.6729 33.7852C68.4678 33.5801 68.1896 33.4648 67.8995 33.4648H66.4399C66.1499 33.4648 65.8717 33.5801 65.6665 33.7852C65.4614 33.9903 65.3462 34.2685 65.3462 34.5586C65.3462 34.8487 65.4614 35.1269 65.6665 35.332C65.8717 35.5371 66.1499 35.6523 66.4399 35.6523Z" fill="#FFBA08"/>
<path d="M68.2151 37.5557H66.4399C66.1499 37.5557 65.8717 37.6709 65.6665 37.876C65.4614 38.0811 65.3462 38.3593 65.3462 38.6494C65.3462 38.9395 65.4614 39.2177 65.6665 39.4228C65.8717 39.6279 66.1499 39.7432 66.4399 39.7432H68.2151C68.5052 39.7432 68.7834 39.6279 68.9885 39.4228C69.1936 39.2177 69.3088 38.9395 69.3088 38.6494C69.3088 38.3593 69.1936 38.0811 68.9885 37.876C68.7834 37.6709 68.5052 37.5557 68.2151 37.5557Z" fill="#FFBA08"/>
<path d="M68.2151 41.6467H66.4399C66.1499 41.6467 65.8717 41.762 65.6665 41.9671C65.4614 42.1722 65.3462 42.4504 65.3462 42.7405C65.3462 43.0306 65.4614 43.3088 65.6665 43.5139C65.8717 43.719 66.1499 43.8342 66.4399 43.8342H68.2151C68.5052 43.8342 68.7834 43.719 68.9885 43.5139C69.1936 43.3088 69.3088 43.0306 69.3088 42.7405C69.3088 42.4504 69.1936 42.1722 68.9885 41.9671C68.7834 41.762 68.5052 41.6467 68.2151 41.6467Z" fill="#FFBA08"/>
<path d="M51.7668 37.2766C51.4768 37.2766 51.1986 37.3918 50.9934 37.597C50.7883 37.8021 50.6731 38.0803 50.6731 38.3704V46.5483C50.6731 46.8384 50.7883 47.1166 50.9934 47.3217C51.1986 47.5268 51.4768 47.6421 51.7668 47.6421C52.0569 47.6421 52.3351 47.5268 52.5402 47.3217C52.7454 47.1166 52.8606 46.8384 52.8606 46.5483V38.3704C52.8606 38.0803 52.7454 37.8021 52.5402 37.597C52.3351 37.3918 52.0569 37.2766 51.7668 37.2766Z" fill="#FFBA08"/>
<path d="M48.7175 37.2766C48.4274 37.2766 48.1493 37.3918 47.9441 37.597C47.739 37.8021 47.6238 38.0803 47.6238 38.3704V46.5483C47.6238 46.8384 47.739 47.1166 47.9441 47.3217C48.1493 47.5268 48.4274 47.6421 48.7175 47.6421C49.0076 47.6421 49.2858 47.5268 49.4909 47.3217C49.696 47.1166 49.8113 46.8384 49.8113 46.5483V38.3704C49.8113 38.0803 49.696 37.8021 49.4909 37.597C49.2858 37.3918 49.0076 37.2766 48.7175 37.2766Z" fill="#FFBA08"/>
<path d="M38.9844 22.9688H37.9813C37.8052 19.4771 36.6102 16.1134 34.5438 13.2932C32.5742 10.6067 29.8287 8.5883 26.677 7.50979L26.7836 6.48244C26.7994 6.33012 26.783 6.17618 26.7355 6.03058C26.6881 5.88498 26.6106 5.75098 26.508 5.63724C26.4055 5.5235 26.2802 5.43256 26.1403 5.37032C26.0004 5.30807 25.8489 5.27589 25.6958 5.27588H17.8973C17.7442 5.27589 17.5928 5.30807 17.4529 5.37032C17.3129 5.43256 17.1877 5.5235 17.0851 5.63724C16.9826 5.75098 16.905 5.88498 16.8576 6.03058C16.8101 6.17618 16.7937 6.33012 16.8095 6.48244L16.9161 7.50994C13.7621 8.5916 11.0161 10.6152 9.04906 13.3074C6.98878 16.1253 5.79509 19.4828 5.61422 22.9688H4.60938C4.31929 22.9688 4.04109 23.0841 3.83598 23.2892C3.63086 23.4943 3.51563 23.7725 3.51562 24.0626V28.0345C3.51563 28.3246 3.63086 28.6028 3.83598 28.8079C4.04109 29.013 4.31929 29.1282 4.60938 29.1282H38.9844C39.2745 29.1282 39.5527 29.013 39.7578 28.8079C39.9629 28.6028 40.0781 28.3246 40.0781 28.0345V24.0626C40.0781 23.7725 39.9629 23.4943 39.7578 23.2892C39.5527 23.0841 39.2745 22.9688 38.9844 22.9688ZM18.3787 9.35385C18.6306 9.2869 18.8502 9.13226 18.9981 8.91776C19.146 8.70327 19.2125 8.44301 19.1856 8.18385L19.1109 7.46322H24.4828L24.4081 8.18385C24.3812 8.44301 24.4477 8.70327 24.5956 8.91776C24.7436 9.13226 24.9632 9.2869 25.215 9.35385C25.8881 9.5342 26.5457 9.76829 27.1814 10.0538V11.412C27.1811 13.0668 26.6826 14.6832 25.751 16.0509C24.8194 17.4186 23.4976 18.4742 21.9578 19.0804C20.3368 18.5228 18.9307 17.4723 17.9363 16.076C16.942 14.6796 16.4091 13.0073 16.4123 11.2931V10.0549C17.0479 9.76874 17.7055 9.53428 18.3787 9.35385ZM10.8083 14.6074C11.7568 13.3202 12.9111 12.1982 14.2248 11.2867V11.2931C14.2208 13.4954 14.9159 15.6422 16.21 17.4242C17.5042 19.2062 19.3305 20.5315 21.4259 21.2092L21.6384 21.2785C21.8645 21.3521 22.1083 21.3501 22.3331 21.2729C24.3864 20.5661 26.1679 19.2362 27.4292 17.4685C28.6904 15.7008 29.3685 13.5835 29.3689 11.412V11.2826C30.6824 12.1913 31.837 13.3105 32.7863 14.5951C34.5748 17.0379 35.6181 19.9462 35.7903 22.9688H7.805C7.98224 19.9511 9.02489 17.0483 10.8083 14.6074ZM37.8906 26.9406H5.70312V25.1563H37.8906V26.9406Z" fill="#FFBA08"/>
<path d="M20.1357 15.6665H23.8187C24.1088 15.6665 24.387 15.5513 24.5921 15.3462C24.7972 15.141 24.9125 14.8628 24.9125 14.5728C24.9125 14.2827 24.7972 14.0045 24.5921 13.7994C24.387 13.5942 24.1088 13.479 23.8187 13.479H20.1357C19.8457 13.479 19.5675 13.5942 19.3623 13.7994C19.1572 14.0045 19.042 14.2827 19.042 14.5728C19.042 14.8628 19.1572 15.141 19.3623 15.3462C19.5675 15.5513 19.8457 15.6665 20.1357 15.6665Z" fill="#FFBA08"/>
<path d="M20.1357 12.2712H23.8187C24.1088 12.2712 24.387 12.156 24.5921 11.9509C24.7972 11.7458 24.9125 11.4676 24.9125 11.1775C24.9125 10.8874 24.7972 10.6092 24.5921 10.4041C24.387 10.199 24.1088 10.0837 23.8187 10.0837H20.1357C19.8457 10.0837 19.5675 10.199 19.3623 10.4041C19.1572 10.6092 19.042 10.8874 19.042 11.1775C19.042 11.4676 19.1572 11.7458 19.3623 11.9509C19.5675 12.156 19.8457 12.2712 20.1357 12.2712Z" fill="#FFBA08"/>
</svg>
