<svg width="80" height="80" viewBox="0 0 80 80" fill="none" xmlns="http://www.w3.org/2000/svg">
<path d="M3.59375 35.751V38.7213H6.30125C6.48943 38.7212 6.67442 38.7699 6.83812 38.8627L35.6373 38.7827V48.7855H37.1998V35.6577L3.59375 35.751Z" fill="#D4E1F4"/>
<path d="M54.2839 48.7855H54.4583C54.4763 48.6873 54.4967 48.59 54.5186 48.4933C54.4379 48.5884 54.3597 48.6858 54.2839 48.7855Z" fill="#D4E1F4"/>
<path d="M72.3367 37.818L62.1613 35.6236C62.0776 35.6216 61.9944 35.61 61.9134 35.5891L39.387 35.6516V38.7722L60.3509 38.7141C60.4319 38.735 60.5151 38.7466 60.5988 38.7486L70.7742 40.943C71.924 41.1962 72.9534 41.8332 73.693 42.7493C74.4325 43.6654 74.8383 44.806 74.8434 45.9833V48.7855H76.4059V42.8583C76.4008 41.681 75.995 40.5404 75.2555 39.6243C74.5159 38.7082 73.4865 38.0712 72.3367 37.818Z" fill="#D4E1F4"/>
<path d="M43.395 37.1587C43.1049 37.1587 42.8267 37.2739 42.6216 37.479C42.4165 37.6842 42.3013 37.9624 42.3013 38.2524C42.3013 38.5425 42.4165 38.8207 42.6216 39.0258C42.8267 39.231 43.1049 39.3462 43.395 39.3462H47.2566C47.5467 39.3462 47.8249 39.231 48.03 39.0258C48.2351 38.8207 48.3503 38.5425 48.3503 38.2524C48.3503 37.9624 48.2351 37.6842 48.03 37.479C47.8249 37.2739 47.5467 37.1587 47.2566 37.1587H43.395Z" fill="#1973E7"/>
<path d="M75.9447 37.2245L72.4809 28.339L74.5531 26.8195C74.669 26.7346 74.7669 26.6276 74.8414 26.5048C74.9159 26.382 74.9655 26.2457 74.9874 26.1038C75.0092 25.9618 75.0028 25.8169 74.9687 25.6774C74.9345 25.5379 74.8732 25.4064 74.7883 25.2906C74.7033 25.1748 74.5964 25.0768 74.4736 25.0023C74.3508 24.9278 74.2145 24.8782 74.0725 24.8564C73.9306 24.8345 73.7857 24.8409 73.6462 24.875C73.5066 24.9092 73.3752 24.9705 73.2594 25.0554L62.2586 33.1226C60.6369 31.6364 56.0367 27.7459 49.6748 25.0858C48.1434 24.4426 46.5694 23.9061 44.9639 23.4801C42.8639 22.9227 40.7102 22.5919 38.5397 22.4933C38.406 22.4611 38.2672 22.4558 38.1314 22.4776C37.8708 22.4703 37.6105 22.4644 37.3514 22.4644H14.5938C13.5868 22.4647 12.6131 22.8249 11.8483 23.48L2.87953 31.1675C2.41723 31.5633 2.04616 32.0546 1.79183 32.6076C1.53751 33.1605 1.40597 33.762 1.40625 34.3706V41.2864C1.40869 42.8193 1.77378 44.33 2.47169 45.6949C3.1696 47.0598 4.18053 48.2402 5.42188 49.1397L5.4375 49.1503C6.73672 50.0762 8.29529 50.5679 9.89062 50.5551H12.0625V48.3676H9.89062C8.75363 48.3797 7.64187 48.0323 6.71406 47.375L6.69469 47.3611C5.73555 46.6646 4.95467 45.7513 4.41576 44.6956C3.87685 43.6399 3.59519 42.4717 3.59375 41.2864V40.9087H6.30125C6.59133 40.9087 6.86953 40.7935 7.07465 40.5884C7.27977 40.3833 7.395 40.1051 7.395 39.815C7.395 39.5249 7.27977 39.2467 7.07465 39.0416C6.86953 38.8365 6.59133 38.7212 6.30125 38.7212H3.59375V35.7509L37.1998 35.6572V48.785H22.9562V50.9725H56.227V48.785H39.3873V35.6515L61.9137 35.589C61.9948 35.61 62.078 35.6216 62.1617 35.6236L72.337 37.8179C73.4869 38.0711 74.5163 38.7082 75.2558 39.6243C75.9954 40.5403 76.4011 41.6809 76.4062 42.8583V48.7854H67.4375V50.9729H76.8264C77.295 50.9723 77.7442 50.7859 78.0755 50.4545C78.4068 50.1231 78.5932 49.6739 78.5938 49.2053V42.8583C78.5899 41.7828 78.3508 40.7212 77.8931 39.748C77.4355 38.7748 76.7705 37.9135 75.9447 37.2245ZM19.9053 33.5181L3.76297 33.5625C3.88488 33.2798 4.06961 33.0287 4.30313 32.8281L13.2719 25.1406C13.64 24.825 14.1089 24.6516 14.5938 24.6515H19.9062L19.9053 33.5181ZM37.1998 33.4701L22.0928 33.512V24.6526H37.1998V33.4701ZM39.3873 33.464V24.7365C41.0829 24.8732 42.7629 25.1608 44.4073 25.5959C45.9149 25.9961 47.3929 26.5001 48.8309 27.1042C53.4072 29.0178 57.0761 31.6559 59.2292 33.4092L39.3873 33.464ZM72.7981 35.6797L64.818 33.9586L70.655 29.6773L73.0144 35.7306C72.9428 35.7136 72.8711 35.6953 72.7981 35.6797Z" fill="#1973E7"/>
<path d="M73.75 44.66C74.0401 44.66 74.3183 44.5448 74.5234 44.3396C74.7285 44.1345 74.8438 43.8563 74.8438 43.5662C74.8438 40.592 72.5205 38.5938 69.0625 38.5938C68.7724 38.5938 68.4942 38.709 68.2891 38.9141C68.084 39.1192 67.9688 39.3974 67.9688 39.6875V41.6875C67.9696 42.4754 68.283 43.2308 68.8402 43.788C69.3973 44.3451 70.1527 44.6585 70.9406 44.6594L73.75 44.66ZM70.1562 41.6875V40.8831C71.0069 41.0456 72.0259 41.4564 72.4531 42.4719H70.9406C70.7327 42.4716 70.5333 42.3889 70.3863 42.2419C70.2392 42.0948 70.1565 41.8954 70.1562 41.6875Z" fill="#1973E7"/>
<path d="M61.6797 42.7698C60.2272 42.7698 58.8074 43.2005 57.5997 44.0074C56.392 44.8144 55.4508 45.9613 54.8949 47.3032C54.3391 48.6451 54.1937 50.1217 54.477 51.5462C54.7604 52.9708 55.4598 54.2793 56.4869 55.3063C57.5139 56.3334 58.8224 57.0328 60.247 57.3162C61.6715 57.5995 63.1481 57.4541 64.49 56.8983C65.8319 56.3424 66.9789 55.4012 67.7858 54.1935C68.5927 52.9858 69.0234 51.566 69.0234 50.1135C69.0213 48.1665 68.2469 46.2998 66.8701 44.9231C65.4934 43.5463 63.6267 42.7719 61.6797 42.7698ZM61.6797 55.2698C60.6599 55.2698 59.663 54.9674 58.815 54.4008C57.9671 53.8342 57.3062 53.0289 56.9159 52.0867C56.5257 51.1445 56.4236 50.1078 56.6225 49.1076C56.8215 48.1074 57.3126 47.1886 58.0337 46.4675C58.7548 45.7464 59.6735 45.2553 60.6738 45.0563C61.674 44.8574 62.7107 44.9595 63.6529 45.3498C64.5951 45.74 65.4004 46.4009 65.967 47.2489C66.5335 48.0968 66.8359 49.0937 66.8359 50.1135C66.8344 51.4806 66.2907 52.7912 65.324 53.7578C64.3574 54.7245 63.0467 55.2682 61.6797 55.2698Z" fill="#FFBA08"/>
<path d="M24.875 50.1918C24.875 48.7393 24.4443 47.3195 23.6374 46.1118C22.8304 44.9041 21.6835 43.9629 20.3416 43.407C18.9997 42.8512 17.5231 42.7058 16.0986 42.9891C14.674 43.2725 13.3655 43.9719 12.3384 44.999C11.3114 46.026 10.612 47.3345 10.3286 48.7591C10.0453 50.1836 10.1907 51.6602 10.7465 53.0021C11.3023 54.344 12.2436 55.4909 13.4513 56.2979C14.659 57.1048 16.0788 57.5355 17.5313 57.5355C19.4783 57.5333 21.3449 56.7589 22.7216 55.3822C24.0984 54.0054 24.8728 52.1388 24.875 50.1918ZM12.375 50.1918C12.375 49.172 12.6774 48.1751 13.244 47.3271C13.8106 46.4792 14.6159 45.8183 15.558 45.428C16.5002 45.0378 17.537 44.9356 18.5372 45.1346C19.5374 45.3336 20.4562 45.8246 21.1773 46.5458C21.8984 47.2669 22.3895 48.1856 22.5884 49.1858C22.7874 50.1861 22.6853 51.2228 22.295 52.165C21.9047 53.1072 21.2439 53.9125 20.3959 54.479C19.548 55.0456 18.5511 55.348 17.5313 55.348C16.1642 55.3465 14.8536 54.8027 13.887 53.8361C12.9203 52.8694 12.3766 51.5588 12.375 50.1918Z" fill="#FFBA08"/>
</svg>
