<svg width="80" height="80" viewBox="0 0 80 80" fill="none" xmlns="http://www.w3.org/2000/svg">
<path d="M59.8438 69.8165C48.1266 69.8165 38.5938 60.2838 38.5938 48.5665C38.5881 44.5224 39.7403 40.5613 41.9143 37.1513C44.0882 33.7413 47.1931 31.025 50.8617 29.3235C46.0702 30.3052 41.7652 32.9125 38.6753 36.7039C35.5855 40.4954 33.9007 45.2381 33.9063 50.1291C33.9063 61.8463 43.4389 71.3791 55.1563 71.3791C58.2666 71.3824 61.3394 70.6986 64.1549 69.3768C62.7366 69.6698 61.292 69.8171 59.8438 69.8165Z" fill="#D4E1F4"/>
<path d="M20.0147 17.4312C20.0258 17.4113 20.0361 17.391 20.0459 17.3706C21.0014 15.3627 23.1056 11.991 26.4645 11.9663L56.3201 11.7463H56.3579C57.1375 11.7432 57.9053 11.9361 58.5907 12.3073C56.8542 9.74728 55.1934 8.62134 53.2329 8.62134H53.1951L23.3393 8.84134C19.98 8.86603 17.8762 12.2377 16.9208 14.2456C16.9111 14.266 16.9008 14.2863 16.8895 14.3062L11.7708 23.5351L16.6489 23.4992L20.0147 17.4312Z" fill="#D4E1F4"/>
<path d="M11.3624 46.1497C10.9986 45.7804 10.7938 45.2834 10.7918 44.765C10.7914 44.7176 10.7882 44.6702 10.7822 44.6231L8.92864 30.345C8.93552 28.0012 10.1563 26.3706 11.6388 25.7234L9.91442 25.7361H9.90661C9.84685 25.7358 9.78723 25.7305 9.72833 25.7205C7.76255 25.8517 5.81255 27.6183 5.80396 30.4886L7.65661 44.3123C7.66259 44.3579 7.66578 44.4037 7.66614 44.4497C7.6722 44.9518 7.8753 45.4315 8.23167 45.7852C8.58803 46.139 9.06914 46.3387 9.5713 46.3411H9.58552L11.5636 46.3266C11.4926 46.2722 11.4254 46.2131 11.3624 46.1497Z" fill="#D4E1F4"/>
<path d="M13.9695 31.6765C12.8587 31.686 11.7967 32.1349 11.0159 32.9252C10.2351 33.7155 9.79904 34.7828 9.80301 35.8937C9.80697 37.0046 10.2507 38.0688 11.0371 38.8535C11.8235 39.6382 12.8886 40.0795 13.9995 40.0811H14.0308C15.1418 40.0716 16.2038 39.6225 16.9845 38.8321C17.7653 38.0417 18.2013 36.9742 18.1972 35.8632C18.193 34.7522 17.7491 33.6881 16.9625 32.9035C16.1759 32.1189 15.1106 31.6778 13.9995 31.6765H13.9695ZM16.0152 35.864C16.0181 36.2625 15.9027 36.6528 15.6838 36.9857C15.4648 37.3186 15.1521 37.5791 14.7851 37.7343C14.4181 37.8895 14.0133 37.9323 13.6219 37.8575C13.2306 37.7826 12.8702 37.5933 12.5864 37.3137C12.3026 37.034 12.1081 36.6764 12.0275 36.2862C11.9469 35.896 11.9838 35.4906 12.1336 35.1214C12.2834 34.7521 12.5392 34.4356 12.8689 34.2118C13.1986 33.988 13.5872 33.867 13.9856 33.864H14.0013C14.5328 33.8648 15.0425 34.0753 15.4196 34.4497C15.7968 34.8242 16.0109 35.3324 16.0155 35.8639L16.0152 35.864Z" fill="#1973E7"/>
<path d="M74.537 20.4609C73.8856 18.5547 71.8692 17.3376 69.3973 17.3515C67.9146 17.3625 65.2275 17.3726 63.9981 17.377L61.5398 12.9239C59.8236 9.89889 57.3301 6.43311 53.2323 6.43311H53.1789L23.3232 6.65373C19.9584 6.67842 16.9893 9.02873 14.9604 13.2744L12.4621 17.7787C11.2357 17.7853 8.51714 17.8001 7.01527 17.8112C4.54433 17.8294 2.54511 19.0795 1.92152 20.9961C1.63899 21.8701 1.46605 22.7758 1.40668 23.6925C1.40065 23.8398 1.42447 23.9868 1.4767 24.1247C1.52894 24.2625 1.60851 24.3884 1.71063 24.4948C1.81275 24.6011 1.93531 24.6857 2.07096 24.7435C2.2066 24.8012 2.35252 24.831 2.49996 24.8309H2.50949L6.26558 24.7984C4.63667 26.064 3.59808 28.1601 3.61589 30.5703C3.61623 30.6162 3.61947 30.6621 3.62558 30.7076L5.48011 44.54C5.50677 45.4911 5.86303 46.4035 6.48797 47.121C7.11291 47.8386 7.96771 48.3167 8.90621 48.4737L8.93886 52.9028C8.94402 53.5871 9.21941 54.2417 9.70504 54.7239C10.1907 55.206 10.8472 55.4767 11.5315 55.477H11.5512L16.1048 55.4434C16.7923 55.4376 17.4495 55.1592 17.932 54.6694C18.4146 54.1797 18.6832 53.5185 18.6789 52.8309L18.6467 48.4619L33.0028 48.3561C33.2928 48.354 33.5702 48.2368 33.7739 48.0302C33.9775 47.8236 34.0908 47.5446 34.0887 47.2545C34.0866 46.9644 33.9694 46.6871 33.7628 46.4834C33.5562 46.2798 33.2772 46.1665 32.9871 46.1686L9.58574 46.3405H9.57152C9.06936 46.338 8.58826 46.1384 8.23189 45.7846C7.87552 45.4308 7.67242 44.9512 7.66636 44.449C7.66576 44.4034 7.66237 44.3578 7.65621 44.3125L5.80324 30.4879C5.81183 27.6176 7.76183 25.8511 9.72761 25.7198C9.78651 25.7299 9.84614 25.7351 9.90589 25.7355H9.91402L66.4954 25.3186C66.5035 25.3186 66.511 25.3198 66.5196 25.3198H66.5571C67.1243 25.3225 67.6842 25.4472 68.1989 25.6854C68.7136 25.9237 69.171 26.2699 69.54 26.7006C70.3322 27.6218 70.7765 28.7914 70.7957 30.0062L70.2278 34.5597C70.2099 34.7023 70.2203 34.847 70.2583 34.9856C70.2964 35.1242 70.3614 35.2539 70.4497 35.3674C70.5379 35.4808 70.6477 35.5758 70.7726 35.6468C70.8976 35.7178 71.0353 35.7635 71.1779 35.7812C71.2233 35.7869 71.2689 35.7897 71.3146 35.7898C71.5811 35.7895 71.8382 35.6919 72.0378 35.5154C72.2373 35.3389 72.3656 35.0956 72.3986 34.8312L72.9757 30.2029C72.9817 30.1554 72.9845 30.1075 72.984 30.0595C72.9827 28.2911 72.3411 26.5831 71.1778 25.2512C70.8779 24.9119 70.5437 24.6045 70.1806 24.334L74.0087 24.3045C74.1567 24.3034 74.303 24.2722 74.4386 24.2128C74.5743 24.1535 74.6964 24.0673 74.7978 23.9593C74.8991 23.8514 74.9774 23.724 75.028 23.5849C75.0787 23.4457 75.1005 23.2978 75.0923 23.15C75.0192 22.2341 74.8326 21.3308 74.537 20.4609ZM16.4598 48.478L16.492 52.8472C16.4927 52.9548 16.4506 53.0582 16.3751 53.1348C16.2996 53.2115 16.1968 53.255 16.0892 53.2559L11.5356 53.2895H11.5325C11.4253 53.2895 11.3225 53.2472 11.2464 53.1717C11.1703 53.0963 11.1271 52.9938 11.1262 52.8867L11.094 48.5175L16.4598 48.478ZM9.79902 22.5801L3.75214 22.6326C3.81721 22.3081 3.90068 21.9875 4.00214 21.6725C4.32402 20.6823 5.54136 20.0097 7.03121 19.9987C8.13652 19.9906 9.90168 19.9803 11.245 19.9729L9.79902 22.5801ZM47.0373 23.2751C47.2387 22.0878 47.8513 21.0091 48.768 20.2279C49.6846 19.4468 50.8468 19.0129 52.0511 19.0023H52.09C53.2882 19.0025 54.4484 19.4227 55.3689 20.1898C56.2895 20.9569 56.912 22.0224 57.1282 23.2009L47.0373 23.2751ZM59.3382 23.1845C59.1087 21.4142 58.2393 19.789 56.894 18.6156C55.5487 17.4422 53.8205 16.8017 52.0354 16.8148C50.2503 16.828 48.5317 17.4939 47.2038 18.687C45.8759 19.8801 45.0306 21.5179 44.8271 23.2914L11.7709 23.535L16.8896 14.3061C16.9007 14.2862 16.911 14.2659 16.9209 14.2454C17.8764 12.2376 19.9806 8.86592 23.3395 8.84123L53.1951 8.62123H53.2329C55.5804 8.62123 57.4986 10.234 59.6312 13.9929L64.6839 23.1453L59.3382 23.1845ZM66.646 22.1734L65.2031 19.5601C66.5442 19.5548 68.3107 19.5472 69.4132 19.539H69.4503C70.9234 19.539 72.1329 20.1911 72.4668 21.1683C72.5734 21.4824 72.6621 21.8023 72.7325 22.1265L66.646 22.1734Z" fill="#1973E7"/>
<path d="M30.37 32.0247C30.2263 32.0257 30.0843 32.055 29.952 32.111C29.8197 32.1669 29.6997 32.2484 29.5989 32.3507C29.498 32.453 29.4184 32.5742 29.3644 32.7073C29.3104 32.8404 29.2831 32.9829 29.2842 33.1265L29.3055 35.9909C29.3076 36.2796 29.4238 36.5557 29.6287 36.7591C29.8336 36.9624 30.1105 37.0766 30.3992 37.0765H30.4075C30.5511 37.0755 30.6931 37.0461 30.8254 36.9902C30.9577 36.9342 31.0777 36.8528 31.1785 36.7505C31.2793 36.6481 31.359 36.527 31.413 36.3939C31.4669 36.2607 31.4942 36.1183 31.4931 35.9747L31.472 33.1103C31.469 32.8205 31.3514 32.5436 31.1449 32.3402C30.9384 32.1368 30.6598 32.0234 30.37 32.0247Z" fill="#1973E7"/>
<path d="M25.0644 32.0638C24.9208 32.0648 24.7788 32.0942 24.6465 32.1501C24.5142 32.2061 24.3942 32.2875 24.2934 32.3898C24.1926 32.4922 24.1129 32.6133 24.0589 32.7464C24.005 32.8796 23.9777 33.022 23.9788 33.1656L23.9999 36.03C24.002 36.3187 24.1182 36.5948 24.3231 36.7982C24.528 37.0015 24.805 37.1156 25.0936 37.1156H25.1018C25.2454 37.1146 25.3874 37.0852 25.5197 37.0293C25.652 36.9733 25.772 36.8919 25.8728 36.7895C25.9736 36.6872 26.0533 36.566 26.1072 36.4329C26.1612 36.2998 26.1884 36.1574 26.1874 36.0138L26.1663 33.1494C26.1652 33.0057 26.1359 32.8637 26.0799 32.7314C26.024 32.5991 25.9425 32.4792 25.8402 32.3783C25.7379 32.2775 25.6167 32.1979 25.4836 32.1439C25.3505 32.0899 25.208 32.0627 25.0644 32.0638Z" fill="#1973E7"/>
<path d="M35.7041 37.0375H35.7124C35.856 37.0364 35.998 37.0071 36.1303 36.9511C36.2626 36.8952 36.3826 36.8137 36.4834 36.7114C36.5842 36.6091 36.6639 36.4879 36.7178 36.3548C36.7718 36.2217 36.7991 36.0792 36.798 35.9356L36.7769 33.0711C36.7748 32.781 36.6576 32.5036 36.451 32.3C36.2444 32.0963 35.9654 31.9831 35.6753 31.9851C35.3852 31.9872 35.1079 32.1044 34.9042 32.311C34.7006 32.5176 34.5873 32.7966 34.5894 33.0867L34.6105 35.9512C34.6125 36.24 34.7285 36.5162 34.9334 36.7197C35.1383 36.9232 35.4153 37.0374 35.7041 37.0375Z" fill="#1973E7"/>
<path d="M55.1563 26.6917C52.0776 26.6888 49.0286 27.2932 46.1838 28.47C43.3389 29.6468 40.7541 31.3731 38.5772 33.5501C36.4002 35.727 34.6739 38.3118 33.4971 41.1567C32.3203 44.0015 31.7159 47.0505 31.7188 50.1292C31.7188 63.0526 42.2327 73.5667 55.1563 73.5667C68.0799 73.5667 78.5938 63.0528 78.5938 50.1292C78.5938 43.9131 76.1245 37.9517 71.7291 33.5563C67.3337 29.161 61.3723 26.6917 55.1563 26.6917ZM55.1563 71.3792C43.4391 71.3792 33.9063 61.8465 33.9063 50.1292C33.9063 44.4933 36.1451 39.0883 40.1302 35.1031C44.1154 31.118 49.5204 28.8792 55.1563 28.8792C60.7921 28.8792 66.1971 31.118 70.1823 35.1031C74.1674 39.0883 76.4063 44.4933 76.4063 50.1292C76.4063 61.8462 66.8736 71.3788 55.1563 71.3788V71.3792Z" fill="#FFBA08"/>
<path d="M55.156 32.8813C51.9621 32.8849 48.8999 34.1552 46.6415 36.4137C44.383 38.6721 43.1126 41.7343 43.1091 44.9282V50.1157C43.1091 50.4058 43.2244 50.684 43.4295 50.8891C43.6346 51.0942 43.9128 51.2095 44.2029 51.2095C44.493 51.2095 44.7712 51.0942 44.9763 50.8891C45.1814 50.684 45.2966 50.4058 45.2966 50.1157V44.9282C45.2966 42.3134 46.3354 39.8056 48.1844 37.9566C50.0334 36.1076 52.5411 35.0688 55.156 35.0688C57.7709 35.0688 60.2786 36.1076 62.1276 37.9566C63.9766 39.8056 65.0154 42.3134 65.0154 44.9282V50.1157C65.0154 50.4058 65.1306 50.684 65.3357 50.8891C65.5408 51.0942 65.819 51.2095 66.1091 51.2095C66.3992 51.2095 66.6774 51.0942 66.8825 50.8891C67.0876 50.684 67.2029 50.4058 67.2029 50.1157V44.9282C67.1994 41.7343 65.929 38.6721 63.6705 36.4137C61.4121 34.1552 58.35 32.8849 55.156 32.8813Z" fill="#FFBA08"/>
<path d="M45.9562 59.9709C46.2463 59.9709 46.5245 59.8557 46.7296 59.6506C46.9347 59.4455 47.05 59.1673 47.05 58.8772V50.115C47.05 49.8249 46.9347 49.5467 46.7296 49.3416C46.5245 49.1365 46.2463 49.0212 45.9562 49.0212H42.8895C41.9026 49.0224 40.9564 49.4149 40.2585 50.1128C39.5607 50.8106 39.1681 51.7568 39.167 52.7437V56.2486C39.1681 57.2355 39.5607 58.1817 40.2585 58.8795C40.9564 59.5773 41.9026 59.9699 42.8895 59.9709H45.9562ZM41.3545 56.2486V52.7437C41.3549 52.3368 41.5168 51.9466 41.8046 51.6588C42.0924 51.3711 42.4825 51.2092 42.8895 51.2087H44.8625V57.7834H42.8895C42.4825 57.783 42.0924 57.6212 41.8046 57.3334C41.5168 57.0457 41.3549 56.6555 41.3545 56.2486Z" fill="#1973E7"/>
<path d="M62.9391 63.2294H61.405C61.1149 63.2294 60.8367 63.3446 60.6316 63.5497C60.4265 63.7548 60.3113 64.033 60.3113 64.3231C60.3113 64.6132 60.4265 64.8914 60.6316 65.0965C60.8367 65.3016 61.1149 65.4169 61.405 65.4169H62.9391C64.0695 65.4157 65.1533 64.9661 65.9527 64.1668C66.7521 63.3675 67.2017 62.2837 67.203 61.1533V59.9709H67.4235C68.4104 59.9698 69.3565 59.5773 70.0544 58.8795C70.7522 58.1816 71.1448 57.2355 71.146 56.2486V52.7437C71.1448 51.7568 70.7522 50.8107 70.0544 50.1128C69.3565 49.415 68.4104 49.0224 67.4235 49.0212H64.3566C64.0665 49.0212 63.7883 49.1365 63.5832 49.3416C63.3781 49.5467 63.2628 49.8249 63.2628 50.115V58.8772C63.2628 59.1673 63.3781 59.4455 63.5832 59.6506C63.7883 59.8557 64.0665 59.9709 64.3566 59.9709H65.0155V61.1533C65.015 61.7038 64.796 62.2316 64.4067 62.6208C64.0174 63.01 63.4896 63.2289 62.9391 63.2294ZM65.4503 51.2087H67.4233C67.8303 51.2092 68.2204 51.3711 68.5082 51.6588C68.796 51.9466 68.9579 52.3368 68.9583 52.7437V56.2486C68.9579 56.6555 68.796 57.0457 68.5082 57.3334C68.2204 57.6212 67.8303 57.783 67.4233 57.7834H65.4503V51.2087Z" fill="#1973E7"/>
<path d="M58.6452 61.2693H56.0583C55.2778 61.2702 54.5294 61.5807 53.9775 62.1326C53.4256 62.6846 53.1151 63.4329 53.1143 64.2135V64.4323C53.1151 65.2128 53.4256 65.9611 53.9775 66.5131C54.5294 67.065 55.2778 67.3755 56.0583 67.3763H58.6452C59.4257 67.3755 60.1739 67.0651 60.7258 66.5132C61.2778 65.9614 61.5883 65.2132 61.5893 64.4327V64.214C61.5885 63.4333 61.2781 62.6849 60.7262 62.1328C60.1742 61.5808 59.4258 61.2702 58.6452 61.2693ZM59.4018 64.4327C59.4016 64.6333 59.3218 64.8256 59.1799 64.9675C59.0381 65.1093 58.8458 65.1891 58.6452 65.1893H56.0583C55.8577 65.1891 55.6654 65.1093 55.5236 64.9675C55.3817 64.8256 55.302 64.6333 55.3018 64.4327V64.214C55.302 64.0134 55.3817 63.821 55.5236 63.6792C55.6654 63.5373 55.8577 63.4575 56.0583 63.4573H58.6452C58.8458 63.4575 59.0381 63.5373 59.1799 63.6792C59.3218 63.821 59.4016 64.0134 59.4018 64.214V64.4327Z" fill="#FFBA08"/>
</svg>
