<svg width="80" height="80" viewBox="0 0 80 80" fill="none" xmlns="http://www.w3.org/2000/svg">
<path d="M29.7269 68.0762H27.0706V74.1571C27.0706 74.2814 27.0212 74.4007 26.9333 74.4886C26.8454 74.5765 26.7262 74.6259 26.6019 74.6259H5.70312V75.7196C5.70312 75.8439 5.75251 75.9632 5.84042 76.0511C5.92833 76.139 6.04755 76.1884 6.17188 76.1884H29.7269C29.8512 76.1884 29.9704 76.139 30.0583 76.0511C30.1462 75.9632 30.1956 75.8439 30.1956 75.7196V68.5449C30.1956 68.4206 30.1462 68.3014 30.0583 68.2135C29.9704 68.1256 29.8512 68.0762 29.7269 68.0762Z" fill="#D4E1F4"/>
<path d="M30.6828 53.3381V56.8553C30.6814 57.8813 30.2732 58.8649 29.5477 59.5904C28.8221 60.3158 27.8385 60.7239 26.8125 60.7252C26.5224 60.7252 26.2442 60.8404 26.0391 61.0455C25.834 61.2506 25.7187 61.5288 25.7187 61.8189V64.3263H9.7981V65.8888H26.9687V63.3814C26.9687 63.0913 27.084 62.8131 27.2891 62.608C27.4942 62.4029 27.7724 62.2877 28.0625 62.2877C29.0884 62.2863 30.0719 61.8781 30.7974 61.1527C31.5228 60.4273 31.931 59.4437 31.9323 58.4178V53.3381H30.6828Z" fill="#D4E1F4"/>
<path d="M28.0469 36.2012V6.03215C28.0475 5.44341 28.2817 4.87897 28.698 4.46266C29.1143 4.04636 29.6788 3.81219 30.2675 3.81152H28.705C28.1163 3.81219 27.5518 4.04636 27.1355 4.46266C26.7192 4.87897 26.485 5.44341 26.4844 6.03215V36.6272L26.8739 36.3186C27.0378 36.189 27.2354 36.1091 27.4432 36.0883C27.6511 36.0675 27.8606 36.1067 28.0469 36.2012Z" fill="#D4E1F4"/>
<path d="M28.0468 48.9298V46.8112L30.7663 44.0924C31.6683 43.1884 32.1748 41.9636 32.1748 40.6865C32.1748 39.4095 31.6683 38.1847 30.7663 37.2807L29.8888 36.4032C29.6991 36.2133 29.4462 36.0998 29.1783 36.0843C28.9103 36.0688 28.646 36.1524 28.4357 36.3191L28.3274 36.4051L29.2024 37.2801C30.1046 38.1841 30.6113 39.4091 30.6113 40.6863C30.6113 41.9635 30.1046 43.1885 29.2024 44.0926L26.4836 46.8113V48.9299C26.4843 49.5187 26.7184 50.0832 27.1347 50.4995C27.551 50.9158 28.1155 51.15 28.7043 51.1507H30.2668C29.6781 51.1499 29.1138 50.9156 28.6976 50.4992C28.2814 50.0829 28.0473 49.5184 28.0468 48.9298Z" fill="#D4E1F4"/>
<path d="M43.2195 24.8696C43.2195 25.1597 43.3347 25.4379 43.5398 25.643C43.745 25.8481 44.0232 25.9634 44.3132 25.9634C44.6033 25.9634 44.8815 25.8481 45.0866 25.643C45.2918 25.4379 45.407 25.1597 45.407 24.8696C45.407 24.5153 45.5477 24.1755 45.7983 23.925C46.0488 23.6744 46.3886 23.5337 46.7429 23.5337C47.0972 23.5337 47.437 23.6744 47.6876 23.925C47.9381 24.1755 48.0789 24.5153 48.0789 24.8696C48.0789 25.1597 48.1941 25.4379 48.3992 25.643C48.6043 25.8481 48.8825 25.9634 49.1726 25.9634C49.4627 25.9634 49.7409 25.8481 49.946 25.643C50.1511 25.4379 50.2664 25.1597 50.2664 24.8696C50.2664 23.9352 49.8951 23.039 49.2344 22.3782C48.5736 21.7174 47.6774 21.3462 46.7429 21.3462C45.8084 21.3462 44.9122 21.7174 44.2515 22.3782C43.5907 23.039 43.2195 23.9352 43.2195 24.8696Z" fill="#FFBA08"/>
<path d="M9.79811 43.0749C9.79577 42.0816 10.1777 41.1259 10.8641 40.4078L26.0727 28.2749L24.7086 26.5649L9.44499 38.7415C9.4106 38.7691 9.37784 38.7987 9.34686 38.8301C8.23093 39.9607 7.60688 41.4864 7.61061 43.0749V66.9826H9.79811V43.0749Z" fill="#FFBA08"/>
<path d="M29.1565 64.3762C30.5492 64.1186 31.8079 63.3818 32.7145 62.2935C33.621 61.2053 34.1183 59.8342 34.1201 58.4178V52.2864H31.9326V58.4178C31.9312 59.4437 31.5231 60.4272 30.7976 61.1527C30.0722 61.8781 29.0887 62.2863 28.0627 62.2876C27.7727 62.2876 27.4945 62.4029 27.2893 62.608C27.0842 62.8131 26.969 63.0913 26.969 63.3814V66.9825H29.1565V64.3762Z" fill="#FFBA08"/>
<path d="M32.3831 75.7196V68.5449C32.3823 67.8407 32.1022 67.1655 31.6043 66.6675C31.1063 66.1696 30.4311 65.8895 29.7269 65.8887H6.17188C5.46763 65.8895 4.79246 66.1696 4.29449 66.6675C3.79652 67.1655 3.51641 67.8407 3.51562 68.5449V75.7196C3.51641 76.4239 3.79652 77.099 4.29449 77.597C4.79246 78.095 5.46763 78.3751 6.17188 78.3759H29.7269C30.4311 78.3751 31.1063 78.095 31.6043 77.597C32.1022 77.099 32.3823 76.4239 32.3831 75.7196ZM5.70312 75.7196V68.5449C5.70312 68.4206 5.75251 68.3014 5.84042 68.2135C5.92833 68.1256 6.04755 68.0762 6.17188 68.0762H29.7269C29.8512 68.0762 29.9704 68.1256 30.0583 68.2135C30.1462 68.3014 30.1956 68.4206 30.1956 68.5449V75.7196C30.1956 75.8439 30.1462 75.9632 30.0583 76.0511C29.9704 76.139 29.8512 76.1884 29.7269 76.1884H6.17188C6.04755 76.1884 5.92833 76.139 5.84042 76.0511C5.75251 75.9632 5.70312 75.8439 5.70312 75.7196Z" fill="#1973E7"/>
<path d="M10.0074 69.2392C9.40797 69.2267 8.81843 69.393 8.31395 69.717C7.80946 70.0409 7.4129 70.5078 7.17485 71.0581C6.93679 71.6083 6.86803 72.217 6.97734 72.8065C7.08664 73.396 7.36905 73.9396 7.78855 74.3679C8.20806 74.7963 8.74563 75.0899 9.33272 75.2115C9.91981 75.333 10.5298 75.277 11.0849 75.0504C11.64 74.8239 12.115 74.4371 12.4494 73.9395C12.7838 73.4419 12.9624 72.8559 12.9624 72.2564C12.9696 71.4647 12.6626 70.7025 12.1087 70.1369C11.5547 69.5712 10.799 69.2484 10.0074 69.2392ZM10.0074 73.0861C9.84054 73.0991 9.67365 73.0615 9.52851 72.9782C9.38336 72.8949 9.26669 72.7698 9.19374 72.6192C9.12079 72.4685 9.09494 72.2994 9.11957 72.1339C9.1442 71.9684 9.21816 71.8141 9.3318 71.6913C9.44544 71.5684 9.59348 71.4827 9.75659 71.4453C9.9197 71.4079 10.0903 71.4205 10.2461 71.4815C10.402 71.5425 10.5358 71.6491 10.6301 71.7873C10.7244 71.9256 10.7749 72.089 10.7749 72.2564C10.7825 72.468 10.7061 72.6741 10.5623 72.8296C10.4185 72.985 10.219 73.0772 10.0074 73.0861Z" fill="#1973E7"/>
<path d="M64.5 36.4725C63.9153 36.4729 63.3313 36.5158 62.7528 36.6009V15.9759C62.7528 15.8323 62.7245 15.69 62.6696 15.5573C62.6146 15.4246 62.5341 15.304 62.4325 15.2025L49.1755 1.94434C49.0739 1.84276 48.9533 1.76218 48.8205 1.70722C48.6878 1.65226 48.5455 1.62399 48.4019 1.62402H28.705C27.5363 1.62535 26.4158 2.0902 25.5894 2.91659C24.763 3.74299 24.2982 4.86345 24.2969 6.03215V39.0312H26.4844V6.03215C26.485 5.44341 26.7192 4.87896 27.1355 4.46266C27.5518 4.04636 28.1163 3.81219 28.705 3.81152H47.3081V12.6609C47.3095 13.8296 47.7744 14.95 48.6007 15.7764C49.4271 16.6028 50.5476 17.0677 51.7163 17.069H60.5658V37.1359C57.7732 38.1044 55.4376 40.0718 54.0086 42.6592C52.5796 45.2466 52.1583 48.2711 52.8258 51.1506H28.705C28.1162 51.1499 27.5518 50.9157 27.1355 50.4994C26.7191 50.0831 26.485 49.5186 26.4844 48.9298V46.0671H24.2969V48.9298C24.2982 50.0985 24.763 51.219 25.5894 52.0455C26.4158 52.8719 27.5363 53.3368 28.705 53.3381H53.5602C54.4389 55.307 55.8327 57.0024 57.5945 58.2454C59.3563 59.4884 61.4209 60.2329 63.5705 60.4006C65.7201 60.5682 67.8752 60.1527 69.8084 59.1978C71.7416 58.243 73.3813 56.7842 74.5546 54.9752C75.728 53.1663 76.3915 51.0743 76.4752 48.9198C76.5589 46.7652 76.0597 44.628 75.0302 42.7335C74.0007 40.839 72.4791 39.2574 70.6258 38.1555C68.7725 37.0535 66.6562 36.4721 64.5 36.4725ZM51.7163 14.8815C51.1275 14.8809 50.563 14.6467 50.1467 14.2304C49.7304 13.8141 49.4962 13.2497 49.4956 12.6609V5.35824L59.0191 14.8815H51.7163ZM64.5 58.2528C62.5624 58.2528 60.6682 57.6782 59.0572 56.6017C57.4461 55.5252 56.1904 53.9951 55.4489 52.205C54.7074 50.4149 54.5134 48.445 54.8914 46.5446C55.2694 44.6442 56.2024 42.8986 57.5726 41.5285C58.9427 40.1583 60.6883 39.2253 62.5887 38.8473C64.4891 38.4693 66.459 38.6633 68.2491 39.4048C70.0392 40.1463 71.5693 41.402 72.6458 43.013C73.7223 44.6241 74.2969 46.5183 74.2969 48.4559C74.2941 51.0533 73.261 53.5436 71.4243 55.3802C69.5877 57.2169 67.0974 58.25 64.5 58.2528Z" fill="#1973E7"/>
<path d="M50.0822 37.6687H51.8614C52.3067 37.6682 52.7337 37.4911 53.0486 37.1762C53.3635 36.8613 53.5406 36.4343 53.5411 35.989V34.7277C53.9158 34.5505 54.2348 34.2739 54.4632 33.9279C54.6917 33.582 54.8209 33.1801 54.8369 32.7659L55.5474 27.3909C55.5537 27.3433 55.5568 27.2954 55.5569 27.2474C55.5569 25.6348 54.4969 24.2824 53.0824 23.9406L51.0511 20.1951C50.2975 18.844 49.1814 17.2932 47.2209 17.2932H36.8053C35.2272 17.2932 33.8513 18.3295 32.9288 20.212L30.8317 23.9268C29.407 24.2574 28.3694 25.5968 28.3694 27.2479C28.3694 27.2939 28.3722 27.3398 28.378 27.3854L29.0588 32.7624C29.0744 33.183 29.2067 33.5909 29.4409 33.9405C29.6751 34.2901 30.002 34.5677 30.385 34.7421V35.989C30.3855 36.4343 30.5626 36.8613 30.8775 37.1762C31.1924 37.4911 31.6194 37.6682 32.0647 37.6687H33.8442C34.2895 37.6681 34.7165 37.491 35.0314 37.1761C35.3462 36.8612 35.5234 36.4343 35.5239 35.989V34.9481H48.4028V35.989C48.4034 36.4343 48.5805 36.8611 48.8953 37.176C49.2101 37.4909 49.6369 37.6681 50.0822 37.6687ZM51.3536 35.4812H50.59V34.9481H51.3536V35.4812ZM34.8492 21.259C34.8605 21.2392 34.8709 21.219 34.8805 21.1985C35.1916 20.5579 35.855 19.4812 36.8042 19.4812H47.2199C47.8697 19.4812 48.4438 20.0135 49.1333 21.2499L50.5474 23.8562H33.3834L34.8492 21.259ZM33.3361 35.4812H32.5725V34.9481H33.3361V35.4812ZM31.3228 32.7606C31.3023 32.7598 31.2829 32.7514 31.2684 32.7369C31.2539 32.7224 31.2454 32.7029 31.2447 32.6824C31.2447 32.6365 31.2417 32.5906 31.2359 32.5451L30.5578 27.1888C30.5806 26.6487 30.9124 26.0898 31.4414 26.0391C31.4644 26.0406 31.487 26.0437 31.5102 26.0437H52.3695C52.3736 26.0437 52.3775 26.0437 52.3816 26.0437C52.9702 26.0437 53.3425 26.6252 53.368 27.186L52.6603 32.5385C52.6541 32.586 52.6509 32.6339 52.6509 32.6818C52.6499 32.7022 52.6414 32.7215 52.6269 32.7359C52.6125 32.7504 52.5932 32.7589 52.5728 32.7599L31.3228 32.7606Z" fill="#1973E7"/>
<path d="M45.4814 29.3931H38.4438C38.1538 29.3931 37.8756 29.5083 37.6704 29.7134C37.4653 29.9185 37.3501 30.1967 37.3501 30.4868C37.3501 30.7769 37.4653 31.0551 37.6704 31.2602C37.8756 31.4653 38.1538 31.5806 38.4438 31.5806H45.4814C45.7714 31.5806 46.0496 31.4653 46.2548 31.2602C46.4599 31.0551 46.5751 30.7769 46.5751 30.4868C46.5751 30.1967 46.4599 29.9185 46.2548 29.7134C46.0496 29.5083 45.7714 29.3931 45.4814 29.3931Z" fill="#1973E7"/>
<path d="M33.5778 27.2256C33.0576 27.2256 32.5491 27.3799 32.1165 27.6689C31.6839 27.9579 31.3468 28.3687 31.1477 28.8493C30.9486 29.3299 30.8966 29.8588 30.9981 30.369C31.0995 30.8793 31.3501 31.348 31.7179 31.7158C32.0858 32.0837 32.5544 32.3342 33.0647 32.4357C33.5749 32.5372 34.1038 32.4851 34.5844 32.286C35.065 32.0869 35.4758 31.7498 35.7648 31.3172C36.0539 30.8847 36.2081 30.3761 36.2081 29.8559C36.2073 29.1585 35.93 28.49 35.4369 27.9969C34.9438 27.5037 34.2752 27.2264 33.5778 27.2256ZM33.5778 30.2987C33.4902 30.2987 33.4046 30.2727 33.3318 30.2241C33.259 30.1754 33.2022 30.1063 33.1687 30.0254C33.1352 29.9444 33.1264 29.8554 33.1435 29.7695C33.1606 29.6836 33.2028 29.6047 33.2647 29.5428C33.3266 29.4809 33.4055 29.4387 33.4914 29.4216C33.5773 29.4045 33.6664 29.4133 33.7473 29.4468C33.8282 29.4803 33.8973 29.5371 33.946 29.6099C33.9947 29.6827 34.0206 29.7683 34.0206 29.8559C34.0205 29.9733 33.9738 30.0858 33.8908 30.1688C33.8077 30.2518 33.6952 30.2985 33.5778 30.2987Z" fill="#1973E7"/>
<path d="M50.3478 27.2256C49.8276 27.2256 49.3191 27.3799 48.8865 27.6689C48.454 27.9579 48.1168 28.3687 47.9178 28.8493C47.7187 29.3299 47.6666 29.8588 47.7681 30.369C47.8696 30.8793 48.1201 31.348 48.4879 31.7158C48.8558 32.0837 49.3245 32.3342 49.8347 32.4357C50.3449 32.5372 50.8738 32.4851 51.3544 32.286C51.835 32.0869 52.2458 31.7498 52.5349 31.3172C52.8239 30.8847 52.9781 30.3761 52.9781 29.8559C52.9774 29.1585 52.7 28.4899 52.2069 27.9968C51.7138 27.5037 51.0452 27.2263 50.3478 27.2256ZM50.3478 30.2987C50.2603 30.2987 50.1746 30.2727 50.1018 30.2241C50.029 30.1754 49.9722 30.1063 49.9387 30.0254C49.9052 29.9444 49.8964 29.8554 49.9135 29.7695C49.9306 29.6836 49.9728 29.6047 50.0347 29.5428C50.0966 29.4809 50.1755 29.4387 50.2614 29.4216C50.3473 29.4045 50.4364 29.4133 50.5173 29.4468C50.5982 29.4803 50.6674 29.5371 50.716 29.6099C50.7647 29.6827 50.7906 29.7683 50.7906 29.8559C50.7905 29.9733 50.7438 30.0859 50.6608 30.1689C50.5778 30.2519 50.4652 30.2986 50.3478 30.2987Z" fill="#1973E7"/>
<path d="M53.0469 40.5635C53.0469 40.2734 52.9316 39.9952 52.7265 39.7901C52.5214 39.585 52.2432 39.4697 51.9531 39.4697H34.9219C34.6318 39.4697 34.3536 39.585 34.1485 39.7901C33.9434 39.9952 33.8281 40.2734 33.8281 40.5635C33.8281 40.8535 33.9434 41.1317 34.1485 41.3369C34.3536 41.542 34.6318 41.6572 34.9219 41.6572H51.9531C52.2432 41.6572 52.5214 41.542 52.7265 41.3369C52.9316 41.1317 53.0469 40.8535 53.0469 40.5635Z" fill="#FFBA08"/>
<path d="M34.9219 47.126H44.6094C44.8995 47.126 45.1777 47.0107 45.3828 46.8056C45.5879 46.6005 45.7031 46.3223 45.7031 46.0322C45.7031 45.7421 45.5879 45.4639 45.3828 45.2588C45.1777 45.0537 44.8995 44.9385 44.6094 44.9385H34.9219C34.6318 44.9385 34.3536 45.0537 34.1485 45.2588C33.9434 45.4639 33.8281 45.7421 33.8281 46.0322C33.8281 46.3223 33.9434 46.6005 34.1485 46.8056C34.3536 47.0107 34.6318 47.126 34.9219 47.126Z" fill="#FFBA08"/>
<path d="M29.204 44.0919C30.106 43.1879 30.6126 41.9631 30.6126 40.6861C30.6126 39.4091 30.106 38.1842 29.204 37.2802L28.3265 36.4027C28.1368 36.2128 27.8839 36.0994 27.616 36.0839C27.348 36.0684 27.0838 36.1519 26.8734 36.3186L14.9533 45.758C14.7259 45.9381 14.5793 46.2012 14.5459 46.4893C14.5124 46.7775 14.5948 47.0671 14.7749 47.2945C14.955 47.5219 15.2181 47.6684 15.5062 47.7019C15.7944 47.7353 16.084 47.653 16.3114 47.4729L27.4689 38.6383L27.6576 38.8271C27.9019 39.0712 28.0957 39.361 28.2279 39.6801C28.3602 39.9991 28.4282 40.3411 28.4282 40.6865C28.4282 41.0318 28.3602 41.3738 28.2279 41.6928C28.0957 42.0119 27.9019 42.3017 27.6576 42.5458L22.393 47.8105C22.2031 48.0002 22.0897 48.2531 22.0742 48.521L22.008 49.6688C22.0067 49.6896 22.0061 49.7105 22.0061 49.7313C22.0113 50.6237 22.2146 51.5038 22.6012 52.308C23.0091 53.1839 23.1855 54.1497 23.1134 55.1132C23.0414 56.0767 22.7234 57.0057 22.1898 57.8111C22.07 57.9908 22.0061 58.2019 22.0061 58.4179V60.8996C22.0061 61.1897 22.1213 61.4679 22.3264 61.673C22.5316 61.8781 22.8097 61.9933 23.0998 61.9933C23.3899 61.9933 23.6681 61.8781 23.8732 61.673C24.0783 61.4679 24.1936 61.1897 24.1936 60.8996V58.7344C24.8552 57.6334 25.2365 56.3868 25.304 55.1041C25.3715 53.8214 25.1232 52.5416 24.5809 51.3772C24.3363 50.8726 24.2042 50.3208 24.1937 49.76L24.234 49.0616L29.204 44.0919Z" fill="#FFBA08"/>
<path d="M59.5 47L62.5 52L70.5 43.5" stroke="#FFBA08" stroke-width="2" stroke-linecap="round" stroke-linejoin="round"/>
</svg>
