<svg width="80" height="80" viewBox="0 0 80 80" fill="none" xmlns="http://www.w3.org/2000/svg">
<path d="M20.432 23.4072C20.4392 23.3942 20.4459 23.3809 20.4523 23.3677C21.0743 22.0603 22.4447 19.8645 24.632 19.8484L44.0739 19.7052H44.0984C44.6061 19.7031 45.1061 19.8287 45.5525 20.0705C44.4217 18.4033 43.3401 17.6702 42.0634 17.6702H42.0389L22.597 17.8134C20.4095 17.8291 19.0393 20.0253 18.4173 21.3327C18.4109 21.3459 18.4042 21.3592 18.397 21.3722L15.0637 27.382L18.2403 27.3586L20.432 23.4072Z" fill="#D4E1F4"/>
<path d="M14.7971 42.1093C14.5603 41.8687 14.427 41.5451 14.4255 41.2076C14.4254 41.1767 14.4233 41.1459 14.4192 41.1152L13.2127 31.8168C13.2172 30.2904 14.0122 29.2287 14.9783 28.8073L13.8555 28.8156H13.8502C13.8113 28.8152 13.7724 28.8116 13.7341 28.8049C12.4539 28.8904 11.1842 30.0407 11.1785 31.9099L12.3855 40.9123C12.3895 40.9419 12.3916 40.9718 12.3919 41.0016C12.3958 41.3287 12.528 41.641 12.7601 41.8714C12.9922 42.1018 13.3055 42.2318 13.6325 42.2334H13.6408L14.9289 42.224C14.8824 42.1888 14.8384 42.1505 14.7971 42.1093Z" fill="#D4E1F4"/>
<path d="M16.374 32.3674H16.3509C15.5236 32.3755 14.7331 32.7105 14.1521 33.2994C13.571 33.8882 13.2465 34.6831 13.2495 35.5104C13.2525 36.3377 13.5828 37.1302 14.1681 37.7148C14.7535 38.2995 15.5464 38.6287 16.3737 38.6307H16.3968C17.227 38.6236 18.0205 38.2875 18.6033 37.6962C19.1861 37.1048 19.5105 36.3064 19.5054 35.4762C19.4984 34.6499 19.1655 33.8599 18.5791 33.2778C17.9927 32.6956 17.2003 32.3685 16.374 32.3674ZM16.3809 36.4432H16.3738C16.1254 36.4411 15.8879 36.3412 15.7126 36.1651C15.5374 35.9891 15.4386 35.751 15.4376 35.5026C15.4367 35.2542 15.5337 35.0154 15.7076 34.838C15.8815 34.6606 16.1183 34.5589 16.3667 34.5549H16.3737C16.6221 34.557 16.8597 34.657 17.0349 34.833C17.2101 35.0091 17.3089 35.2471 17.3099 35.4955C17.3108 35.7439 17.2138 35.9827 17.04 36.1601C16.8661 36.3375 16.6293 36.4392 16.3809 36.4432Z" fill="#1973E7"/>
<path d="M48.2873 32.1321H48.2642C47.4337 32.135 46.6383 32.4677 46.0531 33.057C45.4678 33.6464 45.1407 34.4441 45.1436 35.2746C45.1465 36.1051 45.4792 36.9005 46.0685 37.4857C46.6579 38.071 47.4555 38.3981 48.2861 38.3952H48.3101C49.1407 38.3922 49.936 38.0594 50.5212 37.4699C51.1063 36.8805 51.4333 36.0828 51.4303 35.2523C51.4273 34.4217 51.0944 33.6264 50.505 33.0413C49.9156 32.4561 49.1179 32.1291 48.2873 32.1321ZM49.2311 35.2571C49.2324 35.4438 49.1783 35.6267 49.0756 35.7826C48.973 35.9386 48.8264 36.0606 48.6545 36.1333C48.4825 36.2059 48.2928 36.226 48.1095 36.1909C47.9261 36.1557 47.7573 36.067 47.6243 35.936C47.4913 35.8049 47.4002 35.6374 47.3625 35.4545C47.3247 35.2717 47.342 35.0818 47.4122 34.9088C47.4824 34.7358 47.6023 34.5875 47.7568 34.4826C47.9112 34.3777 48.0933 34.321 48.28 34.3196H48.2872C48.5364 34.3197 48.7755 34.4183 48.9523 34.5939C49.1291 34.7695 49.2293 35.0079 49.2311 35.2571Z" fill="#1973E7"/>
<path d="M56.4172 25.2697C55.9405 23.8733 54.4946 22.9759 52.7272 22.9759H52.6885C51.7933 22.9825 50.2457 22.9887 49.3733 22.9915L47.8675 20.2639C46.6917 18.1918 44.9744 15.8176 42.0942 15.8176H42.0557L22.4824 15.962C20.1272 15.9793 18.0632 17.5929 16.6677 20.5062L15.1422 23.2562C14.2672 23.2609 12.6935 23.2697 11.7908 23.2764C10.006 23.2897 8.55643 24.2112 8.09612 25.6247C7.89937 26.2302 7.77993 26.8581 7.74065 27.4936C7.73465 27.6408 7.75847 27.7878 7.81069 27.9256C7.8629 28.0634 7.94243 28.1893 8.0445 28.2956C8.14657 28.4019 8.26907 28.4865 8.40465 28.5443C8.54023 28.6021 8.68609 28.6318 8.83347 28.6318H8.84347L10.3636 28.6187C9.58102 29.5775 9.16463 30.7832 9.18878 32.0206C9.18912 32.0665 9.19235 32.1124 9.19847 32.1579L10.4117 41.2068C10.434 41.8593 10.6641 42.4876 11.0685 43.0001C11.4728 43.5126 12.0304 43.8825 12.6597 44.0559L12.6789 46.6617C12.6826 47.2098 12.9029 47.7342 13.2917 48.1206C13.6805 48.507 14.2063 48.724 14.7544 48.7243H14.77L17.7553 48.7023C18.306 48.6977 18.8323 48.4748 19.2187 48.0826C19.6052 47.6904 19.8204 47.1609 19.8169 46.6103L19.7986 44.1225L44.9877 43.9368L45.0061 46.4245C45.0102 46.9726 45.2308 47.4969 45.6198 47.883C46.0087 48.2692 46.5346 48.486 47.0827 48.4862H47.0983L50.0827 48.4642C50.6335 48.4601 51.1602 48.2374 51.5468 47.845C51.9334 47.4527 52.1484 46.9228 52.1444 46.372L52.1252 43.7545C52.7395 43.5627 53.278 43.1828 53.6648 42.6685C54.0516 42.1541 54.2671 41.5313 54.281 40.8879L55.4113 31.8245C55.4171 31.7769 55.4199 31.729 55.4197 31.6811C55.4175 30.4367 54.9643 29.2354 54.1441 28.2997L55.7171 28.2875C55.8651 28.2863 56.0114 28.2551 56.147 28.1958C56.2827 28.1364 56.4049 28.0502 56.5062 27.9422C56.6075 27.8342 56.6858 27.7068 56.7364 27.5677C56.7871 27.4286 56.8089 27.2806 56.8007 27.1328C56.7518 26.4981 56.623 25.8721 56.4172 25.2697ZM18.5967 21.5389C18.6078 21.519 18.6182 21.4987 18.628 21.4783C19.2163 20.2415 20.5017 18.1648 22.4985 18.1501L42.0719 18.0058H42.0928C43.4791 18.0058 44.6383 19.0058 45.9588 21.3328L48.9655 26.7792L46.416 26.7979C46.1837 25.623 45.5514 24.5649 44.6266 23.8039C43.7018 23.0428 42.5418 22.6259 41.3441 22.6242H41.3057C40.1015 22.6348 38.9386 23.0648 38.0172 23.8402C37.0959 24.6156 36.4736 25.6879 36.2575 26.8726L15.5544 27.0253L18.5967 21.5389ZM44.1578 26.8145L38.5144 26.8561C38.7096 26.2644 39.0855 25.7489 39.5891 25.3822C40.0928 25.0154 40.6987 24.8159 41.3217 24.8117H41.3441C41.9628 24.8128 42.5659 25.0062 43.07 25.3649C43.574 25.7237 43.9542 26.2303 44.1578 26.8145ZM10.1357 26.4342C10.1485 26.3904 10.1621 26.3464 10.1766 26.3022C10.335 25.8151 11.0047 25.4709 11.8069 25.465C12.3647 25.4608 13.1785 25.4559 13.9252 25.4515L13.3958 26.4064L10.1357 26.4342ZM14.865 46.5361L14.8475 44.159L17.6116 44.1386L17.6291 46.5158L14.865 46.5361ZM47.1932 46.2979L47.1757 43.9208L49.9397 43.9004L49.9574 46.2776L47.1932 46.2979ZM52.1022 40.6809C52.0963 40.7285 52.0935 40.7764 52.0938 40.8243C52.094 41.0553 52.0033 41.2771 51.8412 41.4416C51.6791 41.6061 51.4586 41.7001 51.2277 41.7032L13.4761 41.9815H13.4697C13.2395 41.9813 13.0187 41.8901 12.8553 41.7279C12.6919 41.5657 12.5992 41.3455 12.5972 41.1153C12.5969 41.0694 12.5936 41.0236 12.5875 40.9781L11.3758 31.9411C11.3914 30.3093 12.4752 29.3048 13.5736 29.2189C13.6118 29.2235 13.6503 29.226 13.6888 29.2265H13.6969L50.788 28.9531C50.7935 28.9531 50.7989 28.954 50.8046 28.954C50.8128 28.954 50.8211 28.954 50.8297 28.954C52.2769 28.954 53.1914 30.3278 53.2308 31.6312L52.1022 40.6809ZM51.1091 26.1354L50.5786 25.1748C51.3261 25.1717 52.1435 25.1678 52.7049 25.1636H52.7258C53.5182 25.1636 54.1832 25.4964 54.3474 25.9768C54.3627 26.0216 54.3772 26.0661 54.391 26.1103L51.1091 26.1354Z" fill="#1973E7"/>
<path d="M38.1353 38.729H38.1272L26.5839 38.8142C26.2938 38.8152 26.0161 38.9315 25.8117 39.1373C25.6073 39.3432 25.4931 39.6218 25.4941 39.9119C25.4952 40.202 25.6115 40.4798 25.8173 40.6841C26.0232 40.8885 26.3018 41.0027 26.5919 41.0017H26.6L38.1433 40.9165C38.4334 40.9155 38.7111 40.7992 38.9155 40.5933C39.1199 40.3875 39.2341 40.1089 39.2331 39.8188C39.232 39.5287 39.1157 39.2509 38.9099 39.0465C38.704 38.8422 38.4254 38.728 38.1353 38.729Z" fill="#1973E7"/>
<path d="M27.1249 36.661H27.133C27.2766 36.6599 27.4187 36.6306 27.551 36.5746C27.6833 36.5187 27.8033 36.4372 27.9041 36.3349C28.0049 36.2326 28.0846 36.1114 28.1386 35.9783C28.1926 35.8452 28.2198 35.7027 28.2188 35.5591L28.2049 33.6814C28.2028 33.3913 28.0856 33.114 27.879 32.9103C27.6724 32.7067 27.3934 32.5934 27.1033 32.5955C26.8132 32.5976 26.5358 32.7148 26.3322 32.9214C26.1285 33.1279 26.0153 33.407 26.0174 33.6971L26.0313 35.5749C26.0333 35.8636 26.1494 36.1398 26.3543 36.3433C26.5591 36.5467 26.8361 36.6609 27.1249 36.661Z" fill="#1973E7"/>
<path d="M23.6323 32.6211H23.624C23.4804 32.6222 23.3383 32.6515 23.206 32.7075C23.0737 32.7634 22.9538 32.8449 22.853 32.9472C22.7521 33.0495 22.6725 33.1707 22.6185 33.3038C22.5645 33.4369 22.5373 33.5793 22.5384 33.723L22.5523 35.6009C22.5544 35.8896 22.6706 36.1657 22.8755 36.3691C23.0804 36.5724 23.3573 36.6866 23.646 36.6866H23.6543C23.7979 36.6855 23.9399 36.6562 24.0722 36.6002C24.2045 36.5443 24.3245 36.4628 24.4253 36.3605C24.5261 36.2582 24.6058 36.137 24.6598 36.0039C24.7138 35.8708 24.741 35.7283 24.7399 35.5847L24.726 33.7069C24.7239 33.4182 24.6078 33.142 24.4029 32.9386C24.198 32.7352 23.921 32.6211 23.6323 32.6211Z" fill="#1973E7"/>
<path d="M41.0235 32.4932H41.0156C40.8719 32.4942 40.7299 32.5236 40.5976 32.5795C40.4653 32.6355 40.3454 32.7169 40.2446 32.8193C40.1437 32.9216 40.0641 33.0427 40.0101 33.1759C39.9561 33.309 39.9289 33.4514 39.93 33.595L39.9439 35.4729C39.946 35.7616 40.0621 36.0377 40.267 36.2411C40.4719 36.4445 40.7489 36.5586 41.0376 36.5586H41.0457C41.1894 36.5576 41.3314 36.5283 41.4637 36.4723C41.596 36.4164 41.716 36.3349 41.8169 36.2326C41.9177 36.1303 41.9974 36.0091 42.0514 35.876C42.1053 35.7429 42.1326 35.6004 42.1315 35.4568L42.1171 33.5782C42.1148 33.2896 41.9986 33.0137 41.7938 32.8105C41.5889 32.6072 41.3121 32.4932 41.0235 32.4932Z" fill="#1973E7"/>
<path d="M30.6024 36.6354H30.6107C30.7543 36.6343 30.8963 36.605 31.0286 36.549C31.1609 36.4931 31.2809 36.4116 31.3817 36.3093C31.4825 36.207 31.5622 36.0858 31.6162 35.9527C31.6702 35.8196 31.6974 35.6771 31.6963 35.5335L31.6826 33.6557C31.6804 33.367 31.5642 33.0909 31.3594 32.8875C31.1545 32.6842 30.8775 32.5701 30.5888 32.5701H30.5805C30.4369 32.5711 30.2949 32.6005 30.1626 32.6564C30.0303 32.7124 29.9103 32.7938 29.8095 32.8962C29.7087 32.9985 29.629 33.1197 29.575 33.2528C29.5211 33.3859 29.4938 33.5283 29.4949 33.6719L29.5087 35.5498C29.5108 35.8384 29.627 36.1145 29.8319 36.3179C30.0368 36.5213 30.3137 36.6354 30.6024 36.6354Z" fill="#1973E7"/>
<path d="M34.0808 36.6094H34.0891C34.2327 36.6084 34.3748 36.579 34.5071 36.5231C34.6394 36.4671 34.7593 36.3856 34.8601 36.2833C34.961 36.181 35.0406 36.0598 35.0946 35.9267C35.1486 35.7936 35.1758 35.6512 35.1747 35.5075L35.1608 33.6296C35.1587 33.3409 35.0425 33.0648 34.8376 32.8614C34.6327 32.6581 34.3558 32.5439 34.0671 32.5439H34.059C33.9153 32.545 33.7733 32.5743 33.641 32.6303C33.5087 32.6862 33.3887 32.7677 33.2878 32.87C33.187 32.9723 33.1073 33.0935 33.0533 33.2266C32.9993 33.3597 32.9721 33.5022 32.9732 33.6458L32.9871 35.5236C32.9892 35.8123 33.1053 36.0885 33.3102 36.2919C33.5151 36.4953 33.7921 36.6094 34.0808 36.6094Z" fill="#1973E7"/>
<path d="M37.5589 36.584H37.5671C37.7108 36.583 37.8528 36.5536 37.9851 36.4977C38.1174 36.4417 38.2374 36.3603 38.3382 36.2579C38.439 36.1556 38.5186 36.0344 38.5726 35.9013C38.6266 35.7682 38.6538 35.6258 38.6528 35.4822L38.6389 33.6042C38.6367 33.3155 38.5205 33.0394 38.3157 32.836C38.1108 32.6327 37.8338 32.5185 37.5451 32.5186H37.5368C37.3932 32.5196 37.2512 32.549 37.1189 32.6049C36.9866 32.6609 36.8666 32.7423 36.7658 32.8446C36.665 32.947 36.5853 33.0681 36.5313 33.2012C36.4774 33.3344 36.4501 33.4768 36.4512 33.6204L36.4651 35.4982C36.4672 35.7869 36.5834 36.0631 36.7883 36.2665C36.9932 36.4699 37.2702 36.584 37.5589 36.584Z" fill="#1973E7"/>
<path d="M60.7473 54.4587C60.6457 54.3572 60.5251 54.2766 60.3924 54.2216C60.2597 54.1666 60.1175 54.1384 59.9738 54.1384C59.8302 54.1384 59.6879 54.1666 59.5552 54.2216C59.4225 54.2766 59.3019 54.3572 59.2004 54.4587L57.6029 56.0562L53.7682 52.2216C59.0033 46.5908 61.818 39.1296 61.6064 31.4441C61.3948 23.7587 58.1738 16.4636 52.6369 11.1294C47.0999 5.79526 39.6898 2.84859 32.0018 2.92377C24.3138 2.99895 16.9627 6.08998 11.5312 11.5314C6.08973 16.963 2.9987 24.3141 2.92352 32.0021C2.84834 39.6901 5.79502 47.1002 11.1292 52.6371C16.4634 58.1741 23.7584 61.3951 31.4439 61.6067C39.1294 61.8182 46.5906 59.0035 52.2213 53.7684L56.056 57.6031L54.4585 59.2006C54.3569 59.3022 54.2764 59.4228 54.2214 59.5555C54.1664 59.6882 54.1381 59.8304 54.1381 59.9741C54.1381 60.1177 54.1664 60.2599 54.2214 60.3926C54.2764 60.5254 54.3569 60.6459 54.4585 60.7475L69.5799 75.8691C70.3425 76.6297 71.3755 77.0568 72.4526 77.0568C73.5296 77.0568 74.5627 76.6297 75.3252 75.8691L75.8688 75.3255C76.6294 74.5629 77.0566 73.5298 77.0566 72.4528C77.0566 71.3758 76.6294 70.3427 75.8688 69.5802L60.7473 54.4587ZM13.078 51.4637C10.5576 48.9433 8.5583 45.9511 7.19425 42.658C5.83021 39.3649 5.12814 35.8354 5.12814 32.271C5.12814 28.7066 5.83021 25.1771 7.19425 21.884C8.5583 18.5909 10.5576 15.5987 13.078 13.0783C15.5985 10.5579 18.5906 8.55854 21.8837 7.1945C25.1768 5.83045 28.7063 5.12839 32.2708 5.12839C35.8352 5.12839 39.3647 5.83045 42.6578 7.1945C45.9509 8.55854 48.9431 10.5579 51.4635 13.0783C53.9839 15.5987 55.9832 18.5909 57.3473 21.884C58.7113 25.1771 59.4134 28.7066 59.4134 32.271C59.4134 35.8354 58.7113 39.3649 57.3473 42.658C55.9832 45.9511 53.9839 48.9433 51.4635 51.4637C48.9431 53.9842 45.9509 55.9835 42.6578 57.3475C39.3647 58.7116 35.8352 59.4136 32.2708 59.4136C28.7063 59.4136 25.1768 58.7116 21.8837 57.3475C18.5906 55.9835 15.5985 53.9842 13.078 51.4637ZM74.3218 73.7786L73.7784 74.322C73.4265 74.6732 72.9497 74.8704 72.4526 74.8704C71.9555 74.8704 71.4786 74.6732 71.1268 74.322L56.7788 59.9741L59.9738 56.7791L74.3218 71.1269C74.6729 71.4788 74.8701 71.9556 74.8701 72.4527C74.8701 72.9499 74.6729 73.4267 74.3218 73.7786Z" fill="#FFBA08"/>
</svg>
