<svg width="80" height="80" viewBox="0 0 80 80" fill="none" xmlns="http://www.w3.org/2000/svg">
<g opacity="0.8">
<path d="M62.7445 7H17.0055C11.4881 7 7 11.4881 7 17.0055V48.4511C7 53.9684 11.4881 58.4565 17.0055 58.4565H47.8594L61.7327 72.3326C62.0071 72.6042 62.3731 72.75 62.7447 72.75C62.9276 72.75 63.1134 72.7129 63.2907 72.6413C63.8252 72.4212 64.1741 71.898 64.1741 71.3206V58.3564C69.0167 57.6589 72.7501 53.4824 72.7501 48.451V17.0055C72.75 11.4881 68.2618 7 62.7445 7ZM69.8912 48.451C69.8912 52.3932 66.6838 55.5977 62.7445 55.5977C61.9555 55.5977 61.3151 56.2381 61.3151 57.0271V67.8701L49.463 56.0151C49.1943 55.7493 48.8312 55.5977 48.451 55.5977H17.0055C13.0662 55.5977 9.85878 52.3931 9.85878 48.451V17.0055C9.85878 13.0633 13.0662 9.85878 17.0055 9.85878H62.7445C66.6838 9.85878 69.8912 13.0634 69.8912 17.0055V48.451Z" fill="#1973E7"/>
<path d="M39.874 41.3042C37.5098 41.3042 35.5859 43.2281 35.5859 45.5922C35.5859 47.9564 37.5098 49.8803 39.874 49.8803C42.2382 49.8803 44.162 47.9564 44.162 45.5922C44.162 43.2281 42.2382 41.3042 39.874 41.3042ZM39.874 47.0216C39.085 47.0216 38.4446 46.3784 38.4446 45.5922C38.4446 44.8061 39.085 44.1628 39.874 44.1628C40.663 44.1628 41.3034 44.8061 41.3034 45.5922C41.3034 46.3784 40.663 47.0216 39.874 47.0216Z" fill="#FFBA08"/>
<path d="M44.4438 16.9426C43.6348 16.0736 42.4912 15.5762 41.3049 15.5762H38.4463C37.2599 15.5762 36.1193 16.0736 35.3102 16.9426C34.5013 17.8088 34.0867 18.9837 34.1696 20.1901L35.3788 34.2748C35.5446 36.6133 37.5115 38.4456 39.8755 38.4456C42.2196 38.4456 44.1865 36.6132 44.3494 34.2976L45.5816 20.17C45.6673 18.9866 45.2527 17.8117 44.4438 16.9426ZM42.7343 19.9442L41.4993 34.0748C41.4393 34.9238 40.7247 35.587 39.8527 35.587C39.0009 35.587 38.2891 34.9238 38.2261 34.0519L37.0197 19.9671C36.9911 19.564 37.1254 19.1809 37.3998 18.8894C37.6743 18.5978 38.0459 18.4348 38.4461 18.4348H41.3049C41.7052 18.4348 42.0768 18.5978 42.3512 18.8894C42.6256 19.1809 42.76 19.564 42.7343 19.9442Z" fill="#FFBA08"/>
</g>
</svg>
