<svg width="80" height="80" viewBox="0 0 80 80" fill="none" xmlns="http://www.w3.org/2000/svg">
<path d="M18.5067 21.339C18.5159 21.3227 18.5245 21.3059 18.5324 21.2888C19.3243 19.6248 21.0684 16.8304 23.8521 16.8099L48.5963 16.6276H48.6276C49.2737 16.625 49.91 16.7849 50.4781 17.0926C49.0388 14.9707 47.6623 14.0376 46.0376 14.0376H46.0063L21.2621 14.2199C18.4784 14.2404 16.7343 17.0349 15.9424 18.6988C15.9345 18.7159 15.9259 18.7326 15.9167 18.7492L11.6743 26.3981L15.7173 26.3682L18.5067 21.339Z" fill="#D4E1F4"/>
<path d="M11.3357 45.1407C11.0343 44.8346 10.8645 44.4228 10.8627 43.9932C10.8625 43.9538 10.8598 43.9145 10.8548 43.8755L9.31852 32.0419C9.3243 30.0991 10.3362 28.7479 11.5648 28.2115L10.1355 28.2221H10.1288C10.0793 28.2216 10.0299 28.217 9.98117 28.2085C8.35195 28.3179 6.73586 29.7815 6.72852 32.1602L8.26477 43.6179C8.26992 43.6556 8.27258 43.6936 8.27274 43.7316C8.27777 44.1478 8.44611 44.5453 8.74148 44.8386C9.03685 45.1318 9.4356 45.2973 9.8518 45.2993H9.86352L11.5029 45.2872C11.4439 45.2422 11.388 45.1933 11.3357 45.1407Z" fill="#D4E1F4"/>
<path d="M51.9509 49.8813C51.9509 51.7361 52.5009 53.5492 53.5314 55.0913C54.5618 56.6335 56.0265 57.8355 57.7401 58.5452C59.4536 59.255 61.3392 59.4406 63.1583 59.0787C64.9774 58.7169 66.6484 57.8237 67.9598 56.5121C69.2713 55.2006 70.1644 53.5296 70.5261 51.7104C70.8879 49.8913 70.7021 48.0057 69.9922 46.2922C69.2824 44.5787 68.0803 43.1141 66.5381 42.0838C64.9959 41.0534 63.1827 40.5035 61.328 40.5037C58.8418 40.5066 56.4584 41.4956 54.7005 43.2536C52.9426 45.0117 51.9537 47.3952 51.9509 49.8813ZM68.5187 49.8813C68.5187 51.3034 68.0971 52.6935 67.307 53.8759C66.517 55.0583 65.3941 55.9799 64.0803 56.5241C62.7665 57.0683 61.3208 57.2107 59.9261 56.9334C58.5313 56.656 57.2502 55.9712 56.2446 54.9657C55.239 53.9602 54.5542 52.6791 54.2767 51.2844C53.9992 49.8897 54.1415 48.444 54.6856 47.1302C55.2297 45.8164 56.1512 44.6934 57.3335 43.9032C58.5158 43.1131 59.9059 42.6913 61.328 42.6912C63.2344 42.6931 65.0621 43.4513 66.4102 44.7993C67.7583 46.1472 68.5166 47.9749 68.5187 49.8813Z" fill="#0635C9"/>
<path d="M57.8858 48.8663C57.7842 48.7647 57.6637 48.6841 57.5309 48.6292C57.3982 48.5742 57.256 48.5459 57.1124 48.5459C56.9687 48.5459 56.8265 48.5742 56.6938 48.6292C56.5611 48.6841 56.4405 48.7647 56.3389 48.8663C56.2374 48.9678 56.1568 49.0884 56.1018 49.2211C56.0468 49.3538 56.0186 49.4961 56.0186 49.6397C56.0186 49.7834 56.0468 49.9256 56.1018 50.0583C56.1568 50.191 56.2374 50.3116 56.3389 50.4132L59.4613 53.5353C59.6633 53.7374 59.9364 53.8524 60.2221 53.8557C60.5079 53.859 60.7835 53.7504 60.9902 53.553L66.4946 48.2953C66.7043 48.095 66.8259 47.8195 66.8326 47.5295C66.8392 47.2395 66.7304 46.9587 66.53 46.7489C66.3297 46.5392 66.0542 46.4176 65.7642 46.4109C65.4742 46.4043 65.1934 46.5131 64.9836 46.7135L60.2524 51.2328L57.8858 48.8663Z" fill="#0635C9"/>
<path d="M25.0713 41.8727C25.0734 42.1614 25.1896 42.4376 25.3945 42.641C25.5994 42.8444 25.8764 42.9585 26.1651 42.9585H26.1732L40.5407 42.8526C40.8308 42.8505 41.1081 42.7333 41.3118 42.5267C41.5155 42.3201 41.6287 42.0411 41.6266 41.751C41.6246 41.4609 41.5073 41.1836 41.3008 40.9799C41.0942 40.7762 40.8151 40.663 40.5251 40.6651L26.1576 40.771C26.0139 40.772 25.8718 40.8013 25.7395 40.8572C25.6071 40.9131 25.4871 40.9945 25.3862 41.0968C25.2853 41.1991 25.2056 41.3203 25.1516 41.4534C25.0975 41.5866 25.0703 41.729 25.0713 41.8727Z" fill="#0635C9"/>
<path d="M26.828 37.5559H26.8363C26.9799 37.5549 27.1219 37.5255 27.2542 37.4696C27.3865 37.4136 27.5065 37.3322 27.6073 37.2299C27.7081 37.1275 27.7878 37.0064 27.8418 36.8733C27.8957 36.7401 27.923 36.5977 27.9219 36.4541L27.9046 34.1167C27.9025 33.8266 27.7853 33.5493 27.5787 33.3456C27.3721 33.142 27.0931 33.0287 26.803 33.0308C26.5129 33.0329 26.2355 33.1501 26.0319 33.3567C25.8282 33.5633 25.715 33.8423 25.7171 34.1324L25.7343 36.4697C25.7362 36.7585 25.8523 37.0347 26.0572 37.2382C26.2622 37.4417 26.5392 37.5559 26.828 37.5559Z" fill="#0635C9"/>
<path d="M22.4736 33.0625C22.33 33.0636 22.1879 33.0929 22.0557 33.1489C21.9234 33.2048 21.8034 33.2863 21.7026 33.3886C21.6018 33.4909 21.5221 33.6121 21.4681 33.7452C21.4141 33.8783 21.3869 34.0208 21.388 34.1644L21.4052 36.5017C21.4073 36.7904 21.5235 37.0665 21.7284 37.2699C21.9333 37.4733 22.2102 37.5874 22.4989 37.5874H22.507C22.6507 37.5863 22.7927 37.557 22.925 37.501C23.0573 37.4451 23.1773 37.3637 23.2782 37.2613C23.379 37.159 23.4587 37.0378 23.5127 36.9047C23.5667 36.7716 23.5939 36.6291 23.5928 36.4855L23.5756 34.1481C23.5727 33.8583 23.4551 33.5814 23.2486 33.3779C23.0421 33.1745 22.7635 33.0611 22.4736 33.0625Z" fill="#0635C9"/>
<path d="M44.1276 32.9033H44.1193C43.8293 32.9055 43.552 33.0227 43.3484 33.2294C43.1448 33.436 43.0316 33.715 43.0337 34.005L43.0511 36.3424C43.0532 36.6311 43.1693 36.9072 43.3742 37.1106C43.5791 37.314 43.8561 37.4282 44.1448 37.4282H44.1529C44.2966 37.4271 44.4386 37.3978 44.5709 37.3418C44.7032 37.2859 44.8231 37.2044 44.924 37.1021C45.0248 36.9998 45.1044 36.8786 45.1584 36.7455C45.2124 36.6124 45.2396 36.4699 45.2386 36.3263L45.2214 33.9889C45.2192 33.7003 45.103 33.4242 44.8982 33.2208C44.6933 33.0174 44.4163 32.9033 44.1276 32.9033Z" fill="#0635C9"/>
<path d="M31.1571 37.5237H31.1652C31.3089 37.5227 31.4509 37.4933 31.5832 37.4374C31.7155 37.3814 31.8355 37.2999 31.9363 37.1976C32.0371 37.0953 32.1167 36.9741 32.1707 36.841C32.2247 36.7079 32.2519 36.5655 32.2509 36.4218L32.2337 34.0845C32.2327 33.9409 32.2033 33.7988 32.1474 33.6665C32.0915 33.5342 32.0101 33.4142 31.9078 33.3134C31.8055 33.2126 31.6844 33.1328 31.5513 33.0788C31.4182 33.0248 31.2757 32.9975 31.1321 32.9986C30.9885 32.9996 30.8465 33.0289 30.7141 33.0848C30.5818 33.1407 30.4618 33.2221 30.361 33.3244C30.2602 33.4267 30.1805 33.5479 30.1264 33.681C30.0724 33.8141 30.0451 33.9565 30.0462 34.1001L30.0634 36.4375C30.0653 36.7262 30.1814 37.0025 30.3863 37.206C30.5913 37.4095 30.8683 37.5237 31.1571 37.5237Z" fill="#0635C9"/>
<path d="M35.4862 37.4921H35.4945C35.6381 37.4911 35.7801 37.4617 35.9124 37.4058C36.0447 37.3498 36.1647 37.2684 36.2655 37.166C36.3663 37.0637 36.446 36.9425 36.5 36.8094C36.5539 36.6763 36.5812 36.5339 36.5801 36.3903L36.5623 34.0529C36.5601 33.7642 36.444 33.4881 36.2391 33.2848C36.0342 33.0814 35.7572 32.9673 35.4685 32.9673H35.4604C35.3168 32.9683 35.1748 32.9977 35.0425 33.0536C34.9102 33.1096 34.7902 33.1911 34.6894 33.2934C34.5886 33.3957 34.5089 33.5169 34.4549 33.65C34.4009 33.7831 34.3737 33.9255 34.3748 34.0692L34.392 36.4063C34.3941 36.6951 34.5103 36.9714 34.7153 37.1748C34.9203 37.3782 35.1974 37.4923 35.4862 37.4921Z" fill="#0635C9"/>
<path d="M39.8156 37.4601H39.8237C39.9673 37.4591 40.1093 37.4297 40.2416 37.3738C40.3739 37.3178 40.4939 37.2364 40.5947 37.1341C40.6955 37.0317 40.7752 36.9106 40.8292 36.7775C40.8831 36.6443 40.9104 36.5019 40.9093 36.3583L40.8921 34.0209C40.89 33.7323 40.7738 33.4561 40.5689 33.2528C40.364 33.0494 40.087 32.9353 39.7984 32.9353H39.7902C39.5002 32.9374 39.2229 33.0547 39.0193 33.2613C38.8157 33.4679 38.7025 33.747 38.7046 34.037L38.7218 36.3744C38.7239 36.6631 38.8401 36.9392 39.045 37.1426C39.2499 37.346 39.5269 37.4602 39.8156 37.4601Z" fill="#0635C9"/>
<path d="M13.4461 40.0072H13.4738C14.4305 40.0036 15.3468 39.6205 16.0213 38.942C16.6959 38.2635 17.0738 37.3451 17.072 36.3883C17.0701 35.4316 16.6888 34.5146 16.0116 33.8387C15.3344 33.1628 14.4167 32.7832 13.4599 32.7832C12.5032 32.7832 11.5855 33.1628 10.9083 33.8387C10.2311 34.5146 9.84974 35.4316 9.84791 36.3883C9.84608 37.3451 10.2239 38.2635 10.8985 38.942C11.5731 39.6205 12.4893 40.0036 13.4461 40.0072ZM12.4194 35.3644C12.552 35.229 12.7102 35.1213 12.8848 35.0475C13.0594 34.9737 13.2469 34.9353 13.4364 34.9344H13.4474C13.83 34.9331 14.1975 35.0837 14.469 35.3533C14.7405 35.6229 14.8938 35.9893 14.8952 36.3719C14.8965 36.7545 14.7459 37.122 14.4763 37.3935C14.2067 37.6651 13.8403 37.8184 13.4577 37.8197C13.2679 37.8237 13.0793 37.7889 12.9033 37.7176C12.7274 37.6463 12.5679 37.5399 12.4344 37.4049C12.1618 37.1364 12.007 36.7706 12.0041 36.388C12.0012 36.0054 12.1503 35.6372 12.4188 35.3646L12.4194 35.3644Z" fill="#1AE5BE"/>
<path d="M58.6651 23.2454H58.694C59.8097 23.2454 60.7204 23.7227 60.9649 24.4385C61.0257 24.6166 61.0762 24.7911 61.118 24.9561L55.8655 24.9968C55.5754 24.9979 55.2977 25.1142 55.0933 25.32C54.889 25.5259 54.7748 25.8046 54.7759 26.0947C54.777 26.3847 54.8933 26.6625 55.0992 26.8668C55.3051 27.0712 55.5837 27.1854 55.8738 27.1843H55.8824L62.4137 27.1338C62.5617 27.1327 62.708 27.1015 62.8436 27.0421C62.9792 26.9828 63.1014 26.8965 63.2027 26.7886C63.304 26.6806 63.3824 26.5533 63.433 26.4141C63.4836 26.275 63.5055 26.1271 63.4972 25.9793C63.4365 25.2137 63.281 24.4587 63.0343 23.7315C62.4783 22.1038 60.7779 21.0579 58.6943 21.0579H58.6483C57.0347 21.0697 53.7168 21.0804 53.7163 21.0804L53.7233 23.2679C53.7233 23.2679 57.0485 23.2572 58.6651 23.2454Z" fill="#1AE5BE"/>
<path d="M11.6354 26.4042C11.6348 26.2604 11.6057 26.1181 11.5497 25.9856C11.4938 25.8531 11.4122 25.733 11.3097 25.6322C11.2071 25.5314 11.0856 25.4519 10.9521 25.3983C10.8187 25.3447 10.6759 25.3181 10.5321 25.32L5.3348 25.3648C5.37417 25.1998 5.42183 25.0254 5.4798 24.8472C5.71574 24.1215 6.63277 23.6284 7.76105 23.6203C9.37542 23.6084 12.7162 23.5911 12.7164 23.5911L12.705 21.4036C12.705 21.4036 9.36121 21.4209 7.74496 21.4328C5.64074 21.4484 3.9348 22.5229 3.39902 24.1706C3.16302 24.9014 3.01864 25.6586 2.96918 26.425C2.96315 26.5723 2.98698 26.7193 3.03922 26.8572C3.09146 26.9951 3.17104 27.121 3.27318 27.2273C3.37532 27.3336 3.4979 27.4182 3.63356 27.476C3.76923 27.5338 3.91517 27.5635 4.06261 27.5634H4.07214L10.5511 27.5073C10.6947 27.5061 10.8367 27.4766 10.9689 27.4205C11.1011 27.3644 11.221 27.2828 11.3217 27.1803C11.4224 27.0779 11.5019 26.9566 11.5558 26.8235C11.6096 26.6903 11.6367 26.5478 11.6354 26.4042Z" fill="#1AE5BE"/>
<path d="M39.4532 27.918H39.4614C39.605 27.917 39.747 27.8877 39.8793 27.8317C40.0116 27.7758 40.1316 27.6943 40.2324 27.592C40.3332 27.4897 40.4129 27.3686 40.4669 27.2355C40.5209 27.1024 40.5482 26.9599 40.5471 26.8163C40.5433 26.2937 40.6424 25.7754 40.8389 25.2911C41.0353 24.8068 41.3252 24.366 41.692 23.9937C42.4328 23.2419 43.442 22.8152 44.4974 22.8074C45.5529 22.7996 46.5682 23.2115 47.32 23.9523C48.0718 24.6931 48.4986 25.7022 48.5063 26.7577C48.5074 26.9013 48.5367 27.0434 48.5926 27.1757C48.6485 27.308 48.7299 27.428 48.8322 27.5288C48.9345 27.6297 49.0557 27.7094 49.1887 27.7634C49.3218 27.8174 49.4643 27.8447 49.6079 27.8436C49.7515 27.8426 49.8936 27.8133 50.0259 27.7574C50.1582 27.7015 50.2782 27.6201 50.379 27.5178C50.4799 27.4155 50.5596 27.2943 50.6136 27.1612C50.6676 27.0281 50.6949 26.8857 50.6938 26.7421C50.68 25.115 50.0245 23.5592 48.8698 22.4128C47.7151 21.2665 46.1545 20.6223 44.5274 20.6204H44.4806C42.8455 20.6343 41.2828 21.2962 40.1352 22.4608C38.9876 23.6255 38.3488 25.1978 38.359 26.8329C38.3613 27.1215 38.4776 27.3976 38.6825 27.6009C38.8875 27.8042 39.1645 27.9182 39.4532 27.918Z" fill="#1AE5BE"/>
<path d="M6.29353 43.4608C6.3173 44.2529 6.60564 45.0142 7.11257 45.6233C7.61949 46.2324 8.3158 46.6542 9.0904 46.8214L9.11587 50.2702C9.12098 50.8816 9.36726 51.4662 9.80116 51.897C10.2351 52.3278 10.8215 52.5698 11.4329 52.5705H11.4502L15.166 52.5431C15.7806 52.5385 16.3682 52.29 16.7995 51.8522C17.2309 51.4144 17.4707 50.8232 17.4662 50.2086L17.4415 46.8446L46.7282 46.6288C47.0183 46.6267 47.2957 46.5095 47.4993 46.3029C47.703 46.0963 47.8162 45.8173 47.8142 45.5272C47.8121 45.2371 47.6949 44.9598 47.4883 44.7561C47.2817 44.5525 47.0027 44.4392 46.7126 44.4413L9.84384 44.713H9.83369C9.47655 44.7125 9.13404 44.5711 8.88061 44.3195C8.62717 44.0678 8.48329 43.7264 8.48025 43.3692C8.47996 43.3234 8.47678 43.2775 8.47072 43.2321L6.96009 31.9664C6.96006 31.0231 7.28383 30.1083 7.87728 29.375C8.12943 29.062 8.44321 28.804 8.79915 28.6172C9.15509 28.4304 9.54561 28.3187 9.9465 28.2891C9.99924 28.2972 10.0525 28.3015 10.1059 28.3017H10.1138L56.2896 27.9614C56.2967 27.9614 56.3035 27.9625 56.3107 27.9625C57.8963 27.9485 58.9121 29.1141 59.3248 30.2067C59.4273 30.4782 59.6335 30.6978 59.8979 30.8172C60.1623 30.9366 60.4633 30.9461 60.7348 30.8436C61.0062 30.7411 61.2258 30.5349 61.3452 30.2705C61.4647 30.0061 61.4742 29.7051 61.3717 29.4336C60.6137 27.4271 58.9342 26.0692 56.9821 25.82L52.414 17.5469C50.9803 15.0202 48.8828 12.1221 45.4149 12.1486L21.0529 12.3282C18.2274 12.3491 15.742 14.306 14.0513 17.8396L9.44494 26.1449C8.17374 26.3253 7.01653 26.9762 6.20212 27.9688C5.2563 29.1152 4.74933 30.5608 4.77197 32.0469C4.77222 32.0928 4.77546 32.1386 4.78165 32.1841L6.29353 43.4608ZM15.254 46.8608L15.2788 50.2247C15.279 50.2592 15.2656 50.2923 15.2414 50.3169C15.2172 50.3414 15.1842 50.3554 15.1498 50.3557L11.4342 50.383C11.3999 50.3827 11.3671 50.3691 11.3426 50.345C11.3182 50.321 11.3041 50.2884 11.3032 50.2541L11.2785 46.89L15.254 46.8608ZM15.9806 18.8714C15.9915 18.8516 16.002 18.8314 16.0118 18.811C16.771 17.2152 18.4376 14.5352 21.069 14.5157L45.431 14.3361H45.4601C47.2938 14.3361 48.8063 15.6216 50.5052 18.6155L54.4648 25.7874L11.9709 26.0999L15.9806 18.8714Z" fill="#0635C9"/>
<path d="M72.256 31.911H68.2451C68.0205 31.0784 67.5281 30.3429 66.8439 29.8181C66.1597 29.2933 65.3217 29.0082 64.4594 29.0071H58.1985C57.3362 29.0082 56.4982 29.2933 55.814 29.8181C55.1298 30.3429 54.6374 31.0784 54.4129 31.911H50.4019C49.1359 31.9125 47.9221 32.4161 47.0269 33.3114C46.1316 34.2066 45.628 35.4204 45.6265 36.6865V63.0758C45.628 64.3419 46.1316 65.5557 47.0269 66.4509C47.9221 67.3461 49.1359 67.8498 50.4019 67.8513H72.256C73.5221 67.8498 74.7358 67.3461 75.6311 66.4509C76.5263 65.5557 77.0299 64.3419 77.0315 63.0758V36.6865C77.0299 35.4204 76.5263 34.2066 75.6311 33.3114C74.7358 32.4161 73.5221 31.9125 72.256 31.911ZM58.1985 31.1946H64.4594C64.6883 31.1924 64.9153 31.2356 65.1274 31.3217C65.3395 31.4078 65.5324 31.535 65.695 31.6961C65.8576 31.8572 65.9867 32.0489 66.0748 32.2601C66.1629 32.4714 66.2082 32.698 66.2082 32.9268C66.2082 33.1557 66.1629 33.3823 66.0748 33.5936C65.9867 33.8048 65.8576 33.9965 65.695 34.1576C65.5324 34.3187 65.3395 34.4459 65.1274 34.532C64.9153 34.6181 64.6883 34.6613 64.4594 34.6591H58.1985C57.9696 34.6613 57.7426 34.6181 57.5305 34.532C57.3184 34.4459 57.1255 34.3187 56.9629 34.1576C56.8003 33.9965 56.6712 33.8048 56.5831 33.5936C56.4951 33.3823 56.4497 33.1557 56.4497 32.9268C56.4497 32.698 56.4951 32.4714 56.5831 32.2601C56.6712 32.0489 56.8003 31.8572 56.9629 31.6961C57.1255 31.535 57.3184 31.4078 57.5305 31.3217C57.7426 31.2356 57.9696 31.1924 58.1985 31.1946ZM74.844 63.0758C74.8432 63.762 74.5703 64.4198 74.0851 64.9049C73.5999 65.3901 72.9421 65.663 72.256 65.6638H50.4019C49.7158 65.663 49.058 65.3901 48.5728 64.9049C48.0877 64.4198 47.8148 63.762 47.814 63.0758V36.6865C47.8148 36.0003 48.0877 35.3425 48.5728 34.8574C49.058 34.3722 49.7158 34.0993 50.4019 34.0985H54.4577C54.7082 34.8947 55.2059 35.5903 55.8786 36.0845C56.5512 36.5786 57.3638 36.8456 58.1985 36.8466H64.4594C65.2941 36.8456 66.1067 36.5786 66.7794 36.0845C67.452 35.5903 67.9497 34.8947 68.2002 34.0985H72.256C72.9421 34.0993 73.5999 34.3722 74.0851 34.8574C74.5703 35.3425 74.8432 36.0003 74.844 36.6865V63.0758Z" fill="#1AE5BE"/>
</svg>
