<svg width="80" height="80" viewBox="0 0 80 80" fill="none" xmlns="http://www.w3.org/2000/svg">
<path d="M73.8978 34.9373C73.8966 34.9257 73.8955 34.9142 73.8938 34.9028C73.8877 34.8598 73.879 34.8172 73.8678 34.7753C73.8667 34.7714 73.8653 34.7678 73.8642 34.7639C73.8532 34.7255 73.8401 34.6878 73.825 34.6509C73.8209 34.6409 73.8166 34.6309 73.8122 34.6211C73.7977 34.5881 73.7815 34.5558 73.7636 34.524C73.7595 34.517 73.7559 34.5098 73.7519 34.5028C73.7292 34.4649 73.7044 34.4283 73.6773 34.3934C73.6734 34.3884 73.6691 34.3839 73.6652 34.379C73.6422 34.3504 73.6177 34.3229 73.5919 34.2968C73.5817 34.2865 73.5711 34.2765 73.5606 34.2665C73.5502 34.2565 73.5416 34.247 73.5311 34.2379L62.5781 24.6982V22.5746C62.5767 21.3129 62.0748 20.1032 61.1826 19.211C60.2904 18.3188 59.0807 17.8169 57.8189 17.8154H55.9892L40.6767 5.74542C40.4817 5.59173 40.2402 5.50898 39.9919 5.51077C39.7436 5.51256 39.5033 5.59878 39.3105 5.75527L24.4472 17.8154H22.1805C20.9188 17.817 19.7093 18.319 18.8172 19.2112C17.9251 20.1034 17.4233 21.313 17.4219 22.5746V23.3932L6.41875 34.2839C6.31557 34.3855 6.23369 34.5067 6.17788 34.6404C6.12208 34.774 6.09348 34.9175 6.09375 35.0623V68.8159C6.09303 70.2578 6.64358 71.6454 7.63266 72.6946C7.6361 72.6992 7.63906 72.704 7.64266 72.7085C7.68793 72.764 7.73854 72.8148 7.79375 72.8603C8.85236 73.9044 10.2797 74.4894 11.7666 74.4887H68.2333C69.7373 74.487 71.1792 73.8888 72.2427 72.8253C73.3063 71.7618 73.9045 70.3199 73.9062 68.8159V35.0623C73.9062 35.055 73.905 35.0479 73.9048 35.0407C73.9041 35.0057 73.9018 34.9713 73.8978 34.9373ZM62.5781 27.5989L70.972 34.9093L62.5781 40.0754V27.5989ZM40.0098 8.00496L52.4562 17.8154H27.9189L40.0098 8.00496ZM19.6094 24.3057L19.6428 24.2726L19.6094 24.2387V22.5746C19.6101 21.8928 19.8813 21.2391 20.3634 20.757C20.8456 20.2749 21.4993 20.0037 22.1811 20.0029H25.105L25.1519 20.0609L25.2234 20.0029H55.2316L55.2686 20.032L55.2916 20.0029H57.8195C58.5013 20.0038 59.1548 20.2751 59.6368 20.7572C60.1188 21.2393 60.3899 21.8929 60.3906 22.5746V24.8695C60.3378 25.0608 60.3378 25.2628 60.3906 25.454V41.4217L41.8298 52.8454C41.2807 53.1856 40.6474 53.3656 40.0014 53.3652C39.3554 53.3648 38.7224 53.184 38.1736 52.8432L19.6094 41.3882V24.3057ZM17.4219 26.4711V40.0386L8.97766 34.8279L17.4219 26.4711ZM8.28125 68.8159V36.9686L32.0173 51.6154L8.69188 70.4551C8.42174 69.951 8.28067 69.3878 8.28125 68.8159ZM68.2333 72.3012H11.7666C11.2573 72.3015 10.7543 72.1895 10.2933 71.9731L33.9909 52.8325L37.0241 54.704C37.9174 55.2591 38.948 55.5536 39.9997 55.5542C41.0515 55.5549 42.0824 55.2616 42.9764 54.7076L45.9608 52.8709L69.6625 71.9936C69.2134 72.1966 68.7261 72.3015 68.2333 72.3012ZM71.7188 68.8159C71.7194 69.4027 71.5709 69.98 71.2872 70.4937L47.9375 51.6561L71.7188 37.0189V68.8159Z" fill="#0635C9"/>
<path d="M29.1172 28.0234C29.1172 27.7334 29.002 27.4552 28.7968 27.25C28.5917 27.0449 28.3135 26.9297 28.0234 26.9297H25.2344C24.9443 26.9297 24.6661 27.0449 24.461 27.25C24.2559 27.4552 24.1406 27.7334 24.1406 28.0234C24.1406 28.3135 24.2559 28.5917 24.461 28.7968C24.6661 29.002 24.9443 29.1172 25.2344 29.1172H28.0234C28.3135 29.1172 28.5917 29.002 28.7968 28.7968C29.002 28.5917 29.1172 28.3135 29.1172 28.0234Z" fill="#0635C9"/>
<path d="M51.6487 29.1172H54.4377C54.7278 29.1172 55.006 29.002 55.2111 28.7968C55.4163 28.5917 55.5315 28.3135 55.5315 28.0234C55.5315 27.7334 55.4163 27.4552 55.2111 27.25C55.006 27.0449 54.7278 26.9297 54.4377 26.9297H51.6487C51.3586 26.9297 51.0804 27.0449 50.8753 27.25C50.6702 27.4552 50.5549 27.7334 50.5549 28.0234C50.5549 28.3135 50.6702 28.5917 50.8753 28.7968C51.0804 29.002 51.3586 29.1172 51.6487 29.1172Z" fill="#0635C9"/>
<path d="M29.4182 33.3281C28.845 33.3281 28.2846 33.4981 27.8079 33.8166C27.3313 34.1351 26.9598 34.5878 26.7404 35.1174C26.521 35.647 26.4636 36.2298 26.5755 36.792C26.6873 37.3543 26.9634 37.8707 27.3687 38.2761C27.7741 38.6814 28.2905 38.9575 28.8528 39.0693C29.415 39.1811 29.9978 39.1237 30.5274 38.9044C31.057 38.685 31.5097 38.3135 31.8282 37.8368C32.1467 37.3602 32.3166 36.7998 32.3166 36.2266C32.3158 35.4581 32.0102 34.7214 31.4668 34.178C30.9234 33.6346 30.1867 33.329 29.4182 33.3281ZM29.4182 36.9375C29.2776 36.9375 29.1402 36.8958 29.0232 36.8177C28.9063 36.7396 28.8152 36.6285 28.7614 36.4986C28.7076 36.3687 28.6935 36.2258 28.7209 36.0879C28.7484 35.95 28.8161 35.8233 28.9155 35.7239C29.0149 35.6244 29.1416 35.5567 29.2795 35.5293C29.4174 35.5019 29.5604 35.5159 29.6903 35.5697C29.8202 35.6235 29.9312 35.7147 30.0093 35.8316C30.0875 35.9485 30.1291 36.086 30.1291 36.2266C30.1289 36.415 30.054 36.5958 29.9207 36.729C29.7874 36.8623 29.6067 36.9373 29.4182 36.9375Z" fill="#0635C9"/>
<path d="M50.5823 39.125C51.1555 39.125 51.7159 38.955 52.1926 38.6365C52.6692 38.318 53.0407 37.8654 53.2601 37.3357C53.4795 36.8061 53.5369 36.2233 53.425 35.6611C53.3132 35.0989 53.0371 34.5824 52.6318 34.1771C52.2264 33.7717 51.71 33.4957 51.1477 33.3838C50.5855 33.272 50.0027 33.3294 49.4731 33.5488C48.9435 33.7681 48.4908 34.1396 48.1723 34.6163C47.8538 35.0929 47.6838 35.6533 47.6838 36.2266C47.6847 36.995 47.9904 37.7317 48.5337 38.2751C49.0771 38.8185 49.8138 39.1241 50.5823 39.125ZM50.5823 35.5156C50.7229 35.5156 50.8603 35.5573 50.9773 35.6354C51.0942 35.7136 51.1853 35.8246 51.2391 35.9545C51.2929 36.0844 51.307 36.2273 51.2796 36.3653C51.2521 36.5032 51.1844 36.6298 51.085 36.7293C50.9856 36.8287 50.8589 36.8964 50.721 36.9238C50.5831 36.9513 50.4401 36.9372 50.3102 36.8834C50.1803 36.8296 50.0693 36.7384 49.9912 36.6215C49.913 36.5046 49.8713 36.3672 49.8713 36.2266C49.8715 36.0381 49.9465 35.8574 50.0798 35.7241C50.2131 35.5908 50.3938 35.5158 50.5823 35.5156Z" fill="#0635C9"/>
<path d="M53.6667 29.4454L51.2406 24.9732C50.3812 23.4321 49.1117 21.6631 46.9087 21.6631H33.2075C31.4292 21.6631 29.8732 22.844 28.8234 24.9893L26.3178 29.4292C24.6876 29.7645 23.4912 31.2842 23.4912 33.1636C23.4912 33.2095 23.4941 33.2554 23.4998 33.3009L24.3004 39.6253C24.3165 40.1061 24.4724 40.5719 24.7492 40.9654C25.0259 41.359 25.4115 41.6633 25.8586 41.8411V43.4298C25.8593 43.902 26.0471 44.3547 26.381 44.6886C26.7149 45.0225 27.1676 45.2104 27.6398 45.2111H29.7295C30.2018 45.2106 30.6547 45.0228 30.9888 44.6889C31.3228 44.3549 31.5108 43.9022 31.5115 43.4298V42.0165H48.4882V43.4298C48.4889 43.9022 48.6769 44.3549 49.011 44.6889C49.3451 45.0228 49.7979 45.2106 50.2703 45.2111H52.3596C52.8318 45.2104 53.2845 45.0225 53.6184 44.6886C53.9523 44.3547 54.1402 43.902 54.1409 43.4298V41.8279C54.5787 41.6457 54.9549 41.3416 55.2248 40.9517C55.4947 40.5618 55.6469 40.1026 55.6632 39.6287L56.4989 33.307C56.5051 33.2595 56.5082 33.2116 56.5082 33.1637C56.5092 31.3279 55.2856 29.7929 53.6667 29.4454ZM30.7448 26.0356C30.7559 26.0157 30.7665 25.9956 30.7761 25.9753C31.1609 25.1817 31.9884 23.8503 33.2073 23.8503H46.9086C47.7503 23.8503 48.4743 24.5047 49.3237 26.0273L51.1373 29.3711H50.2268C50.0061 28.5264 49.5116 27.7788 48.8206 27.2452C48.1297 26.7116 47.2813 26.4221 46.4083 26.4221C45.5353 26.4221 44.6869 26.7116 43.996 27.2452C43.305 27.7788 42.8105 28.5264 42.5898 29.3711H28.8626L30.7448 26.0356ZM47.8553 29.3707H44.9631C45.1242 29.1359 45.34 28.9439 45.592 28.8112C45.8439 28.6785 46.1244 28.6092 46.4092 28.6092C46.6939 28.6092 46.9744 28.6785 47.2264 28.8112C47.4783 28.9439 47.6942 29.1359 47.8553 29.3707ZM29.324 43.024H28.0454V42.0164H29.324V43.024ZM51.9537 43.024H50.6751V42.0164H51.9537V43.024ZM53.4868 39.4031C53.4804 39.4506 53.4773 39.4985 53.4773 39.5464C53.4763 39.621 53.4463 39.6923 53.3935 39.7451C53.3407 39.7978 53.2694 39.8279 53.1948 39.8289H26.7692C26.6946 39.8279 26.6233 39.7978 26.5705 39.7451C26.5177 39.6923 26.4877 39.621 26.4867 39.5464C26.4867 39.5005 26.4837 39.4546 26.4779 39.409L25.6797 33.1022C25.7034 32.3579 26.157 31.6109 26.9067 31.5528C26.9343 31.5548 26.9615 31.5582 26.9895 31.5582H43.3342C43.4228 31.5772 43.5135 31.585 43.604 31.5815C43.6637 31.5785 43.7231 31.5707 43.7815 31.5582H52.9556C52.9607 31.5582 52.9656 31.559 52.9712 31.559C53.7829 31.559 54.2937 32.3468 54.321 33.1001L53.4868 39.4031Z" fill="#1AE5BE"/>
<path d="M44.8672 35.874H35.1338C34.8437 35.874 34.5655 35.9893 34.3604 36.1944C34.1553 36.3995 34.04 36.6777 34.04 36.9678C34.04 37.2579 34.1553 37.5361 34.3604 37.7412C34.5655 37.9463 34.8437 38.0615 35.1338 38.0615H44.8672C45.1573 38.0615 45.4355 37.9463 45.6406 37.7412C45.8457 37.5361 45.961 37.2579 45.961 36.9678C45.961 36.6777 45.8457 36.3995 45.6406 36.1944C45.4355 35.9893 45.1573 35.874 44.8672 35.874Z" fill="#1AE5BE"/>
<path d="M11.4062 38.8977L8.28125 36.9688V68.8161C8.28067 69.388 8.42174 69.9512 8.69188 70.4553L11.4062 68.263V38.8977Z" fill="#D4E1F4"/>
<path d="M15.691 67.6138L10.2932 71.9731C10.7542 72.1895 11.2572 72.3015 11.7665 72.3013H68.2332C68.7261 72.3015 69.2133 72.1967 69.6624 71.9936L64.2343 67.6138H15.691Z" fill="#D4E1F4"/>
</svg>
