<svg width="80" height="80" viewBox="0 0 80 80" fill="none" xmlns="http://www.w3.org/2000/svg">
<path d="M28.1608 31.424C28.168 31.4111 28.1747 31.398 28.1809 31.3845C28.8031 30.0772 30.1734 27.8814 32.3608 27.8653L51.8026 27.722H51.8272C52.3348 27.72 52.8348 27.8456 53.2812 28.0873C52.1503 26.4203 51.0689 25.687 49.7922 25.687H49.7676L30.3258 25.8303C28.1383 25.8459 26.7681 28.042 26.1459 29.3494C26.1397 29.3628 26.133 29.3759 26.1258 29.3889L22.7925 35.3987L25.969 35.3753L28.1608 31.424Z" fill="#D4E1F4"/>
<path d="M22.5262 50.1257C22.2894 49.8851 22.156 49.5615 22.1546 49.224C22.1544 49.1931 22.1523 49.1622 22.1484 49.1316L20.9413 39.8337C20.9459 38.3072 21.7409 37.2455 22.7062 36.8241L21.5832 36.8324H21.5782C21.5393 36.832 21.5005 36.8285 21.4621 36.8218C20.182 36.9072 18.9121 38.0576 18.9065 39.9268L20.1135 48.9291C20.1176 48.9587 20.1196 48.9886 20.1198 49.0185C20.1237 49.3455 20.256 49.6578 20.4881 49.8882C20.7201 50.1186 21.0334 50.2486 21.3604 50.2502H21.3698L22.6578 50.2408C22.6113 50.2055 22.5674 50.167 22.5262 50.1257Z" fill="#D4E1F4"/>
<path d="M24.1039 46.3692H24.129C24.9564 46.3611 25.7469 46.0259 26.3279 45.4369C26.909 44.8478 27.2333 44.0528 27.23 43.2254C27.2268 42.398 26.8963 41.6055 26.3106 41.021C25.725 40.4366 24.9319 40.1076 24.1045 40.106H24.079C23.2516 40.1141 22.4611 40.4493 21.8801 41.0384C21.2991 41.6275 20.9748 42.4225 20.9781 43.2499C20.9813 44.0773 21.3119 44.8698 21.8976 45.4543C22.4833 46.0388 23.2765 46.3677 24.1039 46.3692ZM23.432 42.5753C23.5188 42.4868 23.6223 42.4163 23.7365 42.3681C23.8507 42.3198 23.9733 42.2946 24.0973 42.2941H24.1051C24.3535 42.2962 24.5911 42.3961 24.7663 42.5722C24.9416 42.7482 25.0404 42.9863 25.0413 43.2347C25.0423 43.4831 24.9453 43.7219 24.7714 43.8993C24.5975 44.0766 24.3607 44.1784 24.1123 44.1824H24.1048C23.9187 44.1823 23.7368 44.1273 23.5819 44.0242C23.427 43.9211 23.3061 43.7745 23.2342 43.6029C23.1623 43.4313 23.1427 43.2423 23.1779 43.0595C23.2131 42.8768 23.3015 42.7086 23.432 42.576V42.5753Z" fill="#0635C9"/>
<path d="M56.0169 46.1144H56.0427C56.87 46.1063 57.6605 45.7711 58.2416 45.1821C58.8226 44.5931 59.147 43.7981 59.1438 42.9708C59.1406 42.1434 58.8102 41.3509 58.2246 40.7664C57.6391 40.1819 56.846 39.8528 56.0186 39.8511H55.9928C55.1623 39.8543 54.367 40.1873 53.782 40.7768C53.197 41.3663 52.8701 42.1641 52.8733 42.9947C52.8765 43.8252 53.2095 44.6205 53.799 45.2055C54.3886 45.7905 55.1864 46.1174 56.0169 46.1142V46.1144ZM55.345 42.3204C55.4318 42.2319 55.5353 42.1615 55.6495 42.1132C55.7637 42.0649 55.8864 42.0398 56.0103 42.0392H56.0182C56.2672 42.0392 56.5061 42.1377 56.6829 42.3131C56.8597 42.4885 56.96 42.7267 56.9619 42.9758C56.9639 43.2261 56.8664 43.467 56.6908 43.6455C56.5152 43.8239 56.2759 43.9253 56.0255 43.9273H56.0177C55.8316 43.9272 55.6497 43.8722 55.4949 43.7691C55.34 43.666 55.219 43.5194 55.1472 43.3478C55.0753 43.1762 55.0558 42.9872 55.091 42.8045C55.1262 42.6218 55.2145 42.4535 55.345 42.3209V42.3204Z" fill="#0635C9"/>
<path d="M34.3249 48.7341H34.3337L45.877 48.6421C46.167 48.641 46.4448 48.5247 46.6491 48.3188C46.8534 48.1129 46.9676 47.8342 46.9665 47.5441C46.9654 47.2541 46.8491 46.9763 46.6432 46.772C46.4372 46.5676 46.1586 46.4535 45.8685 46.4546H45.8593L34.316 46.5466C34.0259 46.5478 33.7482 46.6641 33.5439 46.87C33.3396 47.0759 33.2254 47.3546 33.2266 47.6447C33.2277 47.9348 33.344 48.2125 33.55 48.4168C33.7559 48.6211 34.0345 48.7353 34.3246 48.7341H34.3249Z" fill="#0635C9"/>
<path d="M59.404 65.5855C53.7634 70.4278 46.6767 73.2074 39.9609 73.2114H39.9453C35.5703 73.2114 30.9951 72.0335 26.7142 69.8052C22.2625 67.4843 18.4006 64.176 15.4239 60.1333C15.339 60.0174 15.232 59.9193 15.1092 59.8448C14.9864 59.7702 14.8501 59.7205 14.7081 59.6986C14.5661 59.6768 14.4211 59.6831 14.2815 59.7172C14.142 59.7514 14.0105 59.8127 13.8946 59.8977C13.7788 59.9827 13.6808 60.0896 13.6063 60.2125C13.5318 60.3354 13.4822 60.4717 13.4604 60.6137C13.4386 60.7558 13.445 60.9007 13.4793 61.0403C13.5135 61.1798 13.5749 61.3113 13.66 61.4271C16.8353 65.7401 20.9551 69.2698 25.704 71.7461C30.2959 74.1368 35.2196 75.4002 39.9453 75.4002H39.9609C47.1912 75.3958 54.7968 72.4239 60.8276 67.2464C67.4296 61.5934 71.6392 53.6448 72.6056 45.0072C72.6382 44.719 72.5549 44.4296 72.3741 44.2027C72.1934 43.9758 71.9299 43.83 71.6416 43.7975C71.3533 43.7649 71.0639 43.8481 70.8371 44.0289C70.6102 44.2097 70.4644 44.4732 70.4318 44.7614C69.5269 52.8493 65.5855 60.292 59.404 65.5855Z" fill="#1AE5BE"/>
<path d="M8.3577 36.204C8.3992 36.2087 8.44094 36.2111 8.4827 36.2111C8.75128 36.2107 9.01035 36.1116 9.21053 35.9325C9.41071 35.7535 9.53801 35.507 9.56817 35.2401C10.4729 27.1518 14.4145 19.7085 20.5965 14.4148C26.2371 9.57246 33.3238 6.79293 40.0396 6.78887H40.0552C44.4302 6.78887 49.0054 7.96684 53.2861 10.1951C57.7379 12.516 61.5998 15.8243 64.5766 19.867C64.6615 19.9829 64.7684 20.081 64.8913 20.1556C65.0141 20.2301 65.1504 20.2798 65.2924 20.3017C65.4344 20.3236 65.5794 20.3172 65.7189 20.2831C65.8585 20.2489 65.99 20.1876 66.1059 20.1026C66.2217 20.0176 66.3197 19.9107 66.3942 19.7878C66.4687 19.6649 66.5183 19.5286 66.5401 19.3866C66.5619 19.2445 66.5555 19.0996 66.5212 18.96C66.487 18.8205 66.4256 18.6891 66.3405 18.5732C63.1651 14.2603 59.0454 10.7306 54.2965 8.25418C49.6994 5.86074 44.7744 4.59418 40.0389 4.60012C32.808 4.60574 25.2024 7.57824 19.1721 12.7551C12.57 18.4081 8.3602 26.3567 7.39364 34.9943C7.37751 35.1371 7.38965 35.2816 7.42936 35.4196C7.46908 35.5577 7.5356 35.6865 7.62512 35.7989C7.71465 35.9112 7.82542 36.0048 7.95111 36.0743C8.07681 36.1438 8.21497 36.1879 8.3577 36.204Z" fill="#1AE5BE"/>
<path d="M52.0526 35.4935C52.0549 35.7821 52.1712 36.058 52.376 36.2612C52.5809 36.4645 52.8578 36.5785 53.1463 36.5785H53.1551C53.2988 36.5774 53.4408 36.548 53.5731 36.4919C53.7054 36.4359 53.8253 36.3544 53.9261 36.252C54.0269 36.1496 54.1065 36.0283 54.1604 35.8952C54.2143 35.762 54.2414 35.6195 54.2403 35.4758C54.2293 34.1047 53.6741 32.7941 52.6968 31.8323C51.7195 30.8705 50.4002 30.3364 49.0291 30.3473C47.6579 30.3583 46.3473 30.9135 45.3855 31.8908C44.4238 32.8681 43.8896 34.1874 43.9006 35.5585C43.9029 35.8471 44.0191 36.123 44.224 36.3262C44.4289 36.5295 44.7057 36.6435 44.9943 36.6435H45.0032C45.1469 36.6424 45.2889 36.6129 45.4212 36.5569C45.5534 36.5009 45.6734 36.4193 45.7741 36.3169C45.8749 36.2145 45.9545 36.0933 46.0084 35.9601C46.0623 35.827 46.0894 35.6845 46.0882 35.5408C46.0872 34.7532 46.3978 33.9972 46.9521 33.4377C47.5065 32.8782 48.2597 32.5608 49.0473 32.5546C49.8349 32.5484 50.5929 32.854 51.156 33.4047C51.7191 33.9554 52.0416 34.7064 52.0529 35.494L52.0526 35.4935Z" fill="#1AE5BE"/>
<path d="M34.855 44.393H34.8641C35.1541 44.3906 35.4314 44.2731 35.6348 44.0664C35.8383 43.8596 35.9512 43.5805 35.9489 43.2905L35.9333 41.4126C35.931 41.1241 35.8147 40.8481 35.6099 40.6449C35.405 40.4417 35.1281 40.3276 34.8395 40.3276H34.8305C34.5404 40.33 34.2632 40.4475 34.0597 40.6542C33.8563 40.861 33.7433 41.1401 33.7456 41.4301L33.7613 43.308C33.7636 43.5965 33.8798 43.8725 34.0847 44.0757C34.2896 44.2789 34.5664 44.393 34.855 44.393Z" fill="#1AE5BE"/>
<path d="M31.3768 44.4204H31.3856C31.5292 44.4193 31.6712 44.3899 31.8035 44.3339C31.9358 44.2778 32.0557 44.1963 32.1564 44.0939C32.2572 43.9915 32.3368 43.8703 32.3907 43.7372C32.4446 43.604 32.4718 43.4616 32.4706 43.3179L32.4558 41.4401C32.4535 41.1515 32.3373 40.8756 32.1324 40.6723C31.9275 40.469 31.6506 40.355 31.362 40.355H31.3531C31.2095 40.3561 31.0675 40.3855 30.9352 40.4416C30.8029 40.4976 30.683 40.5791 30.5823 40.6815C30.4815 40.7839 30.4019 40.9051 30.348 41.0382C30.2941 41.1714 30.2669 41.3138 30.2681 41.4575L30.2829 43.3354C30.2853 43.624 30.4015 43.9 30.6064 44.1033C30.8113 44.3065 31.0883 44.4205 31.3768 44.4204Z" fill="#1AE5BE"/>
<path d="M48.7536 40.2168H48.7447C48.6011 40.2179 48.4591 40.2474 48.3268 40.3034C48.1945 40.3594 48.0746 40.441 47.9739 40.5433C47.8731 40.6457 47.7935 40.7669 47.7396 40.9001C47.6857 41.0332 47.6585 41.1757 47.6597 41.3193L47.6753 43.1971C47.6776 43.4857 47.7939 43.7616 47.9988 43.9649C48.2036 44.1681 48.4805 44.2821 48.7691 44.2821H48.778C49.068 44.2798 49.3453 44.1624 49.5488 43.9556C49.7522 43.7489 49.8653 43.4698 49.863 43.1798L49.8473 41.302C49.8451 41.0134 49.7288 40.7374 49.524 40.5341C49.3191 40.3308 49.0422 40.2168 48.7536 40.2168Z" fill="#1AE5BE"/>
<path d="M38.3333 44.3653H38.3422C38.4858 44.3641 38.6278 44.3347 38.7601 44.2787C38.8924 44.2227 39.0123 44.1411 39.113 44.0387C39.2138 43.9364 39.2934 43.8151 39.3473 43.682C39.4012 43.5489 39.4283 43.4064 39.4272 43.2628L39.4116 41.385C39.4093 41.0964 39.2931 40.8204 39.0882 40.6171C38.8833 40.4138 38.6064 40.2998 38.3178 40.2998H38.3091C38.1654 40.3009 38.0234 40.3303 37.8911 40.3864C37.7588 40.4424 37.6389 40.5239 37.5381 40.6263C37.4374 40.7287 37.3577 40.8499 37.3038 40.983C37.2499 41.1162 37.2228 41.2587 37.2239 41.4023L37.2395 43.2803C37.2418 43.5688 37.3581 43.8448 37.563 44.048C37.7678 44.2513 38.0447 44.3653 38.3333 44.3653Z" fill="#1AE5BE"/>
<path d="M41.8112 44.3373H41.82C41.9636 44.3362 42.1056 44.3068 42.2379 44.2508C42.3701 44.1947 42.4901 44.1132 42.5909 44.0109C42.6916 43.9085 42.7712 43.7873 42.8252 43.6542C42.8791 43.521 42.9063 43.3786 42.9051 43.2349L42.8895 41.3571C42.8872 41.0685 42.771 40.7925 42.5661 40.5893C42.3612 40.386 42.0843 40.272 41.7957 40.272H41.7868C41.4969 40.2746 41.2198 40.3922 41.0165 40.599C40.8133 40.8059 40.7005 41.085 40.7029 41.3749L40.7185 43.2528C40.721 43.541 40.8371 43.8167 41.0418 44.0198C41.2464 44.2229 41.5229 44.337 41.8112 44.3373Z" fill="#1AE5BE"/>
<path d="M45.2657 40.2442C45.1221 40.2453 44.9801 40.2747 44.8478 40.3308C44.7155 40.3868 44.5956 40.4683 44.4949 40.5707C44.3941 40.6731 44.3145 40.7943 44.2606 40.9274C44.2067 41.0606 44.1795 41.203 44.1807 41.3467L44.1955 43.2247C44.1979 43.5132 44.3141 43.7892 44.519 43.9924C44.7238 44.1956 45.0007 44.3097 45.2893 44.3097H45.298C45.4417 44.3085 45.5837 44.2791 45.7159 44.2231C45.8482 44.167 45.9681 44.0855 46.0689 43.9831C46.1696 43.8808 46.2492 43.7595 46.3031 43.6264C46.357 43.4932 46.3842 43.3508 46.383 43.2072L46.3682 41.3293C46.3671 41.1857 46.3377 41.0437 46.2816 40.9114C46.2256 40.7791 46.1441 40.6592 46.0417 40.5584C45.9393 40.4576 45.8181 40.378 45.685 40.3241C45.5518 40.2702 45.4093 40.243 45.2657 40.2442Z" fill="#1AE5BE"/>
<path d="M16.5594 36.3756H16.5696L18.09 36.3615C17.308 37.3208 16.8923 38.5267 16.9172 39.7642C16.9176 39.8101 16.9208 39.856 16.9269 39.9015L18.1457 48.9495C18.1682 49.6021 18.3986 50.2304 18.8034 50.7428C19.2081 51.2552 19.766 51.6249 20.3957 51.7979L20.4165 54.4034C20.4215 54.951 20.6424 55.4745 21.0312 55.8602C21.42 56.2459 21.9452 56.4626 22.4929 56.4634H22.5099L25.4943 56.4396C26.0451 56.4349 26.5715 56.2118 26.9578 55.8192C27.3442 55.4266 27.5589 54.8967 27.5547 54.3459L27.5349 51.8582L52.724 51.6573L52.7436 54.1449C52.7481 54.6928 52.9688 55.2167 53.3577 55.6026C53.7466 55.9885 54.2722 56.2052 54.82 56.2054H54.8371L57.8224 56.1815C58.3732 56.177 58.8998 55.9539 59.2862 55.5613C59.6725 55.1686 59.8871 54.6386 59.8827 54.0877L59.8618 51.4702C60.4758 51.2781 61.014 50.898 61.4004 50.3836C61.7869 49.8692 62.002 49.2465 62.0155 48.6032L63.1405 39.5388C63.1464 39.4913 63.1492 39.4434 63.1488 39.3956C63.1464 38.1532 62.6972 36.9533 61.8832 36.0148L63.4446 36.0018C63.5926 36.0006 63.7389 35.9693 63.8745 35.9099C64.0101 35.8505 64.1322 35.7642 64.2335 35.6562C64.3347 35.5482 64.413 35.4207 64.4635 35.2816C64.5141 35.1424 64.5359 34.9945 64.5275 34.8467C64.4784 34.2119 64.3492 33.5859 64.1432 32.9835C63.6622 31.5773 62.1974 30.6831 60.413 30.6921C59.5177 30.6993 57.9702 30.7063 57.0979 30.7101L55.5891 27.9842C54.4125 25.9137 52.6944 23.5415 49.8166 23.5415H49.7747L30.2015 23.6978C27.8463 23.7165 25.7833 25.3313 24.389 28.2456L22.8652 30.9968C21.9902 31.0021 20.4166 31.0124 19.514 31.019C17.7288 31.0334 16.2796 31.9565 15.8207 33.3695C15.6242 33.975 15.5051 34.603 15.466 35.2384C15.46 35.3856 15.4839 35.5325 15.5361 35.6703C15.5883 35.8081 15.6679 35.9339 15.7699 36.0402C15.872 36.1465 15.9945 36.231 16.1301 36.2888C16.2656 36.3466 16.4114 36.3763 16.5588 36.3763L16.5594 36.3756ZM22.6025 54.2751L22.5836 51.8979L25.3477 51.8759L25.3666 54.2531L22.6025 54.2751ZM54.9307 54.0173L54.9118 51.6402L57.6757 51.6182L57.6946 53.9952L54.9307 54.0173ZM60.4293 32.8796C61.2285 32.8692 61.9066 33.207 62.0724 33.6921C62.0877 33.737 62.1022 33.7815 62.116 33.8256L58.8347 33.8529L58.3035 32.8924C59.0507 32.8885 59.8679 32.8842 60.4293 32.8796ZM26.3199 29.2754C26.331 29.2556 26.3413 29.2354 26.3511 29.2149C26.9388 27.9779 28.2229 25.9004 30.2196 25.8845L49.7929 25.7282H49.816C51.201 25.7282 52.3605 26.7282 53.6819 29.0529L56.6918 34.4973L23.2796 34.7637L26.3199 29.2754ZM58.5152 36.6704C58.5207 36.6704 58.526 36.6704 58.5308 36.6704H58.5583C58.8766 36.6715 59.1909 36.7415 59.4795 36.8757C59.7681 37.0099 60.0242 37.205 60.2302 37.4476C60.685 37.9772 60.9426 38.6478 60.9593 39.3457L59.8361 48.397C59.8302 48.4445 59.8274 48.4925 59.8277 48.5404C59.8281 48.7713 59.7374 48.9931 59.5754 49.1577C59.4134 49.3223 59.1931 49.4164 58.9622 49.4198L21.2108 49.7207H21.2038C20.9741 49.7192 20.7541 49.6277 20.5911 49.4659C20.428 49.3042 20.3348 49.0849 20.3315 48.8552C20.331 48.8093 20.3278 48.7634 20.3218 48.7179L19.1046 39.6815C19.1202 38.0493 20.2027 37.0442 21.3015 36.9581C21.3392 36.9625 21.3772 36.9649 21.4152 36.9654H21.4238L58.5152 36.6704ZM17.9019 34.0437C18.06 33.5568 18.73 33.2121 19.5319 33.2057C20.0894 33.2013 20.9032 33.1959 21.65 33.1912L21.1213 34.1459L17.8611 34.176C17.874 34.1324 17.8875 34.0882 17.9019 34.0437Z" fill="#0635C9"/>
<path d="M72.6581 35.0994C72.5587 34.9467 72.4228 34.8212 72.2627 34.7344C72.1026 34.6475 71.9233 34.602 71.7412 34.6021C71.5589 34.6022 71.3795 34.6478 71.2194 34.7349C71.0592 34.822 70.9234 34.9477 70.8242 35.1006L65.0742 43.9647C64.967 44.1298 64.9064 44.3207 64.8988 44.5174C64.8911 44.7141 64.9367 44.9091 65.0306 45.0821C65.1245 45.255 65.2634 45.3994 65.4325 45.5C65.6017 45.6006 65.7948 45.6537 65.9917 45.6538L77.5035 45.6469C77.7004 45.6468 77.8936 45.5936 78.0628 45.4928C78.2319 45.3921 78.3708 45.2475 78.4646 45.0745C78.5585 44.9014 78.6038 44.7062 78.596 44.5095C78.5881 44.3127 78.5273 44.1218 78.4199 43.9567L72.6581 35.0994ZM68.0045 43.465L71.7423 37.703L75.487 43.4599L68.0045 43.465Z" fill="#0635C9"/>
<path d="M8.2585 45.3979C8.44079 45.3978 8.62017 45.3521 8.78033 45.2651C8.94048 45.178 9.07633 45.0523 9.17553 44.8993L14.9255 36.0353C15.0326 35.8702 15.0932 35.6792 15.1009 35.4825C15.1086 35.2859 15.063 35.0908 14.9691 34.9179C14.8751 34.7449 14.7363 34.6005 14.5671 34.4999C14.398 34.3993 14.2048 34.3462 14.008 34.3462L2.49615 34.3531C2.29927 34.3531 2.10605 34.4064 1.9369 34.5071C1.76774 34.6079 1.62892 34.7524 1.53507 34.9255C1.44123 35.0986 1.39584 35.2938 1.4037 35.4905C1.41157 35.6872 1.47239 35.8782 1.57975 36.0432L7.341 44.9006C7.44038 45.0533 7.57637 45.1789 7.7366 45.2657C7.89684 45.3526 8.07624 45.398 8.2585 45.3979ZM11.9952 36.5349L8.2574 42.297L4.51271 36.5395L11.9952 36.5349Z" fill="#0635C9"/>
</svg>
