<svg width="422" height="367" viewBox="0 0 422 367" fill="none" xmlns="http://www.w3.org/2000/svg">
<path d="M36.8048 195.702V200.004C36.8048 200.004 37.0899 202.976 33.4768 202.976H27.1816C23.5744 202.976 23.8537 200.004 23.8537 200.004V191.844" stroke="black" stroke-linecap="round" stroke-linejoin="round"/>
<path d="M25.2152 155.31C25.2152 155.31 23.7316 153.462 21.8058 153.462C19.88 153.462 15.7492 153.503 15.7492 149.965C15.7492 149.965 15.6677 145.669 19.6007 145.669H23.8131C23.8131 145.669 26.0181 145.383 26.0181 148.478C26.027 148.761 26.0921 149.038 26.2095 149.295C26.3269 149.552 26.4943 149.782 26.7018 149.974C26.9093 150.165 27.1529 150.312 27.4181 150.408C27.6834 150.503 27.965 150.545 28.2465 150.53" stroke="black" stroke-linecap="round" stroke-linejoin="round"/>
<path d="M17.4541 146.299C17.4541 146.299 19.0774 148.712 26.03 148.712" stroke="black" stroke-linecap="round" stroke-linejoin="round"/>
<path d="M50.9313 170.662C50.9313 170.662 40.2783 157.163 28.0661 157.163C28.0661 157.163 26.501 157.845 26.501 161.424C26.501 165.964 32.9998 169.001 32.9998 169.001" stroke="black" stroke-linecap="round" stroke-linejoin="round"/>
<path d="M28.0664 157.163C28.0664 157.163 34.7631 167.771 50.6524 170.423" stroke="black" stroke-linecap="round" stroke-linejoin="round"/>
<path d="M27.4844 170.627C27.4844 168.296 29.4684 173.134 36.4966 173.134C39.0508 173.134 40.197 174.381 40.197 177.674C40.197 177.674 27.4844 179.131 27.4844 170.627Z" stroke="black" stroke-linecap="round" stroke-linejoin="round"/>
<path d="M74.2916 195.259C74.2916 195.259 103.9 195.725 110.335 195.725C116.77 195.725 120.185 195.055 123.059 193.248C126.812 190.917 126.364 186.4 126.364 185.916C126.364 185.432 125.241 178.764 125.962 176.998C126.684 175.232 126.835 170.342 126.835 170.342C126.835 170.342 129.162 162.065 124.665 156.936C120.167 151.807 120.371 150.81 119.853 148.42C118.858 143.839 111.126 126.761 104.208 124.785C98.5939 123.182 74.2799 123.101 74.2799 123.101C74.2799 123.101 49.9718 123.182 44.3515 124.785C37.457 126.761 29.7015 143.839 28.7066 148.42C28.1888 150.81 28.3866 151.795 23.895 156.936C19.4034 162.077 21.7307 170.342 21.7307 170.342C21.7307 170.342 21.8877 175.244 22.6092 177.015C23.3306 178.787 22.2077 185.455 22.2077 185.933C22.2077 186.411 21.7597 190.911 25.5124 193.266C28.3866 195.073 31.796 195.743 38.2367 195.743C44.6773 195.743 74.309 195.277 74.309 195.277L74.2916 195.259Z" stroke="black" stroke-linecap="round" stroke-linejoin="round"/>
<path d="M111.766 195.702V200.004C111.766 200.004 111.486 202.976 115.094 202.976H121.389C124.996 202.976 124.717 200.004 124.717 200.004V191.844" stroke="black" stroke-linecap="round" stroke-linejoin="round"/>
<path d="M123.345 155.31C123.345 155.31 124.828 153.462 126.754 153.462C128.68 153.462 132.811 153.503 132.811 149.965C132.811 149.965 132.892 145.669 128.959 145.669H124.747C124.747 145.669 122.542 145.383 122.542 148.478C122.533 148.761 122.468 149.038 122.35 149.295C122.233 149.552 122.066 149.782 121.858 149.974C121.651 150.165 121.407 150.312 121.142 150.408C120.877 150.503 120.595 150.545 120.313 150.53" stroke="black" stroke-linecap="round" stroke-linejoin="round"/>
<path d="M131.146 146.299C131.146 146.299 129.523 148.712 122.57 148.712" stroke="black" stroke-linecap="round" stroke-linejoin="round"/>
<path d="M74.2919 147.698C74.2919 147.698 103.656 147.756 109.433 147.756C115.211 147.756 113.71 144.684 113.71 144.684C113.71 144.684 109.974 132.345 105.401 129.128C100.828 125.91 74.2919 126.68 74.2919 126.68C74.2919 126.68 47.7438 125.899 43.1708 129.128C38.5977 132.357 34.8625 144.684 34.8625 144.684C34.8625 144.684 33.4196 147.756 39.1388 147.756C44.858 147.756 74.2802 147.698 74.2802 147.698H74.2919Z" stroke="black" stroke-linecap="round" stroke-linejoin="round"/>
<path d="M93.9112 150.35H74.2925H74.2808H54.6621" stroke="black" stroke-linecap="round" stroke-linejoin="round"/>
<path d="M113.924 152.902C113.924 152.902 99.6466 165.277 94.4278 165.277C89.2089 165.277 74.2912 165.277 74.2912 165.277C74.2912 165.277 59.3678 165.277 54.1547 165.277C48.9417 165.277 34.6582 152.902 34.6582 152.902" stroke="black" stroke-linecap="round" stroke-linejoin="round"/>
<path d="M74.3266 182.075H90.5824C100.927 182.075 107.583 174.398 103.656 174.398H44.916C40.9887 174.398 47.6447 182.075 57.9951 182.075H74.3266Z" stroke="black" stroke-linecap="round" stroke-linejoin="round"/>
<path d="M127.003 161.343C127.003 161.343 125.642 170.581 99.4022 170.581H49.1685C22.9288 170.581 21.5674 161.343 21.5674 161.343" stroke="black" stroke-linecap="round" stroke-linejoin="round"/>
<path d="M97.6396 170.662C97.6396 170.662 108.293 157.163 120.505 157.163C120.505 157.163 122.07 157.845 122.07 161.424C122.07 165.964 115.571 169.001 115.571 169.001" stroke="black" stroke-linecap="round" stroke-linejoin="round"/>
<path d="M120.505 157.163C120.505 157.163 113.808 167.771 97.9248 170.423" stroke="black" stroke-linecap="round" stroke-linejoin="round"/>
<path d="M126.043 182.6C126.043 182.6 121.593 181.393 118.701 184.29C115.809 187.187 99.9258 186.697 99.9258 186.697H48.6449C48.6449 186.697 32.7614 187.181 29.8698 184.29C26.9782 181.399 22.5273 182.6 22.5273 182.6" stroke="black" stroke-linecap="round" stroke-linejoin="round"/>
<path d="M121.087 170.627C121.087 168.296 119.108 173.134 112.074 173.134C109.52 173.134 108.374 174.381 108.374 177.674C108.374 177.674 121.087 179.131 121.087 170.627Z" stroke="black" stroke-linecap="round" stroke-linejoin="round"/>
<path d="M37.0152 320.778V326.205C37.0152 326.205 37.2886 329.119 33.7396 329.119H27.5549C24.0058 329.119 24.2793 326.205 24.2793 326.205V316.296" stroke="black" stroke-linecap="round" stroke-linejoin="round"/>
<path d="M28.2239 277.677C27.7493 277.599 27.3162 277.36 26.9981 276.998C26.6799 276.637 26.4963 276.177 26.4784 275.695C26.4784 272.653 24.3083 272.933 24.3083 272.933H20.1832C16.3142 272.933 16.3956 277.158 16.3956 277.158C16.3956 280.656 20.4683 280.597 22.3476 280.597C23.4118 280.667 24.4153 281.118 25.1752 281.868" stroke="black" stroke-linecap="round" stroke-linejoin="round"/>
<path d="M40.9998 274.616C40.9998 274.616 29.5905 277.904 26.181 287.352C24.8429 291.065 48.3422 289.683 48.3422 289.683L31.6733 283.441" stroke="black" stroke-linecap="round" stroke-linejoin="round"/>
<path d="M45.2597 295.116L27.7529 294.999C27.7529 294.999 28.1078 298.788 31.4183 298.788H48.3374C48.3374 298.788 48.0989 295.116 45.2597 295.116Z" stroke="black" stroke-linecap="round" stroke-linejoin="round"/>
<path d="M41.7282 276.86C41.7282 276.86 30.7261 280.771 28.1836 289.1" stroke="black" stroke-linecap="round" stroke-linejoin="round"/>
<path d="M111.563 320.778V326.205C111.563 326.205 111.284 329.119 114.833 329.119H121.017C124.566 329.119 124.287 326.205 124.287 326.205V316.296" stroke="black" stroke-linecap="round" stroke-linejoin="round"/>
<path d="M74.1235 249.232C74.1235 249.232 98.2687 249.314 103.796 250.894C110.574 252.835 118.196 269.621 119.173 274.121C119.685 276.452 119.487 277.437 123.909 282.496C128.331 287.556 126.039 295.687 126.039 295.687C126.039 295.687 125.882 300.507 125.172 302.244C124.462 303.981 125.562 310.544 125.562 311.016C125.562 311.488 126.004 315.9 122.315 318.22C119.493 319.969 116.142 320.657 109.812 320.657C103.482 320.657 74.3795 320.196 74.3795 320.196H74.205C74.205 320.196 45.1144 320.657 38.7726 320.657C32.4309 320.657 29.0913 319.992 26.2637 318.243C22.5808 315.912 23.0172 311.511 23.0172 311.039C23.0172 310.567 24.1226 304.01 23.4128 302.267C22.703 300.524 22.5459 295.71 22.5459 295.71C22.5459 295.71 20.2594 287.55 24.6753 282.52C29.0913 277.49 28.8935 276.493 29.4055 274.144C30.3829 269.644 38.0046 252.858 44.7828 250.917C50.3041 249.337 74.4552 249.256 74.4552 249.256L74.1235 249.232Z" stroke="black" stroke-linecap="round" stroke-linejoin="round"/>
<path d="M120.348 277.677C120.823 277.6 121.256 277.361 121.575 276.999C121.893 276.638 122.076 276.177 122.093 275.695C122.093 272.653 124.263 272.933 124.263 272.933H128.406C132.269 272.933 132.193 277.158 132.193 277.158C132.193 280.656 128.121 280.597 126.236 280.597C125.173 280.666 124.171 281.117 123.414 281.868" stroke="black" stroke-linecap="round" stroke-linejoin="round"/>
<path d="M124.879 315.061C121.825 312.001 74.1335 312.73 74.1335 312.73H74.4361C74.4361 312.73 26.7275 311.984 23.6904 315.061" stroke="black" stroke-linecap="round" stroke-linejoin="round"/>
<path d="M108.6 312.998C108.6 306.202 103.003 305.176 100.635 305.176H47.9406C45.5726 305.176 39.9756 306.202 39.9756 312.998" stroke="black" stroke-linecap="round" stroke-linejoin="round"/>
<path d="M74.1349 252.38L97.6343 252.846C100.753 252.945 104.54 252.59 106.513 256.378L109.963 264.037C109.963 264.037 112.052 267.674 105.943 267.674C99.9499 267.674 74.1582 267.633 74.1582 267.633H74.4607C74.4607 267.633 48.6748 267.674 42.6763 267.674C36.5673 267.674 38.656 264.037 38.656 264.037L42.0887 256.413C44.061 252.625 47.8428 252.98 50.9613 252.881L74.4607 252.415L74.1349 252.38Z" stroke="black" stroke-linecap="round" stroke-linejoin="round"/>
<path d="M120.982 279C117.98 274.92 110.015 271.335 101.305 271.335H47.2667C38.5395 271.335 30.592 274.896 27.5898 279" stroke="black" stroke-linecap="round" stroke-linejoin="round"/>
<path d="M108.13 272.162C108.13 272.162 104.744 286.67 100.526 289.362C98.8796 290.417 91.8804 290.336 91.8804 290.336H56.6924C56.6924 290.336 49.7107 290.417 48.0525 289.362C43.8344 286.67 40.4482 272.162 40.4482 272.162" stroke="black" stroke-linecap="round" stroke-linejoin="round"/>
<path d="M107.578 274.616C107.578 274.616 118.981 277.904 122.402 287.375C123.741 291.088 100.241 289.707 100.241 289.707L116.898 283.441" stroke="black" stroke-linecap="round" stroke-linejoin="round"/>
<path d="M103.313 295.116L120.826 294.999C120.826 294.999 120.471 298.788 117.154 298.788H100.241C100.241 298.788 100.474 295.116 103.313 295.116Z" stroke="black" stroke-linecap="round" stroke-linejoin="round"/>
<path d="M106.844 276.86C106.844 276.86 117.846 280.771 120.388 289.1" stroke="black" stroke-linecap="round" stroke-linejoin="round"/>
<path d="M93.8929 287.41H74.1345H74.4371H54.6787" stroke="black" stroke-linecap="round" stroke-linejoin="round"/>
<path d="M408.432 169.229C408.432 188.615 384.066 188.498 384.066 188.498V181.078C384.066 177.488 379.766 163.593 363.522 163.593C345.719 163.593 341.303 179.33 341.303 184.657V192.194L231.457 192.928V188.073C231.457 184.354 229.222 163.727 209.348 163.727C188.402 163.727 187.96 182.25 187.96 187.577V193.161L167.393 192.025C167.393 192.025 159.632 191.506 159.632 185.613V181.306C159.632 181.306 158.276 179.79 158.276 178.974C158.276 178.158 157.881 173.787 159.789 171.875C161.697 169.963 165.368 161.663 171.338 159.11C177.307 156.557 204.385 148.496 217.365 148.036C217.365 148.036 259.971 123.148 296.404 123.148C296.404 123.148 341.995 121.551 358.879 133.056C358.879 133.056 376.334 142.382 395.912 142.627C397.907 142.656 401.799 142.79 401.799 148.053C401.799 148.053 404.668 151.329 404.668 159.128C404.668 159.128 409.072 161.098 409.072 164.881C409.061 169.258 408.432 168.133 408.432 169.229Z" stroke="black" stroke-linecap="round" stroke-linejoin="round"/>
<path d="M217.354 148.047C217.354 148.047 221.822 149.213 223.09 148.525C237.979 140.546 269.117 129.874 269.117 129.874C269.117 129.874 269.996 128.999 269.28 127.006" stroke="black" stroke-linecap="round" stroke-linejoin="round"/>
<path d="M401.787 148.048C401.787 148.048 393.642 151.877 391.361 151.959C391.361 151.959 393.508 159.699 399.798 159.699L404.656 159.116" stroke="black" stroke-linecap="round" stroke-linejoin="round"/>
<path d="M391.361 151.958C391.361 151.958 395.341 154.907 403.859 153.071" stroke="black" stroke-linecap="round" stroke-linejoin="round"/>
<path d="M383.839 178.81C383.839 178.81 400.287 179.522 407.012 176.747" stroke="black" stroke-linecap="round" stroke-linejoin="round"/>
<path d="M408.24 170.389C408.24 170.389 396.057 171.426 392.392 171.426C388.726 171.426 387.854 167.276 387.854 167.276L409.113 166" stroke="black" stroke-linecap="round" stroke-linejoin="round"/>
<path d="M400.287 144.008C400.287 144.008 384.421 150.32 351.566 150.32" stroke="black" stroke-linecap="round" stroke-linejoin="round"/>
<path d="M159.62 181.316C162.838 184.586 180.274 185.268 187.972 184.965" stroke="black" stroke-linecap="round" stroke-linejoin="round"/>
<path d="M175.416 175.96C176.283 173.804 173.036 176.135 166.171 174.865C163.675 174.404 162.523 174.993 161.93 178.204C161.93 178.204 173.717 180.198 175.416 175.96Z" stroke="black" stroke-linecap="round" stroke-linejoin="round"/>
<path d="M166.312 169.613C166.312 169.613 169.098 160.515 187.571 160.515C187.571 160.491 186.46 169.613 166.312 169.613Z" stroke="black" stroke-linecap="round" stroke-linejoin="round"/>
<path d="M166.312 169.613C166.312 169.613 176.505 167.934 187.571 160.515" stroke="black" stroke-linecap="round" stroke-linejoin="round"/>
<path d="M190.998 160.335C190.998 160.335 211.228 155.089 226.355 154.588" stroke="black" stroke-linecap="round" stroke-linejoin="round"/>
<path d="M352.834 140.99C351.6 161.256 343.734 166.875 339.452 176.451C335.17 186.028 331.307 187.001 327.234 187.158C305.55 188.004 261.646 188.656 239.904 188.656C235.209 188.656 229.554 167.673 229.391 158.901C229.228 150.129 234.109 147.168 237.676 145.495C253.385 138.116 275.621 127.467 301.896 127.584C301.896 127.584 332.61 126.343 344.781 130.458C347.627 131.419 353.328 132.812 352.834 140.99Z" stroke="black" stroke-linecap="round" stroke-linejoin="round"/>
<path d="M304.992 127.466C304.992 127.466 295.561 153.071 295.561 159.174C295.561 165.276 296.038 177.126 296.038 177.487C296.038 177.849 297.236 187.058 298.068 187.897" stroke="black" stroke-linecap="round" stroke-linejoin="round"/>
<path d="M307.197 130.818L302.258 148.887C302.258 148.887 318.967 148.986 332.704 148.065C347.174 147.092 348.267 144.789 349.082 140.628C350.281 134.525 345.859 133.132 342.513 132.468C332.727 130.626 307.197 130.818 307.197 130.818Z" stroke="black" stroke-linecap="round" stroke-linejoin="round"/>
<path d="M246.816 151.999L235.43 152.675C235.43 152.675 271.584 129.856 300.732 130.975L294.361 149.167L257.888 151.358" stroke="black" stroke-linecap="round" stroke-linejoin="round"/>
<path d="M235.117 171.823C235.117 171.823 235.594 174.853 239.574 174.853C243.553 174.853 335.457 171.502 335.457 171.502C335.457 171.502 339.203 171.257 339.203 167.422L235.117 171.823Z" stroke="black" stroke-linecap="round" stroke-linejoin="round"/>
<path d="M250.72 154.751C250.72 154.751 247.613 156.249 249.888 160.055C249.888 160.055 245.234 159.735 243.773 153.615C243.773 153.615 246.758 153.376 249.272 149.127C251.785 144.878 256.387 144.761 257.33 146.935C258.086 148.684 259.622 154.868 252.233 154.909C250.581 154.909 247.538 154.751 249.272 149.127" stroke="black" stroke-linecap="round" stroke-linejoin="round"/>
<path d="M249.133 153.473C249.133 153.473 251 146.613 256.179 145.855" stroke="black" stroke-linecap="round" stroke-linejoin="round"/>
<path d="M290.848 157.693C290.862 157.886 290.838 158.081 290.778 158.265C290.717 158.449 290.62 158.619 290.494 158.766C290.368 158.912 290.213 159.033 290.041 159.12C289.868 159.207 289.679 159.259 289.486 159.273L282.737 159.786C282.545 159.801 282.351 159.778 282.167 159.717C281.984 159.657 281.814 159.561 281.667 159.435C281.521 159.309 281.4 159.155 281.314 158.982C281.227 158.809 281.175 158.621 281.161 158.428V158.428C281.146 158.234 281.169 158.04 281.229 157.856C281.289 157.671 281.384 157.5 281.51 157.353C281.636 157.206 281.79 157.085 281.963 156.997C282.135 156.91 282.323 156.857 282.516 156.842L289.265 156.329C289.656 156.3 290.041 156.428 290.338 156.683C290.635 156.939 290.818 157.302 290.848 157.693V157.693Z" stroke="black" stroke-linecap="round" stroke-linejoin="round"/>
<path d="M345.557 155.339C345.584 155.73 345.456 156.115 345.202 156.412C344.947 156.709 344.585 156.893 344.195 156.925L337.446 157.437C337.253 157.452 337.06 157.428 336.876 157.367C336.692 157.306 336.522 157.21 336.376 157.083C336.229 156.956 336.109 156.802 336.022 156.629C335.936 156.456 335.884 156.267 335.87 156.074V156.074C335.855 155.881 335.878 155.686 335.938 155.502C335.998 155.318 336.094 155.148 336.22 155.001C336.346 154.855 336.499 154.734 336.672 154.647C336.844 154.56 337.033 154.508 337.225 154.494L343.974 153.981C344.167 153.966 344.361 153.989 344.545 154.049C344.729 154.109 344.9 154.205 345.047 154.331C345.194 154.457 345.314 154.611 345.402 154.784C345.489 154.957 345.542 155.146 345.557 155.339V155.339Z" stroke="black" stroke-linecap="round" stroke-linejoin="round"/>
<path d="M190.083 184.126C190.082 187.855 191.184 191.5 193.251 194.6C195.318 197.701 198.256 200.118 201.694 201.545C205.132 202.973 208.916 203.347 212.566 202.62C216.216 201.894 219.57 200.099 222.202 197.463C224.834 194.827 226.626 191.468 227.353 187.812C228.079 184.155 227.707 180.365 226.283 176.92C224.859 173.475 222.447 170.531 219.353 168.459C216.259 166.388 212.62 165.282 208.899 165.282C203.91 165.282 199.125 167.267 195.596 170.801C192.068 174.335 190.085 179.128 190.083 184.126V184.126Z" stroke="black" stroke-linecap="round" stroke-linejoin="round"/>
<path d="M196.414 184.126C196.413 186.601 197.144 189.019 198.515 191.077C199.887 193.135 201.836 194.739 204.118 195.687C206.399 196.634 208.91 196.883 211.332 196.401C213.754 195.919 215.98 194.728 217.726 192.979C219.473 191.23 220.663 189.001 221.145 186.575C221.627 184.148 221.38 181.633 220.436 179.347C219.491 177.061 217.89 175.107 215.837 173.732C213.784 172.358 211.369 171.624 208.9 171.624C205.589 171.624 202.414 172.941 200.073 175.286C197.732 177.63 196.416 180.81 196.414 184.126V184.126Z" stroke="black" stroke-linecap="round" stroke-linejoin="round"/>
<path d="M198.036 184.126C198.036 186.278 198.673 188.382 199.867 190.172C201.06 191.961 202.757 193.356 204.742 194.18C206.727 195.004 208.911 195.219 211.018 194.799C213.125 194.379 215.06 193.343 216.579 191.821C218.099 190.299 219.133 188.36 219.552 186.249C219.971 184.138 219.756 181.95 218.934 179.962C218.112 177.973 216.72 176.274 214.933 175.078C213.147 173.882 211.047 173.244 208.899 173.244C206.018 173.244 203.255 174.391 201.218 176.431C199.181 178.472 198.036 181.24 198.036 184.126Z" stroke="black" stroke-linecap="round" stroke-linejoin="round"/>
<path d="M203.204 184.127C203.203 185.256 203.536 186.36 204.161 187.299C204.786 188.238 205.676 188.97 206.716 189.403C207.757 189.836 208.902 189.95 210.008 189.73C211.113 189.511 212.128 188.968 212.926 188.17C213.723 187.372 214.266 186.355 214.486 185.248C214.706 184.141 214.594 182.994 214.163 181.951C213.732 180.908 213.002 180.016 212.065 179.389C211.128 178.762 210.027 178.427 208.9 178.427C207.39 178.427 205.942 179.027 204.874 180.096C203.806 181.165 203.206 182.615 203.204 184.127V184.127Z" stroke="black" stroke-linecap="round" stroke-linejoin="round"/>
<path d="M208.085 180.688C208.085 180.849 208.133 181.007 208.222 181.141C208.312 181.276 208.439 181.38 208.588 181.442C208.737 181.504 208.9 181.52 209.058 181.488C209.216 181.457 209.362 181.379 209.475 181.265C209.589 181.151 209.667 181.006 209.698 180.847C209.73 180.689 209.714 180.525 209.652 180.376C209.59 180.227 209.486 180.099 209.352 180.01C209.218 179.92 209.061 179.872 208.899 179.872C208.683 179.872 208.476 179.958 208.324 180.111C208.171 180.264 208.085 180.472 208.085 180.688V180.688Z" stroke="black" stroke-linecap="round" stroke-linejoin="round"/>
<path d="M208.085 187.594C208.085 187.756 208.133 187.913 208.222 188.048C208.312 188.182 208.439 188.286 208.588 188.348C208.737 188.41 208.9 188.426 209.058 188.395C209.216 188.363 209.362 188.285 209.475 188.171C209.589 188.057 209.667 187.912 209.698 187.754C209.73 187.595 209.714 187.431 209.652 187.282C209.59 187.133 209.486 187.005 209.352 186.916C209.218 186.826 209.061 186.778 208.899 186.778C208.683 186.778 208.476 186.864 208.324 187.017C208.171 187.17 208.085 187.378 208.085 187.594V187.594Z" stroke="black" stroke-linecap="round" stroke-linejoin="round"/>
<path d="M204.624 184.127C204.624 184.288 204.672 184.446 204.761 184.58C204.851 184.714 204.978 184.819 205.127 184.88C205.276 184.942 205.439 184.958 205.597 184.927C205.755 184.895 205.901 184.818 206.015 184.704C206.128 184.589 206.206 184.444 206.237 184.286C206.269 184.127 206.253 183.963 206.191 183.814C206.129 183.665 206.025 183.538 205.891 183.448C205.757 183.358 205.6 183.311 205.439 183.311C205.223 183.311 205.015 183.397 204.863 183.55C204.71 183.703 204.624 183.91 204.624 184.127V184.127Z" stroke="black" stroke-linecap="round" stroke-linejoin="round"/>
<path d="M211.541 184.127C211.541 184.288 211.589 184.446 211.678 184.58C211.768 184.714 211.895 184.819 212.044 184.88C212.193 184.942 212.356 184.958 212.514 184.927C212.672 184.895 212.818 184.818 212.932 184.704C213.045 184.589 213.123 184.444 213.154 184.286C213.186 184.127 213.17 183.963 213.108 183.814C213.046 183.665 212.942 183.538 212.808 183.448C212.674 183.358 212.517 183.311 212.356 183.311C212.14 183.311 211.932 183.397 211.78 183.55C211.627 183.703 211.541 183.91 211.541 184.127V184.127Z" stroke="black" stroke-linecap="round" stroke-linejoin="round"/>
<path d="M344.433 184.126C344.431 187.855 345.534 191.5 347.601 194.6C349.668 197.701 352.606 200.118 356.044 201.545C359.482 202.973 363.265 203.347 366.916 202.62C370.566 201.894 373.919 200.099 376.551 197.463C379.183 194.827 380.976 191.468 381.702 187.812C382.429 184.155 382.056 180.365 380.632 176.92C379.209 173.475 376.797 170.531 373.702 168.459C370.608 166.388 366.97 165.282 363.248 165.282C358.259 165.282 353.474 167.267 349.946 170.801C346.417 174.335 344.434 179.128 344.433 184.126V184.126Z" stroke="black" stroke-linecap="round" stroke-linejoin="round"/>
<path d="M350.746 184.126C350.745 186.601 351.476 189.019 352.847 191.077C354.219 193.135 356.168 194.739 358.45 195.687C360.731 196.634 363.242 196.883 365.664 196.401C368.086 195.919 370.312 194.728 372.058 192.979C373.805 191.23 374.995 189.001 375.477 186.575C375.959 184.148 375.712 181.633 374.768 179.347C373.823 177.061 372.223 175.107 370.169 173.732C368.116 172.358 365.702 171.624 363.232 171.624C359.921 171.624 356.747 172.941 354.405 175.286C352.064 177.63 350.748 180.81 350.746 184.126Z" stroke="black" stroke-linecap="round" stroke-linejoin="round"/>
<path d="M352.368 184.126C352.368 186.278 353.005 188.382 354.199 190.172C355.392 191.961 357.089 193.356 359.074 194.18C361.059 195.004 363.243 195.219 365.35 194.799C367.457 194.379 369.392 193.343 370.911 191.821C372.431 190.299 373.465 188.36 373.884 186.249C374.303 184.138 374.088 181.95 373.266 179.962C372.444 177.973 371.052 176.274 369.265 175.078C367.479 173.882 365.379 173.244 363.231 173.244C360.35 173.244 357.587 174.391 355.55 176.431C353.513 178.472 352.368 181.24 352.368 184.126V184.126Z" stroke="black" stroke-linecap="round" stroke-linejoin="round"/>
<path d="M357.536 184.127C357.535 185.256 357.868 186.36 358.493 187.299C359.118 188.238 360.008 188.97 361.048 189.403C362.089 189.836 363.234 189.95 364.34 189.73C365.445 189.511 366.46 188.968 367.258 188.17C368.055 187.372 368.598 186.355 368.818 185.248C369.038 184.141 368.926 182.994 368.495 181.951C368.064 180.908 367.334 180.016 366.397 179.389C365.46 178.762 364.359 178.427 363.232 178.427C361.722 178.427 360.274 179.027 359.206 180.096C358.138 181.165 357.538 182.615 357.536 184.127V184.127Z" stroke="black" stroke-linecap="round" stroke-linejoin="round"/>
<path d="M362.416 180.688C362.416 180.849 362.464 181.007 362.553 181.141C362.643 181.276 362.77 181.38 362.919 181.442C363.068 181.504 363.231 181.52 363.389 181.488C363.547 181.457 363.693 181.379 363.807 181.265C363.92 181.151 363.998 181.006 364.029 180.847C364.061 180.689 364.045 180.525 363.983 180.376C363.921 180.227 363.817 180.099 363.683 180.01C363.549 179.92 363.392 179.872 363.231 179.872C363.015 179.872 362.807 179.958 362.655 180.111C362.502 180.264 362.416 180.472 362.416 180.688Z" stroke="black" stroke-linecap="round" stroke-linejoin="round"/>
<path d="M362.416 187.594C362.416 187.756 362.464 187.913 362.553 188.048C362.643 188.182 362.77 188.286 362.919 188.348C363.068 188.41 363.231 188.426 363.389 188.395C363.547 188.363 363.693 188.285 363.807 188.171C363.92 188.057 363.998 187.912 364.029 187.754C364.061 187.595 364.045 187.431 363.983 187.282C363.921 187.133 363.817 187.005 363.683 186.916C363.549 186.826 363.392 186.778 363.231 186.778C363.015 186.778 362.807 186.864 362.655 187.017C362.502 187.17 362.416 187.378 362.416 187.594Z" stroke="black" stroke-linecap="round" stroke-linejoin="round"/>
<path d="M358.978 184.127C358.978 184.288 359.025 184.446 359.115 184.58C359.204 184.714 359.332 184.819 359.48 184.88C359.629 184.942 359.793 184.958 359.951 184.927C360.109 184.895 360.254 184.818 360.368 184.704C360.482 184.589 360.559 184.444 360.591 184.286C360.622 184.127 360.606 183.963 360.545 183.814C360.483 183.665 360.379 183.538 360.245 183.448C360.111 183.358 359.953 183.311 359.792 183.311C359.576 183.311 359.369 183.397 359.216 183.55C359.063 183.703 358.978 183.91 358.978 184.127Z" stroke="black" stroke-linecap="round" stroke-linejoin="round"/>
<path d="M365.873 184.127C365.873 184.288 365.921 184.445 366.01 184.579C366.099 184.713 366.226 184.818 366.375 184.88C366.523 184.942 366.687 184.958 366.844 184.927C367.002 184.896 367.147 184.819 367.262 184.706C367.376 184.592 367.454 184.447 367.486 184.289C367.518 184.131 367.503 183.968 367.442 183.818C367.381 183.669 367.278 183.541 367.144 183.451C367.011 183.361 366.854 183.312 366.693 183.311C366.586 183.31 366.479 183.33 366.38 183.371C366.28 183.412 366.19 183.472 366.114 183.547C366.037 183.623 365.977 183.714 365.936 183.813C365.894 183.912 365.873 184.019 365.873 184.127Z" stroke="black" stroke-linecap="round" stroke-linejoin="round"/>
<path d="M227.709 184.126H230.95" stroke="black" stroke-linecap="round" stroke-linejoin="round"/>
<path d="M380.767 177.563H383.396" stroke="black" stroke-linecap="round" stroke-linejoin="round"/>
<path d="M341.111 184.027H344.416" stroke="black" stroke-linecap="round" stroke-linejoin="round"/>
<path d="M188.142 183.025H189.986" stroke="black" stroke-linecap="round" stroke-linejoin="round"/>
<path d="M408.433 61.7836C408.433 81.1696 384.067 81.0531 384.067 81.0531V73.6332C384.067 70.0428 379.767 56.1473 363.523 56.1473C345.719 56.1473 341.304 71.8846 341.304 77.212V84.7484L231.452 85.5003V80.6392C231.452 76.9206 229.217 56.293 209.343 56.293C188.398 56.293 187.955 74.8164 187.955 80.1438V85.7276L167.388 84.591C167.388 84.591 159.627 84.0723 159.627 78.1795V73.8722C159.627 73.8722 158.271 72.3567 158.271 71.5407C158.271 70.7247 157.876 66.3532 159.784 64.4415C161.692 62.5297 165.364 54.2297 171.333 51.6767C177.302 49.1238 204.38 41.0628 217.36 40.6023C217.36 40.6023 259.966 15.7141 296.399 15.7141C296.399 15.7141 341.99 14.117 358.874 25.6228C358.874 25.6228 376.329 34.9486 395.907 35.1992C397.902 35.1992 401.795 35.3566 401.795 40.6198C401.795 40.6198 404.663 43.8955 404.663 51.6942C404.663 51.6942 409.067 53.6643 409.067 57.4471C409.061 61.8127 408.433 60.6878 408.433 61.7836Z" stroke="black" stroke-linecap="round" stroke-linejoin="round"/>
<path d="M217.354 40.6029C217.354 40.6029 221.822 41.7686 223.09 41.0808C237.979 33.1072 269.117 22.4292 269.117 22.4292C269.117 22.4292 269.996 21.5491 269.28 19.5557" stroke="black" stroke-linecap="round" stroke-linejoin="round"/>
<path d="M401.787 40.6025C401.787 40.6025 393.642 44.432 391.361 44.5136C391.361 44.5136 393.508 52.254 399.798 52.254L404.656 51.6711" stroke="black" stroke-linecap="round" stroke-linejoin="round"/>
<path d="M391.361 44.5127C391.361 44.5127 395.341 47.462 403.859 45.6318" stroke="black" stroke-linecap="round" stroke-linejoin="round"/>
<path d="M383.839 71.3651C383.839 71.3651 400.298 72.082 407.012 69.3018" stroke="black" stroke-linecap="round" stroke-linejoin="round"/>
<path d="M408.24 62.9495C408.24 62.9495 396.057 63.987 392.392 63.987C388.726 63.987 387.854 59.837 387.854 59.837L409.113 58.5605" stroke="black" stroke-linecap="round" stroke-linejoin="round"/>
<path d="M400.287 36.5625C400.287 36.5625 384.421 42.8749 351.566 42.8749" stroke="black" stroke-linecap="round" stroke-linejoin="round"/>
<path d="M159.62 73.8721C162.838 77.1419 180.274 77.8239 187.972 77.5208" stroke="black" stroke-linecap="round" stroke-linejoin="round"/>
<path d="M175.416 68.5214C176.283 66.3648 173.036 68.6904 166.171 67.4198C163.675 66.9593 162.523 67.5538 161.93 70.7596C161.93 70.7596 173.717 72.753 175.416 68.5214Z" stroke="black" stroke-linecap="round" stroke-linejoin="round"/>
<path d="M166.312 62.1444C166.312 62.1444 169.098 53.04 187.571 53.04C187.571 53.04 186.46 62.1444 166.312 62.1444Z" stroke="black" stroke-linecap="round" stroke-linejoin="round"/>
<path d="M166.312 62.1454C166.312 62.1454 176.505 60.4726 187.571 53.0469" stroke="black" stroke-linecap="round" stroke-linejoin="round"/>
<path d="M190.998 52.8897C190.998 52.8897 211.228 47.6439 226.355 47.1484" stroke="black" stroke-linecap="round" stroke-linejoin="round"/>
<path d="M352.834 33.544C351.6 53.8102 343.734 59.429 339.452 69.0054C335.17 78.5819 331.307 79.5553 327.234 79.7185C305.55 80.5578 261.646 81.2106 239.904 81.2106C235.209 81.2106 229.554 60.2275 229.391 51.4554C229.228 42.6833 234.109 39.7224 237.676 38.0495C253.385 30.6705 275.621 20.0216 301.896 20.1381C301.896 20.1381 332.61 18.9025 344.781 23.0117C347.627 23.9792 353.328 25.3664 352.834 33.544Z" stroke="black" stroke-linecap="round" stroke-linejoin="round"/>
<path d="M190.083 76.6809C190.082 80.4093 191.184 84.0543 193.251 87.1549C195.318 90.2555 198.256 92.6724 201.694 94.1C205.132 95.5276 208.916 95.9017 212.566 95.175C216.216 94.4484 219.57 92.6536 222.202 90.0176C224.834 87.3816 226.626 84.0229 227.353 80.3663C228.079 76.7096 227.707 72.9192 226.283 69.4746C224.859 66.0299 222.447 63.0856 219.353 61.0141C216.259 58.9426 212.62 57.8369 208.899 57.8369C203.91 57.8369 199.125 59.8221 195.596 63.3558C192.068 66.8896 190.085 71.6826 190.083 76.6809V76.6809Z" stroke="black" stroke-linecap="round" stroke-linejoin="round"/>
<path d="M196.414 76.6811C196.413 79.1553 197.144 81.5742 198.515 83.6319C199.887 85.6897 201.836 87.2938 204.118 88.2414C206.399 89.189 208.91 89.4375 211.332 88.9556C213.754 88.4736 215.98 87.2828 217.726 85.5337C219.473 83.7846 220.663 81.5559 221.145 79.1293C221.627 76.7028 221.38 74.1875 220.436 71.9016C219.491 69.6157 217.89 67.6618 215.837 66.2871C213.784 64.9125 211.369 64.1787 208.9 64.1787C205.589 64.1787 202.414 65.4957 200.073 67.8402C197.732 70.1847 196.416 73.3647 196.414 76.6811Z" stroke="black" stroke-linecap="round" stroke-linejoin="round"/>
<path d="M198.036 76.6809C198.035 78.8334 198.671 80.9379 199.864 82.7283C201.057 84.5186 202.753 85.9143 204.738 86.7388C206.722 87.5633 208.907 87.7796 211.014 87.3604C213.122 86.9412 215.058 85.9052 216.577 84.3836C218.097 82.8619 219.132 80.9229 219.552 78.8119C219.971 76.7008 219.757 74.5125 218.935 72.5237C218.113 70.5349 216.72 68.835 214.934 67.639C213.148 66.4431 211.047 65.8047 208.899 65.8047C206.019 65.8047 203.257 66.9504 201.22 68.9899C199.183 71.0294 198.038 73.7958 198.036 76.6809Z" stroke="black" stroke-linecap="round" stroke-linejoin="round"/>
<path d="M203.204 76.6818C203.203 77.8107 203.536 78.9145 204.161 79.8536C204.786 80.7928 205.676 81.5251 206.716 81.9579C207.757 82.3907 208.902 82.5045 210.008 82.285C211.113 82.0655 212.128 81.5225 212.926 80.7247C213.723 79.9269 214.266 78.9101 214.486 77.8031C214.706 76.696 214.594 75.5484 214.163 74.5053C213.732 73.4623 213.002 72.5708 212.065 71.9435C211.128 71.3163 210.027 70.9814 208.9 70.9814C207.39 70.9814 205.942 71.5818 204.874 72.6507C203.806 73.7196 203.206 75.1695 203.204 76.6818V76.6818Z" stroke="black" stroke-linecap="round" stroke-linejoin="round"/>
<path d="M208.085 73.2193C208.085 73.3807 208.133 73.5385 208.222 73.6727C208.312 73.8069 208.439 73.9115 208.588 73.9732C208.737 74.035 208.9 74.0511 209.058 74.0197C209.216 73.9882 209.362 73.9104 209.475 73.7963C209.589 73.6822 209.667 73.5368 209.698 73.3785C209.73 73.2202 209.714 73.0562 209.652 72.9071C209.59 72.7579 209.486 72.6305 209.352 72.5408C209.218 72.4512 209.061 72.4033 208.899 72.4033C208.683 72.4033 208.476 72.4893 208.324 72.6423C208.171 72.7954 208.085 73.0029 208.085 73.2193V73.2193Z" stroke="black" stroke-linecap="round" stroke-linejoin="round"/>
<path d="M208.085 80.149C208.085 80.3104 208.133 80.4682 208.222 80.6024C208.312 80.7365 208.439 80.8411 208.588 80.9029C208.737 80.9647 208.9 80.9808 209.058 80.9493C209.216 80.9179 209.362 80.8401 209.475 80.726C209.589 80.6119 209.667 80.4665 209.698 80.3082C209.73 80.1499 209.714 79.9858 209.652 79.8367C209.59 79.6876 209.486 79.5602 209.352 79.4705C209.218 79.3809 209.061 79.333 208.899 79.333C208.683 79.333 208.476 79.419 208.324 79.572C208.171 79.725 208.085 79.9326 208.085 80.149V80.149Z" stroke="black" stroke-linecap="round" stroke-linejoin="round"/>
<path d="M204.624 76.6812C204.624 76.8426 204.672 77.0004 204.761 77.1346C204.851 77.2688 204.978 77.3734 205.127 77.4351C205.276 77.4969 205.439 77.5131 205.597 77.4816C205.755 77.4501 205.901 77.3724 206.015 77.2582C206.128 77.1441 206.206 76.9987 206.237 76.8404C206.269 76.6821 206.253 76.5181 206.191 76.369C206.129 76.2199 206.025 76.0924 205.891 76.0028C205.757 75.9131 205.6 75.8652 205.439 75.8652C205.223 75.8652 205.015 75.9512 204.863 76.1042C204.71 76.2573 204.624 76.4648 204.624 76.6812V76.6812Z" stroke="black" stroke-linecap="round" stroke-linejoin="round"/>
<path d="M211.541 76.6812C211.541 76.8426 211.589 77.0004 211.678 77.1346C211.768 77.2688 211.895 77.3734 212.044 77.4351C212.193 77.4969 212.356 77.5131 212.514 77.4816C212.672 77.4501 212.818 77.3724 212.932 77.2582C213.045 77.1441 213.123 76.9987 213.154 76.8404C213.186 76.6821 213.17 76.5181 213.108 76.369C213.046 76.2199 212.942 76.0924 212.808 76.0028C212.674 75.9131 212.517 75.8652 212.356 75.8652C212.14 75.8652 211.932 75.9512 211.78 76.1042C211.627 76.2573 211.541 76.4648 211.541 76.6812V76.6812Z" stroke="black" stroke-linecap="round" stroke-linejoin="round"/>
<path d="M344.433 76.6809C344.431 80.4093 345.534 84.0543 347.601 87.1549C349.668 90.2555 352.606 92.6724 356.044 94.1C359.482 95.5276 363.265 95.9017 366.916 95.175C370.566 94.4484 373.919 92.6536 376.551 90.0176C379.183 87.3816 380.976 84.0229 381.702 80.3663C382.429 76.7096 382.056 72.9192 380.632 69.4746C379.209 66.0299 376.797 63.0856 373.702 61.0141C370.608 58.9426 366.97 57.8369 363.248 57.8369C358.259 57.8369 353.474 59.8221 349.946 63.3558C346.417 66.8896 344.434 71.6826 344.433 76.6809V76.6809Z" stroke="black" stroke-linecap="round" stroke-linejoin="round"/>
<path d="M350.746 76.6811C350.745 79.1553 351.476 81.5742 352.847 83.6319C354.219 85.6897 356.168 87.2938 358.45 88.2414C360.731 89.189 363.242 89.4375 365.664 88.9556C368.086 88.4736 370.312 87.2828 372.058 85.5337C373.805 83.7846 374.995 81.5559 375.477 79.1293C375.959 76.7028 375.712 74.1875 374.768 71.9016C373.823 69.6157 372.223 67.6618 370.169 66.2871C368.116 64.9125 365.702 64.1787 363.232 64.1787C359.921 64.1787 356.747 65.4957 354.405 67.8402C352.064 70.1847 350.748 73.3647 350.746 76.6811Z" stroke="black" stroke-linecap="round" stroke-linejoin="round"/>
<path d="M352.368 76.6809C352.367 78.8334 353.003 80.9379 354.196 82.7283C355.389 84.5186 357.085 85.9143 359.07 86.7388C361.054 87.5633 363.239 87.7796 365.346 87.3604C367.454 86.9412 369.39 85.9052 370.909 84.3836C372.429 82.8619 373.464 80.9229 373.884 78.8119C374.303 76.7008 374.089 74.5125 373.267 72.5237C372.445 70.5349 371.052 68.835 369.266 67.639C367.48 66.4431 365.379 65.8047 363.231 65.8047C360.351 65.8047 357.589 66.9504 355.552 68.9899C353.515 71.0294 352.37 73.7958 352.368 76.6809Z" stroke="black" stroke-linecap="round" stroke-linejoin="round"/>
<path d="M357.536 76.6818C357.535 77.8107 357.868 78.9145 358.493 79.8536C359.118 80.7928 360.008 81.5251 361.048 81.9579C362.089 82.3907 363.234 82.5045 364.34 82.285C365.445 82.0655 366.46 81.5225 367.258 80.7247C368.055 79.9269 368.598 78.9101 368.818 77.8031C369.038 76.696 368.926 75.5484 368.495 74.5053C368.064 73.4623 367.334 72.5708 366.397 71.9435C365.46 71.3163 364.359 70.9814 363.232 70.9814C361.722 70.9814 360.274 71.5818 359.206 72.6507C358.138 73.7196 357.538 75.1695 357.536 76.6818Z" stroke="black" stroke-linecap="round" stroke-linejoin="round"/>
<path d="M362.416 73.2193C362.416 73.3807 362.464 73.5385 362.553 73.6727C362.643 73.8069 362.77 73.9115 362.919 73.9732C363.068 74.035 363.231 74.0511 363.389 74.0197C363.547 73.9882 363.693 73.9104 363.807 73.7963C363.92 73.6822 363.998 73.5368 364.029 73.3785C364.061 73.2202 364.045 73.0562 363.983 72.9071C363.921 72.7579 363.817 72.6305 363.683 72.5408C363.549 72.4512 363.392 72.4033 363.231 72.4033C363.015 72.4033 362.807 72.4893 362.655 72.6423C362.502 72.7954 362.416 73.0029 362.416 73.2193V73.2193Z" stroke="black" stroke-linecap="round" stroke-linejoin="round"/>
<path d="M362.416 80.149C362.416 80.3104 362.464 80.4682 362.553 80.6024C362.643 80.7365 362.77 80.8411 362.919 80.9029C363.068 80.9647 363.231 80.9808 363.389 80.9493C363.547 80.9179 363.693 80.8401 363.807 80.726C363.92 80.6119 363.998 80.4665 364.029 80.3082C364.061 80.1499 364.045 79.9858 363.983 79.8367C363.921 79.6876 363.817 79.5602 363.683 79.4705C363.549 79.3809 363.392 79.333 363.231 79.333C363.015 79.333 362.807 79.419 362.655 79.572C362.502 79.725 362.416 79.9326 362.416 80.149V80.149Z" stroke="black" stroke-linecap="round" stroke-linejoin="round"/>
<path d="M358.978 76.6812C358.978 76.8426 359.025 77.0004 359.115 77.1346C359.204 77.2688 359.332 77.3734 359.48 77.4351C359.629 77.4969 359.793 77.5131 359.951 77.4816C360.109 77.4501 360.254 77.3724 360.368 77.2582C360.482 77.1441 360.559 76.9987 360.591 76.8404C360.622 76.6821 360.606 76.5181 360.545 76.369C360.483 76.2199 360.379 76.0924 360.245 76.0028C360.111 75.9131 359.953 75.8652 359.792 75.8652C359.576 75.8652 359.369 75.9512 359.216 76.1042C359.063 76.2573 358.978 76.4648 358.978 76.6812Z" stroke="black" stroke-linecap="round" stroke-linejoin="round"/>
<path d="M365.873 76.6813C365.873 76.8424 365.921 76.9999 366.01 77.134C366.099 77.2681 366.226 77.3727 366.375 77.4346C366.523 77.4965 366.687 77.513 366.844 77.482C367.002 77.451 367.147 77.3738 367.262 77.2603C367.376 77.1468 367.454 77.0019 367.486 76.844C367.518 76.6861 367.503 76.5222 367.442 76.373C367.381 76.2238 367.278 76.096 367.144 76.0056C367.011 75.9152 366.854 75.8664 366.693 75.8653C366.586 75.8645 366.479 75.885 366.38 75.9257C366.28 75.9664 366.19 76.0263 366.114 76.1022C366.037 76.178 365.977 76.2683 365.936 76.3676C365.894 76.467 365.873 76.5736 365.873 76.6813Z" stroke="black" stroke-linecap="round" stroke-linejoin="round"/>
<path d="M227.709 76.6816H230.95" stroke="black" stroke-linecap="round" stroke-linejoin="round"/>
<path d="M380.767 70.124H383.396" stroke="black" stroke-linecap="round" stroke-linejoin="round"/>
<path d="M341.111 76.583H344.416" stroke="black" stroke-linecap="round" stroke-linejoin="round"/>
<path d="M188.142 75.5801H189.986" stroke="black" stroke-linecap="round" stroke-linejoin="round"/>
<path d="M236.798 78.7791C236.798 78.7791 334.153 79.8516 336.776 73.749" stroke="black" stroke-linecap="round" stroke-linejoin="round"/>
<path d="M235.053 39.489H241.802C241.802 39.489 244.903 38.9062 247.3 45.1486C249.371 50.5751 248.65 51.6126 248.016 52.9707C247.382 54.3287 245.863 57.756 243.239 58.1523C240.615 58.5487 239.015 59.9884 238.858 61.1075C238.701 62.2265 237.741 65.8112 231.771 65.8112" stroke="black" stroke-linecap="round" stroke-linejoin="round"/>
<path d="M255.113 51.6127C255.172 51.7473 255.203 51.8922 255.206 52.0391C255.208 52.186 255.182 52.3319 255.128 52.4684C255.074 52.6049 254.993 52.7294 254.891 52.8346C254.788 52.9398 254.666 53.0237 254.532 53.0815C254.398 53.1401 254.253 53.1715 254.107 53.1739C253.961 53.1763 253.816 53.1496 253.68 53.0954C253.544 53.0412 253.42 52.9605 253.316 52.8581C253.211 52.7557 253.128 52.6335 253.071 52.4986L247.271 38.37C247.154 38.0979 247.149 37.7905 247.258 37.5151C247.368 37.2398 247.581 37.019 247.852 36.9012V36.9012C247.986 36.8426 248.131 36.8111 248.277 36.8087C248.423 36.8063 248.568 36.833 248.704 36.8872C248.84 36.9414 248.964 37.0221 249.068 37.1245C249.172 37.227 249.256 37.3492 249.313 37.484L255.113 51.6127Z" stroke="black" stroke-linecap="round" stroke-linejoin="round"/>
<path d="M246.28 42.8169L248.549 41.6221" stroke="black" stroke-linecap="round" stroke-linejoin="round"/>
<path d="M248.789 50.1789L251.512 48.7393" stroke="black" stroke-linecap="round" stroke-linejoin="round"/>
<path d="M236.547 64.8965C236.547 64.8965 238.816 72.0774 240.73 73.1557C242.644 74.234 254.112 73.3946 254.112 73.3946" stroke="black" stroke-linecap="round" stroke-linejoin="round"/>
<path d="M287.077 72.1934C287.077 72.1934 298.306 72.1934 299.499 71.8379" stroke="black" stroke-linecap="round" stroke-linejoin="round"/>
<path d="M278.641 68.1952C277.175 65.8638 274.452 64.5174 270.589 64.5174C262.112 64.5174 257.155 63.9345 254.746 66.3068C253.111 67.933 251.255 74.1055 257.917 75.2129C263.52 76.1455 280.503 74.6883 280.503 74.6883" stroke="black" stroke-linecap="round" stroke-linejoin="round"/>
<path d="M285.403 70.9404C285.403 71.7093 285.175 72.461 284.749 73.1003C284.323 73.7397 283.716 74.2379 283.007 74.5322C282.298 74.8265 281.518 74.9034 280.765 74.7534C280.012 74.6034 279.321 74.2332 278.778 73.6895C278.236 73.1457 277.866 72.453 277.716 71.6989C277.566 70.9447 277.643 70.1631 277.937 69.4527C278.231 68.7423 278.728 68.1351 279.366 67.7079C280.004 67.2807 280.755 67.0527 281.522 67.0527C282.032 67.052 282.537 67.152 283.008 67.3471C283.479 67.5422 283.908 67.8285 284.268 68.1897C284.629 68.5509 284.914 68.9797 285.109 69.4518C285.304 69.9238 285.404 70.4297 285.403 70.9404V70.9404Z" stroke="black" stroke-linecap="round" stroke-linejoin="round"/>
<path d="M283.732 70.9405C283.732 71.3785 283.603 71.8068 283.36 72.171C283.117 72.5352 282.772 72.8191 282.368 72.9868C281.964 73.1544 281.519 73.1983 281.09 73.1128C280.661 73.0273 280.267 72.8164 279.958 72.5066C279.649 72.1969 279.438 71.8022 279.353 71.3726C279.268 70.9429 279.312 70.4976 279.479 70.0929C279.646 69.6882 279.93 69.3422 280.293 69.0989C280.657 68.8555 281.084 68.7256 281.521 68.7256C282.108 68.7256 282.67 68.9589 283.085 69.3743C283.499 69.7897 283.732 70.353 283.732 70.9405V70.9405Z" stroke="black" stroke-linecap="round" stroke-linejoin="round"/>
<path d="M253.252 70.0257C253.252 70.0257 253.735 67.2687 261.072 67.2687C268.408 67.2687 275.303 66.7733 278.119 68.8716" stroke="black" stroke-linecap="round" stroke-linejoin="round"/>
<path d="M256.242 74.8163C256.242 74.8163 254.729 72.1351 258.424 70.917C262.118 69.6988 272.545 70.1476 277.566 70.643" stroke="black" stroke-linecap="round" stroke-linejoin="round"/>
<path d="M278.891 68.0676C278.891 68.0676 275.168 64.04 278.752 58.7418C282.336 53.4436 290.243 47.8772 290.859 42.7888C290.941 42.101 290.894 40.1426 292.093 40.1426C293.291 40.1426 296.352 39.857 296.352 41.9903C296.352 43.3251 294.443 52.5226 291.016 60.5778C288.422 66.6921 288.87 73.1852 284.983 72.7655" stroke="black" stroke-linecap="round" stroke-linejoin="round"/>
<path d="M283.675 67.5296C283.675 67.5296 283.494 65.0757 286.898 60.407C290.301 55.7383 293.466 45.6897 293.466 40.1816" stroke="black" stroke-linecap="round" stroke-linejoin="round"/>
<path d="M292.831 40.0374C292.831 40.0374 289.969 40.0956 289.788 37.3445C289.608 34.5934 291.342 28.7881 293.547 28.7881H295.403C296.177 28.7881 296.665 29.1436 296.723 31.9764C296.776 34.5992 297.887 40.2239 295.199 40.2239L292.831 40.0374Z" stroke="black" stroke-linecap="round" stroke-linejoin="round"/>
<path d="M294.875 40.1707C294.875 40.1707 293.711 39.8618 293.833 36.8659C293.955 33.87 295.043 31.183 295.043 28.8457" stroke="black" stroke-linecap="round" stroke-linejoin="round"/>
<path d="M292.07 32.8965C292.07 32.8965 291.273 36.1664 291.599 37.5594" stroke="black" stroke-linecap="round" stroke-linejoin="round"/>
<path d="M324.354 67.1511C322.888 64.8488 320.165 63.4732 316.302 63.4732C307.819 63.4732 302.862 62.8904 300.453 65.2684C298.824 66.8888 296.962 73.0613 303.63 74.1688C309.227 75.1013 326.216 73.6442 326.216 73.6442" stroke="black" stroke-linecap="round" stroke-linejoin="round"/>
<path d="M331.115 69.874C331.116 70.6446 330.889 71.3982 330.462 72.0394C330.036 72.6805 329.429 73.1805 328.718 73.4759C328.008 73.7713 327.226 73.8489 326.472 73.6989C325.717 73.5488 325.024 73.1779 324.48 72.633C323.936 72.0881 323.566 71.3938 323.416 70.638C323.266 69.8822 323.344 69.0989 323.639 68.3872C323.934 67.6755 324.433 67.0675 325.073 66.6401C325.713 66.2127 326.465 65.9852 327.234 65.9863C328.263 65.9863 329.25 66.3959 329.978 67.125C330.706 67.8541 331.115 68.843 331.115 69.874V69.874Z" stroke="black" stroke-linecap="round" stroke-linejoin="round"/>
<path d="M329.445 69.8741C329.445 70.3121 329.316 70.7403 329.073 71.1046C328.83 71.4688 328.484 71.7527 328.08 71.9203C327.676 72.088 327.232 72.1318 326.803 72.0464C326.374 71.9609 325.98 71.75 325.671 71.4402C325.362 71.1305 325.151 70.7358 325.066 70.3062C324.981 69.8765 325.024 69.4312 325.192 69.0265C325.359 68.6217 325.642 68.2758 326.006 68.0325C326.37 67.7891 326.797 67.6592 327.234 67.6592C327.821 67.6592 328.383 67.8925 328.798 68.3079C329.212 68.7233 329.445 69.2866 329.445 69.8741Z" stroke="black" stroke-linecap="round" stroke-linejoin="round"/>
<path d="M298.965 68.9586C298.965 68.9586 299.442 66.2075 306.784 66.2075C314.127 66.2075 321.016 65.7062 323.832 67.8103" stroke="black" stroke-linecap="round" stroke-linejoin="round"/>
<path d="M301.96 73.7494C301.96 73.7494 300.442 71.0682 304.136 69.8559C307.831 68.6435 318.263 69.0807 323.284 69.5761" stroke="black" stroke-linecap="round" stroke-linejoin="round"/>
<path d="M324.604 67.0285C324.604 67.0285 320.881 63.0009 324.465 57.7027C328.049 52.4045 335.956 46.8323 336.572 41.7439C336.654 41.0561 336.572 39.0977 337.806 39.0977C339.039 39.0977 342.065 38.8121 342.065 40.9454C342.065 42.2801 340.156 51.4777 336.729 59.5329C334.129 65.6471 334.577 72.1402 330.696 71.7206" stroke="black" stroke-linecap="round" stroke-linejoin="round"/>
<path d="M329.381 66.4457C329.381 66.4457 329.207 63.9919 332.61 59.3231C336.014 54.6544 339.197 44.6233 339.197 39.1211" stroke="black" stroke-linecap="round" stroke-linejoin="round"/>
<path d="M338.545 38.9709C338.545 38.9709 335.677 39.0292 335.502 36.2781C335.328 33.527 337.056 27.7217 339.261 27.7217H341.117C341.891 27.7217 342.374 28.0831 342.438 30.9099C342.49 33.5328 343.601 39.1575 340.907 39.1575L338.545 38.9709Z" stroke="black" stroke-linecap="round" stroke-linejoin="round"/>
<path d="M340.582 39.1043C340.582 39.1043 339.418 38.7954 339.54 35.8053C339.662 32.8152 340.756 30.1166 340.756 27.7793" stroke="black" stroke-linecap="round" stroke-linejoin="round"/>
<path d="M337.805 31.8301C337.805 31.8301 337.008 35.0999 337.334 36.493" stroke="black" stroke-linecap="round" stroke-linejoin="round"/>
<path d="M335.706 62.3017C335.706 62.3017 349.641 48.2605 349.641 35.2568C349.641 25.284 348.128 24.3281 348.128 24.3281" stroke="black" stroke-linecap="round" stroke-linejoin="round"/>
<path d="M246.106 239.983C246.106 239.983 244.995 237.511 246.741 235.838C248.486 234.166 251.837 230.01 254.886 230.593C254.886 230.593 258.551 231.473 256.003 234.579C253.455 237.686 251.151 238.327 251.546 240L246.106 239.983Z" stroke="black" stroke-linecap="round" stroke-linejoin="round"/>
<path d="M247.939 239.825C247.939 239.825 246.979 238.076 250.481 235.121C253.984 232.166 253.664 230.656 253.664 230.656" stroke="black" stroke-linecap="round" stroke-linejoin="round"/>
<path d="M246.105 239.982C246.105 239.982 244.587 242.565 245.14 242.565C247.223 242.565 251.278 243.567 252.959 242.565C253.489 242.25 251.516 239.982 251.516 239.982" stroke="black" stroke-linecap="round" stroke-linejoin="round"/>
<path d="M166.277 270.449C166.277 270.449 165.695 258.494 177.733 251.919C189.771 245.345 195.996 248.329 195.996 248.329" stroke="black" stroke-linecap="round" stroke-linejoin="round"/>
<path d="M229.454 244.669C229.454 244.669 256.217 256.629 299.004 256.629L325.767 256.705C325.767 256.705 356.446 257.125 347.876 250.09L343.734 246.901C341.866 245.467 342.302 245.153 333.552 245.153L229.454 244.669Z" stroke="black" stroke-linecap="round" stroke-linejoin="round"/>
<path d="M230.131 244.75C230.131 244.75 263.795 253.953 298.884 253.953C337.795 253.953 342.293 252.788 342.293 252.788C342.293 252.788 345.958 252.467 343.887 250.235C342.019 248.218 340.826 247.653 335.41 245.141" stroke="black" stroke-linecap="round" stroke-linejoin="round"/>
<path d="M385.497 245.077C385.497 245.077 400.624 249.291 400.624 260.739" stroke="black" stroke-linecap="round" stroke-linejoin="round"/>
<path d="M381.634 249.343C375.551 247.171 369.107 246.193 362.655 246.464" stroke="black" stroke-linecap="round" stroke-linejoin="round"/>
<path d="M246.106 338.376C246.106 338.376 244.995 340.847 246.741 342.52C248.486 344.193 251.837 348.349 254.886 347.766C254.886 347.766 258.551 346.892 256.003 343.779C253.455 340.667 251.151 340.031 251.546 338.358L246.106 338.376Z" stroke="black" stroke-linecap="round" stroke-linejoin="round"/>
<path d="M247.939 338.538C247.939 338.538 246.979 340.287 250.481 343.242C253.984 346.197 253.664 347.701 253.664 347.701" stroke="black" stroke-linecap="round" stroke-linejoin="round"/>
<path d="M246.105 338.375C246.105 338.375 244.587 335.799 245.14 335.799C247.223 335.799 251.278 334.79 252.959 335.799C253.489 336.113 251.516 338.375 251.516 338.375" stroke="black" stroke-linecap="round" stroke-linejoin="round"/>
<path d="M252.157 337.53C267.284 336.994 279.054 336.405 283.406 336.405C283.406 336.405 342.135 336.563 352.479 338.317C362.824 340.071 386.626 338.632 396.883 332.576C405.796 327.33 406.774 318.121 407.385 312.49C408.182 305.496 409.13 297.686 409.13 289.234V289.1C409.13 280.654 408.199 272.867 407.385 265.85C406.745 260.213 405.796 251.022 396.883 245.758C386.626 239.708 362.824 238.269 352.479 240.023C342.135 241.777 283.406 241.935 283.406 241.935C279.054 241.935 267.284 241.352 252.157 240.81" stroke="black" stroke-linecap="round" stroke-linejoin="round"/>
<path d="M245.739 337.799C235.784 338.114 225.126 338.318 214.496 338.318C193.964 338.318 178.685 330.344 178.685 330.344C157.519 321.415 159.91 289.211 159.91 289.211V289.153C159.91 289.153 157.519 256.944 178.685 248.015C178.685 248.015 193.964 240.047 214.496 240.047C225.126 240.047 235.784 240.245 245.739 240.566" stroke="black" stroke-linecap="round" stroke-linejoin="round"/>
<path d="M380.307 312.945C380.307 312.945 383.96 303.969 383.96 289.222V289.14C383.96 274.394 380.307 265.412 380.307 265.412" stroke="black" stroke-linecap="round" stroke-linejoin="round"/>
<path d="M380.01 289.211C379.621 296.916 378.717 304.586 377.304 312.17C375.076 323.489 366.96 321.099 366.96 321.099L341.022 316.495C341.022 316.495 343.408 309.343 343.408 289.252V289.1C343.408 269.015 341.022 261.863 341.022 261.863L366.96 257.241C366.96 257.241 375.076 254.851 377.304 266.17C378.717 273.754 379.621 281.424 380.01 289.129V289.211Z" stroke="black" stroke-linecap="round" stroke-linejoin="round"/>
<path d="M370.301 321.1C370.301 321.1 375.444 312.782 376.421 289.211V289.153C375.444 265.582 370.301 257.265 370.301 257.265" stroke="black" stroke-linecap="round" stroke-linejoin="round"/>
<path d="M339.906 289.21C339.906 311.534 336.602 316.156 336.602 316.156C336.602 316.156 317.152 315.2 304.602 315.2C304.602 315.2 279.34 315.439 270.985 317.951C270.985 317.951 268.157 312.333 268.157 289.21V289.146C268.157 266.03 270.985 260.411 270.985 260.411C279.34 262.923 304.602 263.162 304.602 263.162C317.181 263.162 336.602 262.206 336.602 262.206C336.602 262.206 339.906 266.828 339.906 289.152V289.21Z" stroke="black" stroke-linecap="round" stroke-linejoin="round"/>
<path d="M265.161 289.211C265.161 289.211 264.951 303.514 267.197 313.533C268.134 317.724 265.172 318.196 265.172 318.196C265.172 318.196 226.773 331.148 221.181 324.293C215.59 317.439 210.261 303.724 210.261 289.216V289.158C210.261 274.645 215.608 260.936 221.181 254.081C226.755 247.227 265.172 260.178 265.172 260.178C265.172 260.178 268.134 260.645 267.197 264.841C264.951 274.855 265.161 289.158 265.161 289.158V289.211Z" stroke="black" stroke-linecap="round" stroke-linejoin="round"/>
<path d="M230.252 326.2C230.252 326.2 225.476 326.561 221.525 318.069C217.575 309.577 214.602 298.456 214.602 289.252V289.101C214.602 279.891 217.586 268.77 221.525 260.284C225.464 251.797 230.252 252.124 230.252 252.124" stroke="black" stroke-linecap="round" stroke-linejoin="round"/>
<path d="M199.974 321.041C199.974 321.041 175.98 316.232 170.331 304.359C168.043 299.634 166.84 294.456 166.811 289.205V289.146C166.839 283.895 168.042 278.717 170.331 273.992C175.98 262.113 199.974 257.305 199.974 257.305" stroke="black" stroke-linecap="round" stroke-linejoin="round"/>
<path d="M212.907 316.955C212.907 316.955 201.923 305.636 201.923 289.211V289.153C201.923 272.727 212.907 261.408 212.907 261.408" stroke="black" stroke-linecap="round" stroke-linejoin="round"/>
<path d="M222.456 333.782C212.051 333.277 201.734 331.615 191.696 328.828C160.47 320.085 162.814 289.252 162.814 289.252V289.1C162.814 289.1 160.487 258.255 191.696 249.518C201.734 246.732 212.051 245.072 222.456 244.569" stroke="black" stroke-linecap="round" stroke-linejoin="round"/>
<path d="M166.277 307.903C166.277 307.903 165.695 319.864 177.733 326.438C189.771 333.013 195.996 330.029 195.996 330.029" stroke="black" stroke-linecap="round" stroke-linejoin="round"/>
<path d="M229.454 333.695C229.454 333.695 256.194 321.741 299.004 321.741L325.767 321.665C325.767 321.665 356.446 321.245 347.876 328.28L343.734 331.469C341.866 332.903 342.302 333.217 333.552 333.217L229.454 333.695Z" stroke="black" stroke-linecap="round" stroke-linejoin="round"/>
<path d="M230.131 333.614C230.131 333.614 263.795 324.404 298.884 324.404C337.795 324.404 342.293 325.57 342.293 325.57C342.293 325.57 345.958 325.885 343.887 328.117C342.019 330.134 340.826 330.705 335.41 333.211" stroke="black" stroke-linecap="round" stroke-linejoin="round"/>
<path d="M354.388 323.332C354.388 323.332 365.209 325.88 375.717 325.88C386.224 325.88 397.826 319.824 398.949 314.403C400.165 308.504 400.694 301.172 400.694 289.369V288.99C400.694 277.193 400.159 269.86 398.949 263.962C397.837 258.541 386.219 252.479 375.717 252.479C365.215 252.479 354.388 255.032 354.388 255.032" stroke="black" stroke-linecap="round" stroke-linejoin="round"/>
<path d="M400.938 317.27C402.684 335.921 380.965 333.211 380.965 333.211C380.965 333.211 390.774 330.751 400.601 317.619C404.202 312.805 405.319 302.069 405.319 289.211V289.152C405.319 276.294 404.202 265.552 400.601 260.738C390.774 247.606 380.965 245.146 380.965 245.146C380.965 245.146 402.69 242.436 400.938 261.088" stroke="black" stroke-linecap="round" stroke-linejoin="round"/>
<path d="M385.497 333.288C385.497 333.288 400.624 329.073 400.624 317.62" stroke="black" stroke-linecap="round" stroke-linejoin="round"/>
<path d="M381.634 329.014C375.551 331.186 369.107 332.164 362.655 331.893" stroke="black" stroke-linecap="round" stroke-linejoin="round"/>
<path d="M160.847 304.254C160.847 304.254 158.397 303.363 158.397 301.113C158.397 299.551 158.229 289.228 158.229 289.228V289.176C158.229 289.176 158.397 278.853 158.397 277.297C158.397 275.041 160.847 274.155 160.847 274.155" stroke="black" stroke-linecap="round" stroke-linejoin="round"/>
<path d="M0 203.536H422" stroke="#808080" stroke-width="0.75" stroke-miterlimit="10"/>
<path d="M145.383 230.068H422" stroke="#808080" stroke-width="0.75" stroke-miterlimit="10"/>
<path d="M0 248.707H146.669" stroke="#808080" stroke-width="0.75" stroke-miterlimit="10"/>
<path d="M0 329.645H146.669" stroke="#808080" stroke-width="0.75" stroke-miterlimit="10"/>
<path d="M145.221 348.267H422" stroke="#808080" stroke-width="0.75" stroke-miterlimit="10"/>
<path d="M144.65 96.126H422" stroke="#808080" stroke-width="0.75" stroke-miterlimit="10"/>
<path d="M145.249 15.0322H422" stroke="#808080" stroke-width="0.75" stroke-miterlimit="10"/>
<path d="M157.887 367V0" stroke="#808080" stroke-width="0.75" stroke-miterlimit="10"/>
<path d="M409.771 366.971V0.897461" stroke="#808080" stroke-width="0.75" stroke-miterlimit="10"/>
<path d="M132.688 344.297V104.856" stroke="#808080" stroke-width="0.75" stroke-miterlimit="10"/>
<path d="M15.9648 347.358V107.265" stroke="#808080" stroke-width="0.75" stroke-miterlimit="10"/>
<path d="M0 122.582H422" stroke="#808080" stroke-width="0.75" stroke-miterlimit="10"/>
</svg>
