<svg width="60" height="60" viewBox="0 0 60 60" fill="none" xmlns="http://www.w3.org/2000/svg">
<path d="M13.9659 6.79688H10.4503C9.42503 6.79802 8.44206 7.20583 7.71707 7.93082C6.99208 8.65581 6.58428 9.63877 6.58313 10.6641V34.3263H10.0988V10.6641C10.0999 9.63877 10.5077 8.65581 11.2327 7.93082C11.9577 7.20583 12.9407 6.79802 13.9659 6.79688V6.79688Z" fill="#D4E1F4"/>
<path d="M53.0656 40.8091H13.9659C12.9406 40.808 11.9577 40.4002 11.2327 39.6752C10.5077 38.9502 10.0999 37.9672 10.0988 36.9419V35.9668H6.58313V39.2857C6.58425 40.311 6.99204 41.2939 7.71704 42.0189C8.44203 42.7439 9.42502 43.1517 10.4503 43.1529H49.5499C50.3067 43.1521 51.0466 42.9296 51.6783 42.5129C52.31 42.0962 52.8058 41.5035 53.1043 40.8082C53.0913 40.8083 53.0786 40.8091 53.0656 40.8091Z" fill="#D4E1F4"/>
<path d="M10.4503 44.7936H29.1798V53.2031H20.3174C20.0998 53.2031 19.8912 53.2896 19.7373 53.4434C19.5835 53.5972 19.4971 53.8059 19.4971 54.0234C19.4971 54.241 19.5835 54.4496 19.7373 54.6035C19.8912 54.7573 20.0998 54.8438 20.3174 54.8438H40.2435C40.4611 54.8438 40.6697 54.7573 40.8235 54.6035C40.9774 54.4496 41.0638 54.241 41.0638 54.0234C41.0638 53.8059 40.9774 53.5972 40.8235 53.4434C40.6697 53.2896 40.4611 53.2031 40.2435 53.2031H30.8204V44.7936H49.5499C51.0102 44.792 52.4102 44.2112 53.4427 43.1786C54.4753 42.1461 55.0561 40.7461 55.0578 39.2858V10.6641C55.0561 9.2038 54.4753 7.80383 53.4427 6.77127C52.4102 5.73871 51.0102 5.15789 49.5499 5.15625H10.4503C8.99006 5.15789 7.59008 5.73871 6.55752 6.77127C5.52496 7.80383 4.94415 9.2038 4.9425 10.6641V39.2858C4.94415 40.7461 5.52496 42.1461 6.55752 43.1786C7.59008 44.2112 8.99006 44.792 10.4503 44.7936V44.7936ZM6.58313 10.6641C6.58431 9.63878 6.99212 8.65583 7.71711 7.93085C8.44209 7.20587 9.42504 6.79805 10.4503 6.79688H49.5499C50.5752 6.79805 51.5582 7.20587 52.2831 7.93085C53.0081 8.65583 53.4159 9.63878 53.4171 10.6641V34.3263H6.58313V10.6641ZM6.58313 35.9666H53.4171V39.2855C53.4159 40.3107 53.0081 41.2937 52.2831 42.0187C51.5582 42.7437 50.5752 43.1515 49.5499 43.1527H10.4503C9.42504 43.1515 8.44209 42.7437 7.71711 42.0187C6.99212 41.2937 6.58431 40.3107 6.58313 39.2855V35.9666Z" fill="white"/>
<path d="M20.0391 26.7188H10.0781C9.86056 26.7188 9.65192 26.8052 9.49808 26.959C9.34424 27.1129 9.25781 27.3215 9.25781 27.5391C9.25781 27.7566 9.34424 27.9653 9.49808 28.1191C9.65192 28.273 9.86056 28.3594 10.0781 28.3594H20.0391C20.2566 28.3594 20.4653 28.273 20.6191 28.1191C20.773 27.9653 20.8594 27.7566 20.8594 27.5391C20.8594 27.3215 20.773 27.1129 20.6191 26.959C20.4653 26.8052 20.2566 26.7188 20.0391 26.7188V26.7188Z" fill="white"/>
<path d="M16.6406 30.2344H10.0781C9.86056 30.2344 9.65192 30.3208 9.49808 30.4746C9.34424 30.6285 9.25781 30.8371 9.25781 31.0547C9.25781 31.2722 9.34424 31.4809 9.49808 31.6347C9.65192 31.7886 9.86056 31.875 10.0781 31.875H16.6406C16.8582 31.875 17.0668 31.7886 17.2207 31.6347C17.3745 31.4809 17.4609 31.2722 17.4609 31.0547C17.4609 30.8371 17.3745 30.6285 17.2207 30.4746C17.0668 30.3208 16.8582 30.2344 16.6406 30.2344Z" fill="white"/>
<path d="M32.4219 24.436H31.1387C30.9211 24.436 30.7125 24.5225 30.5586 24.6763C30.4048 24.8301 30.3184 25.0388 30.3184 25.2563C30.3184 25.4739 30.4048 25.6826 30.5586 25.8364C30.7125 25.9902 30.9211 26.0767 31.1387 26.0767H32.4219C32.6394 26.0767 32.8481 25.9902 33.0019 25.8364C33.1558 25.6826 33.2422 25.4739 33.2422 25.2563C33.2422 25.0388 33.1558 24.8301 33.0019 24.6763C32.8481 24.5225 32.6394 24.436 32.4219 24.436V24.436Z" fill="white"/>
<path d="M46.6372 24.436H45.354C45.1364 24.436 44.9278 24.5225 44.774 24.6763C44.6201 24.8301 44.5337 25.0388 44.5337 25.2563C44.5337 25.4739 44.6201 25.6826 44.774 25.8364C44.9278 25.9902 45.1364 26.0767 45.354 26.0767H46.6372C46.8548 26.0767 47.0634 25.9902 47.2173 25.8364C47.3711 25.6826 47.4575 25.4739 47.4575 25.2563C47.4575 25.0388 47.3711 24.8301 47.2173 24.6763C47.0634 24.5225 46.8548 24.436 46.6372 24.436V24.436Z" fill="white"/>
<path d="M36.8348 12.4961H40.2994C40.5169 12.4961 40.7256 12.4097 40.8794 12.2558C41.0332 12.102 41.1197 11.8933 41.1197 11.6758C41.1197 11.4582 41.0332 11.2496 40.8794 11.0957C40.7256 10.9419 40.5169 10.8555 40.2994 10.8555H36.8348C36.6173 10.8555 36.4086 10.9419 36.2548 11.0957C36.1009 11.2496 36.0145 11.4582 36.0145 11.6758C36.0145 11.8933 36.1009 12.102 36.2548 12.2558C36.4086 12.4097 36.6173 12.4961 36.8348 12.4961V12.4961Z" fill="white"/>
<path d="M15.7245 25.3161C16.821 25.316 17.8996 25.0371 18.8587 24.5055C19.8178 23.9739 20.626 23.2072 21.2073 22.2774C21.7886 21.3475 22.1239 20.2852 22.1817 19.1901C22.2394 18.095 22.0178 17.0033 21.5375 16.0174C21.0573 15.0316 20.3342 14.1841 19.4364 13.5546C18.5385 12.925 17.4953 12.5342 16.4048 12.4187C15.3143 12.3033 14.2124 12.4671 13.2026 12.8946C12.1928 13.3222 11.3083 13.9995 10.6323 14.863C9.67818 16.082 9.19296 17.6028 9.26478 19.1492C9.3366 20.6955 9.9607 22.1648 11.0237 23.2902C11.6291 23.9287 12.358 24.4375 13.1661 24.7858C13.9741 25.134 14.8445 25.3145 15.7245 25.3161V25.3161ZM11.9235 15.8754C12.627 14.976 13.6266 14.3553 14.7446 14.1234C15.8626 13.8914 17.0267 14.0634 18.0299 14.6087C19.0331 15.154 19.8105 16.0373 20.2239 17.1016C20.6373 18.166 20.66 19.3424 20.288 20.4219C19.9159 21.5014 19.1732 22.4141 18.1918 22.9977C17.2104 23.5813 16.0539 23.798 14.9277 23.6094C13.8016 23.4208 12.7788 22.8391 12.0411 21.9676C11.3033 21.0961 10.8985 19.9913 10.8984 18.8495C10.8964 17.7711 11.2575 16.7235 11.9235 15.8754V15.8754Z" fill="#FFBA08"/>
<path d="M14.2004 20.6661C14.3394 20.829 14.5367 20.931 14.75 20.9503C14.9633 20.9697 15.1757 20.9049 15.3419 20.7697L18.4979 18.2021C18.6656 18.0645 18.772 17.866 18.7938 17.6501C18.8156 17.4342 18.7509 17.2185 18.6139 17.0502C18.477 16.8819 18.279 16.7747 18.0632 16.752C17.8474 16.7294 17.6314 16.7932 17.4625 16.9295L14.9279 18.992L14.0929 18.0141C14.0229 17.9322 13.9375 17.8649 13.8415 17.816C13.7455 17.767 13.6409 17.7375 13.5335 17.7291C13.4261 17.7206 13.3181 17.7334 13.2156 17.7667C13.1131 17.7999 13.0182 17.8531 12.9363 17.923C12.8544 17.993 12.787 18.0784 12.7381 18.1744C12.6892 18.2704 12.6597 18.3751 12.6512 18.4825C12.6341 18.6994 12.7039 18.9142 12.8452 19.0796L14.2004 20.6661Z" fill="#FFBA08"/>
<path d="M38.5546 22.7615C38.7289 22.7615 38.8986 22.7059 39.039 22.6027L42.8886 19.7796C43.064 19.6509 43.1811 19.4578 43.2141 19.2427C43.2471 19.0277 43.1934 18.8083 43.0647 18.6329C42.9359 18.4575 42.7428 18.3404 42.5278 18.3074C42.3127 18.2743 42.0933 18.3281 41.9179 18.4568L38.0683 21.2799C37.9289 21.3822 37.8254 21.526 37.7726 21.6907C37.7198 21.8555 37.7204 22.0326 37.7743 22.197C37.8283 22.3613 37.9328 22.5044 38.0729 22.6058C38.2131 22.7072 38.3817 22.7617 38.5546 22.7615V22.7615Z" fill="#FFBA08"/>
<path d="M29.7919 32.3979H31.7111C32.0987 32.3974 32.4703 32.2431 32.7444 31.969C33.0185 31.6948 33.1726 31.3231 33.173 30.9355V28.3735H31.5323V30.7573H29.9705V28.3735H28.3298V30.9355C28.3302 31.3232 28.4844 31.6948 28.7585 31.969C29.0326 32.2431 29.4042 32.3974 29.7919 32.3979V32.3979Z" fill="#FFBA08"/>
<path d="M45.424 32.3979H47.3429C47.7306 32.3974 48.1022 32.2431 48.3762 31.969C48.6503 31.6948 48.8044 31.3231 48.8048 30.9355V28.3735H47.1642V30.7573H45.6027V28.3735H43.962V30.9355C43.9624 31.3231 44.1165 31.6948 44.3906 31.969C44.6647 32.2431 45.0363 32.3974 45.424 32.3979V32.3979Z" fill="#FFBA08"/>
<path d="M49.6998 21.1208H49.4764L48.1796 16.8294C47.9856 16.1775 47.5857 15.6061 47.0396 15.2006C46.4936 14.7952 45.8308 14.5777 45.1507 14.5806H31.9833C31.3032 14.5776 30.6405 14.7952 30.0944 15.2006C29.5484 15.6061 29.1485 16.1775 28.9546 16.8294L27.6578 21.1208H27.4342C26.906 21.1214 26.3996 21.3315 26.0262 21.705C25.6527 22.0785 25.4426 22.5848 25.442 23.113V27.3443C25.4426 27.8725 25.6527 28.3789 26.0262 28.7523C26.3996 29.1258 26.906 29.3359 27.4342 29.3365H49.6998C50.228 29.3359 50.7344 29.1258 51.1079 28.7523C51.4814 28.3789 51.6914 27.8725 51.692 27.3443V23.113C51.6914 22.5848 51.4814 22.0785 51.1079 21.705C50.7344 21.3315 50.228 21.1214 49.6998 21.1208V21.1208ZM30.525 17.304C30.6184 16.9902 30.8109 16.715 31.0739 16.5198C31.3368 16.3246 31.6559 16.2198 31.9833 16.2212H45.1507C45.4782 16.2198 45.7973 16.3246 46.0602 16.5198C46.3231 16.715 46.5157 16.9902 46.609 17.304L47.7625 21.1208H29.3717L30.525 17.304ZM50.0514 27.3443C50.0514 27.4375 50.0144 27.527 49.9484 27.5929C49.8825 27.6588 49.7931 27.6959 49.6998 27.6959H27.4342C27.341 27.6959 27.2515 27.6588 27.1856 27.5929C27.1197 27.527 27.0826 27.4375 27.0826 27.3443V23.113C27.0826 23.0198 27.1197 22.9304 27.1856 22.8644C27.2515 22.7985 27.341 22.7615 27.4342 22.7615H49.6998C49.7931 22.7615 49.8825 22.7985 49.9484 22.8644C50.0144 22.9304 50.0514 23.0198 50.0514 23.113V27.3443Z" fill="white"/>
</svg>
