<svg width="60" height="60" viewBox="0 0 60 60" fill="none" xmlns="http://www.w3.org/2000/svg">
<path d="M12.8306 26.8743V26.8578C12.8307 26.6647 12.7627 26.4777 12.6386 26.3298C12.5144 26.1819 12.3421 26.0825 12.1518 26.0492C11.6972 25.9701 11.2851 25.7328 10.9884 25.3793C10.6917 25.0257 10.5295 24.5788 10.5304 24.1172C10.5304 23.9986 10.541 23.8802 10.5622 23.7635L9.42407 23.1797C9.23889 23.0841 9.0727 22.9555 8.93365 22.8003C8.76087 22.8788 8.60861 22.9962 8.48878 23.1434C8.36896 23.2905 8.28481 23.4634 8.24294 23.6485C8.17916 23.9095 8.16958 24.1807 8.21478 24.4456C8.25998 24.7104 8.359 24.9631 8.50573 25.1882C8.65246 25.4132 8.84378 25.6057 9.06787 25.7539C9.29195 25.9021 9.54405 26.0028 9.80857 26.0497C9.99878 26.083 10.1711 26.1824 10.2953 26.3303C10.4195 26.4782 10.4875 26.6652 10.4873 26.8583V26.8748C10.485 28.3021 10.7853 29.7136 11.3686 31.0162C11.9518 32.3189 12.8047 33.4831 13.8709 34.4319C14.9371 35.3807 16.1924 36.0927 17.554 36.5207C18.9156 36.9488 20.3524 37.0832 21.7698 36.9152C19.3092 36.6253 17.0404 35.4432 15.3929 33.5927C13.7455 31.7423 12.8338 29.3519 12.8306 26.8743V26.8743Z" fill="#D4E1F4"/>
<path d="M13.0768 23.8513C13.2297 23.9299 13.3997 23.9696 13.5717 23.9667C13.7437 23.9639 13.9123 23.9186 14.0625 23.8349C14.2128 23.7512 14.34 23.6317 14.433 23.4871C14.526 23.3424 14.5818 23.177 14.5954 23.0055L14.8298 19.7163H12.4861L12.2517 23.0055C12.2414 23.1342 12.2075 23.2599 12.1515 23.3763L13.0768 23.8513Z" fill="#D4E1F4"/>
<path d="M18.8696 41.2977V38.4962C18.0697 38.3783 17.2843 38.1777 16.5259 37.8975V41.2978C18.1852 42.0115 20.0023 42.2789 21.7969 42.0736C20.7882 41.9606 19.8018 41.6992 18.8696 41.2977V41.2977Z" fill="#D4E1F4"/>
<path d="M16.8898 42.8355C16.4746 42.6994 16.0655 42.8921 15.6648 42.7095L14.3523 42.9182V48.6813H16.696V42.9182L16.8898 42.8355Z" fill="#D4E1F4"/>
<path d="M10.2222 46.1182V44.6807L9.23949 45.1001C8.48272 45.4861 7.83582 46.0572 7.3589 46.7603C6.88198 47.4633 6.59052 48.2755 6.5116 49.1214V55.18H8.85535V49.1214C8.9606 47.9952 9.44211 46.9372 10.2222 46.1182V46.1182Z" fill="#D4E1F4"/>
<path d="M11.4933 51.3291V52.0875C11.4933 52.3051 11.5797 52.5137 11.7335 52.6676C11.8874 52.8214 12.096 52.9079 12.3136 52.9079C12.5312 52.9079 12.7398 52.8214 12.8936 52.6676C13.0475 52.5137 13.1339 52.3051 13.1339 52.0875V51.3291C13.1339 51.1115 13.0475 50.9029 12.8936 50.7491C12.7398 50.5952 12.5312 50.5088 12.3136 50.5088C12.096 50.5088 11.8874 50.5952 11.7335 50.7491C11.5797 50.9029 11.4933 51.1115 11.4933 51.3291Z" fill="white"/>
<path d="M19.4393 8.98047H22.4191C22.6366 8.98047 22.8453 8.89404 22.9991 8.74021C23.1529 8.58637 23.2394 8.37772 23.2394 8.16016C23.2394 7.9426 23.1529 7.73395 22.9991 7.58011C22.8453 7.42627 22.6366 7.33984 22.4191 7.33984H19.4393C19.2218 7.33984 19.0131 7.42627 18.8593 7.58011C18.7054 7.73395 18.619 7.9426 18.619 8.16016C18.619 8.37772 18.7054 8.58637 18.8593 8.74021C19.0131 8.89404 19.2218 8.98047 19.4393 8.98047V8.98047Z" fill="white"/>
<path d="M19.4393 6.2334H22.4191C22.6366 6.2334 22.8453 6.14697 22.9991 5.99313C23.1529 5.8393 23.2394 5.63065 23.2394 5.41309C23.2394 5.19553 23.1529 4.98688 22.9991 4.83304C22.8453 4.6792 22.6366 4.59277 22.4191 4.59277H19.4393C19.2218 4.59277 19.0131 4.6792 18.8593 4.83304C18.7054 4.98688 18.619 5.19553 18.619 5.41309C18.619 5.63065 18.7054 5.8393 18.8593 5.99313C19.0131 6.14697 19.2218 6.2334 19.4393 6.2334Z" fill="white"/>
<path d="M5.61392 56.2342H28.5139V54.5936H10.6054V50.1267H27.0937V48.4861H14.3981V43.0867L15.7445 42.5125C17.3271 43.2312 19.045 43.603 20.7831 43.603C22.5212 43.603 24.2392 43.2312 25.8217 42.5125L27.1681 43.0867V47.332H28.8087V43.7871L30.5834 44.5445L31.2279 43.0356L26.601 41.0609V37.3023H27.2565C27.7325 37.3013 28.1947 37.142 28.5704 36.8497C28.9461 36.5573 29.214 36.1484 29.332 35.6872H30.5945C31.5046 35.6862 32.3771 35.3242 33.0206 34.6807C33.6641 34.0372 34.0261 33.1647 34.0271 32.2547V31.5676H34.2898C35.0818 31.567 35.8411 31.2521 36.4012 30.6922C36.9613 30.1323 37.2764 29.3731 37.2773 28.5811V27.9131H37.9249C38.1424 27.9131 38.3511 27.8267 38.5049 27.6729C38.6587 27.519 38.7452 27.3104 38.7452 27.0928C38.7452 26.8753 38.6587 26.6666 38.5049 26.5128C38.3511 26.3589 38.1424 26.2725 37.9249 26.2725H37.2773V25.6934C37.2764 25.0053 37.0383 24.3385 36.6032 23.8054C36.168 23.2724 35.5624 22.9057 34.8884 22.7671V19.8457C35.0657 19.8013 35.2231 19.699 35.3356 19.555C35.4481 19.411 35.5093 19.2336 35.5095 19.0508V15.8374C35.5095 15.6199 35.4231 15.4112 35.2692 15.2574C35.1154 15.1035 34.9068 15.0171 34.6892 15.0171H33.8168C33.6858 12.1835 32.7216 9.45147 31.045 7.16332C29.4493 4.98607 27.2205 3.35432 24.663 2.49082L24.7546 1.60816C24.7665 1.49382 24.7542 1.37827 24.7185 1.26898C24.6829 1.1597 24.6247 1.05913 24.5476 0.973794C24.4706 0.88846 24.3765 0.820268 24.2714 0.773639C24.1664 0.727011 24.0527 0.702987 23.9377 0.703126H17.6286C17.5137 0.703135 17.4001 0.727268 17.2952 0.773961C17.1902 0.820655 17.0962 0.888869 17.0193 0.974186C16.9424 1.0595 16.8843 1.16002 16.8487 1.26923C16.8131 1.37844 16.8008 1.49391 16.8127 1.60816L16.9042 2.49094C14.3448 3.35701 12.1155 4.993 10.5217 7.17492C8.85011 9.4612 7.88688 12.1881 7.75165 15.0171H6.87802C6.66046 15.0171 6.45181 15.1035 6.29797 15.2574C6.14413 15.4112 6.05771 15.6199 6.05771 15.8374V19.0508C6.05771 19.2684 6.14413 19.477 6.29797 19.6309C6.45181 19.7847 6.66046 19.8711 6.87802 19.8711H8.35188L8.43392 21.0656C7.98163 21.2313 7.57739 21.5063 7.25726 21.8662C6.93712 22.2261 6.71106 22.6596 6.59923 23.1281C6.38792 23.9929 6.49981 24.9052 6.91385 25.6933C7.32789 26.4814 8.01557 27.0911 8.84759 27.4078C8.95293 29.4275 9.5696 31.3873 10.6397 33.1033C11.7099 34.8194 13.1984 36.2355 14.9657 37.2187V41.0603L8.54489 43.8011C8.52978 43.8075 8.51478 43.8144 8.50013 43.8217C7.46776 44.3422 6.58562 45.1181 5.93749 46.0755C5.28937 47.033 4.89677 48.1402 4.797 49.2921C4.79513 49.3147 4.79419 49.3376 4.79419 49.3603V55.4139C4.79419 55.6313 4.88053 55.8399 5.03425 55.9937C5.18796 56.1475 5.39646 56.234 5.61392 56.2342V56.2342ZM24.9598 41.1001C23.6408 41.6689 22.2195 41.9623 20.7831 41.9623C19.3466 41.9623 17.9254 41.6689 16.6063 41.1001V37.9764C19.3022 38.9767 22.2686 38.9699 24.9598 37.9571V41.1001ZM27.7606 35.157C27.7604 35.2908 27.7072 35.4191 27.6125 35.5137C27.5179 35.6083 27.3896 35.6615 27.2558 35.6617H23.4971C23.3633 35.6615 23.235 35.6083 23.1404 35.5137C23.0457 35.4191 22.9925 35.2908 22.9924 35.157V34.5768C22.9925 34.4429 23.0457 34.3147 23.1404 34.22C23.235 34.1254 23.3633 34.0722 23.4971 34.072H27.2559C27.3897 34.0722 27.518 34.1254 27.6126 34.22C27.7073 34.3146 27.7605 34.4429 27.7607 34.5768L27.7606 35.157ZM32.3867 32.2547C32.3861 32.7298 32.1972 33.1852 31.8612 33.5211C31.5253 33.8571 31.0698 34.046 30.5948 34.0466H30.2183C30.804 33.2807 31.2955 32.447 31.6819 31.5635C31.7085 31.5661 31.7355 31.5676 31.7628 31.5676H32.3867V32.2547ZM30.9617 22.2929L30.8313 22.287C30.1015 21.6035 29.5141 20.7825 29.1029 19.8711H30.9617V22.2929ZM35.6366 25.6929V28.5811C35.6362 28.9379 35.4942 29.28 35.2419 29.5323C34.9896 29.7846 34.6476 29.9265 34.2907 29.927H32.5832V28.2991C32.584 28.2929 32.5852 28.2874 32.5859 28.2807H32.5832V24.347H34.2902C34.6471 24.3473 34.9893 24.4892 35.2417 24.7415C35.4942 24.9938 35.6362 25.336 35.6366 25.6929ZM32.603 22.7064V19.8711H33.2475V22.7064H32.603ZM16.3622 4.46297C16.8914 4.22233 17.4396 4.02585 18.0011 3.87551C18.19 3.8253 18.3547 3.70932 18.4656 3.54845C18.5766 3.38757 18.6264 3.19238 18.6063 2.99801L18.539 2.34375H23.0273L22.9594 2.99801C22.9392 3.19238 22.9891 3.38757 23.1001 3.54845C23.211 3.70932 23.3757 3.8253 23.5646 3.87551C24.126 4.02583 24.6742 4.22208 25.2034 4.46227V5.60309C25.2032 6.95891 24.7936 8.28307 24.0283 9.40227C23.263 10.5215 22.1777 11.3836 20.9144 11.8758C19.5849 11.4236 18.4306 10.5659 17.614 9.42341C16.7973 8.28095 16.3594 6.9112 16.3619 5.50688L16.3622 4.46297ZM11.8411 8.14992C12.6372 7.07026 13.6113 6.13399 14.7216 5.38125V5.50688C14.7185 7.27505 15.2766 8.99859 16.3157 10.4293C17.3547 11.8599 18.821 12.9239 20.5034 13.468L20.6754 13.524C20.8448 13.5791 21.0276 13.5775 21.196 13.5196C22.8444 12.9522 24.2746 11.8845 25.2872 10.4653C26.2998 9.0462 26.8441 7.34642 26.8444 5.60309V5.37891C27.9546 6.12892 28.929 7.06259 29.7256 8.13984C31.1937 10.145 32.0442 12.5353 32.1726 15.0171H9.39485C9.52743 12.5393 10.3773 10.1535 11.8411 8.14992V8.14992ZM7.69833 18.2305V16.6577H33.8678V18.2305H11.7304C11.7295 18.2306 11.7286 18.2306 11.7277 18.2305H7.69833ZM10.8588 19.8711L10.7006 21.8505L10.1615 21.5736C10.1466 21.5659 10.1339 21.5546 10.1247 21.5406C10.1154 21.5266 10.11 21.5104 10.1088 21.4937L9.99603 19.8711H10.8588ZM10.472 26.798V26.7812C10.472 26.5882 10.404 26.4014 10.2798 26.2536C10.1557 26.1058 9.98341 26.0065 9.79329 25.9732C9.52285 25.9252 9.26513 25.8223 9.03604 25.6707C8.80696 25.5192 8.61139 25.3223 8.46142 25.0922C8.31144 24.8621 8.21026 24.6037 8.1641 24.3329C8.11795 24.0621 8.12782 23.7848 8.1931 23.518C8.23639 23.3265 8.32377 23.1477 8.44829 22.9958C8.57281 22.844 8.73104 22.7233 8.9104 22.6433C9.05191 22.803 9.22176 22.9351 9.41138 23.033L10.7416 23.7159C10.895 23.7948 11.0656 23.8345 11.2381 23.8315C11.4106 23.8286 11.5797 23.7831 11.7304 23.6992C11.8811 23.6152 12.0088 23.4953 12.102 23.3502C12.1953 23.205 12.2513 23.0391 12.265 22.8671L12.5047 19.8711H27.3386C27.8481 21.299 28.7037 22.5783 29.8288 23.5944L29.9445 23.6999C30.0859 23.8285 30.2679 23.9037 30.4588 23.9125L30.9426 23.9346V28.183C30.6955 29.9925 29.9719 31.7039 28.846 33.1418C28.6456 32.9185 28.4005 32.7399 28.1265 32.6175C27.8525 32.4952 27.5559 32.4318 27.2559 32.4316H23.4971C22.9283 32.4322 22.383 32.6584 21.9807 33.0606C21.5785 33.4627 21.3522 34.008 21.3515 34.5768V35.157C21.3518 35.5155 21.4421 35.8683 21.6141 36.183C21.7861 36.4976 22.0342 36.7641 22.3359 36.958C20.8694 37.1871 19.3707 37.0958 17.9428 36.6904C16.515 36.285 15.1919 35.5752 14.0646 34.6097C12.9372 33.6442 12.0324 32.446 11.4123 31.0975C10.7922 29.749 10.4715 28.2821 10.4724 26.7979L10.472 26.798ZM11.8697 44.1652L12.7573 43.7863V48.4855H11.8699L11.8697 44.1652ZM6.43423 49.3957C6.51448 48.5341 6.81127 47.7068 7.29701 46.9908C7.78275 46.2747 8.44167 45.693 9.21251 45.2999L10.2292 44.8663V48.4864H9.78509C9.56753 48.4864 9.35888 48.5729 9.20504 48.7267C9.0512 48.8805 8.96478 49.0892 8.96478 49.3068V54.5939H6.43353L6.43423 49.3957Z" fill="white"/>
<path d="M30.8885 53.9081H30.9046C31.4735 53.906 32.0183 53.6781 32.4191 53.2744C32.8199 52.8707 33.044 52.3244 33.042 51.7555C33.0399 51.1866 32.812 50.6419 32.4083 50.241C32.0047 49.8402 31.4583 49.6162 30.8894 49.6182H30.8731C30.3042 49.6202 29.7595 49.8481 29.3587 50.2518C28.9578 50.6555 28.7338 51.2019 28.7359 51.7708C28.7379 52.3397 28.9658 52.8844 29.3695 53.2852C29.7732 53.6861 30.3196 53.9101 30.8885 53.9081V53.9081ZM30.5298 51.409C30.5761 51.3617 30.6314 51.3241 30.6924 51.2983C30.7534 51.2725 30.819 51.2591 30.8852 51.2588H30.8891C31.0228 51.2583 31.1513 51.311 31.2462 51.4053C31.3411 51.4995 31.3947 51.6276 31.3951 51.7614C31.3956 51.8951 31.3429 52.0236 31.2487 52.1185C31.1544 52.2134 31.0263 52.267 30.8926 52.2674H30.8887C30.7892 52.2676 30.6919 52.2383 30.609 52.1832C30.5261 52.1281 30.4614 52.0497 30.423 51.9579C30.3846 51.8661 30.3742 51.765 30.3932 51.6673C30.4123 51.5696 30.4597 51.4798 30.5298 51.409V51.409Z" fill="white"/>
<path d="M50.4599 53.755H50.4763C51.0452 53.7529 51.59 53.5249 51.9908 53.1212C52.3916 52.7175 52.6157 52.1711 52.6136 51.6022C52.6116 51.0333 52.3836 50.4885 51.9799 50.0877C51.5761 49.6868 51.0297 49.4628 50.4608 49.4649H50.4448C49.8759 49.4669 49.3312 49.6948 48.9303 50.0985C48.5295 50.5021 48.3055 51.0485 48.3075 51.6173C48.3095 52.1862 48.5374 52.731 48.9411 53.1318C49.3448 53.5326 49.8911 53.7566 50.46 53.7546L50.4599 53.755ZM50.4567 51.1058H50.4606C50.5936 51.1061 50.7211 51.1588 50.8155 51.2525C50.9098 51.3463 50.9634 51.4735 50.9645 51.6065V51.6065C50.965 51.6727 50.9525 51.7384 50.9276 51.7998C50.9027 51.8611 50.866 51.917 50.8195 51.9642C50.773 52.0114 50.7176 52.0489 50.6566 52.0747C50.5956 52.1004 50.5301 52.1139 50.4639 52.1143H50.4608C50.3946 52.1146 50.329 52.1018 50.2677 52.0767C50.2064 52.0515 50.1507 52.0146 50.1037 51.9679C50.0088 51.8737 49.9552 51.7456 49.9548 51.6119C49.9543 51.4782 50.0069 51.3497 50.1012 51.2548C50.1954 51.1599 50.3235 51.1063 50.4572 51.1058H50.4567Z" fill="white"/>
<path d="M36.7877 52.6445H36.7939C36.9017 52.6437 37.0082 52.6217 37.1074 52.5797C37.2066 52.5377 37.2966 52.4766 37.3722 52.3999C37.4478 52.3232 37.5076 52.2323 37.5481 52.1324C37.5885 52.0326 37.609 51.9258 37.6082 51.818L37.5991 50.5974C37.5975 50.3809 37.5104 50.1738 37.3567 50.0213C37.2031 49.8688 36.9953 49.7832 36.7788 49.7832H36.7726C36.6649 49.784 36.5584 49.806 36.4592 49.848C36.3599 49.8899 36.27 49.951 36.1943 50.0278C36.1187 50.1045 36.059 50.1954 36.0185 50.2952C35.978 50.3951 35.9576 50.5019 35.9584 50.6096L35.9674 51.8302C35.969 52.0467 36.0562 52.2538 36.2098 52.4063C36.3635 52.5589 36.5712 52.6445 36.7877 52.6445V52.6445Z" fill="white"/>
<path d="M44.5764 52.561H44.5826C44.6904 52.5602 44.7969 52.5382 44.8961 52.4962C44.9953 52.4542 45.0853 52.3931 45.1609 52.3164C45.2365 52.2397 45.2963 52.1488 45.3368 52.0489C45.3772 51.9491 45.3977 51.8423 45.3969 51.7346L45.3878 50.5139C45.3862 50.2974 45.2991 50.0903 45.1454 49.9378C44.9918 49.7853 44.784 49.6997 44.5675 49.6997H44.5613C44.4536 49.7005 44.3471 49.7225 44.2479 49.7645C44.1486 49.8064 44.0586 49.8675 43.983 49.9443C43.9074 50.021 43.8477 50.1119 43.8072 50.2117C43.7667 50.3116 43.7463 50.4184 43.7471 50.5261L43.7561 51.7467C43.7577 51.9632 43.8449 52.1703 43.9985 52.3229C44.1522 52.4754 44.3599 52.561 44.5764 52.561V52.561Z" fill="white"/>
<path d="M39.3838 52.6108H39.39C39.4977 52.61 39.6043 52.588 39.7035 52.546C39.8027 52.504 39.8927 52.4429 39.9683 52.3662C40.0439 52.2895 40.1036 52.1986 40.1441 52.0987C40.1846 51.9989 40.205 51.8921 40.2042 51.7844L40.1952 50.5637C40.1936 50.3472 40.1065 50.1401 39.9528 49.9876C39.7991 49.8351 39.5914 49.7495 39.3749 49.7495H39.3688C39.2611 49.7503 39.1546 49.7723 39.0553 49.8143C38.9561 49.8562 38.8661 49.9173 38.7905 49.9941C38.7149 50.0708 38.6552 50.1617 38.6147 50.2615C38.5742 50.3614 38.5538 50.4682 38.5546 50.5759L38.5636 51.7967C38.5653 52.0131 38.6524 52.2202 38.806 52.3727C38.9597 52.5252 39.1673 52.6107 39.3838 52.6108V52.6108Z" fill="white"/>
<path d="M41.9801 52.5776H41.9863C42.094 52.5768 42.2006 52.5547 42.2998 52.5128C42.399 52.4708 42.489 52.4097 42.5646 52.333C42.6402 52.2562 42.7 52.1654 42.7404 52.0655C42.7809 51.9657 42.8013 51.8589 42.8005 51.7511L42.7916 50.5305C42.79 50.314 42.7029 50.1069 42.5492 49.9544C42.3956 49.8019 42.1878 49.7163 41.9713 49.7163H41.9649C41.8571 49.7171 41.7506 49.7391 41.6514 49.7811C41.5522 49.823 41.4622 49.8841 41.3866 49.9609C41.311 50.0376 41.2512 50.1285 41.2108 50.2283C41.1703 50.3282 41.1499 50.435 41.1507 50.5427L41.1596 51.7633C41.1612 51.9799 41.2483 52.187 41.4021 52.3395C41.5558 52.4921 41.7636 52.5776 41.9801 52.5776Z" fill="white"/>
<path d="M52.609 46.0197L50.2832 41.8072C49.5043 40.4345 48.364 38.8618 46.4353 38.8618H46.4089L34.8588 38.9556C33.2846 38.9673 31.909 40.0369 30.9827 41.9686L28.639 46.1939C27.2597 46.4488 26.2097 47.6838 26.1153 49.2586C26.1104 49.3406 26.1082 49.4236 26.1089 49.5047C26.1094 49.5479 26.1133 49.591 26.1206 49.6336L26.9051 54.3268C26.9219 54.7264 27.0527 55.1128 27.2819 55.4405C27.5111 55.7682 27.8292 56.0236 28.1987 56.1765C28.2541 56.1999 28.3105 56.219 28.3671 56.2372L28.3779 57.8492C28.3814 58.2341 28.5366 58.602 28.8097 58.8731C29.0829 59.1442 29.452 59.2965 29.8369 59.2971H29.8478L31.7883 59.2828C32.1751 59.2795 32.5448 59.123 32.8163 58.8475C33.0878 58.572 33.239 58.2001 33.2367 57.8133L33.2266 56.3034L48.209 56.1875L48.219 57.6937C48.2223 58.0787 48.3774 58.4469 48.6507 58.7181C48.9239 58.9894 49.2932 59.1418 49.6782 59.1423H49.6891L51.6296 59.128C52.0164 59.1247 52.3861 58.9681 52.6577 58.6926C52.9292 58.4172 53.0804 58.0453 53.0782 57.6585L53.0673 56.0333C53.4666 55.8921 53.8139 55.6334 54.0635 55.2911C54.3131 54.9489 54.4533 54.5392 54.4657 54.1158L55.1965 49.4126C55.2033 49.3689 55.2065 49.3248 55.2062 49.2806C55.205 48.4414 54.9 47.6311 54.3474 46.9994C53.8981 46.4823 53.284 46.1362 52.609 46.0197V46.0197ZM32.4293 42.7425C32.4376 42.7276 32.4453 42.7125 32.4527 42.6971C32.8242 41.9164 33.6323 40.6053 34.8712 40.5962L46.4215 40.5024H46.4344C47.2905 40.5024 48.0157 41.1358 48.8514 42.6084L50.7172 45.9881L49.3344 45.9989C49.1614 45.2246 48.7282 44.533 48.1071 44.0393C47.486 43.5456 46.7145 43.2797 45.9212 43.2858C45.1278 43.292 44.3605 43.5698 43.7471 44.073C43.1337 44.5763 42.7113 45.2745 42.5503 46.0514L30.5428 46.1443L32.4293 42.7425ZM47.6184 46.012L44.2658 46.038C44.4056 45.7106 44.6379 45.431 44.9342 45.2335C45.2305 45.036 45.5779 44.9292 45.934 44.9262C46.1744 44.9225 46.4132 44.9672 46.636 45.0576C46.8589 45.148 47.0613 45.2822 47.2314 45.4523C47.3943 45.6129 47.5257 45.8025 47.6187 46.0115L47.6184 46.012ZM31.5949 57.6436L30.017 57.6553L30.0082 56.3285L31.586 56.3168L31.5949 57.6436ZM49.8585 57.5003L49.8497 56.1749L51.4275 56.1631L51.4363 57.4891L49.8585 57.5003ZM52.835 53.9215C52.8283 53.9652 52.825 54.0093 52.8253 54.0535C52.8252 54.1747 52.7775 54.2909 52.6924 54.3772C52.6073 54.4635 52.4918 54.5128 52.3706 54.5145L29.0042 54.6954C28.9439 54.697 28.8838 54.6853 28.8285 54.6612C28.7449 54.6269 28.6732 54.5688 28.6225 54.4941C28.5718 54.4194 28.5442 54.3314 28.5432 54.241C28.5427 54.1978 28.5388 54.1547 28.5315 54.1121L27.7499 49.4318C27.7504 49.4065 27.7515 49.3812 27.753 49.356C27.7967 48.6254 28.2728 47.8497 29.0721 47.7906C29.0955 47.7927 29.119 47.7953 29.1435 47.7953H29.1499L52.0865 47.6176C52.0901 47.6176 52.0935 47.6176 52.097 47.6176H52.1136C52.3051 47.6184 52.4941 47.6607 52.6677 47.7417C52.8412 47.8226 52.9952 47.9402 53.1189 48.0863C53.3933 48.4063 53.5504 48.8102 53.5642 49.2315L52.835 53.9215Z" fill="#FFBA08"/>
</svg>
