<svg width="130" height="130" viewBox="0 0 130 130" fill="none" xmlns="http://www.w3.org/2000/svg">
<path d="M23.5705 110.203L19.5451 77.1954H13.8477L18.4924 115.281H37.37L35.8217 110.203H23.5705Z" fill="#D4E1F4"/>
<path d="M108.853 76.6574L99.5043 81.7007L91.7744 87.0074C91.6411 87.2879 91.4361 87.5282 91.18 87.704C90.924 87.8798 90.6261 87.9849 90.3164 88.0085L81.8253 93.8385C77.7585 95.8122 73.1709 96.4468 68.721 95.6513L49.7592 92.1599C47.5872 91.6262 45.2935 91.9384 43.343 93.0331C43.3151 93.0486 43.2877 93.0651 43.2608 93.0821L35.7637 97.8215L37.472 103.425L45.8001 98.1602C45.827 98.1432 45.8544 98.1267 45.8823 98.1112C47.8328 97.0165 50.1265 96.7044 52.2986 97.238L71.2603 100.729C75.7102 101.525 80.2978 100.89 84.3646 98.9166L115.577 77.4869C114.681 76.6664 113.553 76.1456 112.347 75.9969C111.142 75.8482 109.92 76.0791 108.853 76.6574V76.6574Z" fill="#D4E1F4"/>
<path d="M45.7615 24.1739C45.7732 24.1529 45.7841 24.1315 45.7943 24.1097C46.8054 21.9853 49.0321 18.4174 52.5865 18.3912L84.1796 18.1584H84.2195C85.0444 18.155 85.8569 18.3591 86.5823 18.7518C84.7445 16.0428 82.9873 14.8513 80.9126 14.8513H80.8727L49.2797 15.0841C45.725 15.1095 43.4985 18.6781 42.4877 20.8028C42.4773 20.8244 42.4664 20.8457 42.4547 20.8668L37.0381 30.6328L42.2 30.5947L45.7615 24.1739Z" fill="#D4E1F4"/>
<path d="M36.6047 54.5645C36.2198 54.1736 36.0031 53.6477 36.0009 53.0992C36.0005 53.049 35.9971 52.9989 35.9907 52.9491L34.0293 37.8402C34.0366 35.3598 35.3285 33.6345 36.8972 32.9494L35.0726 32.9629H35.0642C35.001 32.9623 34.9379 32.9565 34.8755 32.9456C32.7953 33.0845 30.7318 34.954 30.7227 37.9912L32.6841 52.6201C32.6906 52.6682 32.694 52.7167 32.6942 52.7653C32.7006 53.2967 32.9154 53.8043 33.2926 54.1787C33.6697 54.5531 34.1788 54.7643 34.7103 54.7668H34.7255L36.8187 54.7513C36.7431 54.6941 36.6716 54.6316 36.6047 54.5645V54.5645Z" fill="#D4E1F4"/>
<path d="M27.1475 113.933C28.1016 113.933 29.0343 113.65 29.8277 113.12C30.621 112.59 31.2393 111.837 31.6045 110.955C31.9696 110.074 32.0651 109.104 31.879 108.168C31.6928 107.232 31.2334 106.373 30.5587 105.698C29.884 105.023 29.0244 104.564 28.0886 104.378C27.1528 104.191 26.1828 104.287 25.3013 104.652C24.4198 105.017 23.6664 105.636 23.1363 106.429C22.6062 107.222 22.3232 108.155 22.3232 109.109C22.3247 110.388 22.8335 111.614 23.7379 112.519C24.6423 113.423 25.8685 113.932 27.1475 113.933ZM27.1475 107.84C27.3986 107.84 27.644 107.914 27.8528 108.054C28.0616 108.193 28.2243 108.391 28.3204 108.623C28.4164 108.855 28.4416 109.111 28.3926 109.357C28.3436 109.603 28.2227 109.829 28.0452 110.007C27.8676 110.184 27.6414 110.305 27.3951 110.354C27.1489 110.403 26.8936 110.378 26.6616 110.282C26.4297 110.186 26.2314 110.023 26.0919 109.814C25.9524 109.606 25.8779 109.36 25.8779 109.109C25.8783 108.773 26.0122 108.45 26.2502 108.212C26.4882 107.974 26.8109 107.84 27.1475 107.84Z" fill="#1973E7"/>
<path d="M39.1286 38.7207C37.7843 38.7337 36.4997 39.2782 35.5555 40.2351C34.6113 41.192 34.084 42.4837 34.0889 43.828C34.0938 45.1724 34.6304 46.4602 35.5816 47.4102C36.5328 48.3602 37.8213 48.8953 39.1656 48.8985H39.2037C39.8749 48.898 40.5393 48.7646 41.1587 48.5062C41.7781 48.2478 42.3402 47.8695 42.8128 47.3929C43.2854 46.9164 43.659 46.3511 43.9122 45.7295C44.1655 45.108 44.2932 44.4425 44.2882 43.7714C44.2832 43.1003 44.1455 42.4368 43.883 41.8191C43.6205 41.2014 43.2384 40.6418 42.7588 40.1724C42.2791 39.703 41.7113 39.3331 41.0881 39.084C40.4649 38.8349 39.7986 38.7115 39.1276 38.721L39.1286 38.7207ZM40.7005 43.7988C40.702 44.0004 40.6639 44.2002 40.5881 44.387C40.5124 44.5737 40.4005 44.7437 40.2591 44.8872C40.1176 45.0307 39.9492 45.1449 39.7635 45.2233C39.5779 45.3017 39.3786 45.3428 39.1771 45.3441H39.1656C38.762 45.3406 38.376 45.1782 38.0913 44.892C37.8066 44.6059 37.6461 44.2191 37.6446 43.8154C37.6432 43.4117 37.8008 43.0238 38.0834 42.7356C38.3661 42.4473 38.7509 42.2821 39.1545 42.2757H39.1662C39.5712 42.2756 39.9597 42.4358 40.2471 42.7212C40.5344 43.0066 40.6973 43.3941 40.7 43.7991L40.7005 43.7988Z" fill="#1973E7"/>
<path d="M91.0253 38.3383H90.9872C89.6429 38.3513 88.3584 38.8956 87.4141 39.8524C86.4699 40.8093 85.9425 42.1009 85.9473 43.4452C85.9521 44.7895 86.4885 46.0773 87.4396 47.0274C88.3906 47.9775 89.6789 48.5127 91.0232 48.5162H91.0616C92.4109 48.505 93.7008 47.959 94.648 46.998C95.5953 46.037 96.1226 44.7394 96.1143 43.39V43.39C96.1029 42.0473 95.5619 40.7633 94.6089 39.8173C93.656 38.8713 92.3681 38.3398 91.0253 38.3383V38.3383ZM91.0357 44.9612H91.0253C90.6216 44.9577 90.2357 44.7952 89.951 44.509C89.6663 44.2228 89.5059 43.836 89.5044 43.4324C89.503 43.0287 89.6607 42.6408 89.9433 42.3526C90.2259 42.0644 90.6107 41.8992 91.0143 41.8928H91.0258C91.4326 41.8913 91.8234 42.0515 92.1122 42.3381C92.4009 42.6248 92.564 43.0144 92.5655 43.4213C92.5669 43.8281 92.4067 44.2189 92.1201 44.5077C91.8334 44.7964 91.4438 44.9595 91.0369 44.961L91.0357 44.9612Z" fill="#1973E7"/>
<path d="M74.5154 49.0582L55.7573 49.1963C55.286 49.198 54.8346 49.3869 54.5024 49.7214C54.1703 50.0559 53.9847 50.5086 53.9863 50.98C53.988 51.4514 54.1769 51.9028 54.5114 52.2349C54.8459 52.5671 55.2987 52.7527 55.77 52.751H55.7835L74.5416 52.6129C75.013 52.6095 75.4637 52.419 75.7946 52.0833C76.1256 51.7476 76.3096 51.2942 76.3062 50.8229C76.3029 50.3515 76.1124 49.9007 75.7767 49.5698C75.441 49.2389 74.9876 49.0548 74.5162 49.0582H74.5154Z" fill="#1973E7"/>
<path d="M107.164 72.8653L106.858 73.0305C104.463 70.3269 100.485 69.3174 97.4325 70.865C97.4193 70.8716 97.4061 70.8784 97.3929 70.8855L96.2818 71.4843C94.648 70.1659 92.6538 69.3722 90.5609 69.2073C88.4679 69.0424 86.374 69.514 84.5539 70.5603L77.5103 74.3905H68.1158C66.1161 74.388 64.1425 73.9358 62.3412 73.0674L61.0369 72.4364C57.2628 70.5999 53.0541 69.8437 48.8768 70.2515C44.6995 70.6593 40.7166 72.2152 37.369 74.747C37.3299 74.7762 37.2928 74.8069 37.2558 74.8394L34.1058 77.6445C32.6626 78.9294 30.8948 79.7942 28.9947 80.145C28.5311 80.2306 28.1205 80.4969 27.8533 80.8852C27.586 81.2736 27.484 81.7522 27.5696 82.2157C27.6552 82.6793 27.9215 83.0899 28.3098 83.3571C28.6982 83.6244 29.1768 83.7264 29.6403 83.6408C32.1795 83.172 34.5417 82.0164 36.4704 80.2996L39.5645 77.5448C42.3891 75.425 45.7435 74.1252 49.2589 73.7886C52.7743 73.4519 56.3145 74.0912 59.4901 75.6364L60.7946 76.2671C63.0787 77.3682 65.5812 77.9416 68.1168 77.9449H80.7674C82.4649 77.947 84.1134 78.5143 85.4529 79.5571C86.7923 80.6 87.7464 82.0591 88.1647 83.7043L79.4623 83.3107C76.1068 83.1593 72.7444 83.3146 69.417 83.7746C68.9501 83.8392 68.528 84.0867 68.2435 84.4626C67.959 84.8385 67.8356 85.312 67.9002 85.7789C67.9648 86.2459 68.2123 86.668 68.5882 86.9525C68.9641 87.2369 69.4376 87.3604 69.9045 87.2958C73.0172 86.8655 76.1626 86.7202 79.3016 86.8616L90.0926 87.3498C90.118 87.3498 90.1462 87.3519 90.1729 87.3519C90.6442 87.3519 91.0963 87.1646 91.4296 86.8313C91.7629 86.498 91.9502 86.0459 91.9502 85.5745C91.9502 85.4158 91.9449 85.2587 91.9385 85.1015L93.2179 84.4269L108.851 75.9931C109.919 75.4149 111.14 75.184 112.345 75.3327C113.551 75.4814 114.679 76.0022 115.575 76.8226L84.3627 98.2523C80.2959 100.226 75.7083 100.861 71.2584 100.065L52.2969 96.5738C50.1246 96.041 47.8309 96.3539 45.8807 97.4492C45.853 97.4647 45.8253 97.4812 45.7987 97.4982L35.5005 104.008C35.3032 104.133 35.1324 104.295 34.9979 104.486C34.8633 104.677 34.7677 104.892 34.7163 105.12C34.665 105.348 34.6591 105.583 34.6988 105.813C34.7385 106.043 34.8231 106.263 34.9479 106.46C35.0726 106.658 35.235 106.829 35.4257 106.963C35.6164 107.098 35.8318 107.193 36.0595 107.245C36.2872 107.296 36.5227 107.302 36.7527 107.262C36.9828 107.222 37.2027 107.138 37.4 107.013L47.6555 100.529C48.825 99.8853 50.1953 99.7094 51.4895 100.037C51.5263 100.046 51.5634 100.054 51.6007 100.062L70.6206 103.564C75.8651 104.503 81.2723 103.739 86.052 101.386C86.1272 101.348 86.1998 101.306 86.269 101.259L119.164 78.6723C119.538 78.4159 119.799 78.0266 119.895 77.5838C119.991 77.141 119.915 76.6783 119.681 76.2902C118.437 74.2175 116.441 72.7047 114.11 72.0667C111.778 71.4287 109.29 71.7147 107.164 72.8653ZM86.2721 73.6722C86.2863 73.6646 86.3005 73.6567 86.3142 73.6486C87.2807 73.0895 88.3692 72.7751 89.485 72.7327C90.6007 72.6904 91.7099 72.9214 92.716 73.4056L87.1554 76.4017C86.2048 75.7364 85.1562 75.2236 84.0474 74.8818L86.2721 73.6722ZM91.5467 81.2909L91.1748 81.4869C90.8277 80.6061 90.37 79.7731 89.8128 79.0078L99.0573 74.0269C100.499 73.3068 102.282 73.791 103.563 74.8084L91.5467 81.2909Z" fill="#FFBA08"/>
<path d="M84.5899 31.2528C84.5933 31.7219 84.7821 32.1707 85.115 32.5012C85.448 32.8317 85.8981 33.0172 86.3673 33.0172H86.3805C86.6139 33.0155 86.8447 32.9678 87.0597 32.8769C87.2747 32.786 87.4697 32.6536 87.6336 32.4874C87.7974 32.3211 87.9269 32.1242 88.0146 31.9079C88.1023 31.6915 88.1466 31.4601 88.1449 31.2266C88.1229 29.0022 87.2197 26.8773 85.6332 25.318C84.0468 23.7586 81.9066 22.8921 79.6822 22.9085C77.4578 22.9249 75.3306 23.8228 73.7673 25.4053C72.204 26.9878 71.3321 29.1258 71.3429 31.3503C71.3463 31.8194 71.535 32.2682 71.868 32.5987C72.2009 32.9292 72.6511 33.1147 73.1202 33.1147H73.1332C73.3666 33.113 73.5974 33.0653 73.8123 32.9744C74.0273 32.8835 74.2223 32.7512 74.3862 32.585C74.55 32.4187 74.6795 32.2218 74.7672 32.0055C74.855 31.7892 74.8993 31.5578 74.8976 31.3244C74.8883 30.6851 75.0056 30.0503 75.2428 29.4566C75.4799 28.8628 75.8322 28.3219 76.2793 27.8649C76.7264 27.4079 77.2596 27.0438 77.848 26.7938C78.4364 26.5437 79.0685 26.4125 79.7078 26.4078C80.3471 26.4031 80.9811 26.5249 81.5731 26.7663C82.1652 27.0076 82.7036 27.3637 83.1574 27.814C83.6113 28.2644 83.9715 28.8001 84.2174 29.3903C84.4633 29.9804 84.59 30.6134 84.5902 31.2528H84.5899Z" fill="#FFBA08"/>
<path d="M56.6146 39.0912H56.6014C56.3679 39.0929 56.1371 39.1405 55.9221 39.2314C55.7071 39.3223 55.5121 39.4547 55.3483 39.621C55.1844 39.7873 55.0549 39.9842 54.9672 40.2005C54.8795 40.4168 54.8352 40.6483 54.837 40.8817L54.8593 43.9332C54.8627 44.4023 55.0515 44.8511 55.3844 45.1816C55.7174 45.5121 56.1675 45.6976 56.6366 45.6976H56.6496C56.883 45.6959 57.1138 45.6483 57.3289 45.5574C57.5439 45.4665 57.7389 45.3342 57.9028 45.1679C58.0666 45.0017 58.1961 44.8048 58.2839 44.5885C58.3717 44.3722 58.416 44.1407 58.4142 43.9073L58.3919 40.8556C58.3885 40.3864 58.1997 39.9377 57.8668 39.6072C57.5338 39.2767 57.0837 39.0912 56.6146 39.0912Z" fill="#FFBA08"/>
<path d="M50.9622 39.1331H50.9488C50.4774 39.1365 50.0268 39.3271 49.6959 39.6629C49.3651 39.9986 49.1812 40.452 49.1846 40.9234L49.2072 43.975C49.2107 44.4441 49.3995 44.8928 49.7324 45.2233C50.0654 45.5538 50.5155 45.7392 50.9846 45.7392H50.998C51.2314 45.7375 51.4622 45.6898 51.6772 45.5989C51.8922 45.5079 52.0871 45.3756 52.2509 45.2093C52.4148 45.043 52.5442 44.8461 52.6319 44.6298C52.7197 44.4135 52.7639 44.182 52.7622 43.9486L52.7396 40.8972C52.7361 40.4281 52.5473 39.9794 52.2143 39.649C51.8814 39.3185 51.4313 39.133 50.9622 39.1331Z" fill="#FFBA08"/>
<path d="M79.223 38.9238H79.2095C78.9761 38.9256 78.7453 38.9732 78.5303 39.0642C78.3154 39.1551 78.1204 39.2875 77.9566 39.4537C77.7928 39.62 77.6633 39.8169 77.5756 40.0332C77.4879 40.2495 77.4436 40.481 77.4454 40.7144L77.468 43.7661C77.4714 44.2352 77.6602 44.6839 77.9932 45.0143C78.3261 45.3448 78.7762 45.5302 79.2453 45.5302H79.2585C79.4919 45.5285 79.7227 45.4809 79.9377 45.39C80.1527 45.2991 80.3477 45.1667 80.5116 45.0004C80.6754 44.8341 80.8049 44.6372 80.8926 44.4209C80.9804 44.2046 81.0246 43.9731 81.0229 43.7397L81.0003 40.688C80.9968 40.2189 80.808 39.7702 80.4751 39.4397C80.1421 39.1093 79.6921 38.9238 79.223 38.9238V38.9238Z" fill="#FFBA08"/>
<path d="M62.2659 39.0495H62.253C62.0195 39.0512 61.7887 39.0988 61.5737 39.1897C61.3586 39.2806 61.1636 39.4129 60.9997 39.5792C60.8359 39.7455 60.7064 39.9424 60.6186 40.1588C60.5309 40.3751 60.4866 40.6066 60.4883 40.84L60.5107 43.8915C60.5141 44.3606 60.7029 44.8094 61.0358 45.1399C61.3688 45.4704 61.8189 45.6559 62.288 45.6559H62.3012C62.5346 45.6542 62.7654 45.6065 62.9804 45.5156C63.1954 45.4248 63.3904 45.2924 63.5542 45.1262C63.7181 44.9599 63.8475 44.763 63.9353 44.5467C64.023 44.3305 64.0673 44.099 64.0656 43.8656L64.0433 40.8139C64.0399 40.3448 63.8511 39.896 63.5181 39.5655C63.1852 39.235 62.7351 39.0495 62.2659 39.0495V39.0495Z" fill="#FFBA08"/>
<path d="M67.9183 39.0079H67.9051C67.6716 39.0096 67.4408 39.0572 67.2258 39.1481C67.0108 39.239 66.8158 39.3714 66.652 39.5377C66.4881 39.704 66.3587 39.9009 66.2709 40.1172C66.1832 40.3335 66.1389 40.565 66.1407 40.7984L66.163 43.8499C66.1664 44.319 66.3552 44.7678 66.6881 45.0983C67.0211 45.4288 67.4712 45.6143 67.9404 45.6143H67.9536C68.187 45.6126 68.4178 45.5649 68.6327 45.474C68.8477 45.3831 69.0427 45.2508 69.2066 45.0845C69.3704 44.9183 69.4999 44.7214 69.5876 44.5051C69.6754 44.2888 69.7197 44.0574 69.718 43.824L69.6956 40.7723C69.6922 40.3031 69.5034 39.8544 69.1705 39.5239C68.8375 39.1933 68.3874 39.0079 67.9183 39.0079V39.0079Z" fill="#FFBA08"/>
<path d="M73.5699 38.9662H73.5562C73.3228 38.9679 73.092 39.0156 72.877 39.1065C72.662 39.1974 72.4671 39.3298 72.3033 39.4961C72.1394 39.6624 72.01 39.8593 71.9223 40.0756C71.8345 40.2919 71.7903 40.5233 71.792 40.7567L71.8146 43.8084C71.8181 44.2775 72.0069 44.7262 72.3399 45.0567C72.6728 45.3872 73.1229 45.5726 73.592 45.5726H73.6054C73.8388 45.5709 74.0696 45.5232 74.2846 45.4322C74.4996 45.3413 74.6945 45.209 74.8584 45.0427C75.0222 44.8764 75.1516 44.6795 75.2393 44.4632C75.3271 44.2469 75.3713 44.0154 75.3696 43.782L75.347 40.7306C75.3436 40.2615 75.1548 39.8128 74.8219 39.4823C74.489 39.1517 74.039 38.9662 73.5699 38.9662V38.9662Z" fill="#FFBA08"/>
<path d="M90.3444 19.0529C88.4338 15.6855 85.6426 11.8277 80.9631 11.8277H80.9001L49.0938 12.0621C45.2664 12.0905 41.9123 14.7121 39.6447 19.4467L37.1658 23.9154C35.7439 23.9233 33.1868 23.9372 31.72 23.9482C28.8194 23.9695 26.4642 25.4675 25.7164 27.7639C25.3964 28.7478 25.2021 29.7684 25.1383 30.8011C25.1283 31.0405 25.1668 31.2795 25.2516 31.5036C25.3364 31.7277 25.4656 31.9324 25.6314 32.1054C25.7973 32.2783 25.9965 32.4159 26.2169 32.5099C26.4373 32.6039 26.6745 32.6523 26.9141 32.6523H26.9296L29.4001 32.631C28.1284 34.1891 27.4516 36.1484 27.4907 38.1593C27.4913 38.234 27.4967 38.3085 27.5067 38.3825L29.4783 53.0867C29.5144 54.147 29.8882 55.1681 30.5452 56.0011C31.2022 56.8341 32.108 57.4355 33.1307 57.7177L33.1619 61.9511C33.1686 62.8417 33.527 63.6937 34.1591 64.3212C34.7912 64.9487 35.6457 65.3009 36.5364 65.3011H36.5618L41.4129 65.2653C42.3079 65.2586 43.1637 64.8967 43.7919 64.2591C44.4201 63.6215 44.7694 62.7606 44.7629 61.8655L44.7332 57.8231L85.6657 57.5214L85.6954 61.5639C85.7022 62.4545 86.0608 63.3063 86.693 63.9337C87.3252 64.561 88.1797 64.9131 89.0703 64.9131H89.0957L93.9469 64.8776C94.8416 64.87 95.6969 64.5078 96.3249 63.8704C96.9529 63.2331 97.3025 62.3726 97.2969 61.4778L97.2657 57.2241C98.2636 56.9121 99.1383 56.2947 99.7665 55.4589C100.395 54.6232 100.745 53.6112 100.767 52.5659L102.604 37.8378C102.613 37.7605 102.618 37.6827 102.617 37.6048C102.614 35.586 101.885 33.6357 100.563 32.11L103.1 32.0904C103.341 32.0885 103.578 32.0377 103.799 31.9413C104.019 31.8448 104.217 31.7047 104.382 31.5294C104.546 31.354 104.674 31.1471 104.756 30.9212C104.838 30.6952 104.874 30.4549 104.861 30.2148C104.781 29.1832 104.572 28.1657 104.238 27.1865C103.463 24.9173 101.113 23.4594 98.2414 23.4594H98.1785C96.7241 23.4701 94.2091 23.48 92.7916 23.4848L90.3444 19.0529ZM42.7792 21.1235C42.7974 21.0912 42.8142 21.0585 42.8299 21.0252C43.7859 19.0158 45.8748 15.6409 49.1197 15.617L80.9263 15.3826H80.9606C83.2127 15.3826 85.0967 17.0076 87.2427 20.7893L92.1284 29.6392L37.8346 30.0391L42.7792 21.1235ZM29.0304 29.0786C29.0512 29.0077 29.0734 28.9362 29.0969 28.864C29.3539 28.0726 30.4426 27.5133 31.7462 27.5036C32.6524 27.497 33.9747 27.4889 35.1881 27.482L34.3279 29.0329L29.0304 29.0786ZM36.7149 61.7444L36.6864 57.8815L41.178 57.8485L41.2065 61.7111L36.7149 61.7444ZM89.2481 61.3572L89.2199 57.4943L93.7112 57.4613L93.7397 61.3242L89.2481 61.3572ZM97.2253 52.2298C97.2156 52.3072 97.2111 52.3851 97.2116 52.4631C97.212 52.8383 97.0645 53.1986 96.8011 53.4659C96.5377 53.7332 96.1796 53.8859 95.8044 53.8911L34.4579 54.343H34.4475C34.0741 54.3405 33.7165 54.1917 33.4515 53.9286C33.1865 53.6655 33.0352 53.309 33.0299 52.9356C33.0293 52.861 33.0239 52.7864 33.0139 52.7124L31.0449 38.0273C31.0703 35.3752 32.8321 33.7429 34.6173 33.6037C34.6791 33.6111 34.7412 33.6152 34.8035 33.6159H34.8167L95.0899 33.1716C95.0988 33.1716 95.1077 33.1731 95.1169 33.1731H95.1303C95.6525 33.1708 96.169 33.2828 96.6433 33.5012C97.1177 33.7197 97.5385 34.0392 97.8763 34.4375C98.6151 35.2985 99.0331 36.3886 99.0593 37.5228L97.2253 52.2298ZM98.2041 27.0141C99.5036 26.9996 100.605 27.5473 100.874 28.3344C100.899 28.4073 100.922 28.4799 100.944 28.5515L95.6122 28.5926L94.7505 27.0313C95.9644 27.027 97.2928 27.0207 98.2046 27.0141H98.2041Z" fill="#1973E7"/>
<path d="M15.1544 116.61C15.2069 117.041 15.4153 117.438 15.7403 117.726C16.0653 118.013 16.4844 118.172 16.9185 118.172H39.7701C40.0479 118.172 40.322 118.108 40.5702 117.983C40.8184 117.858 41.0338 117.676 41.1992 117.453C41.3647 117.23 41.4754 116.971 41.5227 116.697C41.5699 116.423 41.5523 116.142 41.4712 115.876L28.7759 74.2359C28.6648 73.8716 28.4397 73.5527 28.1336 73.326C27.8276 73.0994 27.4569 72.977 27.076 72.977H11.8417C11.5901 72.977 11.3414 73.0304 11.1121 73.1337C10.8827 73.237 10.6779 73.3878 10.5111 73.5761C10.3444 73.7644 10.2195 73.986 10.1447 74.2262C10.07 74.4664 10.0471 74.7197 10.0775 74.9694L15.1544 116.61ZM25.7585 76.5317L37.3702 114.618H18.4922L13.8475 76.5317H25.7585Z" fill="#1973E7"/>
</svg>
