<svg width="130" height="130" viewBox="0 0 130 130" fill="none" xmlns="http://www.w3.org/2000/svg">
<path d="M30.2588 14.7266H22.6416C20.4201 14.729 18.2904 15.6126 16.7196 17.1834C15.1488 18.7542 14.2652 20.884 14.2627 23.1055V74.3737H21.8799V23.1055C21.8824 20.884 22.7659 18.7542 24.3368 17.1834C25.9076 15.6126 28.0373 14.729 30.2588 14.7266V14.7266Z" fill="#D4E1F4"/>
<path d="M114.975 88.4201H30.2588C28.0373 88.4176 25.9075 87.5341 24.3367 85.9633C22.7659 84.3924 21.8823 82.2626 21.8799 80.0412V77.9284H14.2627V85.1193C14.2651 87.3408 15.1487 89.4706 16.7195 91.0414C18.2903 92.6122 20.4201 93.4958 22.6416 93.4982H107.357C108.997 93.4965 110.6 93.0144 111.969 92.1116C113.338 91.2087 114.412 89.9247 115.059 88.418C115.03 88.4183 115.003 88.4201 114.975 88.4201Z" fill="#D4E1F4"/>
<path d="M22.6416 97.0529H63.2222V115.273H44.0203C43.5489 115.273 43.0968 115.461 42.7635 115.794C42.4302 116.127 42.2429 116.579 42.2429 117.051C42.2429 117.522 42.4302 117.974 42.7635 118.308C43.0968 118.641 43.5489 118.828 44.0203 118.828H87.1935C87.6649 118.828 88.1169 118.641 88.4502 118.308C88.7836 117.974 88.9708 117.522 88.9708 117.051C88.9708 116.579 88.7836 116.127 88.4502 115.794C88.1169 115.461 87.6649 115.273 87.1935 115.273H66.7769V97.0529H107.357C110.521 97.0493 113.555 95.7909 115.792 93.5537C118.029 91.3165 119.287 88.2832 119.291 85.1193V23.1055C119.287 19.9416 118.029 16.9083 115.792 14.6711C113.555 12.4339 110.521 11.1754 107.357 11.1719H22.6416C19.4777 11.1754 16.4444 12.4339 14.2072 14.6711C11.97 16.9083 10.7116 19.9416 10.708 23.1055V85.1193C10.7116 88.2832 11.97 91.3165 14.2072 93.5537C16.4444 95.7909 19.4777 97.0493 22.6416 97.0529V97.0529ZM14.2627 23.1055C14.2652 20.884 15.1488 18.7543 16.7196 17.1835C18.2904 15.6127 20.4202 14.7291 22.6416 14.7266H107.357C109.579 14.7291 111.709 15.6127 113.279 17.1835C114.85 18.7543 115.734 20.884 115.736 23.1055V74.3737H14.2627V23.1055ZM14.2627 77.9276H115.736V85.1185C115.734 87.34 114.85 89.4697 113.279 91.0405C111.709 92.6113 109.579 93.4949 107.357 93.4974H22.6416C20.4202 93.4949 18.2904 92.6113 16.7196 91.0405C15.1488 89.4697 14.2652 87.34 14.2627 85.1185V77.9276Z" fill="#1973E7"/>
<path d="M43.418 57.8906H21.8359C21.3646 57.8906 20.9125 58.0779 20.5792 58.4112C20.2458 58.7445 20.0586 59.1966 20.0586 59.668C20.0586 60.1393 20.2458 60.5914 20.5792 60.9247C20.9125 61.2581 21.3646 61.4453 21.8359 61.4453H43.418C43.8893 61.4453 44.3414 61.2581 44.6747 60.9247C45.0081 60.5914 45.1953 60.1393 45.1953 59.668C45.1953 59.1966 45.0081 58.7445 44.6747 58.4112C44.3414 58.0779 43.8893 57.8906 43.418 57.8906V57.8906Z" fill="#1973E7"/>
<path d="M36.0547 65.5078H21.8359C21.3646 65.5078 20.9125 65.6951 20.5792 66.0284C20.2458 66.3617 20.0586 66.8138 20.0586 67.2852C20.0586 67.7565 20.2458 68.2086 20.5792 68.5419C20.9125 68.8752 21.3646 69.0625 21.8359 69.0625H36.0547C36.5261 69.0625 36.9781 68.8752 37.3115 68.5419C37.6448 68.2086 37.832 67.7565 37.832 67.2852C37.832 66.8138 37.6448 66.3617 37.3115 66.0284C36.9781 65.6951 36.5261 65.5078 36.0547 65.5078Z" fill="#1973E7"/>
<path d="M70.2471 52.9443H67.4668C66.9954 52.9443 66.5433 53.1315 66.21 53.4648C65.8767 53.7982 65.6895 54.2502 65.6895 54.7216C65.6895 55.193 65.8767 55.6451 66.21 55.9784C66.5433 56.3117 66.9954 56.499 67.4668 56.499H70.2471C70.7185 56.499 71.1705 56.3117 71.5038 55.9784C71.8372 55.6451 72.0244 55.193 72.0244 54.7216C72.0244 54.2502 71.8372 53.7982 71.5038 53.4648C71.1705 53.1315 70.7185 52.9443 70.2471 52.9443V52.9443Z" fill="#1973E7"/>
<path d="M101.048 52.9443H98.2676C97.7962 52.9443 97.3441 53.1315 97.0108 53.4648C96.6775 53.7982 96.4902 54.2502 96.4902 54.7216C96.4902 55.193 96.6775 55.6451 97.0108 55.9784C97.3441 56.3117 97.7962 56.499 98.2676 56.499H101.048C101.519 56.499 101.971 56.3117 102.305 55.9784C102.638 55.6451 102.825 55.193 102.825 54.7216C102.825 54.2502 102.638 53.7982 102.305 53.4648C101.971 53.1315 101.519 52.9443 101.048 52.9443V52.9443Z" fill="#1973E7"/>
<path d="M79.8096 27.0753H87.316C87.7874 27.0753 88.2395 26.8881 88.5728 26.5547C88.9061 26.2214 89.0934 25.7694 89.0934 25.298C89.0934 24.8266 88.9061 24.3745 88.5728 24.0412C88.2395 23.7079 87.7874 23.5206 87.316 23.5206H79.8096C79.3382 23.5206 78.8861 23.7079 78.5528 24.0412C78.2195 24.3745 78.0322 24.8266 78.0322 25.298C78.0322 25.7694 78.2195 26.2214 78.5528 26.5547C78.8861 26.8881 79.3382 27.0753 79.8096 27.0753V27.0753Z" fill="#1973E7"/>
<path d="M34.0696 54.8516C36.4456 54.8515 38.7824 54.2471 40.8605 53.0954C42.9386 51.9437 44.6897 50.2824 45.9492 48.2677C47.2087 46.2531 47.9351 43.9513 48.0603 41.5786C48.1854 39.206 47.7052 36.8405 46.6647 34.7046C45.6241 32.5686 44.0575 30.7323 42.1121 29.3683C40.1667 28.0044 37.9064 27.1575 35.5437 26.9074C33.181 26.6573 30.7934 27.0121 28.6056 27.9385C26.4177 28.8649 24.5013 30.3325 23.0367 32.2032C20.9694 34.8444 19.9181 38.1395 20.0737 41.49C20.2293 44.8404 21.5815 48.0239 23.8847 50.4621C25.1965 51.8456 26.7757 52.948 28.5265 53.7026C30.2773 54.4572 32.1632 54.8481 34.0696 54.8516V54.8516ZM25.8342 34.3967C27.3585 32.4482 29.5243 31.1032 31.9467 30.6007C34.3691 30.0982 36.8911 30.4708 39.0647 31.6523C41.2383 32.8338 42.9227 34.7476 43.8185 37.0536C44.7142 39.3597 44.7634 41.9087 43.9573 44.2476C43.1512 46.5865 41.542 48.5639 39.4156 49.8284C37.2892 51.0928 34.7834 51.5625 32.3434 51.1539C29.9035 50.7452 27.6874 49.4848 26.089 47.5966C24.4906 45.7083 23.6134 43.3145 23.6133 40.8406C23.6089 38.5042 24.3912 36.2343 25.8342 34.3967V34.3967Z" fill="#FFBA08"/>
<path d="M30.7672 44.7764C31.0686 45.1293 31.496 45.3503 31.9582 45.3922C32.4203 45.4342 32.8806 45.2937 33.2405 45.0008L40.0785 39.4377C40.442 39.1396 40.6725 38.7095 40.7197 38.2418C40.7668 37.774 40.6267 37.3066 40.33 36.9419C40.0333 36.5772 39.6042 36.3449 39.1366 36.2959C38.6691 36.2469 38.2011 36.3851 37.8352 36.6803L32.3435 41.1491L30.5344 39.0305C30.3828 38.853 30.1978 38.7071 29.9898 38.6011C29.7818 38.4951 29.555 38.4311 29.3223 38.4128C29.0896 38.3944 28.8556 38.4221 28.6336 38.4942C28.4116 38.5663 28.206 38.6815 28.0285 38.8331C27.851 38.9846 27.7051 39.1697 27.5991 39.3777C27.4931 39.5856 27.4291 39.8124 27.4108 40.0451C27.3737 40.5151 27.5249 40.9805 27.8311 41.339L30.7672 44.7764Z" fill="#FFBA08"/>
<path d="M83.5352 49.317C83.9128 49.3172 84.2805 49.1966 84.5846 48.9729L92.9254 42.8563C93.3055 42.5774 93.5592 42.159 93.6308 41.693C93.7023 41.2271 93.5858 40.7518 93.3069 40.3717C93.028 39.9917 92.6096 39.738 92.1436 39.6664C91.6777 39.5949 91.2024 39.7114 90.8223 39.9902L82.4815 46.1068C82.1794 46.3286 81.9551 46.6402 81.8407 46.9971C81.7263 47.354 81.7276 47.7379 81.8445 48.0939C81.9614 48.45 82.1878 48.76 82.4915 48.9797C82.7951 49.1994 83.1605 49.3174 83.5352 49.317V49.317Z" fill="#FFBA08"/>
<path d="M64.5486 70.1957H68.7068C69.5467 70.1946 70.3519 69.8604 70.9457 69.2664C71.5396 68.6724 71.8735 67.8671 71.8743 67.0272V61.4763H68.3196V66.641H64.9355V61.4763H61.3809V67.0272C61.3817 67.8671 61.7157 68.6724 62.3096 69.2664C62.9034 69.8604 63.7087 70.1946 64.5486 70.1957V70.1957Z" fill="#FFBA08"/>
<path d="M98.4185 70.1957H102.576C103.416 70.1946 104.221 69.8604 104.815 69.2664C105.409 68.6724 105.743 67.8671 105.744 67.0272V61.4763H102.189V66.641H98.8057V61.4763H95.251V67.0272C95.2518 67.8671 95.5857 68.6724 96.1795 69.2664C96.7734 69.8604 97.5785 70.1946 98.4185 70.1957V70.1957Z" fill="#FFBA08"/>
<path d="M107.684 45.7623H107.199L104.39 36.4643C103.97 35.0519 103.103 33.8136 101.92 32.9352C100.737 32.0568 99.3008 31.5854 97.8272 31.5918H69.2978C67.8243 31.5854 66.3883 32.0567 65.2052 32.9352C64.0222 33.8136 63.1556 35.0519 62.7356 36.4643L59.9259 45.7623H59.4414C58.297 45.7636 57.1999 46.2188 56.3907 47.028C55.5815 47.8372 55.1263 48.9343 55.125 50.0787V59.2465C55.1263 60.3909 55.5815 61.488 56.3907 62.2973C57.1999 63.1065 58.297 63.5616 59.4414 63.5629H107.684C108.828 63.5616 109.925 63.1065 110.734 62.2973C111.544 61.488 111.999 60.3909 112 59.2465V50.0787C111.999 48.9343 111.544 47.8372 110.734 47.028C109.925 46.2188 108.828 45.7636 107.684 45.7623V45.7623ZM66.1382 37.4926C66.3405 36.8125 66.7577 36.2164 67.3273 35.7934C67.8969 35.3704 68.5883 35.1434 69.2978 35.1465H97.8272C98.5367 35.1434 99.2281 35.3704 99.7977 35.7934C100.367 36.2164 100.785 36.8125 100.987 37.4926L103.486 45.7623H63.6392L66.1382 37.4926ZM108.445 59.2465C108.445 59.4485 108.365 59.6423 108.222 59.7851C108.079 59.928 107.886 60.0082 107.684 60.0082H59.4414C59.2394 60.0082 59.0456 59.928 58.9028 59.7851C58.7599 59.6423 58.6797 59.4485 58.6797 59.2465V50.0787C58.6797 49.8767 58.7599 49.6829 58.9028 49.5401C59.0456 49.3972 59.2394 49.317 59.4414 49.317H107.684C107.886 49.317 108.079 49.3972 108.222 49.5401C108.365 49.6829 108.445 49.8767 108.445 50.0787V59.2465Z" fill="#1973E7"/>
</svg>
