<svg width="60" height="60" viewBox="0 0 60 60" fill="none" xmlns="http://www.w3.org/2000/svg">
<path d="M9.96094 48.5156V9.14062C9.96168 8.48817 10.2212 7.86266 10.6826 7.4013C11.1439 6.93995 11.7694 6.68043 12.4219 6.67969H25.6641V4.33594H10.0781C9.42567 4.33668 8.80016 4.5962 8.3388 5.05755C7.87745 5.51891 7.61793 6.14442 7.61719 6.79688V46.1719C7.61821 46.8046 7.86284 47.4127 8.3003 47.8699C8.73776 48.3271 9.33446 48.5983 9.96656 48.6272C9.96492 48.5899 9.96094 48.5532 9.96094 48.5156Z" fill="#D4E1F4"/>
<path d="M12.0703 38.3203C11.8528 38.3203 11.6441 38.4067 11.4903 38.5606C11.3364 38.7144 11.25 38.9231 11.25 39.1406C11.25 39.3582 11.3364 39.5668 11.4903 39.7207C11.6441 39.8745 11.8528 39.9609 12.0703 39.9609H28.9453C29.1629 39.9609 29.3715 39.8745 29.5254 39.7207C29.6792 39.5668 29.7656 39.3582 29.7656 39.1406C29.7656 38.9231 29.6792 38.7144 29.5254 38.5606C29.3715 38.4067 29.1629 38.3203 28.9453 38.3203H12.0703Z" fill="#FFBA08"/>
<path d="M25.4297 43.125C25.4297 42.9074 25.3433 42.6988 25.1894 42.545C25.0356 42.3911 24.8269 42.3047 24.6094 42.3047H12.0703C11.8528 42.3047 11.6441 42.3911 11.4903 42.545C11.3364 42.6988 11.25 42.9074 11.25 43.125C11.25 43.3426 11.3364 43.5512 11.4903 43.705C11.6441 43.8589 11.8528 43.9453 12.0703 43.9453H24.6094C24.8269 43.9453 25.0356 43.8589 25.1894 43.705C25.3433 43.5512 25.4297 43.3426 25.4297 43.125V43.125Z" fill="#FFBA08"/>
<path d="M32.0189 35.4038C32.3747 35.4034 32.7159 35.2619 32.9675 35.0103C33.2191 34.7586 33.3607 34.4175 33.3611 34.0617V32.8409C33.6929 32.7041 33.9783 32.4745 34.183 32.1797C34.3877 31.8848 34.5031 31.5372 34.5154 31.1785L35.1491 26.3842C35.1538 26.3486 35.1562 26.3127 35.1562 26.2768C35.1563 24.8876 34.2295 23.7264 33.004 23.4656L31.1621 20.0706C30.5115 18.904 29.5511 17.5651 27.8852 17.5651H18.6088C17.2637 17.5651 16.0868 18.4589 15.2924 20.0825L13.3902 23.4531C12.1562 23.705 11.25 24.8547 11.25 26.2768C11.25 26.3112 11.2522 26.3455 11.2566 26.3797L11.8636 31.1758C11.8757 31.5398 11.994 31.8923 12.2039 32.1899C12.4139 32.4875 12.7063 32.7171 13.0452 32.8505V34.0617C13.0456 34.4175 13.1871 34.7586 13.4387 35.0103C13.6904 35.2619 14.0315 35.4034 14.3873 35.4038H15.972C16.3278 35.4034 16.6689 35.2619 16.9205 35.0103C17.1722 34.7586 17.3137 34.4175 17.3141 34.0617V32.981H29.0921V34.0617C29.0926 34.4175 29.2341 34.7586 29.4857 35.0103C29.7373 35.2619 30.0785 35.4034 30.4343 35.4038H32.0189ZM31.7204 33.7632H30.7328V32.981H31.7204V33.7632ZM16.7334 20.8672C16.7418 20.8523 16.7497 20.8373 16.7569 20.8219C17.0498 20.2183 17.6793 19.2057 18.6084 19.2057H27.8849C28.527 19.2057 29.0784 19.7034 29.7247 20.8614L31.1075 23.4098H30.3497C30.1838 22.7699 29.8101 22.2032 29.2873 21.7986C28.7644 21.3941 28.1221 21.1745 27.461 21.1745C26.7999 21.1745 26.1576 21.3941 25.6348 21.7986C25.1119 22.2032 24.7383 22.7699 24.5723 23.4098H15.2986L16.7334 20.8672ZM28.5754 23.4101H26.346C26.4687 23.2272 26.6346 23.0772 26.829 22.9735C27.0234 22.8698 27.2403 22.8155 27.4607 22.8155C27.681 22.8155 27.8979 22.8698 28.0923 22.9735C28.2867 23.0772 28.4526 23.2272 28.5754 23.4101V23.4101ZM15.673 33.7635H14.6854V32.9813H15.673V33.7635ZM13.7263 31.3407C13.6673 31.3399 13.6109 31.3161 13.5692 31.2743C13.5275 31.2326 13.5037 31.1762 13.5029 31.1172C13.5029 31.0828 13.5007 31.0484 13.4964 31.0142L12.8909 26.2311C12.9087 25.6621 13.256 25.0907 13.8302 25.0465C13.8512 25.0482 13.8721 25.0508 13.8933 25.0508H32.4708C32.4745 25.0508 32.4783 25.0508 32.4825 25.0508C33.1036 25.0508 33.4945 25.6533 33.5152 26.229L32.8828 31.0094C32.8781 31.045 32.8757 31.0809 32.8757 31.1169C32.8749 31.1759 32.8511 31.2322 32.8095 31.274C32.7678 31.3157 32.7114 31.3395 32.6524 31.3403L13.7263 31.3407Z" fill="white"/>
<path d="M26.3371 28.341H20.0693C19.8517 28.341 19.6431 28.4274 19.4893 28.5812C19.3354 28.7351 19.249 28.9437 19.249 29.1613C19.249 29.3788 19.3354 29.5875 19.4893 29.7413C19.6431 29.8952 19.8517 29.9816 20.0693 29.9816H26.3371C26.5546 29.9816 26.7633 29.8952 26.9171 29.7413C27.071 29.5875 27.1574 29.3788 27.1574 29.1613C27.1574 28.9437 27.071 28.7351 26.9171 28.5812C26.7633 28.4274 26.5546 28.341 26.3371 28.341V28.341Z" fill="white"/>
<path d="M32.3113 50.2734V48.6328H10.0781C9.42567 48.6321 8.80016 48.3726 8.3388 47.9112C7.87745 47.4498 7.61793 46.8243 7.61719 46.1719V6.79688C7.61793 6.14442 7.87745 5.51891 8.3388 5.05755C8.80016 4.5962 9.42567 4.33668 10.0781 4.33594H25.6641V13.3594C25.6653 14.4468 26.0978 15.4893 26.8668 16.2582C27.6357 17.0272 28.6782 17.4597 29.7656 17.4609H38.7891V35.2924H40.4297V16.6406C40.4297 16.5329 40.4085 16.4262 40.3673 16.3267C40.326 16.2272 40.2656 16.1367 40.1895 16.0605L27.0645 2.93555C26.9883 2.85938 26.8978 2.79896 26.7983 2.75774C26.6988 2.71652 26.5921 2.6953 26.4844 2.69531H10.0781C8.9907 2.69655 7.94818 3.12908 7.17925 3.898C6.41033 4.66693 5.9778 5.70945 5.97656 6.79688V46.1719C5.9778 47.2593 6.41033 48.3018 7.17925 49.0707C7.94818 49.8397 8.9907 50.2722 10.0781 50.2734H32.3113ZM27.3047 13.3594V5.49609L37.6289 15.8203H29.7656C29.1132 15.8196 28.4877 15.5601 28.0263 15.0987C27.5649 14.6373 27.3054 14.0118 27.3047 13.3594Z" fill="white"/>
<path d="M42.4218 37.2748C42.2043 37.2748 41.9956 37.3612 41.8418 37.515C41.688 37.6689 41.6015 37.8775 41.6015 38.0951V39.0767C40.6489 39.2796 39.805 39.8279 39.2327 40.6161C38.6604 41.4042 38.4001 42.3763 38.502 43.345C38.6039 44.3137 39.0608 45.2104 39.7846 45.8622C40.5084 46.514 41.4478 46.8748 42.4218 46.875C43.0322 46.8722 43.6186 47.1119 44.0522 47.5414C44.4858 47.9709 44.731 48.5551 44.7338 49.1654C44.7367 49.7758 44.497 50.3622 44.0675 50.7958C43.6379 51.2294 43.0537 51.4746 42.4434 51.4774C42.4361 51.4774 42.4291 51.4764 42.4218 51.4764C42.4146 51.4764 42.4076 51.4772 42.4003 51.4774C41.7939 51.4712 41.2145 51.2262 40.7876 50.7955C40.3607 50.3648 40.1209 49.7832 40.1201 49.1768C40.1201 48.9593 40.0336 48.7506 39.8798 48.5968C39.7259 48.4429 39.5173 48.3565 39.2997 48.3565C39.0822 48.3565 38.8735 48.4429 38.7197 48.5968C38.5659 48.7506 38.4794 48.9593 38.4794 49.1768C38.4807 50.0796 38.7913 50.9547 39.3593 51.6563C39.9274 52.358 40.7188 52.8438 41.6015 53.0329V54.1565C41.6015 54.374 41.688 54.5827 41.8418 54.7365C41.9956 54.8903 42.2043 54.9768 42.4218 54.9768C42.6394 54.9768 42.8481 54.8903 43.0019 54.7365C43.1557 54.5827 43.2422 54.374 43.2422 54.1565V53.0329C44.1952 52.8303 45.0394 52.2821 45.612 51.4938C46.1847 50.7056 46.4452 49.7332 46.3433 48.7643C46.2413 47.7953 45.7842 46.8985 45.0601 46.2466C44.336 45.5948 43.3961 45.2342 42.4218 45.2344C41.9666 45.2344 41.5216 45.0994 41.143 44.8465C40.7645 44.5936 40.4695 44.2341 40.2953 43.8135C40.1211 43.3929 40.0755 42.9301 40.1643 42.4836C40.2531 42.0371 40.4723 41.6269 40.7942 41.305C41.1161 40.9831 41.5262 40.7639 41.9727 40.675C42.4192 40.5862 42.882 40.6318 43.3026 40.806C43.7232 40.9802 44.0827 41.2752 44.3357 41.6537C44.5886 42.0322 44.7236 42.4772 44.7236 42.9325C44.7236 43.15 44.8101 43.3587 44.9639 43.5125C45.1177 43.6664 45.3264 43.7528 45.544 43.7528C45.7615 43.7528 45.9702 43.6664 46.124 43.5125C46.2778 43.3587 46.3643 43.15 46.3643 42.9325C46.3629 42.0297 46.0524 41.1547 45.4843 40.4531C44.9162 39.7515 44.1249 39.2657 43.2422 39.0767V38.0951C43.2422 37.8775 43.1557 37.6689 43.0019 37.515C42.8481 37.3612 42.6394 37.2748 42.4218 37.2748V37.2748Z" fill="#FFBA08"/>
<path d="M13.5469 28.5994C13.5469 29.0323 13.6753 29.4555 13.9158 29.8154C14.1563 30.1754 14.4982 30.4559 14.8981 30.6216C15.2981 30.7873 15.7382 30.8306 16.1628 30.7461C16.5874 30.6617 16.9774 30.4532 17.2835 30.1471C17.5896 29.8409 17.7981 29.4509 17.8825 29.0263C17.9669 28.6017 17.9236 28.1616 17.7579 27.7617C17.5922 27.3617 17.3116 27.0199 16.9517 26.7794C16.5917 26.5389 16.1685 26.4105 15.7356 26.4106C15.1553 26.4113 14.599 26.6421 14.1887 27.0524C13.7784 27.4628 13.5476 28.0191 13.5469 28.5994V28.5994ZM16.2838 28.5994C16.2838 28.7078 16.2517 28.8138 16.1914 28.9039C16.1312 28.9941 16.0456 29.0644 15.9454 29.1059C15.8452 29.1473 15.735 29.1582 15.6287 29.137C15.5223 29.1159 15.4246 29.0637 15.348 28.987C15.2713 28.9104 15.2191 28.8127 15.1979 28.7063C15.1768 28.6 15.1876 28.4898 15.2291 28.3896C15.2706 28.2894 15.3409 28.2038 15.431 28.1436C15.5212 28.0833 15.6272 28.0512 15.7356 28.0512C15.8809 28.0514 16.0202 28.1093 16.1229 28.212C16.2256 28.3148 16.2834 28.4541 16.2836 28.5994H16.2838Z" fill="#FFBA08"/>
<path d="M28.4822 28.5994C28.4822 29.0323 28.6106 29.4555 28.8511 29.8154C29.0916 30.1754 29.4335 30.4559 29.8334 30.6216C30.2334 30.7873 30.6735 30.8306 31.0981 30.7461C31.5227 30.6617 31.9127 30.4532 32.2188 30.1471C32.5249 29.841 32.7334 29.451 32.8178 29.0264C32.9023 28.6018 32.8589 28.1617 32.6933 27.7618C32.5276 27.3618 32.2471 27.0199 31.8871 26.7794C31.5271 26.5389 31.104 26.4106 30.6711 26.4106C30.0907 26.4112 29.5344 26.6421 29.1241 27.0524C28.7137 27.4627 28.4829 28.0191 28.4822 28.5994V28.5994ZM31.2191 28.5994C31.2191 28.7078 31.187 28.8138 31.1267 28.904C31.0665 28.9941 30.9809 29.0644 30.8807 29.1059C30.7805 29.1473 30.6703 29.1582 30.5639 29.137C30.4576 29.1159 30.3599 29.0637 30.2833 28.987C30.2066 28.9103 30.1544 28.8126 30.1332 28.7063C30.1121 28.5999 30.123 28.4897 30.1645 28.3895C30.206 28.2893 30.2763 28.2037 30.3665 28.1435C30.4566 28.0833 30.5626 28.0512 30.6711 28.0512C30.8163 28.0515 30.9555 28.1093 31.0582 28.2121C31.1609 28.3148 31.2186 28.4541 31.2188 28.5994H31.2191Z" fill="#FFBA08"/>
<path d="M42.4219 34.1016C40.1273 34.1016 37.8843 34.782 35.9764 36.0568C34.0685 37.3316 32.5815 39.1435 31.7034 41.2634C30.8253 43.3833 30.5956 45.716 31.0432 47.9665C31.4909 50.217 32.5958 52.2842 34.2183 53.9067C35.8408 55.5292 37.908 56.6341 40.1585 57.0818C42.409 57.5294 44.7417 57.2997 46.8616 56.4216C48.9815 55.5435 50.7934 54.0565 52.0682 52.1486C53.343 50.2407 54.0234 47.9977 54.0234 45.7031C54.0141 42.629 52.7889 39.6835 50.6152 37.5098C48.4415 35.3361 45.4959 34.1108 42.4219 34.1016V34.1016ZM42.4219 55.6641C40.4518 55.6641 38.5259 55.0799 36.8879 53.9853C35.2498 52.8908 33.9731 51.3351 33.2192 49.515C32.4652 47.6949 32.268 45.6921 32.6523 43.7598C33.0367 41.8276 33.9854 40.0527 35.3784 38.6597C36.7715 37.2666 38.5464 36.3179 40.4786 35.9336C42.4108 35.5492 44.4136 35.7465 46.2338 36.5004C48.0539 37.2543 49.6096 38.5311 50.7041 40.1691C51.7986 41.8072 52.3828 43.733 52.3828 45.7031C52.3797 48.344 51.3292 50.8758 49.4619 52.7431C47.5945 54.6105 45.0627 55.6609 42.4219 55.6641V55.6641Z" fill="white"/>
</svg>
