<svg width="60" height="60" viewBox="0 0 60 60" fill="none" xmlns="http://www.w3.org/2000/svg">
<path d="M45.692 53.4727C36.4675 53.4727 28.963 45.9681 28.963 36.7437C28.9584 33.56 29.8655 30.4416 31.5769 27.7571C33.2884 25.0726 35.7327 22.9342 38.6209 21.5947C34.8488 22.3675 31.4597 24.4201 29.0273 27.4049C26.5949 30.3897 25.2687 34.1234 25.2732 37.9738C25.2732 47.1982 32.7778 54.7028 42.0022 54.7028C44.4508 54.7053 46.8698 54.167 49.0863 53.1264C47.9696 53.3571 46.8322 53.4731 45.692 53.4727Z" fill="#D4E1F4"/>
<path d="M15.047 12.6872C15.0555 12.6719 15.0636 12.656 15.0712 12.6403C15.8135 11.0803 17.4485 8.46049 20.0584 8.44139L43.2561 8.27041H43.2854C43.8911 8.26801 44.4877 8.41787 45.0204 8.70623C43.671 6.71709 42.3806 5.84229 40.8573 5.84229H40.828L17.6306 6.01303C15.0207 6.03225 13.3857 8.65197 12.6435 10.212C12.6358 10.2279 12.6277 10.2437 12.6192 10.2588L8.64197 17.43L12.4323 17.402L15.047 12.6872Z" fill="#D4E1F4"/>
<path d="M8.3242 35.0014C8.04165 34.7145 7.88254 34.3284 7.88088 33.9256C7.88061 33.8888 7.87811 33.852 7.87338 33.8155L6.43362 22.7212C6.43901 20.9 7.38753 19.6332 8.53936 19.1303L7.19956 19.1402H7.19335C7.1469 19.1398 7.10057 19.1355 7.05483 19.1274C5.52741 19.2294 4.01229 20.602 4.00549 22.8322L5.44526 33.5741C5.44998 33.6094 5.45248 33.6451 5.45276 33.6807C5.45743 34.0709 5.61522 34.4436 5.89213 34.7185C6.16904 34.9934 6.54288 35.1485 6.93307 35.1504H6.94409L8.481 35.1386C8.42568 35.0965 8.37329 35.0507 8.3242 35.0014V35.0014Z" fill="#D4E1F4"/>
<path d="M39.0678 12.6108H39.0262C37.5719 12.6216 36.1815 13.2096 35.1607 14.2455C34.14 15.2814 33.5726 16.6803 33.5833 18.1346C33.5849 18.3511 33.672 18.5582 33.8257 18.7107C33.9794 18.8632 34.1871 18.9488 34.4036 18.9488H34.4098C34.5175 18.948 34.624 18.926 34.7233 18.884C34.8225 18.8421 34.9125 18.781 34.9881 18.7042C35.0637 18.6275 35.1234 18.5366 35.1639 18.4368C35.2044 18.337 35.2248 18.2301 35.224 18.1224C35.2166 17.1033 35.6142 16.1229 36.3296 15.397C37.0449 14.671 38.0193 14.259 39.0385 14.2515H39.0677C40.0818 14.2517 41.0547 14.6528 41.7744 15.3673C42.494 16.0819 42.902 17.0519 42.9094 18.066C42.911 18.2825 42.9982 18.4896 43.1518 18.6421C43.3055 18.7947 43.5132 18.8803 43.7297 18.8803H43.7359C43.9535 18.8786 44.1615 18.7907 44.3142 18.6357C44.4669 18.4808 44.5517 18.2715 44.5502 18.054C44.5395 16.6069 43.9572 15.2227 42.9303 14.2031C41.9034 13.1835 40.5151 12.6112 39.068 12.6108H39.0678Z" fill="#FFBA08"/>
<path d="M10.5005 23.7573H10.4771C9.64391 23.7644 8.84744 24.1011 8.26185 24.6939C7.67626 25.2866 7.3492 26.0871 7.35219 26.9203C7.35518 27.7535 7.68798 28.5516 8.27781 29.1401C8.86763 29.7286 9.66649 30.0596 10.4997 30.0607H10.5231C11.3564 30.0536 12.1529 29.7168 12.7384 29.124C13.324 28.5312 13.651 27.7306 13.6479 26.8974C13.6448 26.0641 13.3119 25.266 12.7219 24.6776C12.1319 24.0891 11.333 23.7583 10.4997 23.7573H10.5005ZM10.5113 28.4201C10.1106 28.423 9.72506 28.2667 9.43961 27.9854C9.15416 27.7041 8.99215 27.3209 8.98921 26.9202C8.98628 26.5194 9.14265 26.1339 9.42395 25.8485C9.70524 25.563 10.0884 25.401 10.4892 25.3981H10.5009C10.8995 25.3998 11.2814 25.5591 11.5632 25.8411C11.8449 26.1231 12.0039 26.5051 12.0053 26.9037C12.0067 27.3024 11.8506 27.6855 11.5708 27.9695C11.2911 28.2536 10.9104 28.4156 10.5118 28.4202L10.5113 28.4201Z" fill="white"/>
<path d="M54.7319 22.6523C54.7364 22.6167 54.7385 22.5807 54.7383 22.5448C54.7372 21.2185 54.2559 19.9374 53.3834 18.9386C53.1588 18.6842 52.9084 18.4536 52.6364 18.2507L55.5059 18.2285C55.617 18.2277 55.7267 18.2043 55.8284 18.1598C55.9302 18.1153 56.0218 18.0506 56.0978 17.9697C56.1738 17.8887 56.2326 17.7931 56.2706 17.6888C56.3085 17.5845 56.3249 17.4735 56.3188 17.3626C56.2641 16.6758 56.1244 15.9985 55.9029 15.3461C55.4179 13.9263 53.9236 13.014 52.0891 13.014H52.0481C50.936 13.0222 48.9207 13.0298 47.9987 13.0331L46.155 9.69328C44.8677 7.42453 42.9977 4.8252 39.9245 4.8252H39.8843L17.4925 4.99031C14.9688 5.00883 12.742 6.77156 11.2204 9.95578L9.34673 13.3341C8.42693 13.339 6.38798 13.3501 5.26157 13.3584C3.40849 13.372 1.90907 14.3096 1.44126 15.7471C1.22943 16.4026 1.09973 17.0819 1.05513 17.7694C1.05061 17.8799 1.06848 17.9901 1.10765 18.0935C1.14683 18.1969 1.2065 18.2913 1.28309 18.3711C1.35968 18.4508 1.45161 18.5143 1.55334 18.5576C1.65507 18.6009 1.76451 18.6232 1.87509 18.6232H1.88224L4.70646 18.5988C4.44179 18.8067 4.19947 19.0416 3.98341 19.2996C3.14249 20.3198 2.69195 21.6058 2.71239 22.9277C2.71265 22.9622 2.71507 22.9966 2.71966 23.0307L4.11056 33.405C4.12981 34.1185 4.3967 34.8031 4.86546 35.3414C5.33423 35.8797 5.97567 36.2381 6.67978 36.3552L6.70427 39.6771C6.70813 40.1904 6.91469 40.6813 7.27894 41.0429C7.64319 41.4046 8.1356 41.6076 8.64888 41.6078H8.66364L12.0787 41.5826C12.5944 41.5782 13.0873 41.3694 13.4492 41.0021C13.8111 40.6348 14.0126 40.1389 14.0094 39.6232L13.9852 36.3464L23.8391 36.2738C23.8064 36.7125 23.7897 37.1535 23.789 37.5968C23.789 47.2894 31.6745 55.1749 41.3672 55.1749C51.0599 55.1749 58.9453 47.2895 58.9453 37.5968C58.9575 33.2077 57.3155 28.9752 54.3464 25.7428L54.7319 22.6523ZM52.06 14.6546H52.0878C53.1927 14.6546 54.0998 15.1437 54.3502 15.8766C54.4302 16.1122 54.4967 16.3521 54.5495 16.5953L49.9848 16.6304L48.9024 14.6701C49.9084 14.6661 51.2332 14.6602 52.0602 14.6543L52.06 14.6546ZM12.6674 10.7296C12.6757 10.7147 12.6834 10.6995 12.6908 10.6841C13.4072 9.17824 14.9853 6.64945 17.5046 6.63094L39.8963 6.46594H39.9246C41.6853 6.46594 43.1238 7.67555 44.7235 10.4947L48.513 17.359L8.82829 17.652L12.6674 10.7296ZM2.81376 16.9745C2.86259 16.7311 2.92519 16.4908 3.00126 16.2545C3.24278 15.5118 4.15568 15.0073 5.27306 14.9991C6.10204 14.993 7.42603 14.9852 8.43349 14.9797L7.34892 16.9351L2.81376 16.9745ZM12.067 39.942L8.65181 39.9672C8.6117 39.9684 8.57177 39.9613 8.53459 39.9462C8.49741 39.9311 8.46381 39.9084 8.43595 39.8795C8.40746 39.8515 8.38479 39.8181 8.36922 39.7813C8.35366 39.7445 8.34551 39.705 8.34525 39.665L8.3211 36.3881L12.345 36.3585L12.3691 39.6354C12.3696 39.7161 12.3381 39.7937 12.2814 39.8511C12.2248 39.9086 12.1477 39.9413 12.067 39.942V39.942ZM24.039 34.6316L7.18954 34.7557H7.17888C6.80224 34.7539 6.44138 34.6042 6.17408 34.3389C5.90678 34.0735 5.75444 33.7138 5.74989 33.3371C5.74951 33.3028 5.74697 33.2684 5.74228 33.2344L4.35255 22.8663C4.35071 21.9521 4.66396 21.0651 5.23954 20.3548C5.48988 20.0444 5.80201 19.7895 6.15613 19.6062C6.51024 19.4229 6.89859 19.3152 7.29653 19.29C7.34047 19.2976 7.38496 19.3015 7.42954 19.3017H7.43564L49.8764 18.9891C49.8831 18.9891 49.8895 18.99 49.8961 18.99C50.3252 18.9883 50.7496 19.0801 51.1397 19.2589C51.5298 19.4377 51.8763 19.6993 52.1552 20.0255C52.7493 20.7163 53.0825 21.5935 53.0969 22.5046L52.8723 24.3057C50.5171 22.2636 47.661 20.8848 44.5971 20.3107C41.5332 19.7366 38.3717 19.988 35.437 21.0389C32.5022 22.0898 29.8999 23.9026 27.8969 26.2912C25.8939 28.6797 24.5624 31.5582 24.039 34.6311V34.6316ZM57.3048 37.5968C57.3048 46.3847 50.1553 53.5343 41.3673 53.5343C32.5793 53.5343 25.4298 46.3848 25.4298 37.5968C25.4298 33.3699 27.1089 29.3161 30.0978 26.3273C33.0866 23.3384 37.1404 21.6593 41.3673 21.6593C45.5942 21.6593 49.6479 23.3384 52.6368 26.3273C55.6257 29.3161 57.3048 33.3699 57.3048 37.5968V37.5968Z" fill="white"/>
<path d="M22.7835 24.0186H22.7773C22.6695 24.0194 22.563 24.0414 22.4638 24.0833C22.3646 24.1253 22.2746 24.1864 22.199 24.2631C22.1234 24.3399 22.0636 24.4307 22.0231 24.5306C21.9827 24.6304 21.9622 24.7372 21.963 24.845L21.979 26.9932C21.9806 27.2097 22.0677 27.4168 22.2214 27.5694C22.375 27.7219 22.5828 27.8075 22.7993 27.8075H22.8054C22.9131 27.8067 23.0196 27.7847 23.1189 27.7427C23.2181 27.7008 23.3081 27.6397 23.3837 27.5629C23.4593 27.4862 23.5191 27.3953 23.5596 27.2955C23.6001 27.1956 23.6205 27.0888 23.6197 26.9811L23.6038 24.8328C23.6022 24.6163 23.515 24.4092 23.3614 24.2567C23.2077 24.1041 23 24.0185 22.7835 24.0186Z" fill="#FFBA08"/>
<path d="M18.8203 27.8368H18.8264C18.9341 27.836 19.0406 27.814 19.1399 27.772C19.2391 27.7301 19.3291 27.669 19.4047 27.5922C19.4803 27.5155 19.5401 27.4246 19.5806 27.3248C19.6211 27.2249 19.6415 27.1181 19.6407 27.0104L19.6249 24.8621C19.6233 24.6456 19.5362 24.4385 19.3825 24.286C19.2288 24.1334 19.0211 24.0478 18.8046 24.0479H18.7984C18.6906 24.0486 18.5841 24.0707 18.4849 24.1126C18.3857 24.1546 18.2957 24.2157 18.2201 24.2924C18.1445 24.3692 18.0847 24.46 18.0443 24.5599C18.0038 24.6597 17.9834 24.7665 17.9842 24.8743L18 27.0225C18.0016 27.239 18.0887 27.4461 18.2424 27.5987C18.396 27.7512 18.6038 27.8368 18.8203 27.8368V27.8368Z" fill="#FFBA08"/>
<path d="M26.7627 23.9893H26.7565C26.6488 23.9901 26.5423 24.0121 26.443 24.054C26.3438 24.096 26.2538 24.1571 26.1782 24.2338C26.1026 24.3106 26.0429 24.4014 26.0024 24.5013C25.9619 24.6011 25.9415 24.7079 25.9423 24.8157L25.9581 26.9641C25.9597 27.1806 26.0468 27.3877 26.2005 27.5402C26.3542 27.6927 26.5619 27.7783 26.7784 27.7783H26.7846C26.8924 27.7775 26.9989 27.7555 27.0981 27.7135C27.1973 27.6716 27.2873 27.6105 27.3629 27.5337C27.4385 27.457 27.4983 27.3661 27.5387 27.2663C27.5792 27.1664 27.5996 27.0596 27.5988 26.9519L27.583 24.8035C27.5814 24.587 27.4943 24.3799 27.3406 24.2274C27.187 24.0748 26.9792 23.9893 26.7627 23.9893V23.9893Z" fill="#FFBA08"/>
<path d="M39.8768 46.4228C42.4774 46.425 44.992 45.4912 46.9609 43.792L50.9921 47.8233C51.1459 47.9771 51.3546 48.0635 51.5722 48.0635C51.7898 48.0635 51.9984 47.9771 52.1523 47.8233C52.3061 47.6694 52.3925 47.4608 52.3925 47.2432C52.3925 47.0256 52.3061 46.817 52.1523 46.6631L48.121 42.6319C49.7359 40.7502 50.6589 38.373 50.737 35.8947C50.815 33.4163 50.0434 30.9858 48.5502 29.0062C47.057 27.0267 44.9318 25.6171 42.5274 25.0114C40.1229 24.4057 37.5836 24.6403 35.3308 25.6762C33.0779 26.7121 31.247 28.487 30.1416 30.7066C29.0362 32.9262 28.7229 35.457 29.2536 37.8791C29.7844 40.3012 31.1272 42.4691 33.0594 44.0231C34.9916 45.5771 37.397 46.4238 39.8766 46.4228H39.8768ZM39.8768 26.3134C41.7031 26.3134 43.4885 26.855 45.0071 27.8697C46.5257 28.8843 47.7093 30.3266 48.4082 32.0139C49.1071 33.7013 49.29 35.558 48.9337 37.3493C48.5774 39.1406 47.6979 40.786 46.4064 42.0775C45.115 43.3689 43.4696 44.2484 41.6783 44.6047C39.887 44.961 38.0303 44.7781 36.3429 44.0792C34.6555 43.3803 33.2133 42.1967 32.1987 40.6781C31.184 39.1595 30.6424 37.3741 30.6424 35.5478C30.6452 33.0995 31.619 30.7524 33.3502 29.0212C35.0813 27.29 37.4285 26.3163 39.8768 26.3135V26.3134Z" fill="#FFBA08"/>
</svg>
