<svg width="60" height="60" viewBox="0 0 60 60" fill="none" xmlns="http://www.w3.org/2000/svg">
<path d="M10.8788 50.8628L9.02093 35.6284H6.39136L8.53507 53.2065H17.2478L16.5332 50.8628H10.8788Z" fill="#D4E1F4"/>
<path d="M50.2398 35.3803L45.9252 37.708L42.3576 40.1572C42.296 40.2867 42.2014 40.3976 42.0833 40.4787C41.9651 40.5599 41.8276 40.6083 41.6847 40.6193L37.7657 43.31C35.8887 44.221 33.7713 44.5139 31.7175 44.1467L22.966 42.5353C21.9635 42.289 20.9048 42.4331 20.0046 42.9383C19.9917 42.9454 19.9791 42.9531 19.9667 42.9609L16.5065 45.1483L17.2949 47.7345L21.1387 45.3047C21.1511 45.2968 21.1637 45.2892 21.1766 45.282C22.0768 44.7768 23.1355 44.6327 24.138 44.879L32.8895 46.4905C34.9433 46.8576 37.0607 46.5647 38.9377 45.6538L53.3433 35.7631C52.9301 35.3845 52.4091 35.1441 51.8528 35.0755C51.2965 35.0068 50.7327 35.1134 50.2398 35.3803V35.3803Z" fill="#D4E1F4"/>
<path d="M21.1205 11.1573C21.1258 11.1475 21.1309 11.1377 21.1356 11.1276C21.6022 10.1471 22.6299 8.50039 24.2704 8.48832L38.8519 8.38086H38.8703C39.251 8.3793 39.626 8.47347 39.9608 8.65473C39.1126 7.40445 38.3015 6.85449 37.344 6.85449H37.3256L22.7442 6.96195C21.1036 6.97367 20.076 8.62074 19.6094 9.60137C19.6046 9.61133 19.5996 9.62117 19.5942 9.6309L17.0942 14.1383L19.4767 14.1207L21.1205 11.1573Z" fill="#D4E1F4"/>
<path d="M16.8947 25.1835C16.7171 25.0031 16.6171 24.7604 16.616 24.5072C16.6159 24.484 16.6143 24.4609 16.6113 24.4379L15.7061 17.4646C15.7095 16.3198 16.3057 15.5235 17.0297 15.2073L16.1876 15.2135H16.1837C16.1545 15.2132 16.1254 15.2106 16.0967 15.2056C15.1365 15.2697 14.1842 16.1325 14.1799 17.5343L15.0852 24.2861C15.0882 24.3083 15.0898 24.3307 15.0899 24.3531C15.0928 24.5984 15.192 24.8326 15.366 25.0054C15.5401 25.1783 15.7751 25.2757 16.0204 25.2769H16.0274L16.9935 25.2697C16.9586 25.2433 16.9256 25.2145 16.8947 25.1835V25.1835Z" fill="#D4E1F4"/>
<path d="M12.5294 52.5845C12.9698 52.5845 13.4003 52.4539 13.7664 52.2092C14.1326 51.9646 14.418 51.6168 14.5865 51.21C14.755 50.8031 14.7991 50.3554 14.7132 49.9235C14.6273 49.4916 14.4152 49.0949 14.1038 48.7835C13.7924 48.4721 13.3957 48.26 12.9638 48.1741C12.5319 48.0882 12.0842 48.1323 11.6774 48.3008C11.2705 48.4694 10.9228 48.7547 10.6781 49.1209C10.4334 49.4871 10.3029 49.9175 10.3029 50.3579C10.3035 50.9482 10.5383 51.5142 10.9558 51.9316C11.3732 52.349 11.9391 52.5838 12.5294 52.5845ZM12.5294 49.772C12.6453 49.772 12.7586 49.8063 12.8549 49.8707C12.9513 49.9351 13.0264 50.0266 13.0708 50.1337C13.1151 50.2408 13.1267 50.3586 13.1041 50.4722C13.0815 50.5859 13.0257 50.6903 12.9437 50.7722C12.8618 50.8542 12.7574 50.91 12.6437 50.9326C12.5301 50.9552 12.4123 50.9436 12.3052 50.8993C12.1981 50.8549 12.1066 50.7798 12.0422 50.6834C11.9778 50.5871 11.9435 50.4738 11.9435 50.3579C11.9437 50.2026 12.0055 50.0536 12.1153 49.9438C12.2251 49.834 12.3741 49.7722 12.5294 49.772Z" fill="white"/>
<path d="M18.0594 17.8712C17.439 17.8772 16.8461 18.1285 16.4103 18.5702C15.9745 19.0118 15.7312 19.608 15.7334 20.2284C15.7357 20.8489 15.9834 21.4433 16.4224 21.8818C16.8614 22.3202 17.4561 22.5672 18.0765 22.5687H18.0941C18.4039 22.5684 18.7105 22.5069 18.9964 22.3876C19.2823 22.2683 19.5417 22.0937 19.7598 21.8738C19.9779 21.6538 20.1504 21.3929 20.2673 21.1061C20.3841 20.8192 20.4431 20.512 20.4408 20.2023C20.4385 19.8926 20.3749 19.5863 20.2538 19.3012C20.1326 19.0162 19.9563 18.7579 19.7349 18.5412C19.5135 18.3246 19.2515 18.1538 18.9638 18.0389C18.6762 17.9239 18.3687 17.867 18.0589 17.8713L18.0594 17.8712ZM18.7849 20.215C18.7856 20.308 18.768 20.4002 18.733 20.4864C18.6981 20.5726 18.6465 20.6511 18.5812 20.7173C18.5159 20.7835 18.4382 20.8362 18.3525 20.8724C18.2668 20.9086 18.1748 20.9275 18.0818 20.9282H18.0765C17.8902 20.9265 17.7121 20.8516 17.5807 20.7195C17.4493 20.5874 17.3752 20.4089 17.3745 20.2226C17.3738 20.0363 17.4466 19.8572 17.577 19.7242C17.7075 19.5912 17.8851 19.5149 18.0714 19.512H18.0768C18.2637 19.5119 18.443 19.5859 18.5757 19.7176C18.7083 19.8493 18.7834 20.0282 18.7847 20.2151L18.7849 20.215Z" fill="white"/>
<path d="M42.012 17.6948H41.9944C41.374 17.7008 40.7812 17.952 40.3454 18.3937C39.9095 18.8353 39.6662 19.4314 39.6683 20.0518C39.6705 20.6723 39.9181 21.2666 40.3571 21.7052C40.796 22.1437 41.3906 22.3907 42.0111 22.3923H42.0288C42.6516 22.3871 43.2469 22.1352 43.6841 21.6916C44.1213 21.2481 44.3647 20.6492 44.3608 20.0264V20.0264C44.3556 19.4067 44.1059 18.8141 43.666 18.3774C43.2262 17.9408 42.6318 17.6955 42.012 17.6948V17.6948ZM42.0168 20.7515H42.012C41.8257 20.7499 41.6476 20.6749 41.5162 20.5428C41.3848 20.4108 41.3108 20.2322 41.3101 20.0459C41.3094 19.8596 41.3822 19.6806 41.5127 19.5476C41.6431 19.4145 41.8207 19.3383 42.007 19.3353H42.0123C42.2 19.3346 42.3804 19.4086 42.5137 19.5409C42.6469 19.6732 42.7222 19.853 42.7229 20.0408C42.7236 20.2286 42.6496 20.409 42.5173 20.5422C42.385 20.6755 42.2052 20.7507 42.0174 20.7514L42.0168 20.7515Z" fill="white"/>
<path d="M34.3918 22.6421L25.7343 22.7059C25.5167 22.7066 25.3084 22.7938 25.1551 22.9482C25.0018 23.1026 24.9161 23.3115 24.9169 23.5291C24.9177 23.7467 25.0048 23.955 25.1592 24.1083C25.3136 24.2616 25.5226 24.3473 25.7401 24.3465H25.7463L34.4039 24.2827C34.6215 24.2812 34.8295 24.1933 34.9822 24.0383C35.135 23.8834 35.2199 23.6741 35.2184 23.4566C35.2168 23.239 35.1289 23.031 34.974 22.8782C34.819 22.7255 34.6098 22.6406 34.3922 22.6421H34.3918Z" fill="white"/>
<path d="M49.4606 33.6299L49.3192 33.7062C48.2141 32.4584 46.3778 31.9924 44.969 32.7067C44.9629 32.7097 44.9568 32.7129 44.9507 32.7162L44.4379 32.9925C43.6838 32.384 42.7634 32.0177 41.7975 31.9416C40.8315 31.8655 39.8651 32.0832 39.025 32.5661L35.7741 34.3338H31.4382C30.5153 34.3327 29.6044 34.124 28.773 33.7232L28.171 33.432C26.4291 32.5844 24.4867 32.2353 22.5587 32.4235C20.6307 32.6118 18.7924 33.3299 17.2474 34.4984C17.2293 34.5119 17.2122 34.526 17.1951 34.541L15.7413 35.8357C15.0752 36.4287 14.2593 36.8279 13.3823 36.9898C13.1683 37.0293 12.9789 37.1522 12.8555 37.3314C12.7322 37.5107 12.6851 37.7316 12.7246 37.9455C12.7641 38.1595 12.887 38.349 13.0662 38.4723C13.2455 38.5956 13.4664 38.6427 13.6803 38.6032C14.8522 38.3869 15.9425 37.8535 16.8327 37.0611L18.2607 35.7897C19.5643 34.8113 21.1125 34.2114 22.735 34.056C24.3575 33.9006 25.9915 34.1957 27.4571 34.9089L28.0592 35.2C29.1134 35.7082 30.2684 35.9728 31.4387 35.9744H37.2774C38.0609 35.9753 38.8217 36.2371 39.4399 36.7185C40.0581 37.1998 40.4985 37.8732 40.6916 38.6325L36.6751 38.4509C35.1263 38.381 33.5745 38.4527 32.0388 38.665C31.8233 38.6948 31.6284 38.809 31.4972 38.9825C31.3659 39.156 31.3089 39.3745 31.3387 39.5901C31.3685 39.8056 31.4828 40.0004 31.6563 40.1317C31.8297 40.263 32.0483 40.32 32.2638 40.2901C33.7004 40.0916 35.1521 40.0245 36.6009 40.0897L41.5814 40.3151C41.5931 40.3151 41.6061 40.316 41.6184 40.316C41.836 40.316 42.0446 40.2296 42.1984 40.0758C42.3523 39.9219 42.4387 39.7133 42.4387 39.4957C42.4387 39.4225 42.4362 39.3499 42.4333 39.2774L43.0238 38.966L50.2391 35.0735C50.7319 34.8066 51.2957 34.7001 51.8519 34.7687C52.4081 34.8373 52.9291 35.0777 53.3423 35.4564L38.9368 45.347C37.0598 46.258 34.9424 46.551 32.8886 46.1837L24.1372 44.5723C23.1346 44.3264 22.0759 44.4708 21.1759 44.9763C21.1631 44.9835 21.1503 44.9911 21.138 44.999L16.385 48.0037C16.2939 48.0612 16.2151 48.1361 16.153 48.2242C16.0909 48.3122 16.0468 48.4116 16.0231 48.5167C15.9994 48.6218 15.9966 48.7305 16.015 48.8367C16.0333 48.9428 16.0724 49.0443 16.1299 49.1354C16.1875 49.2264 16.2624 49.3053 16.3505 49.3674C16.4385 49.4295 16.5379 49.4736 16.643 49.4973C16.7481 49.521 16.8568 49.5237 16.963 49.5054C17.0691 49.4871 17.1706 49.448 17.2617 49.3904L21.995 46.3978C22.5348 46.1007 23.1672 46.0195 23.7645 46.1706C23.7815 46.1748 23.7986 46.1786 23.8159 46.1823L32.5943 47.7987C35.0148 48.2318 37.5104 47.8794 39.7164 46.7931C39.7512 46.776 39.7847 46.7564 39.8166 46.7345L54.9991 36.3101C55.1715 36.1918 55.2922 36.012 55.3365 35.8077C55.3808 35.6033 55.3454 35.3898 55.2376 35.2106C54.6634 34.254 53.7423 33.5558 52.6662 33.2613C51.5901 32.9669 50.4418 33.0989 49.4606 33.6299ZM39.818 34.0023C39.8246 33.9988 39.8312 33.9952 39.8375 33.9914C40.2836 33.7334 40.7859 33.5883 41.3009 33.5687C41.8159 33.5492 42.3278 33.6558 42.7921 33.8793L40.2257 35.2621C39.787 34.9551 39.303 34.7184 38.7912 34.5606L39.818 34.0023ZM42.2525 37.5187L42.0808 37.6091C41.9206 37.2026 41.7094 36.8181 41.4522 36.4649L45.7189 34.166C46.3844 33.8337 47.2072 34.0572 47.7983 34.5267L42.2525 37.5187Z" fill="#FFBA08"/>
<path d="M39.0413 14.4246C39.0429 14.6411 39.13 14.8482 39.2837 15.0007C39.4373 15.1533 39.6451 15.2389 39.8616 15.2389H39.8677C39.9755 15.2381 40.082 15.2161 40.1812 15.1742C40.2804 15.1322 40.3704 15.0711 40.4461 14.9944C40.5217 14.9176 40.5815 14.8267 40.6219 14.7269C40.6624 14.6271 40.6829 14.5202 40.6821 14.4125C40.6719 13.3858 40.255 12.4051 39.5228 11.6854C38.7906 10.9657 37.8029 10.5658 36.7762 10.5733C35.7495 10.5809 34.7678 10.9953 34.0462 11.7257C33.3247 12.4561 32.9223 13.4429 32.9273 14.4696C32.9289 14.6861 33.016 14.8932 33.1697 15.0457C33.3233 15.1983 33.5311 15.2839 33.7476 15.2839H33.7536C33.8613 15.2831 33.9678 15.2611 34.067 15.2192C34.1663 15.1772 34.2563 15.1161 34.3319 15.0394C34.4075 14.9627 34.4673 14.8718 34.5078 14.772C34.5483 14.6722 34.5687 14.5653 34.5679 14.4576C34.5636 14.1625 34.6178 13.8696 34.7272 13.5955C34.8367 13.3215 34.9993 13.0718 35.2057 12.8609C35.412 12.65 35.6581 12.482 35.9296 12.3666C36.2012 12.2511 36.493 12.1906 36.788 12.1884C37.0831 12.1862 37.3757 12.2425 37.649 12.3539C37.9222 12.4652 38.1707 12.6296 38.3802 12.8375C38.5896 13.0453 38.7559 13.2925 38.8694 13.5649C38.9829 13.8373 39.0413 14.1295 39.0414 14.4246H39.0413Z" fill="#FFBA08"/>
<path d="M26.1295 18.042H26.1234C26.0157 18.0428 25.9092 18.0648 25.8099 18.1067C25.7107 18.1487 25.6207 18.2098 25.5451 18.2865C25.4695 18.3633 25.4097 18.4541 25.3692 18.554C25.3287 18.6538 25.3083 18.7607 25.3091 18.8684L25.3194 20.2768C25.321 20.4933 25.4081 20.7004 25.5618 20.8529C25.7155 21.0055 25.9232 21.0911 26.1397 21.0911H26.1457C26.2534 21.0903 26.36 21.0683 26.4592 21.0264C26.5584 20.9845 26.6485 20.9234 26.7241 20.8467C26.7997 20.7699 26.8595 20.679 26.9 20.5792C26.9405 20.4794 26.9609 20.3725 26.9602 20.2648L26.9498 18.8563C26.9483 18.6398 26.8611 18.4327 26.7075 18.2801C26.5538 18.1276 26.3461 18.042 26.1295 18.042Z" fill="#FFBA08"/>
<path d="M23.5208 18.0615H23.5146C23.297 18.0631 23.089 18.1511 22.9363 18.306C22.7836 18.461 22.6987 18.6703 22.7003 18.8878L22.7108 20.2963C22.7124 20.5128 22.7995 20.7199 22.9532 20.8724C23.1068 21.0249 23.3146 21.1105 23.5311 21.1105H23.5373C23.645 21.1097 23.7515 21.0877 23.8508 21.0457C23.95 21.0038 24.04 20.9427 24.1156 20.8659C24.1912 20.7892 24.2509 20.6983 24.2914 20.5985C24.3319 20.4987 24.3523 20.3918 24.3515 20.2841L24.3411 18.8757C24.3395 18.6592 24.2523 18.4522 24.0987 18.2996C23.945 18.1471 23.7373 18.0615 23.5208 18.0615Z" fill="#FFBA08"/>
<path d="M36.5642 17.9648H36.558C36.4503 17.9656 36.3438 17.9876 36.2446 18.0296C36.1453 18.0716 36.0554 18.1327 35.9797 18.2094C35.9041 18.2861 35.8444 18.377 35.8039 18.4769C35.7634 18.5767 35.743 18.6835 35.7438 18.7912L35.7542 20.1997C35.7558 20.4162 35.843 20.6233 35.9966 20.7758C36.1503 20.9284 36.358 21.0139 36.5745 21.0139H36.5806C36.6884 21.0132 36.7949 20.9912 36.8941 20.9492C36.9934 20.9073 37.0834 20.8462 37.159 20.7694C37.2346 20.6927 37.2944 20.6018 37.3348 20.502C37.3753 20.4021 37.3958 20.2953 37.395 20.1875L37.3845 18.7791C37.3829 18.5626 37.2958 18.3555 37.1421 18.2029C36.9885 18.0504 36.7807 17.9648 36.5642 17.9648V17.9648Z" fill="#FFBA08"/>
<path d="M28.7384 18.0229H28.7324C28.6247 18.0237 28.5182 18.0457 28.4189 18.0877C28.3197 18.1296 28.2297 18.1907 28.154 18.2674C28.0784 18.3442 28.0186 18.4351 27.9781 18.5349C27.9376 18.6348 27.9172 18.7416 27.918 18.8494L27.9283 20.2577C27.9299 20.4742 28.017 20.6814 28.1707 20.8339C28.3243 20.9865 28.5321 21.0721 28.7486 21.072H28.7547C28.8624 21.0713 28.969 21.0493 29.0682 21.0073C29.1674 20.9654 29.2574 20.9043 29.333 20.8276C29.4086 20.7508 29.4684 20.66 29.5089 20.5601C29.5494 20.4603 29.5698 20.3535 29.569 20.2458L29.5587 18.8373C29.5572 18.6208 29.47 18.4136 29.3164 18.2611C29.1627 18.1085 28.955 18.0229 28.7384 18.0229V18.0229Z" fill="#FFBA08"/>
<path d="M31.3469 18.0034H31.3408C31.2331 18.0042 31.1266 18.0262 31.0274 18.0682C30.9281 18.1101 30.8381 18.1712 30.7625 18.2479C30.6869 18.3247 30.6271 18.4156 30.5866 18.5154C30.5461 18.6153 30.5257 18.7221 30.5265 18.8298L30.5368 20.2382C30.5384 20.4547 30.6255 20.6618 30.7792 20.8144C30.9329 20.9669 31.1406 21.0525 31.3571 21.0525H31.3632C31.471 21.0517 31.5775 21.0297 31.6767 20.9878C31.7759 20.9458 31.8659 20.8848 31.9415 20.808C32.0172 20.7313 32.0769 20.6404 32.1174 20.5406C32.1579 20.4408 32.1784 20.334 32.1776 20.2262L32.1673 18.8178C32.1657 18.6012 32.0786 18.3941 31.9249 18.2416C31.7712 18.089 31.5635 18.0034 31.3469 18.0034V18.0034Z" fill="#FFBA08"/>
<path d="M33.9556 17.9844H33.9493C33.8415 17.9852 33.735 18.0072 33.6358 18.0491C33.5366 18.0911 33.4466 18.1522 33.371 18.2289C33.2954 18.3057 33.2356 18.3966 33.1951 18.4964C33.1547 18.5962 33.1342 18.7031 33.135 18.8108L33.1455 20.2193C33.1471 20.4358 33.2342 20.6429 33.3879 20.7954C33.5415 20.9479 33.7493 21.0335 33.9658 21.0335H33.972C34.0797 21.0327 34.1862 21.0107 34.2854 20.9687C34.3847 20.9267 34.4746 20.8657 34.5503 20.7889C34.6259 20.7122 34.6856 20.6213 34.7261 20.5215C34.7666 20.4216 34.787 20.3148 34.7862 20.2071L34.7758 18.7987C34.7742 18.5822 34.6871 18.3751 34.5334 18.2226C34.3798 18.07 34.1721 17.9844 33.9556 17.9844V17.9844Z" fill="#FFBA08"/>
<path d="M41.6974 8.79367C40.8156 7.23953 39.5273 5.45898 37.3676 5.45898H37.3385L22.6587 5.56715C20.8922 5.58027 19.3441 6.79023 18.2975 8.97543L17.1534 11.0379C16.4972 11.0416 15.317 11.048 14.64 11.053C13.3013 11.0629 12.2142 11.7543 11.8691 12.8141C11.7214 13.2683 11.6317 13.7393 11.6023 14.2159C11.5977 14.3264 11.6155 14.4367 11.6546 14.5402C11.6937 14.6436 11.7533 14.7381 11.8299 14.8179C11.9065 14.8977 11.9984 14.9612 12.1001 15.0046C12.2018 15.048 12.3113 15.0704 12.4219 15.0704H12.429L13.5693 15.0605C12.9823 15.7796 12.67 16.6839 12.688 17.612C12.6883 17.6465 12.6908 17.6809 12.6954 17.715L13.6054 24.5016C13.622 24.991 13.7945 25.4622 14.0978 25.8467C14.401 26.2312 14.8191 26.5087 15.2911 26.639L15.3055 28.5929C15.3086 29.0039 15.474 29.3971 15.7657 29.6867C16.0575 29.9764 16.4519 30.1389 16.8629 30.139H16.8747L19.1136 30.1225C19.5267 30.1194 19.9217 29.9524 20.2116 29.6581C20.5016 29.3638 20.6628 28.9665 20.6598 28.5534L20.6461 26.6876L39.538 26.5484L39.5517 28.4141C39.5549 28.8252 39.7204 29.2183 40.0121 29.5079C40.3039 29.7974 40.6983 29.9599 41.1094 29.96H41.1211L43.3601 29.9436C43.7731 29.9401 44.1678 29.7729 44.4576 29.4787C44.7475 29.1845 44.9088 28.7874 44.9063 28.3744L44.8918 26.4112C45.3524 26.2672 45.7561 25.9822 46.0461 25.5965C46.336 25.2107 46.4975 24.7437 46.5077 24.2613L47.3555 17.4637C47.3599 17.428 47.362 17.392 47.3617 17.3561C47.3604 16.4244 47.024 15.5242 46.4139 14.82L47.5848 14.811C47.6958 14.8101 47.8054 14.7867 47.9071 14.7422C48.0088 14.6977 48.1003 14.633 48.1763 14.5521C48.2522 14.4711 48.311 14.3756 48.3489 14.2714C48.3869 14.1671 48.4033 14.0562 48.3972 13.9454C48.3607 13.4692 48.2641 12.9996 48.1098 12.5477C47.752 11.5004 46.6676 10.8275 45.3422 10.8275H45.3131C44.6419 10.8324 43.4811 10.837 42.8269 10.8392L41.6974 8.79367ZM19.7442 9.74934C19.7527 9.73445 19.7604 9.71934 19.7677 9.70398C20.2089 8.77656 21.173 7.21891 22.6706 7.20789L37.3506 7.09973H37.3664C38.4059 7.09973 39.2754 7.84973 40.2659 9.59512L42.5208 13.6797L17.4621 13.8643L19.7442 9.74934ZM13.3986 13.4209C13.4082 13.3882 13.4185 13.3552 13.4293 13.3219C13.5479 12.9566 14.0504 12.6985 14.6521 12.694C15.0703 12.691 15.6806 12.6872 16.2407 12.6841L15.8436 13.3998L13.3986 13.4209ZM16.9453 28.4975L16.9322 26.7146L19.0052 26.6993L19.0184 28.4821L16.9453 28.4975ZM41.1914 28.3188L41.1784 26.5359L43.2513 26.5206L43.2645 28.3035L41.1914 28.3188ZM44.8732 24.1061C44.8688 24.1418 44.8666 24.1778 44.8669 24.2138C44.8671 24.387 44.799 24.5533 44.6774 24.6766C44.5559 24.8 44.3906 24.8705 44.2174 24.8729L15.9036 25.0814H15.8988C15.7265 25.0803 15.5615 25.0116 15.4392 24.8902C15.3168 24.7687 15.247 24.6042 15.2446 24.4319C15.2443 24.3974 15.2418 24.363 15.2372 24.3289L14.3284 17.5511C14.3401 16.3271 15.1533 15.5737 15.9772 15.5095C16.0057 15.5129 16.0344 15.5147 16.0631 15.5151H16.0692L43.8877 15.31C43.8918 15.31 43.8959 15.3107 43.9001 15.3107H43.9063C44.1473 15.3097 44.3857 15.3613 44.6046 15.4622C44.8235 15.563 45.0178 15.7105 45.1737 15.8943C45.5146 16.2917 45.7076 16.7948 45.7197 17.3182L44.8732 24.1061ZM45.325 12.4681C45.9247 12.4614 46.4329 12.7142 46.5571 13.0775C46.5688 13.1111 46.5793 13.1446 46.5897 13.1777L44.1287 13.1966L43.731 12.4761C44.2913 12.4741 44.9044 12.4711 45.3252 12.4681H45.325Z" fill="white"/>
<path d="M6.99458 53.82C7.01882 54.0189 7.11502 54.202 7.26501 54.3348C7.41501 54.4677 7.60844 54.541 7.8088 54.541H18.3557C18.4839 54.5411 18.6104 54.5111 18.7249 54.4535C18.8395 54.3958 18.9389 54.3121 19.0153 54.2091C19.0916 54.1061 19.1428 53.9866 19.1646 53.8602C19.1864 53.7338 19.1782 53.6041 19.1408 53.4814L13.2815 34.2627C13.2302 34.0945 13.1263 33.9473 12.985 33.8427C12.8438 33.7381 12.6726 33.6817 12.4969 33.6816H5.46563C5.34953 33.6817 5.23476 33.7063 5.1289 33.754C5.02304 33.8016 4.9285 33.8712 4.85154 33.9582C4.77457 34.0451 4.71694 34.1473 4.68244 34.2582C4.64794 34.3691 4.63737 34.486 4.65141 34.6012L6.99458 53.82ZM11.8888 35.3223L17.248 52.9004H8.53512L6.39141 35.3223H11.8888Z" fill="white"/>
</svg>
