<svg width="130" height="130" viewBox="0 0 130 130" fill="none" xmlns="http://www.w3.org/2000/svg">
<path d="M27.7999 58.2276V58.1918C27.8002 57.7734 27.6529 57.3682 27.3839 57.0478C27.1149 56.7273 26.7414 56.512 26.3293 56.4398C25.3442 56.2683 24.4513 55.7542 23.8085 54.9883C23.1657 54.2223 22.8142 53.2539 22.8162 52.2539C22.8162 51.9969 22.8392 51.7403 22.8851 51.4874L20.4191 50.2227C20.0179 50.0155 19.6578 49.7369 19.3565 49.4005C18.9822 49.5706 18.6523 49.825 18.3927 50.1438C18.133 50.4627 17.9507 50.8373 17.86 51.2383C17.7218 51.8037 17.701 52.3915 17.799 52.9652C17.8969 53.539 18.1115 54.0866 18.4294 54.5742C18.7473 55.0618 19.1618 55.479 19.6473 55.8001C20.1329 56.1211 20.6791 56.3392 21.2522 56.4408C21.6643 56.513 22.0378 56.7283 22.3068 57.0488C22.5758 57.3693 22.7231 57.7744 22.7228 58.1928V58.2286C22.7177 61.321 23.3685 64.3793 24.6322 67.2017C25.896 70.0241 27.7438 72.5465 30.054 74.6023C32.3641 76.6581 35.0839 78.2006 38.034 79.1281C40.984 80.0555 44.0972 80.3468 47.1681 79.9828C41.8369 79.3547 36.9211 76.7935 33.3517 72.7841C29.7822 68.7748 27.8069 63.5956 27.7999 58.2276V58.2276Z" fill="#D4E1F4"/>
<path d="M28.3339 51.6775C28.6653 51.8479 29.0337 51.9338 29.4062 51.9276C29.7788 51.9215 30.1441 51.8234 30.4696 51.6421C30.7952 51.4608 31.0709 51.2019 31.2723 50.8884C31.4738 50.5749 31.5947 50.2165 31.6243 49.8451L32.1321 42.7184H27.054L26.5462 49.8451C26.524 50.124 26.4504 50.3963 26.3291 50.6484L28.3339 51.6775Z" fill="#D4E1F4"/>
<path d="M40.8838 89.4781V83.4082C39.1507 83.1529 37.4489 82.7182 35.8057 82.111V89.4784C39.4008 91.0247 43.3379 91.6042 47.2261 91.1592C45.0407 90.9146 42.9035 90.3481 40.8838 89.4781V89.4781Z" fill="#D4E1F4"/>
<path d="M36.5945 92.8106C35.6949 92.5158 34.8085 92.9332 33.9404 92.5376L31.0967 92.9898V105.477H36.1748V92.9898L36.5945 92.8106Z" fill="#D4E1F4"/>
<path d="M22.1481 99.9233V96.8087L20.0188 97.7174C18.3792 98.5538 16.9775 99.7912 15.9442 101.314C14.9109 102.838 14.2794 104.597 14.1084 106.43V119.557H19.1865V106.43C19.4146 103.99 20.4579 101.698 22.1481 99.9233V99.9233Z" fill="#D4E1F4"/>
<path d="M24.9023 111.213V112.856C24.9023 113.327 25.0896 113.78 25.4229 114.113C25.7562 114.446 26.2083 114.633 26.6797 114.633C27.1511 114.633 27.6031 114.446 27.9365 114.113C28.2698 113.78 28.457 113.327 28.457 112.856V111.213C28.457 110.741 28.2698 110.289 27.9365 109.956C27.6031 109.623 27.1511 109.435 26.6797 109.435C26.2083 109.435 25.7562 109.623 25.4229 109.956C25.0896 110.289 24.9023 110.741 24.9023 111.213Z" fill="#1973E7"/>
<path d="M42.1191 19.4578H48.5752C49.0466 19.4578 49.4987 19.2706 49.832 18.9373C50.1653 18.6039 50.3526 18.1519 50.3526 17.6805C50.3526 17.2091 50.1653 16.757 49.832 16.4237C49.4987 16.0904 49.0466 15.9031 48.5752 15.9031H42.1191C41.6478 15.9031 41.1957 16.0904 40.8624 16.4237C40.5291 16.757 40.3418 17.2091 40.3418 17.6805C40.3418 18.1519 40.5291 18.6039 40.8624 18.9373C41.1957 19.2706 41.6478 19.4578 42.1191 19.4578V19.4578Z" fill="#1973E7"/>
<path d="M42.1191 13.506H48.5752C49.0466 13.506 49.4987 13.3188 49.832 12.9855C50.1653 12.6522 50.3526 12.2001 50.3526 11.7287C50.3526 11.2573 50.1653 10.8052 49.832 10.4719C49.4987 10.1386 49.0466 9.95135 48.5752 9.95135H42.1191C41.6478 9.95135 41.1957 10.1386 40.8624 10.4719C40.5291 10.8052 40.3418 11.2573 40.3418 11.7287C40.3418 12.2001 40.5291 12.6522 40.8624 12.9855C41.1957 13.3188 41.6478 13.506 42.1191 13.506Z" fill="#1973E7"/>
<path d="M12.1638 121.841H61.7804V118.286H22.9787V108.608H58.7033V105.053H31.1961V93.3545L34.1135 92.1103C37.5423 93.6675 41.2646 94.4732 45.0304 94.4732C48.7963 94.4732 52.5185 93.6675 55.9474 92.1103L58.8645 93.3545V102.553H62.4192V94.8721L66.2643 96.5131L67.6608 93.2438L57.6358 88.9652V80.8217H59.0559C60.0874 80.8194 61.0888 80.4744 61.9028 79.841C62.7168 79.2076 63.2973 78.3216 63.5529 77.3223H66.2885C68.2602 77.3201 70.1506 76.5358 71.5449 75.1416C72.9391 73.7473 73.7234 71.8569 73.7256 69.8852V68.3965H74.2949C76.0108 68.3951 77.6561 67.713 78.8696 66.4998C80.0831 65.2867 80.7658 63.6416 80.7677 61.9257V60.4784H82.1708C82.6422 60.4784 83.0943 60.2912 83.4276 59.9579C83.7609 59.6246 83.9481 59.1725 83.9481 58.7011C83.9481 58.2297 83.7609 57.7776 83.4276 57.4443C83.0943 57.111 82.6422 56.9238 82.1708 56.9238H80.7677V55.6689C80.7658 54.1781 80.25 52.7334 79.3071 51.5785C78.3643 50.4235 77.0522 49.629 75.5918 49.3287V42.999C75.9759 42.9029 76.3169 42.6812 76.5607 42.3692C76.8045 42.0572 76.9371 41.6727 76.9375 41.2768V34.3144C76.9375 33.843 76.7503 33.391 76.417 33.0576C76.0836 32.7243 75.6316 32.5371 75.1602 32.5371H73.2701C72.9863 26.3975 70.8972 20.4782 67.2645 15.5205C63.8071 10.8031 58.9781 7.26769 53.4367 5.39678L53.6353 3.48436C53.661 3.23662 53.6344 2.98624 53.5571 2.74946C53.4799 2.51268 53.3537 2.29478 53.1868 2.10989C53.0199 1.925 52.8161 1.77725 52.5884 1.67622C52.3607 1.57519 52.1144 1.52314 51.8653 1.52344H38.1955C37.9466 1.52346 37.7005 1.57575 37.4731 1.67692C37.2458 1.77809 37.0422 1.92588 36.8755 2.11074C36.7089 2.29559 36.5829 2.51338 36.5058 2.75C36.4287 2.98663 36.4021 3.23681 36.4278 3.48436L36.6261 5.39703C31.0806 7.27352 26.2506 10.8182 22.7974 15.5457C19.1755 20.4993 17.0885 26.4076 16.7955 32.5371H14.9027C14.4313 32.5371 13.9792 32.7243 13.6459 33.0576C13.3126 33.391 13.1253 33.843 13.1253 34.3144V41.2768C13.1253 41.7482 13.3126 42.2002 13.6459 42.5336C13.9792 42.8669 14.4313 43.0541 14.9027 43.0541H18.096L18.2738 45.6422C17.2938 46.0011 16.418 46.597 15.7243 47.3768C15.0307 48.1565 14.5409 49.0958 14.2986 50.1109C13.8408 51.9847 14.0832 53.9612 14.9803 55.6688C15.8774 57.3763 17.3673 58.6974 19.1701 59.3836C19.3983 63.7595 20.7344 68.0057 23.0531 71.7239C25.3717 75.442 28.5969 78.5102 32.426 80.6406V88.9639L18.5142 94.9023C18.4815 94.9163 18.449 94.9312 18.4172 94.947C16.1804 96.0749 14.2691 97.7559 12.8649 99.8304C11.4606 101.905 10.61 104.304 10.3938 106.8C10.3897 106.849 10.3877 106.898 10.3877 106.947V120.063C10.3877 120.535 10.5748 120.986 10.9078 121.32C11.2409 121.653 11.6926 121.84 12.1638 121.841V121.841ZM54.0799 89.0503C51.222 90.2826 48.1425 90.9183 45.0303 90.9183C41.918 90.9183 38.8386 90.2826 35.9807 89.0503V82.2821C41.8217 84.4495 48.2489 84.4347 54.0799 82.2405V89.0503ZM60.1482 76.1734C60.1478 76.4634 60.0325 76.7413 59.8274 76.9463C59.6224 77.1513 59.3444 77.2666 59.0544 77.267H50.9106C50.6207 77.2666 50.3427 77.1513 50.1377 76.9463C49.9327 76.7413 49.8174 76.4633 49.8171 76.1734V74.9163C49.8174 74.6264 49.9327 74.3484 50.1377 74.1434C50.3427 73.9384 50.6207 73.8231 50.9106 73.8227H59.0547C59.3446 73.8231 59.6226 73.9384 59.8277 74.1434C60.0327 74.3484 60.1481 74.6264 60.1485 74.9163L60.1482 76.1734ZM70.1714 69.8852C70.1702 70.9145 69.7608 71.9013 69.033 72.6292C68.3051 73.357 67.3183 73.7664 66.289 73.7676H65.4732C66.7424 72.1081 67.8071 70.3017 68.6445 68.3876C68.7021 68.3932 68.7605 68.3965 68.8196 68.3965H70.1714V69.8852ZM67.0839 48.3013L66.8013 48.2884C65.2203 46.8075 63.9476 45.0287 63.0565 43.0541H67.0839V48.3013ZM77.213 55.6679V61.9257C77.212 62.6988 76.9045 63.4399 76.3578 63.9866C75.8111 64.5333 75.07 64.8408 74.2969 64.8418H70.5972V61.3148C70.599 61.3013 70.6016 61.2894 70.6031 61.2749H70.5972V52.7518H74.2956C75.069 52.7525 75.8104 53.0599 76.3574 53.6066C76.9043 54.1533 77.212 54.8946 77.213 55.6679ZM70.6402 49.1971V43.0541H72.0366V49.1971H70.6402ZM35.4518 9.66977C36.5983 9.14839 37.786 8.72267 39.0027 8.39693C39.4119 8.28815 39.7688 8.03685 40.0092 7.6883C40.2495 7.33974 40.3576 6.91683 40.3138 6.49569L40.1681 5.07813H49.8927L49.7457 6.49569C49.702 6.91683 49.81 7.33974 50.0504 7.6883C50.2908 8.03685 50.6477 8.28815 51.0569 8.39693C52.2734 8.72263 53.461 9.14784 54.6078 9.66824V12.14C54.6071 15.0776 53.7197 17.9466 52.0616 20.3716C50.4035 22.7965 48.052 24.6644 45.3148 25.7309C42.4342 24.751 39.9332 22.8927 38.1639 20.4174C36.3945 17.9421 35.4457 14.9743 35.451 11.9316L35.4518 9.66977ZM25.6561 17.6582C27.3809 15.3189 29.4914 13.2903 31.8971 11.6594V11.9316C31.8904 15.7626 33.0997 19.4969 35.3509 22.5967C37.6022 25.6966 40.7792 28.0019 44.4243 29.1807L44.7971 29.3021C45.1641 29.4214 45.56 29.418 45.9249 29.2924C49.4965 28.0631 52.5953 25.7497 54.7892 22.6749C56.9831 19.6001 58.1626 15.9172 58.1632 12.14V11.6543C60.5687 13.2793 62.6797 15.3023 64.4057 17.6363C67.5866 21.9808 69.4293 27.1598 69.7076 32.5371H20.3558C20.643 27.1685 22.4845 21.9992 25.6561 17.6582V17.6582ZM16.68 39.4994V36.0918H73.3806V39.4994H25.4162C25.4142 39.4996 25.4123 39.4996 25.4103 39.4994H16.68ZM23.5276 43.0541L23.1848 47.3428L22.0169 46.7429C21.9846 46.7262 21.9571 46.7015 21.9371 46.6712C21.9171 46.6409 21.9052 46.6059 21.9026 46.5697L21.6583 43.0541H23.5276ZM22.6897 58.0623V58.026C22.6897 57.6078 22.5422 57.203 22.2733 56.8828C22.0043 56.5625 21.631 56.3474 21.2191 56.2753C20.6331 56.1713 20.0747 55.9483 19.5784 55.6199C19.082 55.2916 18.6583 54.865 18.3334 54.3664C18.0084 53.8679 17.7892 53.308 17.6892 52.7213C17.5892 52.1347 17.6106 51.5337 17.752 50.9557C17.8458 50.5407 18.0351 50.1533 18.3049 49.8243C18.5747 49.4953 18.9175 49.2338 19.3062 49.0605C19.6128 49.4065 19.9808 49.6928 20.3916 49.9048L23.2737 51.3845C23.6062 51.5553 23.9757 51.6413 24.3495 51.635C24.7232 51.6287 25.0896 51.5302 25.4162 51.3482C25.7427 51.1663 26.0193 50.9066 26.2213 50.5921C26.4234 50.2776 26.5447 49.9181 26.5745 49.5455L27.0937 43.0541H59.2339C60.3378 46.1479 62.1916 48.9196 64.6294 51.1212L64.88 51.3497C65.1865 51.6284 65.5806 51.7914 65.9944 51.8103L67.0426 51.8583V61.0632C66.5072 64.9838 64.9394 68.6917 62.4999 71.8072C62.0657 71.3234 61.5346 70.9364 60.941 70.6713C60.3475 70.4062 59.7047 70.269 59.0547 70.2686H50.9106C49.6783 70.2698 48.4967 70.7599 47.6252 71.6312C46.7537 72.5025 46.2634 73.6839 46.2619 74.9163V76.1734C46.2626 76.9503 46.4582 77.7147 46.8308 78.3964C47.2035 79.0782 47.7411 79.6555 48.3947 80.0757C45.2173 80.572 41.9701 80.3742 38.8764 79.4959C35.7828 78.6176 32.9161 77.0796 30.4735 74.9877C28.0309 72.8958 26.0705 70.2997 24.7269 67.3779C23.3833 64.4561 22.6886 61.2779 22.6905 58.062L22.6897 58.0623ZM25.718 95.6912L27.6411 94.8703V105.052H25.7183L25.718 95.6912ZM13.9411 107.024C14.115 105.157 14.758 103.365 15.8105 101.813C16.8629 100.262 18.2906 99.0015 19.9607 98.1497L22.1636 97.2103V105.054H21.2013C20.7299 105.054 20.2779 105.241 19.9445 105.575C19.6112 105.908 19.424 106.36 19.424 106.831V118.287H13.9396L13.9411 107.024Z" fill="#1973E7"/>
<path d="M66.9248 116.8H66.9598C68.1924 116.796 69.3727 116.302 70.2412 115.428C71.1096 114.553 71.5951 113.369 71.5907 112.137C71.5863 110.904 71.0925 109.724 70.2178 108.855C69.3432 107.987 68.1594 107.501 66.9268 107.506H66.8915C65.659 107.51 64.4786 108.004 63.6102 108.879C62.7418 109.753 62.2564 110.937 62.2608 112.17C62.2652 113.402 62.759 114.583 63.6337 115.451C64.5084 116.319 65.6922 116.805 66.9248 116.8V116.8ZM66.1476 111.386C66.248 111.283 66.3678 111.202 66.5 111.146C66.6322 111.09 66.7742 111.061 66.9177 111.06H66.926C67.2158 111.059 67.4942 111.174 67.6998 111.378C67.9054 111.582 68.0215 111.859 68.0225 112.149C68.0235 112.439 67.9094 112.717 67.7052 112.923C67.501 113.129 67.2235 113.245 66.9337 113.246H66.9253C66.7097 113.246 66.4988 113.183 66.3192 113.063C66.1396 112.944 65.9994 112.774 65.9162 112.575C65.8331 112.376 65.8106 112.157 65.8518 111.945C65.893 111.734 65.9959 111.539 66.1476 111.386V111.386Z" fill="#1973E7"/>
<path d="M109.331 116.469H109.366C110.599 116.465 111.779 115.971 112.648 115.096C113.516 114.221 114.001 113.037 113.997 111.805C113.992 110.572 113.499 109.392 112.624 108.523C111.749 107.655 110.565 107.169 109.333 107.174H109.298C108.065 107.178 106.885 107.672 106.016 108.547C105.148 109.421 104.663 110.605 104.667 111.838C104.671 113.07 105.165 114.25 106.04 115.119C106.914 115.987 108.098 116.473 109.331 116.468L109.331 116.469ZM109.324 110.729H109.332C109.62 110.73 109.897 110.844 110.101 111.047C110.305 111.25 110.421 111.526 110.424 111.814V111.814C110.425 111.957 110.398 112.1 110.344 112.233C110.29 112.366 110.21 112.487 110.11 112.589C110.009 112.691 109.889 112.773 109.757 112.828C109.625 112.884 109.483 112.913 109.339 112.914H109.333C109.189 112.915 109.047 112.887 108.914 112.833C108.781 112.778 108.661 112.698 108.559 112.597C108.353 112.393 108.237 112.116 108.236 111.826C108.235 111.536 108.349 111.258 108.553 111.052C108.757 110.846 109.035 110.73 109.325 110.729H109.324Z" fill="#1973E7"/>
<path d="M79.7071 114.063H79.7206C79.954 114.061 80.1847 114.013 80.3997 113.922C80.6147 113.831 80.8097 113.699 80.9735 113.533C81.1373 113.366 81.2667 113.169 81.3545 112.953C81.4422 112.737 81.4864 112.505 81.4847 112.272L81.4651 109.627C81.4617 109.158 81.2729 108.71 80.9399 108.379C80.607 108.049 80.1569 107.863 79.6878 107.863H79.6743C79.4409 107.865 79.2102 107.913 78.9952 108.003C78.7802 108.094 78.5852 108.227 78.4214 108.393C78.2576 108.559 78.1281 108.756 78.0404 108.973C77.9527 109.189 77.9085 109.42 77.9102 109.654L77.9298 112.298C77.9332 112.767 78.122 113.216 78.455 113.547C78.7879 113.877 79.238 114.063 79.7071 114.063V114.063Z" fill="#1973E7"/>
<path d="M96.5821 113.882H96.5955C96.8289 113.88 97.0597 113.833 97.2747 113.742C97.4897 113.651 97.6846 113.518 97.8485 113.352C98.0123 113.186 98.1417 112.989 98.2295 112.773C98.3172 112.556 98.3614 112.325 98.3597 112.091L98.3401 109.447C98.3366 108.978 98.1479 108.529 97.8149 108.199C97.482 107.868 97.0319 107.683 96.5628 107.683H96.5493C96.3159 107.684 96.0852 107.732 95.8702 107.823C95.6552 107.914 95.4602 108.046 95.2964 108.213C95.1326 108.379 95.0031 108.576 94.9154 108.792C94.8277 109.008 94.7835 109.24 94.7852 109.473L94.8048 112.118C94.8082 112.587 94.997 113.036 95.33 113.366C95.6629 113.697 96.113 113.882 96.5821 113.882V113.882Z" fill="#1973E7"/>
<path d="M85.3318 113.99H85.3453C85.5787 113.989 85.8095 113.941 86.0245 113.85C86.2394 113.759 86.4344 113.627 86.5982 113.461C86.762 113.294 86.8915 113.097 86.9792 112.881C87.0669 112.665 87.1112 112.433 87.1094 112.2L87.0899 109.555C87.0864 109.086 86.8976 108.637 86.5647 108.307C86.2317 107.977 85.7816 107.791 85.3125 107.791H85.2993C85.0659 107.793 84.8352 107.84 84.6202 107.931C84.4052 108.022 84.2102 108.155 84.0464 108.321C83.8826 108.487 83.7531 108.684 83.6654 108.9C83.5777 109.117 83.5335 109.348 83.5352 109.582L83.5548 112.227C83.5583 112.696 83.7471 113.144 84.08 113.475C84.4128 113.805 84.8628 113.99 85.3318 113.99V113.99Z" fill="#1973E7"/>
<path d="M90.9574 113.918H90.9708C91.2042 113.916 91.435 113.869 91.65 113.778C91.8649 113.687 92.0599 113.554 92.2237 113.388C92.3875 113.222 92.517 113.025 92.6047 112.809C92.6924 112.592 92.7367 112.361 92.7349 112.128L92.7156 109.483C92.7122 109.014 92.5234 108.565 92.1904 108.235C91.8575 107.904 91.4074 107.719 90.9383 107.719H90.9243C90.6909 107.72 90.4602 107.768 90.2452 107.859C90.0302 107.95 89.8352 108.082 89.6714 108.249C89.5076 108.415 89.3781 108.612 89.2904 108.828C89.2027 109.044 89.1585 109.276 89.1602 109.509L89.1795 112.154C89.183 112.623 89.3719 113.072 89.7049 113.402C90.038 113.733 90.4882 113.918 90.9574 113.918Z" fill="#1973E7"/>
<path d="M113.986 99.709L108.947 90.5818C107.26 87.6076 104.789 84.2001 100.61 84.2001H100.553L75.5278 84.4033C72.1171 84.4287 69.1364 86.7461 67.1296 90.9314L62.0514 100.086C59.063 100.639 56.788 103.314 56.5836 106.726C56.5729 106.904 56.5681 107.084 56.5696 107.26C56.5707 107.353 56.5792 107.447 56.595 107.539L58.2947 117.708C58.3312 118.573 58.6145 119.411 59.1111 120.121C59.6077 120.831 60.2969 121.384 61.0975 121.715C61.2176 121.766 61.3397 121.807 61.4624 121.847L61.4857 125.34C61.4933 126.173 61.8295 126.971 62.4214 127.558C63.0133 128.145 63.813 128.475 64.6469 128.477H64.6705L68.8749 128.446C69.713 128.438 70.514 128.099 71.1023 127.502C71.6906 126.906 72.0182 126.1 72.0132 125.262L71.9914 121.99L104.453 121.739L104.475 125.003C104.482 125.837 104.818 126.634 105.41 127.222C106.002 127.81 106.802 128.14 107.637 128.141H107.66L111.865 128.11C112.703 128.103 113.504 127.764 114.092 127.167C114.68 126.57 115.008 125.764 115.003 124.926L114.979 121.405C115.845 121.099 116.597 120.539 117.138 119.797C117.679 119.055 117.982 118.168 118.009 117.25L119.593 107.06C119.607 106.966 119.615 106.87 119.614 106.774C119.611 104.956 118.95 103.2 117.753 101.832C116.78 100.711 115.449 99.9614 113.986 99.709V99.709ZM70.2638 92.6082C70.2818 92.576 70.2986 92.5432 70.3146 92.51C71.1195 90.8185 72.8704 87.9778 75.5547 87.958L100.58 87.7548H100.608C102.463 87.7548 104.034 89.1272 105.845 92.3178L109.888 99.6404L106.892 99.6638C106.517 97.9861 105.578 96.4876 104.232 95.418C102.887 94.3484 101.215 93.7722 99.4962 93.7855C97.7772 93.7988 96.1147 94.4008 94.7857 95.4911C93.4567 96.5814 92.5415 98.0943 92.1927 99.7775L66.1764 99.9789L70.2638 92.6082ZM103.174 99.6922L95.9096 99.7486C96.2126 99.0391 96.7158 98.4333 97.3578 98.0055C97.9997 97.5776 98.7525 97.3462 99.5239 97.3395C100.045 97.3317 100.562 97.4286 101.045 97.6244C101.528 97.8202 101.967 98.111 102.335 98.4796C102.688 98.8274 102.973 99.2384 103.174 99.6912L103.174 99.6922ZM68.456 124.894L65.0371 124.919L65.0181 122.045L68.4367 122.019L68.456 124.894ZM108.027 124.583L108.008 121.712L111.427 121.686L111.446 124.559L108.027 124.583ZM114.476 116.829C114.462 116.924 114.455 117.02 114.455 117.116C114.455 117.378 114.352 117.63 114.167 117.817C113.983 118.004 113.732 118.111 113.47 118.114L62.8429 118.506C62.712 118.51 62.582 118.484 62.462 118.432C62.2809 118.358 62.1257 118.232 62.0158 118.07C61.9058 117.908 61.8461 117.717 61.844 117.522C61.8429 117.428 61.8344 117.335 61.8186 117.242L60.1251 107.102C60.1262 107.047 60.1285 106.992 60.1319 106.937C60.2266 105.355 61.258 103.674 62.9899 103.546C63.0407 103.55 63.0914 103.556 63.1445 103.556H63.1585L112.855 103.171C112.862 103.171 112.87 103.171 112.877 103.171H112.913C113.328 103.173 113.738 103.264 114.114 103.44C114.49 103.615 114.823 103.87 115.091 104.187C115.686 104.88 116.026 105.755 116.056 106.668L114.476 116.829Z" fill="#FFBA08"/>
</svg>
