<svg width="130" height="130" viewBox="0 0 130 130" fill="none" xmlns="http://www.w3.org/2000/svg">
<path d="M98.9995 115.857C79.0132 115.857 62.7533 99.5975 62.7533 79.6113C62.7434 72.7134 64.7087 65.9568 68.4169 60.1403C72.1251 54.3239 77.421 49.6907 83.6787 46.7886C75.5059 48.4629 68.1628 52.9101 62.8926 59.3772C57.6224 65.8443 54.749 73.934 54.7588 82.2765C54.7588 102.263 71.0187 118.523 91.005 118.523C96.3103 118.528 101.551 117.362 106.354 115.107C103.934 115.607 101.47 115.858 98.9995 115.857Z" fill="#D4E1F4"/>
<path d="M32.6011 27.4889C32.6197 27.4556 32.6372 27.4213 32.6537 27.3873C34.2619 24.0073 37.8044 18.331 43.4592 18.2896L93.721 17.9191H93.7844C95.0968 17.9139 96.3894 18.2386 97.5435 18.8634C94.6198 14.5536 91.824 12.6582 88.5235 12.6582H88.46L38.199 13.0281C32.5443 13.0698 29.0018 18.7459 27.3935 22.1259C27.377 22.1604 27.3595 22.1947 27.341 22.2274L18.7236 37.765L26.936 37.7043L32.6011 27.4889Z" fill="#D4E1F4"/>
<path d="M18.0359 75.8367C17.4237 75.2149 17.079 74.3784 17.0754 73.5058C17.0748 73.426 17.0694 73.3463 17.0591 73.2671L13.9396 49.2296C13.9513 45.2836 16.0064 42.5389 18.5021 41.4491L15.5992 41.4707H15.5857C15.4851 41.4697 15.3847 41.4605 15.2856 41.4431C11.9762 41.664 8.69344 44.638 8.67871 49.47L11.7982 72.7441C11.8084 72.8207 11.8139 72.8979 11.8145 72.9752C11.8246 73.8205 12.1665 74.6281 12.7664 75.2237C13.3664 75.8193 14.1764 76.1554 15.0218 76.1594H15.0457L18.3756 76.134C18.2558 76.0427 18.1423 75.9434 18.0359 75.8367V75.8367Z" fill="#D4E1F4"/>
<path d="M84.6471 27.3239H84.5569C81.406 27.3471 78.3934 28.6211 76.1818 30.8656C73.9702 33.11 72.7408 36.1411 72.764 39.292C72.7675 39.7611 72.9563 40.2098 73.2892 40.5402C73.6221 40.8707 74.0722 41.0561 74.5413 41.0561H74.5548C74.7882 41.0544 75.019 41.0067 75.234 40.9158C75.4489 40.8249 75.6439 40.6925 75.8077 40.5262C75.9715 40.36 76.101 40.163 76.1887 39.9467C76.2764 39.7304 76.3207 39.499 76.3189 39.2656C76.3028 37.0574 77.1644 34.9333 78.7143 33.3605C80.2642 31.7876 82.3755 30.8948 84.5836 30.8785H84.6468C86.8441 30.879 88.9521 31.7481 90.5113 33.2963C92.0705 34.8444 92.9545 36.9462 92.9706 39.1434C92.9741 39.6125 93.1629 40.0612 93.4958 40.3917C93.8288 40.7222 94.2789 40.9076 94.748 40.9076H94.7614C95.2328 40.9041 95.6834 40.7135 96.0143 40.3778C96.3451 40.042 96.529 39.5886 96.5256 39.1173C96.5024 35.982 95.2409 32.9829 93.016 30.7738C90.791 28.5646 87.783 27.3246 84.6476 27.3239H84.6471Z" fill="#FFBA08"/>
<path d="M22.7521 51.4741H22.7013C20.8961 51.4895 19.1704 52.2191 17.9016 53.5033C16.6329 54.7875 15.9242 56.5219 15.9307 58.3272C15.9372 60.1325 16.6582 61.8617 17.9362 63.1368C19.2142 64.4119 20.945 65.1291 22.7503 65.1315H22.8011C24.6064 65.116 26.3322 64.3863 27.6009 63.1019C28.8697 61.8175 29.5782 60.0829 29.5715 58.2775C29.5647 56.4722 28.8434 54.7429 27.5651 53.4679C26.2868 52.193 24.5557 51.4761 22.7503 51.4741H22.7521ZM22.7754 61.5768C21.9072 61.5832 21.0719 61.2443 20.4534 60.6349C19.835 60.0254 19.4839 59.1952 19.4776 58.3269C19.4712 57.4586 19.81 56.6234 20.4195 56.0049C21.029 55.3865 21.8592 55.0354 22.7275 55.0291H22.7528C23.6166 55.0329 24.4439 55.3779 25.0545 55.9889C25.665 56.6 26.0093 57.4276 26.0125 58.2913C26.0156 59.1551 25.6772 59.9852 25.0711 60.6006C24.465 61.216 23.6402 61.567 22.7765 61.577L22.7754 61.5768Z" fill="#1973E7"/>
<path d="M118.585 49.08C118.595 49.0027 118.6 48.9248 118.599 48.8469C118.597 45.9733 117.554 43.1977 115.664 41.0335C115.177 40.4823 114.634 39.9828 114.045 39.543L120.262 39.4951C120.503 39.4932 120.741 39.4426 120.961 39.3462C121.182 39.2498 121.38 39.1096 121.545 38.9342C121.709 38.7588 121.837 38.5518 121.919 38.3257C122.001 38.0996 122.037 37.8592 122.024 37.6189C121.905 36.1309 121.602 34.6632 121.122 33.2497C120.072 30.1736 116.834 28.197 112.859 28.197H112.77C110.361 28.2148 105.994 28.2313 103.997 28.2384L100.002 21.002C97.2128 16.0864 93.1612 10.4545 86.5026 10.4545H86.4155L37.9001 10.8123C32.432 10.8524 27.6072 14.6717 24.3105 21.5708L20.2508 28.8904C18.2579 28.9011 13.8402 28.9252 11.3996 28.9432C7.38461 28.9727 4.13588 31.0042 3.12228 34.1186C2.66331 35.5389 2.38229 37.0107 2.28566 38.5003C2.27588 38.7396 2.31458 38.9785 2.39946 39.2026C2.48434 39.4266 2.61364 39.6312 2.77958 39.804C2.94553 39.9768 3.1447 40.1142 3.36512 40.2081C3.58554 40.302 3.82267 40.3503 4.06225 40.3502H4.07773L10.1969 40.2974C9.62343 40.7478 9.0984 41.2567 8.63027 41.8158C6.80828 44.0261 5.83211 46.8126 5.87641 49.6767C5.87696 49.7513 5.88221 49.8259 5.89215 49.8999L8.90576 72.3774C8.94746 73.9234 9.52573 75.4067 10.5414 76.573C11.557 77.7392 12.9468 78.5158 14.4724 78.7695L14.5255 85.967C14.5338 87.0791 14.9814 88.1428 15.7706 88.9263C16.5598 89.7099 17.6267 90.1497 18.7388 90.1501H18.7708L26.1701 90.0955C27.2874 90.086 28.3553 89.6337 29.1395 88.8378C29.9237 88.0419 30.3602 86.9675 30.3532 85.8502L30.3009 78.7505L51.6509 78.5931C51.5801 79.5437 51.544 80.4992 51.5425 81.4597C51.5425 102.46 68.6276 119.546 89.6284 119.546C110.629 119.546 127.714 102.461 127.714 81.4597C127.741 71.95 124.183 62.7796 117.75 55.776L118.585 49.08ZM112.796 31.7517H112.857C115.25 31.7517 117.216 32.8112 117.758 34.3992C117.932 34.9096 118.076 35.4295 118.19 35.9564L108.3 36.0325L105.955 31.7852C108.134 31.7766 111.005 31.7636 112.797 31.7509L112.796 31.7517ZM27.4455 23.2473C27.4635 23.2151 27.4803 23.1821 27.4963 23.1488C29.0484 19.8861 32.4678 14.4071 37.9262 14.367L86.4416 14.0095H86.5028C90.3178 14.0095 93.4345 16.6303 96.9005 22.7385L105.111 37.6111L19.1275 38.2458L27.4455 23.2473ZM6.09603 36.778C6.20183 36.2507 6.33746 35.7299 6.50229 35.218C7.02559 33.6087 9.00352 32.5157 11.4245 32.4979C13.2206 32.4847 16.0893 32.4679 18.2721 32.456L15.9222 36.6927L6.09603 36.778ZM26.1447 86.5408L18.7451 86.5954C18.6582 86.5982 18.5717 86.5827 18.4912 86.55C18.4106 86.5173 18.3378 86.4681 18.2774 86.4055C18.2157 86.3448 18.1666 86.2725 18.1329 86.1928C18.0991 86.113 18.0815 86.0274 18.0809 85.9409L18.0286 78.8409L26.747 78.7766L26.7993 85.8766C26.8004 86.0514 26.7321 86.2196 26.6094 86.3441C26.4866 86.4686 26.3195 86.5394 26.1447 86.5408V86.5408ZM52.084 75.0351L15.5769 75.304H15.5538C14.7377 75.3001 13.9559 74.9757 13.3767 74.4008C12.7976 73.8259 12.4675 73.0464 12.4577 72.2304C12.4568 72.1559 12.4513 72.0816 12.4412 72.0078L9.43008 49.5437C9.42609 47.5628 10.1048 45.641 11.3519 44.1019C11.8943 43.4295 12.5706 42.8771 13.3378 42.48C14.1051 42.0828 14.9465 41.8496 15.8087 41.7949C15.9039 41.8113 16.0003 41.8198 16.0969 41.8203H16.1101L108.065 41.1429C108.08 41.1429 108.093 41.1449 108.108 41.1449C109.038 41.1413 109.957 41.3401 110.802 41.7275C111.647 42.1149 112.398 42.6817 113.002 43.3885C114.29 44.8853 115.012 46.7859 115.043 48.7598L114.556 52.6624C109.453 48.2378 103.265 45.2503 96.6266 44.0065C89.9881 42.7626 83.1382 43.3072 76.7796 45.5842C70.421 47.8613 64.7826 51.7889 60.4429 56.9641C56.1031 62.1394 53.2182 68.3759 52.084 75.0341V75.0351ZM124.16 81.4597C124.16 100.5 108.669 115.991 89.6287 115.991C70.588 115.991 55.0974 100.5 55.0974 81.4597C55.0974 72.3014 58.7355 63.5183 65.2114 57.0424C71.6872 50.5665 80.4704 46.9284 89.6287 46.9284C98.7869 46.9284 107.57 50.5665 114.046 57.0424C120.522 63.5183 124.16 72.3014 124.16 81.4597V81.4597Z" fill="#1973E7"/>
<path d="M49.3646 52.0401H49.3511C49.1177 52.0418 48.8869 52.0895 48.6719 52.1804C48.457 52.2714 48.262 52.4037 48.0982 52.57C47.9344 52.7363 47.8049 52.9332 47.7172 53.1495C47.6295 53.3658 47.5852 53.5972 47.587 53.8306L47.6215 58.4853C47.625 58.9543 47.8138 59.403 48.1467 59.7335C48.4796 60.064 48.9297 60.2494 49.3988 60.2494H49.412C49.6455 60.2477 49.8763 60.2 50.0913 60.1091C50.3063 60.0182 50.5013 59.8859 50.6651 59.7196C50.829 59.5533 50.9584 59.3564 51.0462 59.1401C51.1339 58.9238 51.1782 58.6923 51.1764 58.4589L51.1419 53.8042C51.1384 53.3352 50.9496 52.8865 50.6167 52.556C50.2837 52.2255 49.8337 52.0401 49.3646 52.0401Z" fill="#FFBA08"/>
<path d="M40.7775 60.3129H40.7907C41.0241 60.3112 41.2549 60.2635 41.4699 60.1726C41.6849 60.0817 41.8799 59.9493 42.0438 59.7831C42.2076 59.6168 42.3371 59.4199 42.4248 59.2036C42.5126 58.9872 42.5568 58.7558 42.5551 58.5223L42.5208 53.8677C42.5173 53.3986 42.3285 52.9499 41.9956 52.6195C41.6627 52.289 41.2126 52.1036 40.7435 52.1036H40.73C40.4966 52.1053 40.2658 52.153 40.0508 52.2439C39.8359 52.3348 39.6409 52.4672 39.4771 52.6335C39.3133 52.7997 39.1838 52.9966 39.0961 53.213C39.0084 53.4293 38.9641 53.6607 38.9659 53.8941L39.0001 58.5487C39.0036 59.0178 39.1924 59.4665 39.5254 59.797C39.8583 60.1274 40.3084 60.3129 40.7775 60.3129V60.3129Z" fill="#FFBA08"/>
<path d="M57.9857 51.9764H57.9722C57.7388 51.9781 57.508 52.0258 57.293 52.1167C57.0781 52.2076 56.8831 52.34 56.7193 52.5063C56.5555 52.6725 56.426 52.8695 56.3383 53.0858C56.2506 53.3021 56.2063 53.5335 56.2081 53.7669L56.2423 58.4218C56.2458 58.8909 56.4346 59.3396 56.7676 59.67C57.1005 60.0005 57.5506 60.1859 58.0197 60.1859H58.0331C58.2665 60.1842 58.4973 60.1365 58.7123 60.0456C58.9273 59.9547 59.1222 59.8223 59.2861 59.656C59.4499 59.4898 59.5793 59.2929 59.6671 59.0766C59.7548 58.8603 59.799 58.6288 59.7973 58.3954L59.763 53.7405C59.7595 53.2714 59.5707 52.8227 59.2378 52.4923C58.9049 52.1618 58.4548 51.9764 57.9857 51.9764V51.9764Z" fill="#FFBA08"/>
<path d="M86.3995 100.582C92.0343 100.587 97.4826 98.564 101.748 94.8825L110.483 103.617C110.816 103.95 111.268 104.137 111.74 104.137C112.211 104.137 112.663 103.95 112.996 103.617C113.33 103.284 113.517 102.831 113.517 102.36C113.517 101.889 113.33 101.437 112.996 101.103L104.262 92.3688C107.761 88.2919 109.761 83.1413 109.93 77.7716C110.099 72.4018 108.427 67.1356 105.192 62.8466C101.957 58.5576 97.3522 55.5036 92.1425 54.1912C86.9328 52.8789 81.431 53.3871 76.5499 55.6315C71.6687 57.8759 67.7016 61.7217 65.3066 66.5308C62.9117 71.3399 62.2329 76.8232 63.3828 82.0711C64.5326 87.3191 67.4422 92.0162 71.6286 95.3832C75.8151 98.7502 81.0268 100.585 86.3993 100.582H86.3995ZM86.3995 57.0121C90.3567 57.0121 94.225 58.1855 97.5153 60.384C100.806 62.5825 103.37 65.7073 104.884 69.3633C106.399 73.0192 106.795 77.0421 106.023 80.9232C105.251 84.8044 103.345 88.3694 100.547 91.1676C97.749 93.9657 94.184 95.8713 90.3028 96.6433C86.4217 97.4153 82.3988 97.0191 78.7429 95.5047C75.0869 93.9904 71.9621 91.4259 69.7636 88.1357C67.5651 84.8454 66.3917 80.9771 66.3917 77.0199C66.3977 71.7154 68.5077 66.6299 72.2585 62.879C76.0094 59.1282 81.095 57.0183 86.3995 57.0124V57.0121Z" fill="#FFBA08"/>
</svg>
