<svg width="72" height="72" viewBox="0 0 72 72" fill="none" xmlns="http://www.w3.org/2000/svg">
<path d="M27.9325 42.0999C27.4502 42.5329 27.155 43.1363 27.109 43.7828L26.1192 57.7047C26.07 58.3968 26.3106 59.0782 26.7835 59.586C27.2564 60.0937 27.9191 60.382 28.6129 60.382C29.7186 60.382 30.6634 60.1342 31.4991 59.6525C32.2107 59.2423 32.752 58.7031 33.0853 58.3711C33.0982 58.3583 33.1107 58.3457 33.123 58.3336L38.2304 53.4526L50.2982 62.29C50.3813 62.3509 50.4682 62.4066 50.5582 62.4568C52.1123 63.3229 54.0873 63.8982 55.9885 63.0371C57.8802 62.1802 58.7826 60.3138 59.1943 58.5073L59.2017 58.4736L68.2125 16.2522C68.2203 16.2215 68.2275 16.1906 68.2342 16.1595C68.7267 13.8643 68.4646 11.5169 66.8417 9.95518C65.1889 8.36469 62.9203 8.34516 61.1106 9.01875L61.0888 9.02698L8.00738 29.3489L8.00737 29.3489L7.9966 29.3531C6.92535 29.7689 5.96376 30.2893 5.21421 30.9459C4.4787 31.5902 3.74938 32.5495 3.63745 33.8185C3.51828 35.1697 4.14761 36.2624 4.91952 36.9841C5.65453 37.6712 6.59646 38.118 7.5437 38.4117C7.54421 38.4119 7.54472 38.4121 7.54523 38.4122L21.1137 42.6324C21.8093 42.8488 22.5647 42.751 23.1822 42.3646L37.8799 33.1682L27.9325 42.0999Z" stroke="white" stroke-width="5" stroke-linejoin="round"/>
</svg>
