<svg width="72" height="73" viewBox="0 0 72 73" fill="none" xmlns="http://www.w3.org/2000/svg">
<path d="M27.9325 42.2811C27.4502 42.7141 27.155 43.3174 27.109 43.9639L26.1192 57.8859C26.07 58.578 26.3106 59.2594 26.7835 59.7671C27.2564 60.2748 27.9191 60.5632 28.6129 60.5632C29.7186 60.5632 30.6634 60.3153 31.4991 59.8337C32.2107 59.4235 32.752 58.8843 33.0853 58.5522C33.0982 58.5394 33.1107 58.5269 33.123 58.5147L38.2304 53.6338L50.2982 62.4711C50.3813 62.532 50.4682 62.5877 50.5582 62.6379C52.1123 63.504 54.0873 64.0794 55.9885 63.2182C57.8802 62.3613 58.7826 60.495 59.1943 58.6885L59.2017 58.6548L68.2125 16.4333C68.2203 16.4026 68.2275 16.3718 68.2342 16.3407C68.7267 14.0455 68.4646 11.698 66.8417 10.1363C65.1889 8.54584 62.9203 8.52632 61.1106 9.1999L61.0888 9.20813L8.00738 29.5301L8.00737 29.53L7.9966 29.5342C6.92535 29.95 5.96376 30.4705 5.21421 31.1271C4.4787 31.7714 3.74938 32.7307 3.63745 33.9997C3.51828 35.3508 4.14761 36.4436 4.91952 37.1652C5.65453 37.8523 6.59646 38.2991 7.5437 38.5929C7.54421 38.5931 7.54472 38.5932 7.54523 38.5934L21.1137 42.8136C21.8093 43.03 22.5647 42.9321 23.1822 42.5457L37.8799 33.3493L27.9325 42.2811Z" stroke="#1973E7" stroke-width="5" stroke-linejoin="round"/>
</svg>
