<svg width="73" height="72" viewBox="0 0 73 72" fill="none" xmlns="http://www.w3.org/2000/svg">
<g clip-path="url(#clip0)">
<path d="M69.6941 41.6305C71.8396 23.5705 68.6633 12.1688 62.9339 7.01176L62.9369 7.00876C53.6897 -1.798 22.46 -3.10149 11.3968 7.4043C6.42862 12.5433 4.67865 20.0856 4.48688 29.4227C4.2951 38.7629 4.06736 56.2595 20.3714 61.006H20.3864L20.3714 68.2546C20.3714 68.2546 20.2605 71.1912 22.1364 71.7815C24.2819 72.4767 25.2527 71.1133 31.926 63.1425C43.085 64.1104 51.6551 61.893 52.6289 61.5694C54.8823 60.8142 67.6325 59.1272 69.6941 41.6305ZM33.0257 58.0425C33.0257 58.0425 25.9629 66.8492 23.7665 69.1356C23.0473 69.8787 22.2592 69.8098 22.2712 68.3355C22.2712 67.3676 22.3251 56.3015 22.3251 56.3015C8.50221 52.3401 9.31726 37.4414 9.46709 29.6475C9.61691 21.8505 11.0433 15.4649 15.2504 11.1649C24.9561 2.06451 52.3353 4.09914 59.3112 10.6555C67.8392 18.2157 64.8038 39.5749 64.8218 40.3031C63.0688 54.9081 52.7368 55.834 50.837 56.4663C50.0249 56.736 42.4887 58.6747 33.0257 58.0425Z" fill="white"/>
<path d="M36.9334 12.876C35.7797 12.876 35.7797 14.6739 36.9334 14.6889C45.884 14.7578 53.2554 20.9965 53.3363 32.4402C53.3363 33.6478 55.1042 33.6329 55.0893 32.4253H55.0863C54.9904 20.0946 46.9417 12.9449 36.9334 12.876Z" fill="white"/>
<path d="M48.7065 30.5434C48.6795 31.736 50.4445 31.793 50.4595 30.5854C50.6063 23.7863 46.4142 18.1858 38.5363 17.5955C37.3827 17.5116 37.2628 19.3245 38.4135 19.4084C45.2455 19.9268 48.8444 24.5893 48.7065 30.5434Z" fill="white"/>
<path d="M46.8189 38.2775C45.3386 37.4205 43.8314 37.9539 43.2081 38.7959L41.9046 40.4829C41.2424 41.3399 40.0048 41.2261 40.0048 41.2261C30.9733 38.8379 28.5581 29.3868 28.5581 29.3868C28.5581 29.3868 28.4472 28.1073 29.2743 27.4211L30.9044 26.0727C31.7194 25.4254 32.2348 23.8673 31.4048 22.336C29.1874 18.3297 27.6981 16.9483 26.94 15.8875C26.1429 14.8897 24.9443 14.6649 23.6978 15.3392H23.6708C21.0788 16.8554 18.2411 19.6931 19.149 22.6147C20.6982 25.6951 23.5449 35.5147 32.6184 42.9341C36.8824 46.443 43.6306 50.0388 46.4953 50.8689L46.5222 50.9108C49.3449 51.8517 52.0898 48.9032 53.5551 46.2333V46.2123C54.2053 44.9208 53.9896 43.6982 53.0397 42.8981C51.3556 41.256 48.8146 39.4432 46.8189 38.2775Z" fill="white"/>
<path d="M39.771 24.2838C42.6506 24.4516 44.047 25.9559 44.1968 29.0453C44.2508 30.2529 46.0037 30.169 45.9498 28.9614C45.758 24.9281 43.6545 22.6807 39.8669 22.4709C38.7132 22.402 38.6053 24.2149 39.771 24.2838Z" fill="white"/>
</g>
<defs>
<clipPath id="clip0">
<rect width="71.9164" height="71.9164" fill="white" transform="translate(0.309814)"/>
</clipPath>
</defs>
</svg>
