<svg width="73" height="73" viewBox="0 0 73 73" fill="none" xmlns="http://www.w3.org/2000/svg">
<g clip-path="url(#clip0)">
<path d="M69.6941 41.8117C71.8396 23.7517 68.6633 12.35 62.9339 7.19297L62.9369 7.18997C53.6897 -1.61679 22.46 -2.92028 11.3968 7.58551C6.42862 12.7245 4.67865 20.2668 4.48688 29.6039C4.2951 38.9441 4.06736 56.4407 20.3714 61.1872H20.3864L20.3714 68.4358C20.3714 68.4358 20.2605 71.3724 22.1364 71.9627C24.2819 72.6579 25.2527 71.2945 31.926 63.3237C43.085 64.2916 51.6551 62.0742 52.6289 61.7506C54.8823 60.9955 67.6325 59.3084 69.6941 41.8117ZM33.0257 58.2237C33.0257 58.2237 25.9629 67.0304 23.7665 69.3168C23.0473 70.0599 22.2592 69.991 22.2712 68.5167C22.2712 67.5488 22.3251 56.4827 22.3251 56.4827C8.50221 52.5213 9.31726 37.6226 9.46709 29.8287C9.61691 22.0317 11.0433 15.6461 15.2504 11.3461C24.9561 2.24572 52.3353 4.28036 59.3112 10.8367C67.8392 18.397 64.8038 39.7561 64.8218 40.4843C63.0688 55.0893 52.7368 56.0152 50.837 56.6475C50.0249 56.9172 42.4887 58.8559 33.0257 58.2237Z" fill="#1973E7"/>
<path d="M36.9334 13.0572C35.7797 13.0572 35.7797 14.8551 36.9334 14.8701C45.884 14.939 53.2554 21.1778 53.3363 32.6215C53.3363 33.8291 55.1042 33.8141 55.0893 32.6065H55.0863C54.9904 20.2758 46.9417 13.1261 36.9334 13.0572Z" fill="#1973E7"/>
<path d="M48.7065 30.7246C48.6795 31.9173 50.4445 31.9742 50.4595 30.7666C50.6063 23.9675 46.4142 18.367 38.5363 17.7767C37.3827 17.6928 37.2628 19.5057 38.4135 19.5896C45.2455 20.108 48.8444 24.7706 48.7065 30.7246Z" fill="#1973E7"/>
<path d="M46.8189 38.4587C45.3386 37.6017 43.8314 38.135 43.2081 38.9771L41.9046 40.6641C41.2424 41.5211 40.0048 41.4072 40.0048 41.4072C30.9733 39.019 28.5581 29.568 28.5581 29.568C28.5581 29.568 28.4472 28.2885 29.2743 27.6023L30.9044 26.2538C31.7194 25.6066 32.2348 24.0484 31.4048 22.5172C29.1874 18.5108 27.6981 17.1294 26.94 16.0687C26.1429 15.0708 24.9443 14.8461 23.6978 15.5203H23.6708C21.0788 17.0366 18.2411 19.8743 19.149 22.7959C20.6982 25.8763 23.5449 35.6959 32.6184 43.1152C36.8824 46.6242 43.6306 50.22 46.4953 51.05L46.5222 51.092C49.3449 52.0329 52.0898 49.0843 53.5551 46.4144V46.3934C54.2053 45.1019 53.9896 43.8794 53.0397 43.0793C51.3556 41.4372 48.8146 39.6243 46.8189 38.4587Z" fill="#1973E7"/>
<path d="M39.771 24.465C42.6506 24.6328 44.047 26.137 44.1968 29.2264C44.2508 30.434 46.0037 30.3501 45.9498 29.1425C45.758 25.1092 43.6545 22.8618 39.8669 22.6521C38.7132 22.5831 38.6053 24.396 39.771 24.465Z" fill="#1973E7"/>
</g>
<defs>
<clipPath id="clip0">
<rect width="71.9164" height="71.9164" fill="white" transform="translate(0.309814 0.181152)"/>
</clipPath>
</defs>
</svg>
