<svg width="73" height="73" viewBox="0 0 73 73" fill="none" xmlns="http://www.w3.org/2000/svg">
<g clip-path="url(#clip0)">
<path d="M53.389 43.0523L53.362 43.2771C46.7727 39.9929 46.0835 39.5554 45.2325 40.8319C44.6421 41.7159 42.9221 43.7205 42.4037 44.3138C41.8793 44.8982 41.358 44.9431 40.468 44.5386C39.569 44.0891 36.6834 43.1452 33.2674 40.0888C30.6064 37.7065 28.8205 34.7849 28.2931 33.886C27.4152 32.3697 29.252 32.154 30.9241 28.9897C31.2237 28.3604 31.0709 27.866 30.8492 27.4195C30.6244 26.97 28.8355 22.5651 28.0864 20.8092C27.3672 19.0592 26.6271 19.2809 26.0727 19.2809C24.3467 19.1311 23.0852 19.1551 21.9735 20.3117C17.1371 25.6276 18.3567 31.1112 22.4949 36.9424C30.6274 47.586 34.9604 49.5458 42.8832 52.2666C45.0227 52.9468 46.9734 52.8509 48.5166 52.6292C50.2366 52.3565 53.8115 50.4687 54.5576 48.3561C55.3217 46.2436 55.3217 44.4906 55.097 44.0861C54.8752 43.6816 54.2879 43.4568 53.389 43.0523Z" fill="#1973E7"/>
<path d="M62.4175 10.5141C39.3773 -11.759 1.24659 4.39519 1.2316 35.8167C1.2316 42.0974 2.87669 48.2223 6.01105 53.631L0.928955 72.0955L19.9119 67.1453C43.5994 79.9404 72.8334 62.9501 72.8454 35.8347C72.8454 26.3177 69.1297 17.3611 62.3725 10.6309L62.4175 10.5141ZM66.8583 35.7358C66.8404 58.6082 41.7325 72.8926 21.8746 61.2182L20.7959 60.5769L9.55893 63.4985L12.5704 52.5762L11.8543 51.4525C-0.503381 31.7804 13.6941 6.07024 37.1029 6.07024C45.0557 6.07024 52.52 9.17164 58.1415 14.7901C63.7599 20.3606 66.8583 27.825 66.8583 35.7358Z" fill="#1973E7"/>
</g>
<defs>
<clipPath id="clip0">
<rect width="71.9164" height="71.9164" fill="white" transform="translate(0.928955 0.181152)"/>
</clipPath>
</defs>
</svg>
