<svg width="73" height="72" viewBox="0 0 73 72" fill="none" xmlns="http://www.w3.org/2000/svg">
<g clip-path="url(#clip0)">
<path d="M53.389 42.8711L53.362 43.0958C46.7727 39.8117 46.0835 39.3742 45.2325 40.6507C44.6421 41.5346 42.9221 43.5393 42.4037 44.1326C41.8793 44.717 41.358 44.7619 40.468 44.3574C39.569 43.9079 36.6834 42.964 33.2674 39.9075C30.6064 37.5253 28.8205 34.6037 28.2931 33.7048C27.4152 32.1885 29.252 31.9728 30.9241 28.8084C31.2237 28.1792 31.0709 27.6847 30.8492 27.2383C30.6244 26.7888 28.8355 22.3839 28.0864 20.628C27.3672 18.878 26.6271 19.0997 26.0727 19.0997C24.3467 18.9499 23.0852 18.9739 21.9735 20.1305C17.1371 25.4464 18.3567 30.93 22.4949 36.7612C30.6274 47.4048 34.9604 49.3646 42.8832 52.0854C45.0227 52.7656 46.9734 52.6697 48.5166 52.448C50.2366 52.1753 53.8115 50.2875 54.5576 48.1749C55.3217 46.0624 55.3217 44.3094 55.097 43.9049C54.8752 43.5004 54.2879 43.2756 53.389 42.8711Z" fill="white"/>
<path d="M62.4175 10.333C39.3773 -11.9401 1.24659 4.2141 1.2316 35.6356C1.2316 41.9163 2.87669 48.0412 6.01105 53.4499L0.928955 71.9144L19.9119 66.9642C43.5994 79.7593 72.8334 62.769 72.8454 35.6536C72.8454 26.1366 69.1297 17.18 62.3725 10.4499L62.4175 10.333ZM66.8583 35.5547C66.8404 58.4271 41.7325 72.7115 21.8746 61.0371L20.7959 60.3958L9.55893 63.3174L12.5704 52.3951L11.8543 51.2714C-0.503381 31.5993 13.6941 5.88915 37.1029 5.88915C45.0557 5.88915 52.52 8.99055 58.1415 14.609C63.7599 20.1795 66.8583 27.6439 66.8583 35.5547Z" fill="white"/>
</g>
<defs>
<clipPath id="clip0">
<rect width="71.9164" height="71.9164" fill="white" transform="translate(0.928955)"/>
</clipPath>
</defs>
</svg>
