<svg width="73" height="73" viewBox="0 0 73 73" fill="none" xmlns="http://www.w3.org/2000/svg">
<g clip-path="url(#clip0)">
<path d="M36.2132 9.3112L36.2098 11.8112L36.2092 11.8112L36.2065 11.8112L36.1952 11.8112L36.149 11.8112L35.9659 11.8112C35.8047 11.8114 35.5666 11.8118 35.2612 11.8129C34.6503 11.8151 33.7702 11.8198 32.6962 11.8303C30.5473 11.8512 27.6272 11.8949 24.5372 11.9859C21.4432 12.0769 18.1994 12.2147 15.397 12.4223C12.5387 12.6341 10.3506 12.9055 9.21942 13.2118C7.09642 13.8334 5.45354 15.4846 4.83478 17.5829C2.90265 27.7286 2.84235 39.9158 4.78979 50.8747C4.79356 50.8873 4.79725 50.9 4.80083 50.9127C5.42046 53.1095 7.06996 54.7701 9.1257 55.3869C9.15081 55.3929 9.17584 55.3993 9.20075 55.4061C10.3123 55.7085 12.501 55.9787 15.3732 56.1907C18.1737 56.3974 21.4202 56.5364 24.5185 56.6295C27.6128 56.7225 30.5391 56.769 32.6931 56.7923C33.7696 56.8039 34.652 56.8097 35.2646 56.8126C35.5709 56.8141 35.8096 56.8148 35.9714 56.8152L36.1551 56.8155L36.2014 56.8155L36.2128 56.8155H36.2154H36.216L36.2161 59.3155L36.2162 56.8155H36.2168H36.2195L36.2308 56.8155L36.277 56.8155L36.4601 56.8152C36.6214 56.8148 36.8595 56.8141 37.1649 56.8126C37.7759 56.8097 38.656 56.8039 39.7299 56.7923C41.8789 56.769 44.7991 56.7225 47.8893 56.6295C50.9836 56.5365 54.2282 56.3974 57.0319 56.1907C59.8857 55.9802 62.0768 55.7123 63.2156 55.4103C65.3378 54.7878 66.9775 53.1389 67.5965 51.0444C68.4923 46.2315 69.0094 40.6711 69.0094 34.9781C69.0094 34.7606 69.0094 34.5599 69.0067 34.3619C69.0064 34.3384 69.0064 34.3148 69.0068 34.2913C69.0094 34.1134 69.0094 33.8952 69.0094 33.6515C69.0094 28.2216 68.5395 22.9051 67.6369 17.7405C67.6341 17.7307 67.6312 17.7209 67.6285 17.7111C67.0088 15.5143 65.3593 13.8537 63.3036 13.2369C63.2791 13.231 63.2547 13.2248 63.2304 13.2182C62.1165 12.916 59.9263 12.6464 57.054 12.4348C54.2531 12.2285 51.0067 12.0897 47.9087 11.9969C44.8147 11.9041 41.889 11.8576 39.7354 11.8344C38.6591 11.8228 37.7769 11.817 37.1645 11.8141C36.8583 11.8126 36.6196 11.8119 36.4579 11.8116L36.2742 11.8112L36.2279 11.8112L36.2166 11.8112L36.2139 11.8112H36.2133L36.2132 9.3112ZM36.2132 9.3112L36.2099 11.8112H36.2132V9.3112ZM26.6422 45.0525C26.6422 45.9468 27.1198 46.7729 27.8948 47.2191C28.6698 47.6653 29.6241 47.6636 30.3974 47.2145L48.8433 36.5048C49.6133 36.0577 50.0875 35.2348 50.0881 34.3444C50.0886 33.454 49.6156 32.6305 48.8462 32.1824L30.4003 21.4403C29.627 20.99 28.672 20.9873 27.8962 21.4333C27.1204 21.8792 26.6422 22.7058 26.6422 23.6007V45.0525Z" stroke="black" stroke-width="5" stroke-linejoin="round"/>
</g>
<defs>
<clipPath id="clip0">
<rect width="71.9164" height="71.9164" fill="white" transform="translate(0.154785 0.181152)"/>
</clipPath>
</defs>
</svg>
